<?xml version="1.0" encoding="utf-8" standalone="no"?>
<!DOCTYPE svg PUBLIC "-//W3C//DTD SVG 1.1//EN"
  "http://www.w3.org/Graphics/SVG/1.1/DTD/svg11.dtd">
<svg xmlns:xlink="http://www.w3.org/1999/xlink" width="808.855pt" height="382.122813pt" viewBox="0 0 808.855 382.122813" xmlns="http://www.w3.org/2000/svg" version="1.1">
 <metadata>
  <rdf:RDF xmlns:dc="http://purl.org/dc/elements/1.1/" xmlns:cc="http://creativecommons.org/ns#" xmlns:rdf="http://www.w3.org/1999/02/22-rdf-syntax-ns#">
   <cc:Work>
    <dc:type rdf:resource="http://purl.org/dc/dcmitype/StillImage"/>
    <dc:date>2023-02-01T22:54:22.857804</dc:date>
    <dc:format>image/svg+xml</dc:format>
    <dc:creator>
     <cc:Agent>
      <dc:title>Matplotlib v3.5.3, https://matplotlib.org/</dc:title>
     </cc:Agent>
    </dc:creator>
   </cc:Work>
  </rdf:RDF>
 </metadata>
 <defs>
  <style type="text/css">*{stroke-linejoin: round; stroke-linecap: butt}</style>
 </defs>
 <g id="figure_1">
  <g id="patch_1">
   <path d="M 0 382.122813 
L 808.855 382.122813 
L 808.855 0 
L 0 0 
z
" style="fill: #f1f7f9"/>
  </g>
  <g id="axes_1">
   <g id="patch_2">
    <path d="M 76.255 352.945313 
L 801.655 352.945313 
L 801.655 20.305313 
L 76.255 20.305313 
z
" style="fill: #f1f7f9"/>
   </g>
   <g id="matplotlib.axis_1">
    <g id="xtick_1">
     <g id="line2d_1">
      <defs>
       <path id="me72fda0abc" d="M 0 0 
L 0 3.5 
" style="stroke: #000000; stroke-width: 0.8"/>
      </defs>
      <g>
       <use xlink:href="#me72fda0abc" x="154.707351" y="352.945313" style="stroke: #000000; stroke-width: 0.8"/>
      </g>
     </g>
     <g id="text_1">
      <!-- 10-19 -->
      <g style="fill: #555555" transform="translate(135.707351 371.817813)scale(0.16 -0.16)">
       <defs>
        <path id="Montserrat-Regular-31" d="M 58 4480 
L 58 4070 
L 1114 4070 
L 1114 0 
L 1574 0 
L 1574 4480 
L 58 4480 
z
" transform="scale(0.015625)"/>
        <path id="Montserrat-Regular-30" d="M 2118 -38 
C 3155 -38 3910 813 3910 2240 
C 3910 3667 3155 4518 2118 4518 
C 1082 4518 333 3667 333 2240 
C 333 813 1082 -38 2118 -38 
z
M 2118 384 
C 1338 384 800 1043 800 2240 
C 800 3437 1338 4096 2118 4096 
C 2899 4096 3437 3437 3437 2240 
C 3437 1043 2899 384 2118 384 
z
" transform="scale(0.015625)"/>
        <path id="Montserrat-Regular-2d" d="M 384 1536 
L 2061 1536 
L 2061 1933 
L 384 1933 
L 384 1536 
z
" transform="scale(0.015625)"/>
        <path id="Montserrat-Regular-39" d="M 1728 4518 
C 858 4518 198 3981 198 3142 
C 198 2323 819 1798 1709 1798 
C 2330 1798 2854 2074 3078 2566 
C 3091 2432 3098 2304 3098 2202 
C 3098 986 2477 365 1510 365 
C 1178 365 870 422 640 576 
L 454 205 
C 736 32 1114 -38 1517 -38 
C 2733 -38 3565 755 3565 2278 
C 3565 3693 2918 4518 1728 4518 
z
M 1779 2189 
C 1088 2189 653 2566 653 3155 
C 653 3750 1101 4128 1747 4128 
C 2522 4128 2931 3661 2931 3168 
C 2931 2611 2464 2189 1779 2189 
z
" transform="scale(0.015625)"/>
       </defs>
       <use xlink:href="#Montserrat-Regular-31"/>
       <use xlink:href="#Montserrat-Regular-30" x="36.099991"/>
       <use xlink:href="#Montserrat-Regular-2d" x="102.299988"/>
       <use xlink:href="#Montserrat-Regular-31" x="140.499985"/>
       <use xlink:href="#Montserrat-Regular-39" x="176.599976"/>
      </g>
     </g>
    </g>
    <g id="xtick_2">
     <g id="line2d_2">
      <g>
       <use xlink:href="#me72fda0abc" x="268.406411" y="352.945313" style="stroke: #000000; stroke-width: 0.8"/>
      </g>
     </g>
     <g id="text_2">
      <!-- 20-29 -->
      <g style="fill: #555555" transform="translate(246.093911 371.817813)scale(0.16 -0.16)">
       <defs>
        <path id="Montserrat-Regular-32" d="M 928 410 
L 2451 1907 
C 3053 2496 3187 2880 3187 3309 
C 3187 4058 2611 4518 1702 4518 
C 1018 4518 461 4288 115 3878 
L 442 3597 
C 736 3936 1139 4096 1664 4096 
C 2349 4096 2714 3776 2714 3258 
C 2714 2950 2618 2650 2112 2150 
L 250 326 
L 250 0 
L 3392 0 
L 3392 410 
L 928 410 
z
" transform="scale(0.015625)"/>
       </defs>
       <use xlink:href="#Montserrat-Regular-32"/>
       <use xlink:href="#Montserrat-Regular-30" x="56.799988"/>
       <use xlink:href="#Montserrat-Regular-2d" x="122.999985"/>
       <use xlink:href="#Montserrat-Regular-32" x="161.199982"/>
       <use xlink:href="#Montserrat-Regular-39" x="217.999969"/>
      </g>
     </g>
    </g>
    <g id="xtick_3">
     <g id="line2d_3">
      <g>
       <use xlink:href="#me72fda0abc" x="382.10547" y="352.945313" style="stroke: #000000; stroke-width: 0.8"/>
      </g>
     </g>
     <g id="text_3">
      <!-- 30-39 -->
      <g style="fill: #555555" transform="translate(359.85547 371.817813)scale(0.16 -0.16)">
       <defs>
        <path id="Montserrat-Regular-33" d="M 1856 2560 
L 3123 4154 
L 3123 4480 
L 243 4480 
L 243 4070 
L 2534 4070 
L 1293 2515 
L 1293 2176 
L 1613 2176 
C 2445 2176 2822 1824 2822 1286 
C 2822 730 2413 384 1670 384 
C 1088 384 570 602 282 902 
L 58 538 
C 403 186 1024 -38 1670 -38 
C 2752 -38 3296 538 3296 1286 
C 3296 2003 2816 2509 1856 2560 
z
" transform="scale(0.015625)"/>
       </defs>
       <use xlink:href="#Montserrat-Regular-33"/>
       <use xlink:href="#Montserrat-Regular-30" x="56.399994"/>
       <use xlink:href="#Montserrat-Regular-2d" x="122.599991"/>
       <use xlink:href="#Montserrat-Regular-33" x="160.799988"/>
       <use xlink:href="#Montserrat-Regular-39" x="217.199982"/>
      </g>
     </g>
    </g>
    <g id="xtick_4">
     <g id="line2d_4">
      <g>
       <use xlink:href="#me72fda0abc" x="495.80453" y="352.945313" style="stroke: #000000; stroke-width: 0.8"/>
      </g>
     </g>
     <g id="text_4">
      <!-- 40-49 -->
      <g style="fill: #555555" transform="translate(472.00453 371.817813)scale(0.16 -0.16)">
       <defs>
        <path id="Montserrat-Regular-34" d="M 4141 1587 
L 3245 1587 
L 3245 2624 
L 2797 2624 
L 2797 1587 
L 851 1587 
L 3142 4480 
L 2630 4480 
L 256 1510 
L 256 1178 
L 2784 1178 
L 2784 0 
L 3245 0 
L 3245 1178 
L 4141 1178 
L 4141 1587 
z
" transform="scale(0.015625)"/>
       </defs>
       <use xlink:href="#Montserrat-Regular-34"/>
       <use xlink:href="#Montserrat-Regular-30" x="66.099991"/>
       <use xlink:href="#Montserrat-Regular-2d" x="132.299988"/>
       <use xlink:href="#Montserrat-Regular-34" x="170.499985"/>
       <use xlink:href="#Montserrat-Regular-39" x="236.599976"/>
      </g>
     </g>
    </g>
    <g id="xtick_5">
     <g id="line2d_5">
      <g>
       <use xlink:href="#me72fda0abc" x="609.503589" y="352.945313" style="stroke: #000000; stroke-width: 0.8"/>
      </g>
     </g>
     <g id="text_5">
      <!-- 50-59 -->
      <g style="fill: #555555" transform="translate(587.223589 371.817813)scale(0.16 -0.16)">
       <defs>
        <path id="Montserrat-Regular-35" d="M 1510 2643 
L 934 2643 
L 1088 4070 
L 3136 4070 
L 3136 4480 
L 685 4480 
L 454 2234 
L 1408 2234 
C 2547 2234 2906 1875 2906 1299 
C 2906 755 2502 384 1741 384 
C 1165 384 653 602 365 902 
L 141 538 
C 486 186 1101 -38 1747 -38 
C 2842 -38 3373 557 3373 1318 
C 3373 2112 2861 2643 1510 2643 
z
" transform="scale(0.015625)"/>
       </defs>
       <use xlink:href="#Montserrat-Regular-35"/>
       <use xlink:href="#Montserrat-Regular-30" x="56.599991"/>
       <use xlink:href="#Montserrat-Regular-2d" x="122.799988"/>
       <use xlink:href="#Montserrat-Regular-35" x="160.999985"/>
       <use xlink:href="#Montserrat-Regular-39" x="217.599976"/>
      </g>
     </g>
    </g>
    <g id="xtick_6">
     <g id="line2d_6">
      <g>
       <use xlink:href="#me72fda0abc" x="723.202649" y="352.945313" style="stroke: #000000; stroke-width: 0.8"/>
      </g>
     </g>
     <g id="text_6">
      <!-- 60-69 -->
      <g style="fill: #555555" transform="translate(700.232649 371.817813)scale(0.16 -0.16)">
       <defs>
        <path id="Montserrat-Regular-36" d="M 2189 2682 
C 1568 2682 1043 2406 819 1914 
C 806 2048 800 2176 800 2278 
C 800 3494 1421 4115 2387 4115 
C 2720 4115 3027 4058 3258 3904 
L 3443 4275 
C 3162 4448 2784 4518 2381 4518 
C 1165 4518 333 3725 333 2202 
C 333 787 979 -38 2170 -38 
C 3040 -38 3699 499 3699 1338 
C 3699 2157 3078 2682 2189 2682 
z
M 2150 352 
C 1376 352 966 819 966 1312 
C 966 1869 1434 2291 2118 2291 
C 2810 2291 3245 1914 3245 1325 
C 3245 730 2797 352 2150 352 
z
" transform="scale(0.015625)"/>
       </defs>
       <use xlink:href="#Montserrat-Regular-36"/>
       <use xlink:href="#Montserrat-Regular-30" x="60.899994"/>
       <use xlink:href="#Montserrat-Regular-2d" x="127.099991"/>
       <use xlink:href="#Montserrat-Regular-36" x="165.299988"/>
       <use xlink:href="#Montserrat-Regular-39" x="226.199982"/>
      </g>
     </g>
    </g>
   </g>
   <g id="matplotlib.axis_2">
    <g id="ytick_1">
     <g id="line2d_7">
      <path d="M 76.255 352.945313 
L 801.655 352.945313 
" clip-path="url(#pd6d5b2f827)" style="fill: none; stroke-dasharray: 1.85,0.8; stroke-dashoffset: 0; stroke: #b7b7b7; stroke-width: 0.5"/>
     </g>
     <g id="line2d_8">
      <defs>
       <path id="m2e5a61dd16" d="M 0 0 
L -3.5 0 
" style="stroke: #b7b7b7; stroke-width: 0.8"/>
      </defs>
      <g>
       <use xlink:href="#m2e5a61dd16" x="76.255" y="352.945313" style="fill: #b7b7b7; stroke: #b7b7b7; stroke-width: 0.8"/>
      </g>
     </g>
     <g id="text_7">
      <!-- 0 -->
      <g style="fill: #b7b7b7" transform="translate(58.6625 358.881563)scale(0.16 -0.16)">
       <use xlink:href="#Montserrat-Regular-30"/>
      </g>
     </g>
    </g>
    <g id="ytick_2">
     <g id="line2d_9">
      <path d="M 76.255 286.417313 
L 801.655 286.417313 
" clip-path="url(#pd6d5b2f827)" style="fill: none; stroke-dasharray: 1.85,0.8; stroke-dashoffset: 0; stroke: #b7b7b7; stroke-width: 0.5"/>
     </g>
     <g id="line2d_10">
      <g>
       <use xlink:href="#m2e5a61dd16" x="76.255" y="286.417313" style="fill: #b7b7b7; stroke: #b7b7b7; stroke-width: 0.8"/>
      </g>
     </g>
     <g id="text_8">
      <!-- 20 -->
      <g style="fill: #b7b7b7" transform="translate(49.575 292.353563)scale(0.16 -0.16)">
       <use xlink:href="#Montserrat-Regular-32"/>
       <use xlink:href="#Montserrat-Regular-30" x="56.799988"/>
      </g>
     </g>
    </g>
    <g id="ytick_3">
     <g id="line2d_11">
      <path d="M 76.255 219.889313 
L 801.655 219.889313 
" clip-path="url(#pd6d5b2f827)" style="fill: none; stroke-dasharray: 1.85,0.8; stroke-dashoffset: 0; stroke: #b7b7b7; stroke-width: 0.5"/>
     </g>
     <g id="line2d_12">
      <g>
       <use xlink:href="#m2e5a61dd16" x="76.255" y="219.889313" style="fill: #b7b7b7; stroke: #b7b7b7; stroke-width: 0.8"/>
      </g>
     </g>
     <g id="text_9">
      <!-- 40 -->
      <g style="fill: #b7b7b7" transform="translate(48.0875 225.825563)scale(0.16 -0.16)">
       <use xlink:href="#Montserrat-Regular-34"/>
       <use xlink:href="#Montserrat-Regular-30" x="66.099991"/>
      </g>
     </g>
    </g>
    <g id="ytick_4">
     <g id="line2d_13">
      <path d="M 76.255 153.361313 
L 801.655 153.361313 
" clip-path="url(#pd6d5b2f827)" style="fill: none; stroke-dasharray: 1.85,0.8; stroke-dashoffset: 0; stroke: #b7b7b7; stroke-width: 0.5"/>
     </g>
     <g id="line2d_14">
      <g>
       <use xlink:href="#m2e5a61dd16" x="76.255" y="153.361313" style="fill: #b7b7b7; stroke: #b7b7b7; stroke-width: 0.8"/>
      </g>
     </g>
     <g id="text_10">
      <!-- 60 -->
      <g style="fill: #b7b7b7" transform="translate(48.9175 159.297563)scale(0.16 -0.16)">
       <use xlink:href="#Montserrat-Regular-36"/>
       <use xlink:href="#Montserrat-Regular-30" x="60.899994"/>
      </g>
     </g>
    </g>
    <g id="ytick_5">
     <g id="line2d_15">
      <path d="M 76.255 86.833313 
L 801.655 86.833313 
" clip-path="url(#pd6d5b2f827)" style="fill: none; stroke-dasharray: 1.85,0.8; stroke-dashoffset: 0; stroke: #b7b7b7; stroke-width: 0.5"/>
     </g>
     <g id="line2d_16">
      <g>
       <use xlink:href="#m2e5a61dd16" x="76.255" y="86.833313" style="fill: #b7b7b7; stroke: #b7b7b7; stroke-width: 0.8"/>
      </g>
     </g>
     <g id="text_11">
      <!-- 80 -->
      <g style="fill: #b7b7b7" transform="translate(48.455 92.769563)scale(0.16 -0.16)">
       <defs>
        <path id="Montserrat-Regular-38" d="M 2899 2349 
C 3360 2528 3616 2867 3616 3334 
C 3616 4064 2982 4518 2035 4518 
C 1088 4518 467 4064 467 3334 
C 467 2867 717 2528 1171 2349 
C 614 2163 307 1786 307 1248 
C 307 454 960 -38 2035 -38 
C 3104 -38 3776 454 3776 1248 
C 3776 1779 3462 2163 2899 2349 
z
M 928 3322 
C 928 3821 1357 4128 2035 4128 
C 2707 4128 3149 3821 3149 3315 
C 3149 2829 2733 2515 2035 2515 
C 1338 2515 928 2829 928 3322 
z
M 2035 352 
C 1242 352 774 698 774 1254 
C 774 1805 1242 2150 2035 2150 
C 2829 2150 3302 1805 3302 1254 
C 3302 698 2829 352 2035 352 
z
" transform="scale(0.015625)"/>
       </defs>
       <use xlink:href="#Montserrat-Regular-38"/>
       <use xlink:href="#Montserrat-Regular-30" x="63.799988"/>
      </g>
     </g>
    </g>
    <g id="ytick_6">
     <g id="line2d_17">
      <path d="M 76.255 20.305313 
L 801.655 20.305313 
" clip-path="url(#pd6d5b2f827)" style="fill: none; stroke-dasharray: 1.85,0.8; stroke-dashoffset: 0; stroke: #b7b7b7; stroke-width: 0.5"/>
     </g>
     <g id="line2d_18">
      <g>
       <use xlink:href="#m2e5a61dd16" x="76.255" y="20.305313" style="fill: #b7b7b7; stroke: #b7b7b7; stroke-width: 0.8"/>
      </g>
     </g>
     <g id="text_12">
      <!-- 100 -->
      <g style="fill: #b7b7b7" transform="translate(42.295 26.241562)scale(0.16 -0.16)">
       <use xlink:href="#Montserrat-Regular-31"/>
       <use xlink:href="#Montserrat-Regular-30" x="36.099991"/>
       <use xlink:href="#Montserrat-Regular-30" x="102.299988"/>
      </g>
     </g>
    </g>
    <g id="text_13">
     <!-- [%] -->
     <g style="fill: #b7b7b7" transform="translate(7.2 182.744063)scale(0.2 -0.2)">
      <defs>
       <path id="Montserrat-Regular-5b" d="M 730 -1242 
L 1901 -1242 
L 1901 -864 
L 1184 -864 
L 1184 4371 
L 1901 4371 
L 1901 4749 
L 730 4749 
L 730 -1242 
z
" transform="scale(0.015625)"/>
       <path id="Montserrat-Regular-25" d="M 1280 2080 
C 1875 2080 2291 2560 2291 3296 
C 2291 4032 1875 4512 1280 4512 
C 678 4512 269 4026 269 3296 
C 269 2566 678 2080 1280 2080 
z
M 934 0 
L 1312 0 
L 4371 4480 
L 3994 4480 
L 934 0 
z
M 1280 2368 
C 858 2368 589 2720 589 3296 
C 589 3872 858 4224 1280 4224 
C 1696 4224 1971 3878 1971 3296 
C 1971 2714 1696 2368 1280 2368 
z
M 4026 -32 
C 4627 -32 5037 454 5037 1184 
C 5037 1914 4627 2400 4026 2400 
C 3430 2400 3014 1914 3014 1184 
C 3014 454 3430 -32 4026 -32 
z
M 4026 256 
C 3610 256 3334 602 3334 1184 
C 3334 1766 3610 2112 4026 2112 
C 4448 2112 4717 1760 4717 1184 
C 4717 608 4448 256 4026 256 
z
" transform="scale(0.015625)"/>
       <path id="Montserrat-Regular-5d" d="M 1306 -1242 
L 1306 4749 
L 134 4749 
L 134 4371 
L 851 4371 
L 851 -864 
L 134 -864 
L 134 -1242 
L 1306 -1242 
z
" transform="scale(0.015625)"/>
      </defs>
      <use xlink:href="#Montserrat-Regular-5b"/>
      <use xlink:href="#Montserrat-Regular-25" x="31.799988"/>
      <use xlink:href="#Montserrat-Regular-5d" x="114.699982"/>
     </g>
    </g>
   </g>
   <g id="patch_3">
    <path d="M 109.227727 352.945313 
L 200.186975 352.945313 
L 200.186975 20.305313 
L 109.227727 20.305313 
z
" clip-path="url(#pd6d5b2f827)" style="fill: #b1e5f4"/>
   </g>
   <g id="patch_4">
    <path d="M 222.926787 352.945313 
L 313.886034 352.945313 
L 313.886034 326.957813 
L 222.926787 326.957813 
z
" clip-path="url(#pd6d5b2f827)" style="fill: #b1e5f4"/>
   </g>
   <g id="patch_5">
    <path d="M 336.625846 352.945313 
L 427.585094 352.945313 
L 427.585094 338.968842 
L 336.625846 338.968842 
z
" clip-path="url(#pd6d5b2f827)" style="fill: #b1e5f4"/>
   </g>
   <g id="patch_6">
    <path d="M 450.324906 352.945313 
L 541.284154 352.945313 
L 541.284154 327.656891 
L 450.324906 327.656891 
z
" clip-path="url(#pd6d5b2f827)" style="fill: #b1e5f4"/>
   </g>
   <g id="patch_7">
    <path d="M 564.023966 352.945313 
L 654.983213 352.945313 
L 654.983213 332.369642 
L 564.023966 332.369642 
z
" clip-path="url(#pd6d5b2f827)" style="fill: #b1e5f4"/>
   </g>
   <g id="patch_8">
    <path d="M 677.723025 352.945313 
L 768.682273 352.945313 
L 768.682273 286.417313 
L 677.723025 286.417313 
z
" clip-path="url(#pd6d5b2f827)" style="fill: #b1e5f4"/>
   </g>
   <g id="text_14">
    <!-- 100% -->
    <g style="fill: #555555" transform="translate(137.108914 17.588437)scale(0.14 -0.14)">
     <use xlink:href="#Montserrat-Regular-31"/>
     <use xlink:href="#Montserrat-Regular-30" x="36.099991"/>
     <use xlink:href="#Montserrat-Regular-30" x="102.299988"/>
     <use xlink:href="#Montserrat-Regular-25" x="168.499985"/>
    </g>
   </g>
   <g id="text_15">
    <!-- 8% -->
    <g style="fill: #555555" transform="translate(258.137192 324.240938)scale(0.14 -0.14)">
     <use xlink:href="#Montserrat-Regular-38"/>
     <use xlink:href="#Montserrat-Regular-25" x="63.799988"/>
    </g>
   </g>
   <g id="text_16">
    <!-- 4% -->
    <g style="fill: #555555" transform="translate(371.67547 336.251967)scale(0.14 -0.14)">
     <use xlink:href="#Montserrat-Regular-34"/>
     <use xlink:href="#Montserrat-Regular-25" x="66.099991"/>
    </g>
   </g>
   <g id="text_17">
    <!-- 8% -->
    <g style="fill: #555555" transform="translate(485.535311 324.940016)scale(0.14 -0.14)">
     <use xlink:href="#Montserrat-Regular-38"/>
     <use xlink:href="#Montserrat-Regular-25" x="63.799988"/>
    </g>
   </g>
   <g id="text_18">
    <!-- 6% -->
    <g style="fill: #555555" transform="translate(599.436714 329.652767)scale(0.14 -0.14)">
     <use xlink:href="#Montserrat-Regular-36"/>
     <use xlink:href="#Montserrat-Regular-25" x="60.899994"/>
    </g>
   </g>
   <g id="text_19">
    <!-- 20% -->
    <g style="fill: #555555" transform="translate(708.789211 283.700438)scale(0.14 -0.14)">
     <use xlink:href="#Montserrat-Regular-32"/>
     <use xlink:href="#Montserrat-Regular-30" x="56.799988"/>
     <use xlink:href="#Montserrat-Regular-25" x="122.999985"/>
    </g>
   </g>
   <g id="line2d_19">
    <path d="M 76.255 352.945313 
L 801.655 352.945313 
" style="fill: none; stroke: #555555; stroke-width: 3; stroke-linecap: square"/>
   </g>
  </g>
 </g>
 <defs>
  <clipPath id="pd6d5b2f827">
   <rect x="76.255" y="20.305313" width="725.4" height="332.64"/>
  </clipPath>
 </defs>
</svg>
