<?xml version="1.0" encoding="utf-8" standalone="no"?>
<!DOCTYPE svg PUBLIC "-//W3C//DTD SVG 1.1//EN"
  "http://www.w3.org/Graphics/SVG/1.1/DTD/svg11.dtd">
<svg xmlns:xlink="http://www.w3.org/1999/xlink" width="748.87pt" height="382.122813pt" viewBox="0 0 748.87 382.122813" xmlns="http://www.w3.org/2000/svg" version="1.1">
 <metadata>
  <rdf:RDF xmlns:dc="http://purl.org/dc/elements/1.1/" xmlns:cc="http://creativecommons.org/ns#" xmlns:rdf="http://www.w3.org/1999/02/22-rdf-syntax-ns#">
   <cc:Work>
    <dc:type rdf:resource="http://purl.org/dc/dcmitype/StillImage"/>
    <dc:date>2023-02-01T21:06:31.117865</dc:date>
    <dc:format>image/svg+xml</dc:format>
    <dc:creator>
     <cc:Agent>
      <dc:title>Matplotlib v3.5.3, https://matplotlib.org/</dc:title>
     </cc:Agent>
    </dc:creator>
   </cc:Work>
  </rdf:RDF>
 </metadata>
 <defs>
  <style type="text/css">*{stroke-linejoin: round; stroke-linecap: butt}</style>
 </defs>
 <g id="figure_1">
  <g id="patch_1">
   <path d="M 0 382.122813 
L 748.87 382.122813 
L 748.87 0 
L 0 0 
z
" style="fill: #f1f7f9"/>
  </g>
  <g id="axes_1">
   <g id="patch_2">
    <path d="M 72.07 352.945313 
L 741.67 352.945313 
L 741.67 20.305313 
L 72.07 20.305313 
z
" style="fill: #f1f7f9"/>
   </g>
   <g id="matplotlib.axis_1">
    <g id="xtick_1">
     <g id="line2d_1">
      <defs>
       <path id="m8c918c113c" d="M 0 0 
L 0 3.5 
" style="stroke: #000000; stroke-width: 0.8"/>
      </defs>
      <g>
       <use xlink:href="#m8c918c113c" x="144.487555" y="352.945313" style="stroke: #000000; stroke-width: 0.8"/>
      </g>
     </g>
     <g id="text_1">
      <!-- 10-19 -->
      <g style="fill: #555555" transform="translate(125.487555 371.817813)scale(0.16 -0.16)">
       <defs>
        <path id="Montserrat-Regular-31" d="M 58 4480 
L 58 4070 
L 1114 4070 
L 1114 0 
L 1574 0 
L 1574 4480 
L 58 4480 
z
" transform="scale(0.015625)"/>
        <path id="Montserrat-Regular-30" d="M 2118 -38 
C 3155 -38 3910 813 3910 2240 
C 3910 3667 3155 4518 2118 4518 
C 1082 4518 333 3667 333 2240 
C 333 813 1082 -38 2118 -38 
z
M 2118 384 
C 1338 384 800 1043 800 2240 
C 800 3437 1338 4096 2118 4096 
C 2899 4096 3437 3437 3437 2240 
C 3437 1043 2899 384 2118 384 
z
" transform="scale(0.015625)"/>
        <path id="Montserrat-Regular-2d" d="M 384 1536 
L 2061 1536 
L 2061 1933 
L 384 1933 
L 384 1536 
z
" transform="scale(0.015625)"/>
        <path id="Montserrat-Regular-39" d="M 1728 4518 
C 858 4518 198 3981 198 3142 
C 198 2323 819 1798 1709 1798 
C 2330 1798 2854 2074 3078 2566 
C 3091 2432 3098 2304 3098 2202 
C 3098 986 2477 365 1510 365 
C 1178 365 870 422 640 576 
L 454 205 
C 736 32 1114 -38 1517 -38 
C 2733 -38 3565 755 3565 2278 
C 3565 3693 2918 4518 1728 4518 
z
M 1779 2189 
C 1088 2189 653 2566 653 3155 
C 653 3750 1101 4128 1747 4128 
C 2522 4128 2931 3661 2931 3168 
C 2931 2611 2464 2189 1779 2189 
z
" transform="scale(0.015625)"/>
       </defs>
       <use xlink:href="#Montserrat-Regular-31"/>
       <use xlink:href="#Montserrat-Regular-30" x="36.099991"/>
       <use xlink:href="#Montserrat-Regular-2d" x="102.299988"/>
       <use xlink:href="#Montserrat-Regular-31" x="140.499985"/>
       <use xlink:href="#Montserrat-Regular-39" x="176.599976"/>
      </g>
     </g>
    </g>
    <g id="xtick_2">
     <g id="line2d_2">
      <g>
       <use xlink:href="#m8c918c113c" x="249.440533" y="352.945313" style="stroke: #000000; stroke-width: 0.8"/>
      </g>
     </g>
     <g id="text_2">
      <!-- 20-29 -->
      <g style="fill: #555555" transform="translate(227.128033 371.817813)scale(0.16 -0.16)">
       <defs>
        <path id="Montserrat-Regular-32" d="M 928 410 
L 2451 1907 
C 3053 2496 3187 2880 3187 3309 
C 3187 4058 2611 4518 1702 4518 
C 1018 4518 461 4288 115 3878 
L 442 3597 
C 736 3936 1139 4096 1664 4096 
C 2349 4096 2714 3776 2714 3258 
C 2714 2950 2618 2650 2112 2150 
L 250 326 
L 250 0 
L 3392 0 
L 3392 410 
L 928 410 
z
" transform="scale(0.015625)"/>
       </defs>
       <use xlink:href="#Montserrat-Regular-32"/>
       <use xlink:href="#Montserrat-Regular-30" x="56.799988"/>
       <use xlink:href="#Montserrat-Regular-2d" x="122.999985"/>
       <use xlink:href="#Montserrat-Regular-32" x="161.199982"/>
       <use xlink:href="#Montserrat-Regular-39" x="217.999969"/>
      </g>
     </g>
    </g>
    <g id="xtick_3">
     <g id="line2d_3">
      <g>
       <use xlink:href="#m8c918c113c" x="354.393511" y="352.945313" style="stroke: #000000; stroke-width: 0.8"/>
      </g>
     </g>
     <g id="text_3">
      <!-- 30-39 -->
      <g style="fill: #555555" transform="translate(332.143511 371.817813)scale(0.16 -0.16)">
       <defs>
        <path id="Montserrat-Regular-33" d="M 1856 2560 
L 3123 4154 
L 3123 4480 
L 243 4480 
L 243 4070 
L 2534 4070 
L 1293 2515 
L 1293 2176 
L 1613 2176 
C 2445 2176 2822 1824 2822 1286 
C 2822 730 2413 384 1670 384 
C 1088 384 570 602 282 902 
L 58 538 
C 403 186 1024 -38 1670 -38 
C 2752 -38 3296 538 3296 1286 
C 3296 2003 2816 2509 1856 2560 
z
" transform="scale(0.015625)"/>
       </defs>
       <use xlink:href="#Montserrat-Regular-33"/>
       <use xlink:href="#Montserrat-Regular-30" x="56.399994"/>
       <use xlink:href="#Montserrat-Regular-2d" x="122.599991"/>
       <use xlink:href="#Montserrat-Regular-33" x="160.799988"/>
       <use xlink:href="#Montserrat-Regular-39" x="217.199982"/>
      </g>
     </g>
    </g>
    <g id="xtick_4">
     <g id="line2d_4">
      <g>
       <use xlink:href="#m8c918c113c" x="459.346489" y="352.945313" style="stroke: #000000; stroke-width: 0.8"/>
      </g>
     </g>
     <g id="text_4">
      <!-- 40-49 -->
      <g style="fill: #555555" transform="translate(435.546489 371.817813)scale(0.16 -0.16)">
       <defs>
        <path id="Montserrat-Regular-34" d="M 4141 1587 
L 3245 1587 
L 3245 2624 
L 2797 2624 
L 2797 1587 
L 851 1587 
L 3142 4480 
L 2630 4480 
L 256 1510 
L 256 1178 
L 2784 1178 
L 2784 0 
L 3245 0 
L 3245 1178 
L 4141 1178 
L 4141 1587 
z
" transform="scale(0.015625)"/>
       </defs>
       <use xlink:href="#Montserrat-Regular-34"/>
       <use xlink:href="#Montserrat-Regular-30" x="66.099991"/>
       <use xlink:href="#Montserrat-Regular-2d" x="132.299988"/>
       <use xlink:href="#Montserrat-Regular-34" x="170.499985"/>
       <use xlink:href="#Montserrat-Regular-39" x="236.599976"/>
      </g>
     </g>
    </g>
    <g id="xtick_5">
     <g id="line2d_5">
      <g>
       <use xlink:href="#m8c918c113c" x="564.299467" y="352.945313" style="stroke: #000000; stroke-width: 0.8"/>
      </g>
     </g>
     <g id="text_5">
      <!-- 50-59 -->
      <g style="fill: #555555" transform="translate(542.019467 371.817813)scale(0.16 -0.16)">
       <defs>
        <path id="Montserrat-Regular-35" d="M 1510 2643 
L 934 2643 
L 1088 4070 
L 3136 4070 
L 3136 4480 
L 685 4480 
L 454 2234 
L 1408 2234 
C 2547 2234 2906 1875 2906 1299 
C 2906 755 2502 384 1741 384 
C 1165 384 653 602 365 902 
L 141 538 
C 486 186 1101 -38 1747 -38 
C 2842 -38 3373 557 3373 1318 
C 3373 2112 2861 2643 1510 2643 
z
" transform="scale(0.015625)"/>
       </defs>
       <use xlink:href="#Montserrat-Regular-35"/>
       <use xlink:href="#Montserrat-Regular-30" x="56.599991"/>
       <use xlink:href="#Montserrat-Regular-2d" x="122.799988"/>
       <use xlink:href="#Montserrat-Regular-35" x="160.999985"/>
       <use xlink:href="#Montserrat-Regular-39" x="217.599976"/>
      </g>
     </g>
    </g>
    <g id="xtick_6">
     <g id="line2d_6">
      <g>
       <use xlink:href="#m8c918c113c" x="669.252445" y="352.945313" style="stroke: #000000; stroke-width: 0.8"/>
      </g>
     </g>
     <g id="text_6">
      <!-- 60-69 -->
      <g style="fill: #555555" transform="translate(646.282445 371.817813)scale(0.16 -0.16)">
       <defs>
        <path id="Montserrat-Regular-36" d="M 2189 2682 
C 1568 2682 1043 2406 819 1914 
C 806 2048 800 2176 800 2278 
C 800 3494 1421 4115 2387 4115 
C 2720 4115 3027 4058 3258 3904 
L 3443 4275 
C 3162 4448 2784 4518 2381 4518 
C 1165 4518 333 3725 333 2202 
C 333 787 979 -38 2170 -38 
C 3040 -38 3699 499 3699 1338 
C 3699 2157 3078 2682 2189 2682 
z
M 2150 352 
C 1376 352 966 819 966 1312 
C 966 1869 1434 2291 2118 2291 
C 2810 2291 3245 1914 3245 1325 
C 3245 730 2797 352 2150 352 
z
" transform="scale(0.015625)"/>
       </defs>
       <use xlink:href="#Montserrat-Regular-36"/>
       <use xlink:href="#Montserrat-Regular-30" x="60.899994"/>
       <use xlink:href="#Montserrat-Regular-2d" x="127.099991"/>
       <use xlink:href="#Montserrat-Regular-36" x="165.299988"/>
       <use xlink:href="#Montserrat-Regular-39" x="226.199982"/>
      </g>
     </g>
    </g>
   </g>
   <g id="matplotlib.axis_2">
    <g id="ytick_1">
     <g id="line2d_7">
      <path d="M 72.07 352.945313 
L 741.67 352.945313 
" clip-path="url(#p2f436239bb)" style="fill: none; stroke-dasharray: 1.85,0.8; stroke-dashoffset: 0; stroke: #b7b7b7; stroke-width: 0.5"/>
     </g>
     <g id="line2d_8">
      <defs>
       <path id="m089d7f2e99" d="M 0 0 
L -3.5 0 
" style="stroke: #b7b7b7; stroke-width: 0.8"/>
      </defs>
      <g>
       <use xlink:href="#m089d7f2e99" x="72.07" y="352.945313" style="fill: #b7b7b7; stroke: #b7b7b7; stroke-width: 0.8"/>
      </g>
     </g>
     <g id="text_7">
      <!-- 0.0 -->
      <g style="fill: #b7b7b7" transform="translate(40.4925 358.881563)scale(0.16 -0.16)">
       <defs>
        <path id="Montserrat-Regular-2e" d="M 678 -32 
C 864 -32 1024 122 1024 320 
C 1024 518 864 666 678 666 
C 493 666 339 518 339 320 
C 339 122 493 -32 678 -32 
z
" transform="scale(0.015625)"/>
       </defs>
       <use xlink:href="#Montserrat-Regular-30"/>
       <use xlink:href="#Montserrat-Regular-2e" x="66.199997"/>
       <use xlink:href="#Montserrat-Regular-30" x="87.399994"/>
      </g>
     </g>
    </g>
    <g id="ytick_2">
     <g id="line2d_9">
      <path d="M 72.07 314.511907 
L 741.67 314.511907 
" clip-path="url(#p2f436239bb)" style="fill: none; stroke-dasharray: 1.85,0.8; stroke-dashoffset: 0; stroke: #b7b7b7; stroke-width: 0.5"/>
     </g>
     <g id="line2d_10">
      <g>
       <use xlink:href="#m089d7f2e99" x="72.07" y="314.511907" style="fill: #b7b7b7; stroke: #b7b7b7; stroke-width: 0.8"/>
      </g>
     </g>
     <g id="text_8">
      <!-- 2.5 -->
      <g style="fill: #b7b7b7" transform="translate(43.535 320.448157)scale(0.16 -0.16)">
       <use xlink:href="#Montserrat-Regular-32"/>
       <use xlink:href="#Montserrat-Regular-2e" x="56.799988"/>
       <use xlink:href="#Montserrat-Regular-35" x="77.999985"/>
      </g>
     </g>
    </g>
    <g id="ytick_3">
     <g id="line2d_11">
      <path d="M 72.07 276.078502 
L 741.67 276.078502 
" clip-path="url(#p2f436239bb)" style="fill: none; stroke-dasharray: 1.85,0.8; stroke-dashoffset: 0; stroke: #b7b7b7; stroke-width: 0.5"/>
     </g>
     <g id="line2d_12">
      <g>
       <use xlink:href="#m089d7f2e99" x="72.07" y="276.078502" style="fill: #b7b7b7; stroke: #b7b7b7; stroke-width: 0.8"/>
      </g>
     </g>
     <g id="text_9">
      <!-- 5.0 -->
      <g style="fill: #b7b7b7" transform="translate(42.03 282.014752)scale(0.16 -0.16)">
       <use xlink:href="#Montserrat-Regular-35"/>
       <use xlink:href="#Montserrat-Regular-2e" x="56.599991"/>
       <use xlink:href="#Montserrat-Regular-30" x="77.799988"/>
      </g>
     </g>
    </g>
    <g id="ytick_4">
     <g id="line2d_13">
      <path d="M 72.07 237.645096 
L 741.67 237.645096 
" clip-path="url(#p2f436239bb)" style="fill: none; stroke-dasharray: 1.85,0.8; stroke-dashoffset: 0; stroke: #b7b7b7; stroke-width: 0.5"/>
     </g>
     <g id="line2d_14">
      <g>
       <use xlink:href="#m089d7f2e99" x="72.07" y="237.645096" style="fill: #b7b7b7; stroke: #b7b7b7; stroke-width: 0.8"/>
      </g>
     </g>
     <g id="text_10">
      <!-- 7.5 -->
      <g style="fill: #b7b7b7" transform="translate(43.1975 243.581346)scale(0.16 -0.16)">
       <defs>
        <path id="Montserrat-Regular-37" d="M 205 4480 
L 205 3232 
L 659 3232 
L 659 4070 
L 2963 4070 
L 1120 0 
L 1619 0 
L 3494 4154 
L 3494 4480 
L 205 4480 
z
" transform="scale(0.015625)"/>
       </defs>
       <use xlink:href="#Montserrat-Regular-37"/>
       <use xlink:href="#Montserrat-Regular-2e" x="58.899994"/>
       <use xlink:href="#Montserrat-Regular-35" x="80.099991"/>
      </g>
     </g>
    </g>
    <g id="ytick_5">
     <g id="line2d_15">
      <path d="M 72.07 199.211691 
L 741.67 199.211691 
" clip-path="url(#p2f436239bb)" style="fill: none; stroke-dasharray: 1.85,0.8; stroke-dashoffset: 0; stroke: #b7b7b7; stroke-width: 0.5"/>
     </g>
     <g id="line2d_16">
      <g>
       <use xlink:href="#m089d7f2e99" x="72.07" y="199.211691" style="fill: #b7b7b7; stroke: #b7b7b7; stroke-width: 0.8"/>
      </g>
     </g>
     <g id="text_11">
      <!-- 10.0 -->
      <g style="fill: #b7b7b7" transform="translate(34.7175 205.147941)scale(0.16 -0.16)">
       <use xlink:href="#Montserrat-Regular-31"/>
       <use xlink:href="#Montserrat-Regular-30" x="36.099991"/>
       <use xlink:href="#Montserrat-Regular-2e" x="102.299988"/>
       <use xlink:href="#Montserrat-Regular-30" x="123.499985"/>
      </g>
     </g>
    </g>
    <g id="ytick_6">
     <g id="line2d_17">
      <path d="M 72.07 160.778285 
L 741.67 160.778285 
" clip-path="url(#p2f436239bb)" style="fill: none; stroke-dasharray: 1.85,0.8; stroke-dashoffset: 0; stroke: #b7b7b7; stroke-width: 0.5"/>
     </g>
     <g id="line2d_18">
      <g>
       <use xlink:href="#m089d7f2e99" x="72.07" y="160.778285" style="fill: #b7b7b7; stroke: #b7b7b7; stroke-width: 0.8"/>
      </g>
     </g>
     <g id="text_12">
      <!-- 12.5 -->
      <g style="fill: #b7b7b7" transform="translate(37.76 166.714535)scale(0.16 -0.16)">
       <use xlink:href="#Montserrat-Regular-31"/>
       <use xlink:href="#Montserrat-Regular-32" x="36.099991"/>
       <use xlink:href="#Montserrat-Regular-2e" x="92.899979"/>
       <use xlink:href="#Montserrat-Regular-35" x="114.099976"/>
      </g>
     </g>
    </g>
    <g id="ytick_7">
     <g id="line2d_19">
      <path d="M 72.07 122.34488 
L 741.67 122.34488 
" clip-path="url(#p2f436239bb)" style="fill: none; stroke-dasharray: 1.85,0.8; stroke-dashoffset: 0; stroke: #b7b7b7; stroke-width: 0.5"/>
     </g>
     <g id="line2d_20">
      <g>
       <use xlink:href="#m089d7f2e99" x="72.07" y="122.34488" style="fill: #b7b7b7; stroke: #b7b7b7; stroke-width: 0.8"/>
      </g>
     </g>
     <g id="text_13">
      <!-- 15.0 -->
      <g style="fill: #b7b7b7" transform="translate(36.255 128.28113)scale(0.16 -0.16)">
       <use xlink:href="#Montserrat-Regular-31"/>
       <use xlink:href="#Montserrat-Regular-35" x="36.099991"/>
       <use xlink:href="#Montserrat-Regular-2e" x="92.699982"/>
       <use xlink:href="#Montserrat-Regular-30" x="113.899979"/>
      </g>
     </g>
    </g>
    <g id="ytick_8">
     <g id="line2d_21">
      <path d="M 72.07 83.911475 
L 741.67 83.911475 
" clip-path="url(#p2f436239bb)" style="fill: none; stroke-dasharray: 1.85,0.8; stroke-dashoffset: 0; stroke: #b7b7b7; stroke-width: 0.5"/>
     </g>
     <g id="line2d_22">
      <g>
       <use xlink:href="#m089d7f2e99" x="72.07" y="83.911475" style="fill: #b7b7b7; stroke: #b7b7b7; stroke-width: 0.8"/>
      </g>
     </g>
     <g id="text_14">
      <!-- 17.5 -->
      <g style="fill: #b7b7b7" transform="translate(37.4225 89.847725)scale(0.16 -0.16)">
       <use xlink:href="#Montserrat-Regular-31"/>
       <use xlink:href="#Montserrat-Regular-37" x="36.099991"/>
       <use xlink:href="#Montserrat-Regular-2e" x="94.999985"/>
       <use xlink:href="#Montserrat-Regular-35" x="116.199982"/>
      </g>
     </g>
    </g>
    <g id="ytick_9">
     <g id="line2d_23">
      <path d="M 72.07 45.478069 
L 741.67 45.478069 
" clip-path="url(#p2f436239bb)" style="fill: none; stroke-dasharray: 1.85,0.8; stroke-dashoffset: 0; stroke: #b7b7b7; stroke-width: 0.5"/>
     </g>
     <g id="line2d_24">
      <g>
       <use xlink:href="#m089d7f2e99" x="72.07" y="45.478069" style="fill: #b7b7b7; stroke: #b7b7b7; stroke-width: 0.8"/>
      </g>
     </g>
     <g id="text_15">
      <!-- 20.0 -->
      <g style="fill: #b7b7b7" transform="translate(31.405 51.414319)scale(0.16 -0.16)">
       <use xlink:href="#Montserrat-Regular-32"/>
       <use xlink:href="#Montserrat-Regular-30" x="56.799988"/>
       <use xlink:href="#Montserrat-Regular-2e" x="122.999985"/>
       <use xlink:href="#Montserrat-Regular-30" x="144.199982"/>
      </g>
     </g>
    </g>
    <g id="text_16">
     <!-- [%] -->
     <g style="fill: #b7b7b7" transform="translate(7.2 182.744063)scale(0.2 -0.2)">
      <defs>
       <path id="Montserrat-Regular-5b" d="M 730 -1242 
L 1901 -1242 
L 1901 -864 
L 1184 -864 
L 1184 4371 
L 1901 4371 
L 1901 4749 
L 730 4749 
L 730 -1242 
z
" transform="scale(0.015625)"/>
       <path id="Montserrat-Regular-25" d="M 1280 2080 
C 1875 2080 2291 2560 2291 3296 
C 2291 4032 1875 4512 1280 4512 
C 678 4512 269 4026 269 3296 
C 269 2566 678 2080 1280 2080 
z
M 934 0 
L 1312 0 
L 4371 4480 
L 3994 4480 
L 934 0 
z
M 1280 2368 
C 858 2368 589 2720 589 3296 
C 589 3872 858 4224 1280 4224 
C 1696 4224 1971 3878 1971 3296 
C 1971 2714 1696 2368 1280 2368 
z
M 4026 -32 
C 4627 -32 5037 454 5037 1184 
C 5037 1914 4627 2400 4026 2400 
C 3430 2400 3014 1914 3014 1184 
C 3014 454 3430 -32 4026 -32 
z
M 4026 256 
C 3610 256 3334 602 3334 1184 
C 3334 1766 3610 2112 4026 2112 
C 4448 2112 4717 1760 4717 1184 
C 4717 608 4448 256 4026 256 
z
" transform="scale(0.015625)"/>
       <path id="Montserrat-Regular-5d" d="M 1306 -1242 
L 1306 4749 
L 134 4749 
L 134 4371 
L 851 4371 
L 851 -864 
L 134 -864 
L 134 -1242 
L 1306 -1242 
z
" transform="scale(0.015625)"/>
      </defs>
      <use xlink:href="#Montserrat-Regular-5b"/>
      <use xlink:href="#Montserrat-Regular-25" x="31.799988"/>
      <use xlink:href="#Montserrat-Regular-5d" x="114.699982"/>
     </g>
    </g>
   </g>
   <g id="patch_3">
    <path d="M 102.506364 352.945313 
L 186.468746 352.945313 
L 186.468746 352.945313 
L 102.506364 352.945313 
z
" clip-path="url(#p2f436239bb)" style="fill: #6eb7fa"/>
   </g>
   <g id="patch_4">
    <path d="M 207.459342 352.945313 
L 291.421724 352.945313 
L 291.421724 256.861799 
L 207.459342 256.861799 
z
" clip-path="url(#p2f436239bb)" style="fill: #6eb7fa"/>
   </g>
   <g id="patch_5">
    <path d="M 312.41232 352.945313 
L 396.374702 352.945313 
L 396.374702 262.51377 
L 312.41232 262.51377 
z
" clip-path="url(#p2f436239bb)" style="fill: #6eb7fa"/>
   </g>
   <g id="patch_6">
    <path d="M 417.365298 352.945313 
L 501.32768 352.945313 
L 501.32768 245.062069 
L 417.365298 245.062069 
z
" clip-path="url(#p2f436239bb)" style="fill: #6eb7fa"/>
   </g>
   <g id="patch_7">
    <path d="M 522.318276 352.945313 
L 606.280658 352.945313 
L 606.280658 242.003524 
L 522.318276 242.003524 
z
" clip-path="url(#p2f436239bb)" style="fill: #6eb7fa"/>
   </g>
   <g id="patch_8">
    <path d="M 627.271254 352.945313 
L 711.233636 352.945313 
L 711.233636 352.945313 
L 627.271254 352.945313 
z
" clip-path="url(#p2f436239bb)" style="fill: #6eb7fa"/>
   </g>
   <g id="patch_9">
    <path d="M 102.506364 352.945313 
L 186.468746 352.945313 
L 186.468746 352.945313 
L 102.506364 352.945313 
z
" clip-path="url(#p2f436239bb)" style="fill: #b2c6e3"/>
   </g>
   <g id="patch_10">
    <path d="M 207.459342 256.861799 
L 291.421724 256.861799 
L 291.421724 136.757407 
L 207.459342 136.757407 
z
" clip-path="url(#p2f436239bb)" style="fill: #b2c6e3"/>
   </g>
   <g id="patch_11">
    <path d="M 312.41232 262.51377 
L 396.374702 262.51377 
L 396.374702 68.731894 
L 312.41232 68.731894 
z
" clip-path="url(#p2f436239bb)" style="fill: #b2c6e3"/>
   </g>
   <g id="patch_12">
    <path d="M 417.365298 245.062069 
L 501.32768 245.062069 
L 501.32768 20.305313 
L 417.365298 20.305313 
z
" clip-path="url(#p2f436239bb)" style="fill: #b2c6e3"/>
   </g>
   <g id="patch_13">
    <path d="M 522.318276 242.003524 
L 606.280658 242.003524 
L 606.280658 35.968773 
L 522.318276 35.968773 
z
" clip-path="url(#p2f436239bb)" style="fill: #b2c6e3"/>
   </g>
   <g id="patch_14">
    <path d="M 627.271254 352.945313 
L 711.233636 352.945313 
L 711.233636 229.958415 
L 627.271254 229.958415 
z
" clip-path="url(#p2f436239bb)" style="fill: #b2c6e3"/>
   </g>
   <g id="text_17">
    <!-- 0.0% -->
    <g style="fill: #555555" transform="translate(127.931461 350.228438)scale(0.14 -0.14)">
     <use xlink:href="#Montserrat-Regular-30"/>
     <use xlink:href="#Montserrat-Regular-2e" x="66.199997"/>
     <use xlink:href="#Montserrat-Regular-30" x="87.399994"/>
     <use xlink:href="#Montserrat-Regular-25" x="153.599991"/>
    </g>
   </g>
   <g id="text_18">
    <!-- 14.1% -->
    <g style="fill: #555555" transform="translate(232.473189 134.040532)scale(0.14 -0.14)">
     <use xlink:href="#Montserrat-Regular-31"/>
     <use xlink:href="#Montserrat-Regular-34" x="36.099991"/>
     <use xlink:href="#Montserrat-Regular-2e" x="102.199982"/>
     <use xlink:href="#Montserrat-Regular-31" x="123.399979"/>
     <use xlink:href="#Montserrat-Regular-25" x="159.499969"/>
    </g>
   </g>
   <g id="text_19">
    <!-- 18.5% -->
    <g style="fill: #555555" transform="translate(336.151948 66.015019)scale(0.14 -0.14)">
     <defs>
      <path id="Montserrat-Regular-38" d="M 2899 2349 
C 3360 2528 3616 2867 3616 3334 
C 3616 4064 2982 4518 2035 4518 
C 1088 4518 467 4064 467 3334 
C 467 2867 717 2528 1171 2349 
C 614 2163 307 1786 307 1248 
C 307 454 960 -38 2035 -38 
C 3104 -38 3776 454 3776 1248 
C 3776 1779 3462 2163 2899 2349 
z
M 928 3322 
C 928 3821 1357 4128 2035 4128 
C 2707 4128 3149 3821 3149 3315 
C 3149 2829 2733 2515 2035 2515 
C 1338 2515 928 2829 928 3322 
z
M 2035 352 
C 1242 352 774 698 774 1254 
C 774 1805 1242 2150 2035 2150 
C 2829 2150 3302 1805 3302 1254 
C 3302 698 2829 352 2035 352 
z
" transform="scale(0.015625)"/>
     </defs>
     <use xlink:href="#Montserrat-Regular-31"/>
     <use xlink:href="#Montserrat-Regular-38" x="36.099991"/>
     <use xlink:href="#Montserrat-Regular-2e" x="99.899979"/>
     <use xlink:href="#Montserrat-Regular-35" x="121.099976"/>
     <use xlink:href="#Montserrat-Regular-25" x="177.699966"/>
    </g>
   </g>
   <g id="text_20">
    <!-- 21.6% -->
    <g style="fill: #555555" transform="translate(441.293052 17.588437)scale(0.14 -0.14)">
     <use xlink:href="#Montserrat-Regular-32"/>
     <use xlink:href="#Montserrat-Regular-31" x="56.799988"/>
     <use xlink:href="#Montserrat-Regular-2e" x="92.899979"/>
     <use xlink:href="#Montserrat-Regular-36" x="114.099976"/>
     <use xlink:href="#Montserrat-Regular-25" x="174.999969"/>
    </g>
   </g>
   <g id="text_21">
    <!-- 20.6% -->
    <g style="fill: #555555" transform="translate(544.138373 33.251898)scale(0.14 -0.14)">
     <use xlink:href="#Montserrat-Regular-32"/>
     <use xlink:href="#Montserrat-Regular-30" x="56.799988"/>
     <use xlink:href="#Montserrat-Regular-2e" x="122.999985"/>
     <use xlink:href="#Montserrat-Regular-36" x="144.199982"/>
     <use xlink:href="#Montserrat-Regular-25" x="205.099976"/>
    </g>
   </g>
   <g id="text_22">
    <!-- 8.0% -->
    <g style="fill: #555555" transform="translate(652.864789 227.24154)scale(0.14 -0.14)">
     <use xlink:href="#Montserrat-Regular-38"/>
     <use xlink:href="#Montserrat-Regular-2e" x="63.799988"/>
     <use xlink:href="#Montserrat-Regular-30" x="84.999985"/>
     <use xlink:href="#Montserrat-Regular-25" x="151.199982"/>
    </g>
   </g>
   <g id="line2d_25">
    <path d="M 72.07 352.945313 
L 741.67 352.945313 
" style="fill: none; stroke: #555555; stroke-width: 3; stroke-linecap: square"/>
   </g>
  </g>
 </g>
 <defs>
  <clipPath id="p2f436239bb">
   <rect x="72.07" y="20.305313" width="669.6" height="332.64"/>
  </clipPath>
 </defs>
</svg>
