<?xml version="1.0" encoding="utf-8" standalone="no"?>
<!DOCTYPE svg PUBLIC "-//W3C//DTD SVG 1.1//EN"
  "http://www.w3.org/Graphics/SVG/1.1/DTD/svg11.dtd">
<svg xmlns:xlink="http://www.w3.org/1999/xlink" width="742.89475pt" height="399.554813pt" viewBox="0 0 742.89475 399.554813" xmlns="http://www.w3.org/2000/svg" version="1.1">
 <metadata>
  <rdf:RDF xmlns:dc="http://purl.org/dc/elements/1.1/" xmlns:cc="http://creativecommons.org/ns#" xmlns:rdf="http://www.w3.org/1999/02/22-rdf-syntax-ns#">
   <cc:Work>
    <dc:type rdf:resource="http://purl.org/dc/dcmitype/StillImage"/>
    <dc:date>2023-02-01T22:41:14.268857</dc:date>
    <dc:format>image/svg+xml</dc:format>
    <dc:creator>
     <cc:Agent>
      <dc:title>Matplotlib v3.5.3, https://matplotlib.org/</dc:title>
     </cc:Agent>
    </dc:creator>
   </cc:Work>
  </rdf:RDF>
 </metadata>
 <defs>
  <style type="text/css">*{stroke-linejoin: round; stroke-linecap: butt}</style>
 </defs>
 <g id="figure_1">
  <g id="patch_1">
   <path d="M 0 399.554813 
L 742.89475 399.554813 
L 742.89475 0 
L 0 0 
z
" style="fill: #f1f7f9"/>
  </g>
  <g id="axes_1">
   <g id="patch_2">
    <path d="M 70.41475 352.945312 
L 735.69475 352.945312 
L 735.69475 20.305313 
L 70.41475 20.305313 
z
" style="fill: #f1f7f9"/>
   </g>
   <g id="matplotlib.axis_1">
    <g id="xtick_1">
     <g id="line2d_1">
      <defs>
       <path id="m24fba224e1" d="M 0 0 
L 0 3.5 
" style="stroke: #000000; stroke-width: 0.8"/>
      </defs>
      <g>
       <use xlink:href="#m24fba224e1" x="142.365095" y="352.945312" style="stroke: #000000; stroke-width: 0.8"/>
      </g>
     </g>
     <g id="text_1">
      <!-- Belarus -->
      <g style="fill: #555555" transform="translate(112.123845 371.817813)scale(0.16 -0.16)">
       <defs>
        <path id="Montserrat-Regular-42" d="M 3552 2310 
C 3962 2477 4237 2816 4237 3328 
C 4237 4058 3661 4480 2662 4480 
L 730 4480 
L 730 0 
L 2790 0 
C 3910 0 4474 435 4474 1197 
C 4474 1805 4128 2182 3552 2310 
z
M 2630 4090 
C 3347 4090 3763 3814 3763 3277 
C 3763 2739 3347 2464 2630 2464 
L 1203 2464 
L 1203 4090 
L 2630 4090 
z
M 2784 390 
L 1203 390 
L 1203 2074 
L 2784 2074 
C 3571 2074 4000 1818 4000 1235 
C 4000 646 3571 390 2784 390 
z
" transform="scale(0.015625)"/>
        <path id="Montserrat-Regular-65" d="M 3571 1683 
C 3571 2694 2886 3392 1939 3392 
C 992 3392 294 2682 294 1683 
C 294 685 1011 -32 2061 -32 
C 2592 -32 3059 160 3360 518 
L 3104 813 
C 2848 518 2483 371 2074 371 
C 1338 371 800 838 749 1542 
L 3565 1542 
C 3565 1594 3571 1645 3571 1683 
z
M 1939 3002 
C 2598 3002 3078 2541 3136 1882 
L 749 1882 
C 806 2541 1286 3002 1939 3002 
z
" transform="scale(0.015625)"/>
        <path id="Montserrat-Regular-6c" d="M 634 0 
L 1088 0 
L 1088 4749 
L 634 4749 
L 634 0 
z
" transform="scale(0.015625)"/>
        <path id="Montserrat-Regular-61" d="M 1811 3392 
C 1280 3392 781 3226 442 2938 
L 646 2598 
C 922 2842 1331 2995 1766 2995 
C 2394 2995 2720 2682 2720 2106 
L 2720 1901 
L 1651 1901 
C 685 1901 352 1466 352 947 
C 352 365 819 -32 1581 -32 
C 2138 -32 2534 179 2739 525 
L 2739 0 
L 3174 0 
L 3174 2086 
C 3174 2957 2682 3392 1811 3392 
z
M 1651 326 
C 1114 326 800 570 800 960 
C 800 1306 1011 1562 1664 1562 
L 2720 1562 
L 2720 1011 
C 2541 570 2163 326 1651 326 
z
" transform="scale(0.015625)"/>
        <path id="Montserrat-Regular-72" d="M 1069 2707 
L 1069 3366 
L 634 3366 
L 634 0 
L 1088 0 
L 1088 1715 
C 1088 2509 1517 2957 2221 2957 
C 2253 2957 2291 2950 2330 2950 
L 2330 3392 
C 1709 3392 1280 3155 1069 2707 
z
" transform="scale(0.015625)"/>
        <path id="Montserrat-Regular-75" d="M 3213 3366 
L 3213 1600 
C 3213 832 2771 378 2067 378 
C 1427 378 1056 742 1056 1459 
L 1056 3366 
L 602 3366 
L 602 1414 
C 602 448 1165 -32 2022 -32 
C 2560 -32 2995 205 3232 614 
L 3232 0 
L 3667 0 
L 3667 3366 
L 3213 3366 
z
" transform="scale(0.015625)"/>
        <path id="Montserrat-Regular-73" d="M 1536 -32 
C 2413 -32 2925 346 2925 928 
C 2925 2221 742 1536 742 2445 
C 742 2765 1011 3002 1619 3002 
C 1965 3002 2317 2918 2611 2714 
L 2810 3078 
C 2528 3270 2054 3392 1619 3392 
C 762 3392 288 2982 288 2432 
C 288 1101 2470 1792 2470 915 
C 2470 582 2208 365 1568 365 
C 1094 365 640 531 371 742 
L 166 384 
C 442 147 979 -32 1536 -32 
z
" transform="scale(0.015625)"/>
       </defs>
       <use xlink:href="#Montserrat-Regular-42"/>
       <use xlink:href="#Montserrat-Regular-65" x="75.399994"/>
       <use xlink:href="#Montserrat-Regular-6c" x="135.799988"/>
       <use xlink:href="#Montserrat-Regular-61" x="162.699982"/>
       <use xlink:href="#Montserrat-Regular-72" x="221.699966"/>
       <use xlink:href="#Montserrat-Regular-75" x="261.799957"/>
       <use xlink:href="#Montserrat-Regular-73" x="329.099945"/>
      </g>
     </g>
    </g>
    <g id="xtick_2">
     <g id="line2d_2">
      <g>
       <use xlink:href="#m24fba224e1" x="246.640957" y="352.945312" style="stroke: #000000; stroke-width: 0.8"/>
      </g>
     </g>
     <g id="text_2">
      <!-- New -->
      <g style="fill: #555555" transform="translate(228.272207 371.817813)scale(0.16 -0.16)">
       <defs>
        <path id="Montserrat-Regular-4e" d="M 4006 4480 
L 4006 845 
L 1120 4480 
L 730 4480 
L 730 0 
L 1203 0 
L 1203 3635 
L 4083 0 
L 4474 0 
L 4474 4480 
L 4006 4480 
z
" transform="scale(0.015625)"/>
        <path id="Montserrat-Regular-77" d="M 5158 3366 
L 4090 506 
L 3014 3366 
L 2624 3366 
L 1542 506 
L 486 3366 
L 51 3366 
L 1318 0 
L 1747 0 
L 2810 2758 
L 3872 0 
L 4301 0 
L 5574 3366 
L 5158 3366 
z
" transform="scale(0.015625)"/>
       </defs>
       <use xlink:href="#Montserrat-Regular-4e"/>
       <use xlink:href="#Montserrat-Regular-65" x="81.299988"/>
       <use xlink:href="#Montserrat-Regular-77" x="141.699982"/>
      </g>
      <!-- York -->
      <g style="fill: #555555" transform="translate(228.529707 389.169813)scale(0.16 -0.16)">
       <defs>
        <path id="Montserrat-Regular-59" d="M 4058 4480 
L 3584 4480 
L 2048 1965 
L 512 4480 
L 6 4480 
L 1798 1549 
L 1798 0 
L 2266 0 
L 2266 1549 
L 4058 4480 
z
" transform="scale(0.015625)"/>
        <path id="Montserrat-Regular-6f" d="M 2010 -32 
C 2995 -32 3718 685 3718 1683 
C 3718 2682 2995 3392 2010 3392 
C 1024 3392 294 2682 294 1683 
C 294 685 1024 -32 2010 -32 
z
M 2010 371 
C 1293 371 755 896 755 1683 
C 755 2470 1293 2995 2010 2995 
C 2726 2995 3258 2470 3258 1683 
C 3258 896 2726 371 2010 371 
z
" transform="scale(0.015625)"/>
        <path id="Montserrat-Regular-6b" d="M 3238 0 
L 3795 0 
L 2221 1990 
L 3661 3366 
L 3098 3366 
L 1088 1530 
L 1088 4749 
L 634 4749 
L 634 0 
L 1088 0 
L 1088 960 
L 1882 1690 
L 3238 0 
z
" transform="scale(0.015625)"/>
       </defs>
       <use xlink:href="#Montserrat-Regular-59"/>
       <use xlink:href="#Montserrat-Regular-6f" x="63.499985"/>
       <use xlink:href="#Montserrat-Regular-72" x="126.199982"/>
       <use xlink:href="#Montserrat-Regular-6b" x="166.299973"/>
      </g>
     </g>
    </g>
    <g id="xtick_3">
     <g id="line2d_3">
      <g>
       <use xlink:href="#m24fba224e1" x="350.916819" y="352.945312" style="stroke: #000000; stroke-width: 0.8"/>
      </g>
     </g>
     <g id="text_3">
      <!-- Tel -->
      <g style="fill: #555555" transform="translate(339.339319 371.817813)scale(0.16 -0.16)">
       <defs>
        <path id="Montserrat-Regular-54" d="M 1600 0 
L 2074 0 
L 2074 4070 
L 3648 4070 
L 3648 4480 
L 26 4480 
L 26 4070 
L 1600 4070 
L 1600 0 
z
" transform="scale(0.015625)"/>
       </defs>
       <use xlink:href="#Montserrat-Regular-54"/>
       <use xlink:href="#Montserrat-Regular-65" x="57.399994"/>
       <use xlink:href="#Montserrat-Regular-6c" x="117.799988"/>
      </g>
      <!-- Aviv -->
      <g style="fill: #555555" transform="translate(334.355569 389.169813)scale(0.16 -0.16)">
       <defs>
        <path id="Montserrat-Regular-41" d="M 4077 0 
L 4576 0 
L 2528 4480 
L 2061 4480 
L 13 0 
L 506 0 
L 1043 1197 
L 3539 1197 
L 4077 0 
z
M 1216 1581 
L 2291 3987 
L 3366 1581 
L 1216 1581 
z
" transform="scale(0.015625)"/>
        <path id="Montserrat-Regular-76" d="M 3014 3366 
L 1741 499 
L 480 3366 
L 6 3366 
L 1498 0 
L 1965 0 
L 3462 3366 
L 3014 3366 
z
" transform="scale(0.015625)"/>
        <path id="Montserrat-Regular-69" d="M 864 4102 
C 1056 4102 1197 4250 1197 4435 
C 1197 4608 1050 4749 864 4749 
C 678 4749 531 4602 531 4429 
C 531 4250 678 4102 864 4102 
z
M 634 0 
L 1088 0 
L 1088 3366 
L 634 3366 
L 634 0 
z
" transform="scale(0.015625)"/>
       </defs>
       <use xlink:href="#Montserrat-Regular-41"/>
       <use xlink:href="#Montserrat-Regular-76" x="71.699982"/>
       <use xlink:href="#Montserrat-Regular-69" x="125.899979"/>
       <use xlink:href="#Montserrat-Regular-76" x="152.799973"/>
      </g>
     </g>
    </g>
    <g id="xtick_4">
     <g id="line2d_4">
      <g>
       <use xlink:href="#m24fba224e1" x="455.192681" y="352.945312" style="stroke: #000000; stroke-width: 0.8"/>
      </g>
     </g>
     <g id="text_4">
      <!-- USA -->
      <g style="fill: #555555" transform="translate(438.200181 371.817813)scale(0.16 -0.16)">
       <defs>
        <path id="Montserrat-Regular-55" d="M 2534 -38 
C 3680 -38 4371 627 4371 1914 
L 4371 4480 
L 3910 4480 
L 3910 1933 
C 3910 870 3411 384 2534 384 
C 1664 384 1165 870 1165 1933 
L 1165 4480 
L 691 4480 
L 691 1914 
C 691 627 1389 -38 2534 -38 
z
" transform="scale(0.015625)"/>
        <path id="Montserrat-Regular-53" d="M 1965 -38 
C 3110 -38 3635 525 3635 1184 
C 3635 2816 877 2074 877 3302 
C 877 3750 1242 4115 2061 4115 
C 2458 4115 2906 3994 3290 3744 
L 3450 4122 
C 3091 4371 2566 4518 2061 4518 
C 922 4518 410 3949 410 3290 
C 410 1632 3168 2387 3168 1158 
C 3168 717 2803 365 1965 365 
C 1376 365 806 595 486 909 
L 301 544 
C 634 198 1293 -38 1965 -38 
z
" transform="scale(0.015625)"/>
       </defs>
       <use xlink:href="#Montserrat-Regular-55"/>
       <use xlink:href="#Montserrat-Regular-53" x="79.199982"/>
       <use xlink:href="#Montserrat-Regular-41" x="140.699966"/>
      </g>
      <!-- (Remote) -->
      <g style="fill: #555555" transform="translate(417.727681 389.169813)scale(0.16 -0.16)">
       <defs>
        <path id="Montserrat-Regular-28" d="M 1408 -1242 
L 1843 -1242 
C 1338 -365 1114 614 1114 1754 
C 1114 2893 1338 3872 1843 4749 
L 1408 4749 
C 934 3987 666 2931 666 1754 
C 666 576 934 -467 1408 -1242 
z
" transform="scale(0.015625)"/>
        <path id="Montserrat-Regular-52" d="M 4307 0 
L 3213 1536 
C 3866 1747 4237 2240 4237 2944 
C 4237 3904 3546 4480 2406 4480 
L 730 4480 
L 730 0 
L 1203 0 
L 1203 1421 
L 2406 1421 
C 2534 1421 2650 1427 2765 1440 
L 3789 0 
L 4307 0 
z
M 2394 1824 
L 1203 1824 
L 1203 4070 
L 2394 4070 
C 3290 4070 3763 3661 3763 2944 
C 3763 2240 3290 1824 2394 1824 
z
" transform="scale(0.015625)"/>
        <path id="Montserrat-Regular-6d" d="M 4832 3392 
C 4224 3392 3744 3117 3501 2682 
C 3296 3155 2861 3392 2304 3392 
C 1741 3392 1306 3155 1069 2752 
L 1069 3366 
L 634 3366 
L 634 0 
L 1088 0 
L 1088 1766 
C 1088 2534 1530 2982 2214 2982 
C 2829 2982 3187 2618 3187 1907 
L 3187 0 
L 3642 0 
L 3642 1766 
C 3642 2534 4077 2982 4768 2982 
C 5376 2982 5734 2618 5734 1907 
L 5734 0 
L 6189 0 
L 6189 1952 
C 6189 2918 5651 3392 4832 3392 
z
" transform="scale(0.015625)"/>
        <path id="Montserrat-Regular-74" d="M 2246 531 
C 2118 416 1933 358 1747 358 
C 1370 358 1165 576 1165 973 
L 1165 2982 
L 2189 2982 
L 2189 3366 
L 1165 3366 
L 1165 4102 
L 710 4102 
L 710 3366 
L 109 3366 
L 109 2982 
L 710 2982 
L 710 947 
C 710 326 1062 -32 1696 -32 
C 1958 -32 2227 45 2406 205 
L 2246 531 
z
" transform="scale(0.015625)"/>
        <path id="Montserrat-Regular-29" d="M 691 -1242 
C 1171 -467 1440 576 1440 1754 
C 1440 2931 1171 3987 691 4749 
L 256 4749 
C 768 3872 992 2893 992 1754 
C 992 614 768 -365 256 -1242 
L 691 -1242 
z
" transform="scale(0.015625)"/>
       </defs>
       <use xlink:href="#Montserrat-Regular-28"/>
       <use xlink:href="#Montserrat-Regular-52" x="32.899994"/>
       <use xlink:href="#Montserrat-Regular-65" x="105.199982"/>
       <use xlink:href="#Montserrat-Regular-6d" x="165.599976"/>
       <use xlink:href="#Montserrat-Regular-6f" x="271.699966"/>
       <use xlink:href="#Montserrat-Regular-74" x="334.399963"/>
       <use xlink:href="#Montserrat-Regular-65" x="374.999954"/>
       <use xlink:href="#Montserrat-Regular-29" x="435.399948"/>
      </g>
     </g>
    </g>
    <g id="xtick_5">
     <g id="line2d_5">
      <g>
       <use xlink:href="#m24fba224e1" x="559.468543" y="352.945312" style="stroke: #000000; stroke-width: 0.8"/>
      </g>
     </g>
     <g id="text_5">
      <!-- Ukraine -->
      <g style="fill: #555555" transform="translate(527.996043 371.817813)scale(0.16 -0.16)">
       <defs>
        <path id="Montserrat-Regular-6e" d="M 2349 3392 
C 1766 3392 1312 3155 1069 2746 
L 1069 3366 
L 634 3366 
L 634 0 
L 1088 0 
L 1088 1766 
C 1088 2534 1542 2982 2266 2982 
C 2906 2982 3277 2618 3277 1907 
L 3277 0 
L 3731 0 
L 3731 1952 
C 3731 2918 3168 3392 2349 3392 
z
" transform="scale(0.015625)"/>
       </defs>
       <use xlink:href="#Montserrat-Regular-55"/>
       <use xlink:href="#Montserrat-Regular-6b" x="79.199982"/>
       <use xlink:href="#Montserrat-Regular-72" x="139.299973"/>
       <use xlink:href="#Montserrat-Regular-61" x="179.399963"/>
       <use xlink:href="#Montserrat-Regular-69" x="238.399948"/>
       <use xlink:href="#Montserrat-Regular-6e" x="265.299942"/>
       <use xlink:href="#Montserrat-Regular-65" x="332.999924"/>
      </g>
     </g>
    </g>
    <g id="xtick_6">
     <g id="line2d_6">
      <g>
       <use xlink:href="#m24fba224e1" x="663.744405" y="352.945312" style="stroke: #000000; stroke-width: 0.8"/>
      </g>
     </g>
     <g id="text_6">
      <!-- United -->
      <g style="fill: #555555" transform="translate(636.335655 371.817813)scale(0.16 -0.16)">
       <defs>
        <path id="Montserrat-Regular-64" d="M 3251 4749 
L 3251 2726 
C 2970 3162 2509 3392 1971 3392 
C 1011 3392 294 2701 294 1683 
C 294 666 1011 -32 1971 -32 
C 2528 -32 2995 211 3270 666 
L 3270 0 
L 3706 0 
L 3706 4749 
L 3251 4749 
z
M 2010 371 
C 1293 371 755 896 755 1683 
C 755 2470 1293 2995 2010 2995 
C 2720 2995 3258 2470 3258 1683 
C 3258 896 2720 371 2010 371 
z
" transform="scale(0.015625)"/>
       </defs>
       <use xlink:href="#Montserrat-Regular-55"/>
       <use xlink:href="#Montserrat-Regular-6e" x="79.199982"/>
       <use xlink:href="#Montserrat-Regular-69" x="146.899963"/>
       <use xlink:href="#Montserrat-Regular-74" x="173.799957"/>
       <use xlink:href="#Montserrat-Regular-65" x="214.399948"/>
       <use xlink:href="#Montserrat-Regular-64" x="274.799942"/>
      </g>
      <!-- Kingdom -->
      <g style="fill: #555555" transform="translate(626.073155 389.169813)scale(0.16 -0.16)">
       <defs>
        <path id="Montserrat-Regular-4b" d="M 3949 0 
L 4512 0 
L 2438 2451 
L 4378 4480 
L 3834 4480 
L 1203 1773 
L 1203 4480 
L 730 4480 
L 730 0 
L 1203 0 
L 1203 1178 
L 2118 2106 
L 3949 0 
z
" transform="scale(0.015625)"/>
        <path id="Montserrat-Regular-67" d="M 3315 3366 
L 3315 2720 
C 3034 3162 2547 3392 1984 3392 
C 1024 3392 294 2733 294 1766 
C 294 800 1024 128 1984 128 
C 2534 128 3014 352 3296 781 
L 3296 352 
C 3296 -480 2906 -870 2054 -870 
C 1536 -870 1050 -698 730 -410 
L 499 -755 
C 851 -1088 1453 -1274 2067 -1274 
C 3181 -1274 3750 -749 3750 410 
L 3750 3366 
L 3315 3366 
z
M 2029 531 
C 1286 531 755 1037 755 1766 
C 755 2496 1286 2995 2029 2995 
C 2771 2995 3309 2496 3309 1766 
C 3309 1037 2771 531 2029 531 
z
" transform="scale(0.015625)"/>
       </defs>
       <use xlink:href="#Montserrat-Regular-4b"/>
       <use xlink:href="#Montserrat-Regular-69" x="71.099991"/>
       <use xlink:href="#Montserrat-Regular-6e" x="97.999985"/>
       <use xlink:href="#Montserrat-Regular-67" x="165.699966"/>
       <use xlink:href="#Montserrat-Regular-64" x="234.299957"/>
       <use xlink:href="#Montserrat-Regular-6f" x="302.099945"/>
       <use xlink:href="#Montserrat-Regular-6d" x="364.799942"/>
      </g>
     </g>
    </g>
   </g>
   <g id="matplotlib.axis_2">
    <g id="ytick_1">
     <g id="line2d_7">
      <path d="M 70.41475 352.945312 
L 735.69475 352.945312 
" clip-path="url(#p60fe69d3c6)" style="fill: none; stroke-dasharray: 1.85,0.8; stroke-dashoffset: 0; stroke: #b7b7b7; stroke-width: 0.5"/>
     </g>
     <g id="line2d_8">
      <defs>
       <path id="m5bb3e292a8" d="M 0 0 
L -3.5 0 
" style="stroke: #b7b7b7; stroke-width: 0.8"/>
      </defs>
      <g>
       <use xlink:href="#m5bb3e292a8" x="70.41475" y="352.945312" style="fill: #b7b7b7; stroke: #b7b7b7; stroke-width: 0.8"/>
      </g>
     </g>
     <g id="text_7">
      <!-- 0 -->
      <g style="fill: #b7b7b7" transform="translate(52.82225 358.881563)scale(0.16 -0.16)">
       <defs>
        <path id="Montserrat-Regular-30" d="M 2118 -38 
C 3155 -38 3910 813 3910 2240 
C 3910 3667 3155 4518 2118 4518 
C 1082 4518 333 3667 333 2240 
C 333 813 1082 -38 2118 -38 
z
M 2118 384 
C 1338 384 800 1043 800 2240 
C 800 3437 1338 4096 2118 4096 
C 2899 4096 3437 3437 3437 2240 
C 3437 1043 2899 384 2118 384 
z
" transform="scale(0.015625)"/>
       </defs>
       <use xlink:href="#Montserrat-Regular-30"/>
      </g>
     </g>
    </g>
    <g id="ytick_2">
     <g id="line2d_9">
      <path d="M 70.41475 313.345312 
L 735.69475 313.345312 
" clip-path="url(#p60fe69d3c6)" style="fill: none; stroke-dasharray: 1.85,0.8; stroke-dashoffset: 0; stroke: #b7b7b7; stroke-width: 0.5"/>
     </g>
     <g id="line2d_10">
      <g>
       <use xlink:href="#m5bb3e292a8" x="70.41475" y="313.345312" style="fill: #b7b7b7; stroke: #b7b7b7; stroke-width: 0.8"/>
      </g>
     </g>
     <g id="text_8">
      <!-- 10 -->
      <g style="fill: #b7b7b7" transform="translate(47.04725 319.281563)scale(0.16 -0.16)">
       <defs>
        <path id="Montserrat-Regular-31" d="M 58 4480 
L 58 4070 
L 1114 4070 
L 1114 0 
L 1574 0 
L 1574 4480 
L 58 4480 
z
" transform="scale(0.015625)"/>
       </defs>
       <use xlink:href="#Montserrat-Regular-31"/>
       <use xlink:href="#Montserrat-Regular-30" x="36.099991"/>
      </g>
     </g>
    </g>
    <g id="ytick_3">
     <g id="line2d_11">
      <path d="M 70.41475 273.745313 
L 735.69475 273.745313 
" clip-path="url(#p60fe69d3c6)" style="fill: none; stroke-dasharray: 1.85,0.8; stroke-dashoffset: 0; stroke: #b7b7b7; stroke-width: 0.5"/>
     </g>
     <g id="line2d_12">
      <g>
       <use xlink:href="#m5bb3e292a8" x="70.41475" y="273.745313" style="fill: #b7b7b7; stroke: #b7b7b7; stroke-width: 0.8"/>
      </g>
     </g>
     <g id="text_9">
      <!-- 20 -->
      <g style="fill: #b7b7b7" transform="translate(43.73475 279.681563)scale(0.16 -0.16)">
       <defs>
        <path id="Montserrat-Regular-32" d="M 928 410 
L 2451 1907 
C 3053 2496 3187 2880 3187 3309 
C 3187 4058 2611 4518 1702 4518 
C 1018 4518 461 4288 115 3878 
L 442 3597 
C 736 3936 1139 4096 1664 4096 
C 2349 4096 2714 3776 2714 3258 
C 2714 2950 2618 2650 2112 2150 
L 250 326 
L 250 0 
L 3392 0 
L 3392 410 
L 928 410 
z
" transform="scale(0.015625)"/>
       </defs>
       <use xlink:href="#Montserrat-Regular-32"/>
       <use xlink:href="#Montserrat-Regular-30" x="56.799988"/>
      </g>
     </g>
    </g>
    <g id="ytick_4">
     <g id="line2d_13">
      <path d="M 70.41475 234.145313 
L 735.69475 234.145313 
" clip-path="url(#p60fe69d3c6)" style="fill: none; stroke-dasharray: 1.85,0.8; stroke-dashoffset: 0; stroke: #b7b7b7; stroke-width: 0.5"/>
     </g>
     <g id="line2d_14">
      <g>
       <use xlink:href="#m5bb3e292a8" x="70.41475" y="234.145313" style="fill: #b7b7b7; stroke: #b7b7b7; stroke-width: 0.8"/>
      </g>
     </g>
     <g id="text_10">
      <!-- 30 -->
      <g style="fill: #b7b7b7" transform="translate(43.79725 240.081563)scale(0.16 -0.16)">
       <defs>
        <path id="Montserrat-Regular-33" d="M 1856 2560 
L 3123 4154 
L 3123 4480 
L 243 4480 
L 243 4070 
L 2534 4070 
L 1293 2515 
L 1293 2176 
L 1613 2176 
C 2445 2176 2822 1824 2822 1286 
C 2822 730 2413 384 1670 384 
C 1088 384 570 602 282 902 
L 58 538 
C 403 186 1024 -38 1670 -38 
C 2752 -38 3296 538 3296 1286 
C 3296 2003 2816 2509 1856 2560 
z
" transform="scale(0.015625)"/>
       </defs>
       <use xlink:href="#Montserrat-Regular-33"/>
       <use xlink:href="#Montserrat-Regular-30" x="56.399994"/>
      </g>
     </g>
    </g>
    <g id="ytick_5">
     <g id="line2d_15">
      <path d="M 70.41475 194.545313 
L 735.69475 194.545313 
" clip-path="url(#p60fe69d3c6)" style="fill: none; stroke-dasharray: 1.85,0.8; stroke-dashoffset: 0; stroke: #b7b7b7; stroke-width: 0.5"/>
     </g>
     <g id="line2d_16">
      <g>
       <use xlink:href="#m5bb3e292a8" x="70.41475" y="194.545313" style="fill: #b7b7b7; stroke: #b7b7b7; stroke-width: 0.8"/>
      </g>
     </g>
     <g id="text_11">
      <!-- 40 -->
      <g style="fill: #b7b7b7" transform="translate(42.24725 200.481563)scale(0.16 -0.16)">
       <defs>
        <path id="Montserrat-Regular-34" d="M 4141 1587 
L 3245 1587 
L 3245 2624 
L 2797 2624 
L 2797 1587 
L 851 1587 
L 3142 4480 
L 2630 4480 
L 256 1510 
L 256 1178 
L 2784 1178 
L 2784 0 
L 3245 0 
L 3245 1178 
L 4141 1178 
L 4141 1587 
z
" transform="scale(0.015625)"/>
       </defs>
       <use xlink:href="#Montserrat-Regular-34"/>
       <use xlink:href="#Montserrat-Regular-30" x="66.099991"/>
      </g>
     </g>
    </g>
    <g id="ytick_6">
     <g id="line2d_17">
      <path d="M 70.41475 154.945313 
L 735.69475 154.945313 
" clip-path="url(#p60fe69d3c6)" style="fill: none; stroke-dasharray: 1.85,0.8; stroke-dashoffset: 0; stroke: #b7b7b7; stroke-width: 0.5"/>
     </g>
     <g id="line2d_18">
      <g>
       <use xlink:href="#m5bb3e292a8" x="70.41475" y="154.945313" style="fill: #b7b7b7; stroke: #b7b7b7; stroke-width: 0.8"/>
      </g>
     </g>
     <g id="text_12">
      <!-- 50 -->
      <g style="fill: #b7b7b7" transform="translate(43.76725 160.881563)scale(0.16 -0.16)">
       <defs>
        <path id="Montserrat-Regular-35" d="M 1510 2643 
L 934 2643 
L 1088 4070 
L 3136 4070 
L 3136 4480 
L 685 4480 
L 454 2234 
L 1408 2234 
C 2547 2234 2906 1875 2906 1299 
C 2906 755 2502 384 1741 384 
C 1165 384 653 602 365 902 
L 141 538 
C 486 186 1101 -38 1747 -38 
C 2842 -38 3373 557 3373 1318 
C 3373 2112 2861 2643 1510 2643 
z
" transform="scale(0.015625)"/>
       </defs>
       <use xlink:href="#Montserrat-Regular-35"/>
       <use xlink:href="#Montserrat-Regular-30" x="56.599991"/>
      </g>
     </g>
    </g>
    <g id="ytick_7">
     <g id="line2d_19">
      <path d="M 70.41475 115.345313 
L 735.69475 115.345313 
" clip-path="url(#p60fe69d3c6)" style="fill: none; stroke-dasharray: 1.85,0.8; stroke-dashoffset: 0; stroke: #b7b7b7; stroke-width: 0.5"/>
     </g>
     <g id="line2d_20">
      <g>
       <use xlink:href="#m5bb3e292a8" x="70.41475" y="115.345313" style="fill: #b7b7b7; stroke: #b7b7b7; stroke-width: 0.8"/>
      </g>
     </g>
     <g id="text_13">
      <!-- 60 -->
      <g style="fill: #b7b7b7" transform="translate(43.07725 121.281563)scale(0.16 -0.16)">
       <defs>
        <path id="Montserrat-Regular-36" d="M 2189 2682 
C 1568 2682 1043 2406 819 1914 
C 806 2048 800 2176 800 2278 
C 800 3494 1421 4115 2387 4115 
C 2720 4115 3027 4058 3258 3904 
L 3443 4275 
C 3162 4448 2784 4518 2381 4518 
C 1165 4518 333 3725 333 2202 
C 333 787 979 -38 2170 -38 
C 3040 -38 3699 499 3699 1338 
C 3699 2157 3078 2682 2189 2682 
z
M 2150 352 
C 1376 352 966 819 966 1312 
C 966 1869 1434 2291 2118 2291 
C 2810 2291 3245 1914 3245 1325 
C 3245 730 2797 352 2150 352 
z
" transform="scale(0.015625)"/>
       </defs>
       <use xlink:href="#Montserrat-Regular-36"/>
       <use xlink:href="#Montserrat-Regular-30" x="60.899994"/>
      </g>
     </g>
    </g>
    <g id="ytick_8">
     <g id="line2d_21">
      <path d="M 70.41475 75.745313 
L 735.69475 75.745313 
" clip-path="url(#p60fe69d3c6)" style="fill: none; stroke-dasharray: 1.85,0.8; stroke-dashoffset: 0; stroke: #b7b7b7; stroke-width: 0.5"/>
     </g>
     <g id="line2d_22">
      <g>
       <use xlink:href="#m5bb3e292a8" x="70.41475" y="75.745313" style="fill: #b7b7b7; stroke: #b7b7b7; stroke-width: 0.8"/>
      </g>
     </g>
     <g id="text_14">
      <!-- 70 -->
      <g style="fill: #b7b7b7" transform="translate(43.39725 81.681562)scale(0.16 -0.16)">
       <defs>
        <path id="Montserrat-Regular-37" d="M 205 4480 
L 205 3232 
L 659 3232 
L 659 4070 
L 2963 4070 
L 1120 0 
L 1619 0 
L 3494 4154 
L 3494 4480 
L 205 4480 
z
" transform="scale(0.015625)"/>
       </defs>
       <use xlink:href="#Montserrat-Regular-37"/>
       <use xlink:href="#Montserrat-Regular-30" x="58.899994"/>
      </g>
     </g>
    </g>
    <g id="ytick_9">
     <g id="line2d_23">
      <path d="M 70.41475 36.145313 
L 735.69475 36.145313 
" clip-path="url(#p60fe69d3c6)" style="fill: none; stroke-dasharray: 1.85,0.8; stroke-dashoffset: 0; stroke: #b7b7b7; stroke-width: 0.5"/>
     </g>
     <g id="line2d_24">
      <g>
       <use xlink:href="#m5bb3e292a8" x="70.41475" y="36.145313" style="fill: #b7b7b7; stroke: #b7b7b7; stroke-width: 0.8"/>
      </g>
     </g>
     <g id="text_15">
      <!-- 80 -->
      <g style="fill: #b7b7b7" transform="translate(42.61475 42.081563)scale(0.16 -0.16)">
       <defs>
        <path id="Montserrat-Regular-38" d="M 2899 2349 
C 3360 2528 3616 2867 3616 3334 
C 3616 4064 2982 4518 2035 4518 
C 1088 4518 467 4064 467 3334 
C 467 2867 717 2528 1171 2349 
C 614 2163 307 1786 307 1248 
C 307 454 960 -38 2035 -38 
C 3104 -38 3776 454 3776 1248 
C 3776 1779 3462 2163 2899 2349 
z
M 928 3322 
C 928 3821 1357 4128 2035 4128 
C 2707 4128 3149 3821 3149 3315 
C 3149 2829 2733 2515 2035 2515 
C 1338 2515 928 2829 928 3322 
z
M 2035 352 
C 1242 352 774 698 774 1254 
C 774 1805 1242 2150 2035 2150 
C 2829 2150 3302 1805 3302 1254 
C 3302 698 2829 352 2035 352 
z
" transform="scale(0.015625)"/>
       </defs>
       <use xlink:href="#Montserrat-Regular-38"/>
       <use xlink:href="#Montserrat-Regular-30" x="63.799988"/>
      </g>
     </g>
    </g>
    <g id="text_16">
     <!-- [#] -->
     <g style="fill: #b7b7b7" transform="translate(7.2 182.744063)scale(0.2 -0.2)">
      <defs>
       <path id="Montserrat-Regular-5b" d="M 730 -1242 
L 1901 -1242 
L 1901 -864 
L 1184 -864 
L 1184 4371 
L 1901 4371 
L 1901 4749 
L 730 4749 
L 730 -1242 
z
" transform="scale(0.015625)"/>
       <path id="Montserrat-Regular-23" d="M 4262 2912 
L 4262 3264 
L 3360 3264 
L 3507 4480 
L 3162 4480 
L 3014 3264 
L 1696 3264 
L 1850 4480 
L 1498 4480 
L 1350 3264 
L 390 3264 
L 390 2912 
L 1306 2912 
L 1139 1568 
L 186 1568 
L 186 1216 
L 1094 1216 
L 947 0 
L 1293 0 
L 1446 1216 
L 2758 1216 
L 2611 0 
L 2957 0 
L 3104 1216 
L 4058 1216 
L 4058 1568 
L 3149 1568 
L 3315 2912 
L 4262 2912 
z
M 2803 1568 
L 1485 1568 
L 1658 2912 
L 2970 2912 
L 2803 1568 
z
" transform="scale(0.015625)"/>
       <path id="Montserrat-Regular-5d" d="M 1306 -1242 
L 1306 4749 
L 134 4749 
L 134 4371 
L 851 4371 
L 851 -864 
L 134 -864 
L 134 -1242 
L 1306 -1242 
z
" transform="scale(0.015625)"/>
      </defs>
      <use xlink:href="#Montserrat-Regular-5b"/>
      <use xlink:href="#Montserrat-Regular-23" x="31.799988"/>
      <use xlink:href="#Montserrat-Regular-5d" x="101.399979"/>
     </g>
    </g>
   </g>
   <g id="patch_3">
    <path d="M 100.65475 352.945312 
L 184.07544 352.945312 
L 184.07544 352.945312 
L 100.65475 352.945312 
z
" clip-path="url(#p60fe69d3c6)" style="fill: #6eb7fa"/>
   </g>
   <g id="patch_4">
    <path d="M 204.930612 352.945312 
L 288.351302 352.945312 
L 288.351302 337.105313 
L 204.930612 337.105313 
z
" clip-path="url(#p60fe69d3c6)" style="fill: #6eb7fa"/>
   </g>
   <g id="patch_5">
    <path d="M 309.206474 352.945312 
L 392.627164 352.945312 
L 392.627164 309.385312 
L 309.206474 309.385312 
z
" clip-path="url(#p60fe69d3c6)" style="fill: #6eb7fa"/>
   </g>
   <g id="patch_6">
    <path d="M 413.482336 352.945312 
L 496.903026 352.945312 
L 496.903026 277.705312 
L 413.482336 277.705312 
z
" clip-path="url(#p60fe69d3c6)" style="fill: #6eb7fa"/>
   </g>
   <g id="patch_7">
    <path d="M 517.758198 352.945312 
L 601.178888 352.945312 
L 601.178888 345.025312 
L 517.758198 345.025312 
z
" clip-path="url(#p60fe69d3c6)" style="fill: #6eb7fa"/>
   </g>
   <g id="patch_8">
    <path d="M 622.03406 352.945312 
L 705.45475 352.945312 
L 705.45475 352.945312 
L 622.03406 352.945312 
z
" clip-path="url(#p60fe69d3c6)" style="fill: #6eb7fa"/>
   </g>
   <g id="patch_9">
    <path d="M 100.65475 352.945312 
L 184.07544 352.945312 
L 184.07544 352.945312 
L 100.65475 352.945312 
z
" clip-path="url(#p60fe69d3c6)" style="fill: #b2c6e3"/>
   </g>
   <g id="patch_10">
    <path d="M 204.930612 337.105313 
L 288.351302 337.105313 
L 288.351302 321.265313 
L 204.930612 321.265313 
z
" clip-path="url(#p60fe69d3c6)" style="fill: #b2c6e3"/>
   </g>
   <g id="patch_11">
    <path d="M 309.206474 309.385313 
L 392.627164 309.385313 
L 392.627164 218.305313 
L 309.206474 218.305313 
z
" clip-path="url(#p60fe69d3c6)" style="fill: #b2c6e3"/>
   </g>
   <g id="patch_12">
    <path d="M 413.482336 277.705312 
L 496.903026 277.705312 
L 496.903026 99.505313 
L 413.482336 99.505313 
z
" clip-path="url(#p60fe69d3c6)" style="fill: #b2c6e3"/>
   </g>
   <g id="patch_13">
    <path d="M 517.758198 345.025313 
L 601.178888 345.025313 
L 601.178888 329.185313 
L 517.758198 329.185313 
z
" clip-path="url(#p60fe69d3c6)" style="fill: #b2c6e3"/>
   </g>
   <g id="patch_14">
    <path d="M 622.03406 352.945312 
L 705.45475 352.945312 
L 705.45475 345.025312 
L 622.03406 345.025312 
z
" clip-path="url(#p60fe69d3c6)" style="fill: #b2c6e3"/>
   </g>
   <g id="patch_15">
    <path d="M 100.65475 352.945312 
L 184.07544 352.945312 
L 184.07544 337.105313 
L 100.65475 337.105313 
z
" clip-path="url(#p60fe69d3c6)" style="fill: #b1e5f4"/>
   </g>
   <g id="patch_16">
    <path d="M 204.930612 321.265313 
L 288.351302 321.265313 
L 288.351302 305.425313 
L 204.930612 305.425313 
z
" clip-path="url(#p60fe69d3c6)" style="fill: #b1e5f4"/>
   </g>
   <g id="patch_17">
    <path d="M 309.206474 218.305313 
L 392.627164 218.305313 
L 392.627164 166.825313 
L 309.206474 166.825313 
z
" clip-path="url(#p60fe69d3c6)" style="fill: #b1e5f4"/>
   </g>
   <g id="patch_18">
    <path d="M 413.482336 99.505313 
L 496.903026 99.505313 
L 496.903026 20.305313 
L 413.482336 20.305313 
z
" clip-path="url(#p60fe69d3c6)" style="fill: #b1e5f4"/>
   </g>
   <g id="patch_19">
    <path d="M 517.758198 329.185313 
L 601.178888 329.185313 
L 601.178888 325.225313 
L 517.758198 325.225313 
z
" clip-path="url(#p60fe69d3c6)" style="fill: #b1e5f4"/>
   </g>
   <g id="patch_20">
    <path d="M 622.03406 345.025313 
L 705.45475 345.025313 
L 705.45475 329.185313 
L 622.03406 329.185313 
z
" clip-path="url(#p60fe69d3c6)" style="fill: #b1e5f4"/>
   </g>
   <g id="text_17">
    <!-- 2.5% (4) -->
    <g style="fill: #555555" transform="translate(116.072439 334.388438)scale(0.14 -0.14)">
     <defs>
      <path id="Montserrat-Regular-2e" d="M 678 -32 
C 864 -32 1024 122 1024 320 
C 1024 518 864 666 678 666 
C 493 666 339 518 339 320 
C 339 122 493 -32 678 -32 
z
" transform="scale(0.015625)"/>
      <path id="Montserrat-Regular-25" d="M 1280 2080 
C 1875 2080 2291 2560 2291 3296 
C 2291 4032 1875 4512 1280 4512 
C 678 4512 269 4026 269 3296 
C 269 2566 678 2080 1280 2080 
z
M 934 0 
L 1312 0 
L 4371 4480 
L 3994 4480 
L 934 0 
z
M 1280 2368 
C 858 2368 589 2720 589 3296 
C 589 3872 858 4224 1280 4224 
C 1696 4224 1971 3878 1971 3296 
C 1971 2714 1696 2368 1280 2368 
z
M 4026 -32 
C 4627 -32 5037 454 5037 1184 
C 5037 1914 4627 2400 4026 2400 
C 3430 2400 3014 1914 3014 1184 
C 3014 454 3430 -32 4026 -32 
z
M 4026 256 
C 3610 256 3334 602 3334 1184 
C 3334 1766 3610 2112 4026 2112 
C 4448 2112 4717 1760 4717 1184 
C 4717 608 4448 256 4026 256 
z
" transform="scale(0.015625)"/>
      <path id="Montserrat-Regular-20" transform="scale(0.015625)"/>
     </defs>
     <use xlink:href="#Montserrat-Regular-32"/>
     <use xlink:href="#Montserrat-Regular-2e" x="56.799988"/>
     <use xlink:href="#Montserrat-Regular-35" x="77.999985"/>
     <use xlink:href="#Montserrat-Regular-25" x="134.599976"/>
     <use xlink:href="#Montserrat-Regular-20" x="217.499969"/>
     <use xlink:href="#Montserrat-Regular-28" x="243.699966"/>
     <use xlink:href="#Montserrat-Regular-34" x="276.59996"/>
     <use xlink:href="#Montserrat-Regular-29" x="342.699951"/>
    </g>
   </g>
   <g id="text_18">
    <!-- 7.5% (12) -->
    <g style="fill: #555555" transform="translate(218.324863 302.708438)scale(0.14 -0.14)">
     <use xlink:href="#Montserrat-Regular-37"/>
     <use xlink:href="#Montserrat-Regular-2e" x="58.899994"/>
     <use xlink:href="#Montserrat-Regular-35" x="80.099991"/>
     <use xlink:href="#Montserrat-Regular-25" x="136.699982"/>
     <use xlink:href="#Montserrat-Regular-20" x="219.599976"/>
     <use xlink:href="#Montserrat-Regular-28" x="245.799973"/>
     <use xlink:href="#Montserrat-Regular-31" x="278.699966"/>
     <use xlink:href="#Montserrat-Regular-32" x="314.799957"/>
     <use xlink:href="#Montserrat-Regular-29" x="371.599945"/>
    </g>
   </g>
   <g id="text_19">
    <!-- 29.4% (47) -->
    <g style="fill: #555555" transform="translate(315.572288 164.108438)scale(0.14 -0.14)">
     <defs>
      <path id="Montserrat-Regular-39" d="M 1728 4518 
C 858 4518 198 3981 198 3142 
C 198 2323 819 1798 1709 1798 
C 2330 1798 2854 2074 3078 2566 
C 3091 2432 3098 2304 3098 2202 
C 3098 986 2477 365 1510 365 
C 1178 365 870 422 640 576 
L 454 205 
C 736 32 1114 -38 1517 -38 
C 2733 -38 3565 755 3565 2278 
C 3565 3693 2918 4518 1728 4518 
z
M 1779 2189 
C 1088 2189 653 2566 653 3155 
C 653 3750 1101 4128 1747 4128 
C 2522 4128 2931 3661 2931 3168 
C 2931 2611 2464 2189 1779 2189 
z
" transform="scale(0.015625)"/>
     </defs>
     <use xlink:href="#Montserrat-Regular-32"/>
     <use xlink:href="#Montserrat-Regular-39" x="56.799988"/>
     <use xlink:href="#Montserrat-Regular-2e" x="117.699982"/>
     <use xlink:href="#Montserrat-Regular-34" x="138.899979"/>
     <use xlink:href="#Montserrat-Regular-25" x="204.999969"/>
     <use xlink:href="#Montserrat-Regular-20" x="287.899963"/>
     <use xlink:href="#Montserrat-Regular-28" x="314.09996"/>
     <use xlink:href="#Montserrat-Regular-34" x="346.999954"/>
     <use xlink:href="#Montserrat-Regular-37" x="413.099945"/>
     <use xlink:href="#Montserrat-Regular-29" x="471.999939"/>
    </g>
   </g>
   <g id="text_20">
    <!-- 52.5% (84) -->
    <g style="fill: #555555" transform="translate(420.472681 17.588437)scale(0.14 -0.14)">
     <use xlink:href="#Montserrat-Regular-35"/>
     <use xlink:href="#Montserrat-Regular-32" x="56.599991"/>
     <use xlink:href="#Montserrat-Regular-2e" x="113.399979"/>
     <use xlink:href="#Montserrat-Regular-35" x="134.599976"/>
     <use xlink:href="#Montserrat-Regular-25" x="191.199966"/>
     <use xlink:href="#Montserrat-Regular-20" x="274.09996"/>
     <use xlink:href="#Montserrat-Regular-28" x="300.299957"/>
     <use xlink:href="#Montserrat-Regular-38" x="333.199951"/>
     <use xlink:href="#Montserrat-Regular-34" x="396.999939"/>
     <use xlink:href="#Montserrat-Regular-29" x="463.09993"/>
    </g>
   </g>
   <g id="text_21">
    <!-- 4.4% (7) -->
    <g style="fill: #555555" transform="translate(532.363231 322.508438)scale(0.14 -0.14)">
     <use xlink:href="#Montserrat-Regular-34"/>
     <use xlink:href="#Montserrat-Regular-2e" x="66.099991"/>
     <use xlink:href="#Montserrat-Regular-34" x="87.299988"/>
     <use xlink:href="#Montserrat-Regular-25" x="153.399979"/>
     <use xlink:href="#Montserrat-Regular-20" x="236.299973"/>
     <use xlink:href="#Montserrat-Regular-28" x="262.499969"/>
     <use xlink:href="#Montserrat-Regular-37" x="295.399963"/>
     <use xlink:href="#Montserrat-Regular-29" x="354.299957"/>
    </g>
   </g>
   <g id="text_22">
    <!-- 3.8% (6) -->
    <g style="fill: #555555" transform="translate(637.337999 326.468438)scale(0.14 -0.14)">
     <use xlink:href="#Montserrat-Regular-33"/>
     <use xlink:href="#Montserrat-Regular-2e" x="56.399994"/>
     <use xlink:href="#Montserrat-Regular-38" x="77.599991"/>
     <use xlink:href="#Montserrat-Regular-25" x="141.399979"/>
     <use xlink:href="#Montserrat-Regular-20" x="224.299973"/>
     <use xlink:href="#Montserrat-Regular-28" x="250.499969"/>
     <use xlink:href="#Montserrat-Regular-36" x="283.399963"/>
     <use xlink:href="#Montserrat-Regular-29" x="344.299957"/>
    </g>
   </g>
   <g id="line2d_25">
    <path d="M 70.41475 352.945312 
L 735.69475 352.945312 
" style="fill: none; stroke: #555555; stroke-width: 3; stroke-linecap: square"/>
   </g>
  </g>
 </g>
 <defs>
  <clipPath id="p60fe69d3c6">
   <rect x="70.41475" y="20.305313" width="665.28" height="332.64"/>
  </clipPath>
 </defs>
</svg>
