<?xml version="1.0" encoding="utf-8" standalone="no"?>
<!DOCTYPE svg PUBLIC "-//W3C//DTD SVG 1.1//EN"
  "http://www.w3.org/Graphics/SVG/1.1/DTD/svg11.dtd">
<svg xmlns:xlink="http://www.w3.org/1999/xlink" width="864pt" height="432pt" viewBox="0 0 864 432" xmlns="http://www.w3.org/2000/svg" version="1.1">
 <metadata>
  <rdf:RDF xmlns:dc="http://purl.org/dc/elements/1.1/" xmlns:cc="http://creativecommons.org/ns#" xmlns:rdf="http://www.w3.org/1999/02/22-rdf-syntax-ns#">
   <cc:Work>
    <dc:type rdf:resource="http://purl.org/dc/dcmitype/StillImage"/>
    <dc:date>2023-02-02T10:24:38.878470</dc:date>
    <dc:format>image/svg+xml</dc:format>
    <dc:creator>
     <cc:Agent>
      <dc:title>Matplotlib v3.5.3, https://matplotlib.org/</dc:title>
     </cc:Agent>
    </dc:creator>
   </cc:Work>
  </rdf:RDF>
 </metadata>
 <defs>
  <style type="text/css">*{stroke-linejoin: round; stroke-linecap: butt}</style>
 </defs>
 <g id="figure_1">
  <g id="patch_1">
   <path d="M 0 432 
L 864 432 
L 864 0 
L 0 0 
z
" style="fill: #f1f7f9"/>
  </g>
  <g id="axes_1">
   <g id="patch_2">
    <path d="M 68.715 381.512 
L 853.2 381.512 
L 853.2 23.76 
L 68.715 23.76 
z
" style="fill: #f1f7f9"/>
   </g>
   <g id="matplotlib.axis_1">
    <g id="xtick_1">
     <g id="line2d_1">
      <defs>
       <path id="md1d9780d61" d="M 0 0 
L 0 3.5 
" style="stroke: #000000; stroke-width: 0.8"/>
      </defs>
      <g>
       <use xlink:href="#md1d9780d61" x="153.557422" y="381.512" style="stroke: #000000; stroke-width: 0.8"/>
      </g>
     </g>
     <g id="text_1">
      <!-- Client -->
      <g style="fill: #555555" transform="translate(130.003672 400.3845)scale(0.16 -0.16)">
       <defs>
        <path id="Montserrat-Regular-43" d="M 2675 -38 
C 3334 -38 3923 186 4320 621 
L 4019 922 
C 3654 544 3206 384 2694 384 
C 1613 384 800 1178 800 2240 
C 800 3302 1613 4096 2694 4096 
C 3206 4096 3654 3936 4019 3565 
L 4320 3866 
C 3923 4301 3334 4518 2682 4518 
C 1331 4518 333 3552 333 2240 
C 333 928 1331 -38 2675 -38 
z
" transform="scale(0.015625)"/>
        <path id="Montserrat-Regular-6c" d="M 634 0 
L 1088 0 
L 1088 4749 
L 634 4749 
L 634 0 
z
" transform="scale(0.015625)"/>
        <path id="Montserrat-Regular-69" d="M 864 4102 
C 1056 4102 1197 4250 1197 4435 
C 1197 4608 1050 4749 864 4749 
C 678 4749 531 4602 531 4429 
C 531 4250 678 4102 864 4102 
z
M 634 0 
L 1088 0 
L 1088 3366 
L 634 3366 
L 634 0 
z
" transform="scale(0.015625)"/>
        <path id="Montserrat-Regular-65" d="M 3571 1683 
C 3571 2694 2886 3392 1939 3392 
C 992 3392 294 2682 294 1683 
C 294 685 1011 -32 2061 -32 
C 2592 -32 3059 160 3360 518 
L 3104 813 
C 2848 518 2483 371 2074 371 
C 1338 371 800 838 749 1542 
L 3565 1542 
C 3565 1594 3571 1645 3571 1683 
z
M 1939 3002 
C 2598 3002 3078 2541 3136 1882 
L 749 1882 
C 806 2541 1286 3002 1939 3002 
z
" transform="scale(0.015625)"/>
        <path id="Montserrat-Regular-6e" d="M 2349 3392 
C 1766 3392 1312 3155 1069 2746 
L 1069 3366 
L 634 3366 
L 634 0 
L 1088 0 
L 1088 1766 
C 1088 2534 1542 2982 2266 2982 
C 2906 2982 3277 2618 3277 1907 
L 3277 0 
L 3731 0 
L 3731 1952 
C 3731 2918 3168 3392 2349 3392 
z
" transform="scale(0.015625)"/>
        <path id="Montserrat-Regular-74" d="M 2246 531 
C 2118 416 1933 358 1747 358 
C 1370 358 1165 576 1165 973 
L 1165 2982 
L 2189 2982 
L 2189 3366 
L 1165 3366 
L 1165 4102 
L 710 4102 
L 710 3366 
L 109 3366 
L 109 2982 
L 710 2982 
L 710 947 
C 710 326 1062 -32 1696 -32 
C 1958 -32 2227 45 2406 205 
L 2246 531 
z
" transform="scale(0.015625)"/>
       </defs>
       <use xlink:href="#Montserrat-Regular-43"/>
       <use xlink:href="#Montserrat-Regular-6c" x="71.899994"/>
       <use xlink:href="#Montserrat-Regular-69" x="98.799988"/>
       <use xlink:href="#Montserrat-Regular-65" x="125.699982"/>
       <use xlink:href="#Montserrat-Regular-6e" x="186.099976"/>
       <use xlink:href="#Montserrat-Regular-74" x="253.799957"/>
      </g>
      <!-- Services -->
      <g style="fill: #555555" transform="translate(120.859922 417.7365)scale(0.16 -0.16)">
       <defs>
        <path id="Montserrat-Regular-53" d="M 1965 -38 
C 3110 -38 3635 525 3635 1184 
C 3635 2816 877 2074 877 3302 
C 877 3750 1242 4115 2061 4115 
C 2458 4115 2906 3994 3290 3744 
L 3450 4122 
C 3091 4371 2566 4518 2061 4518 
C 922 4518 410 3949 410 3290 
C 410 1632 3168 2387 3168 1158 
C 3168 717 2803 365 1965 365 
C 1376 365 806 595 486 909 
L 301 544 
C 634 198 1293 -38 1965 -38 
z
" transform="scale(0.015625)"/>
        <path id="Montserrat-Regular-72" d="M 1069 2707 
L 1069 3366 
L 634 3366 
L 634 0 
L 1088 0 
L 1088 1715 
C 1088 2509 1517 2957 2221 2957 
C 2253 2957 2291 2950 2330 2950 
L 2330 3392 
C 1709 3392 1280 3155 1069 2707 
z
" transform="scale(0.015625)"/>
        <path id="Montserrat-Regular-76" d="M 3014 3366 
L 1741 499 
L 480 3366 
L 6 3366 
L 1498 0 
L 1965 0 
L 3462 3366 
L 3014 3366 
z
" transform="scale(0.015625)"/>
        <path id="Montserrat-Regular-63" d="M 2029 -32 
C 2598 -32 3078 198 3347 634 
L 3008 864 
C 2778 525 2419 371 2029 371 
C 1293 371 755 890 755 1683 
C 755 2470 1293 2995 2029 2995 
C 2419 2995 2778 2835 3008 2496 
L 3347 2726 
C 3078 3168 2598 3392 2029 3392 
C 1024 3392 294 2688 294 1683 
C 294 678 1024 -32 2029 -32 
z
" transform="scale(0.015625)"/>
        <path id="Montserrat-Regular-73" d="M 1536 -32 
C 2413 -32 2925 346 2925 928 
C 2925 2221 742 1536 742 2445 
C 742 2765 1011 3002 1619 3002 
C 1965 3002 2317 2918 2611 2714 
L 2810 3078 
C 2528 3270 2054 3392 1619 3392 
C 762 3392 288 2982 288 2432 
C 288 1101 2470 1792 2470 915 
C 2470 582 2208 365 1568 365 
C 1094 365 640 531 371 742 
L 166 384 
C 442 147 979 -32 1536 -32 
z
" transform="scale(0.015625)"/>
       </defs>
       <use xlink:href="#Montserrat-Regular-53"/>
       <use xlink:href="#Montserrat-Regular-65" x="61.499985"/>
       <use xlink:href="#Montserrat-Regular-72" x="121.899979"/>
       <use xlink:href="#Montserrat-Regular-76" x="161.999969"/>
       <use xlink:href="#Montserrat-Regular-69" x="216.199966"/>
       <use xlink:href="#Montserrat-Regular-63" x="243.09996"/>
       <use xlink:href="#Montserrat-Regular-65" x="299.399948"/>
       <use xlink:href="#Montserrat-Regular-73" x="359.799942"/>
      </g>
     </g>
    </g>
    <g id="xtick_2">
     <g id="line2d_2">
      <g>
       <use xlink:href="#md1d9780d61" x="276.517453" y="381.512" style="stroke: #000000; stroke-width: 0.8"/>
      </g>
     </g>
     <g id="text_2">
      <!-- G&amp;A -->
      <g style="fill: #555555" transform="translate(259.244953 400.3845)scale(0.16 -0.16)">
       <defs>
        <path id="Montserrat-Regular-47" d="M 3885 730 
C 3539 480 3142 384 2714 384 
C 1613 384 800 1178 800 2240 
C 800 3309 1613 4096 2720 4096 
C 3245 4096 3693 3942 4070 3571 
L 4365 3872 
C 3968 4301 3379 4518 2701 4518 
C 1331 4518 333 3552 333 2240 
C 333 928 1331 -38 2694 -38 
C 3315 -38 3917 154 4339 531 
L 4339 2240 
L 3885 2240 
L 3885 730 
z
" transform="scale(0.015625)"/>
        <path id="Montserrat-Regular-26" d="M 4198 230 
L 3558 890 
C 3738 1171 3872 1517 3955 1920 
L 3584 2035 
C 3520 1696 3418 1408 3283 1171 
L 2054 2438 
C 2784 2861 3053 3174 3053 3622 
C 3053 4179 2643 4512 2010 4512 
C 1318 4512 877 4128 877 3558 
C 877 3213 1005 2944 1440 2496 
C 621 2022 314 1632 314 1101 
C 314 422 941 -38 1818 -38 
C 2426 -38 2938 166 3315 570 
L 3936 -70 
L 4198 230 
z
M 2010 4173 
C 2426 4173 2662 3949 2662 3616 
C 2662 3296 2451 3072 1805 2701 
C 1395 3117 1299 3302 1299 3565 
C 1299 3923 1562 4173 2010 4173 
z
M 1843 339 
C 1197 339 762 659 762 1146 
C 762 1542 979 1824 1696 2234 
L 3046 845 
C 2739 506 2330 339 1843 339 
z
" transform="scale(0.015625)"/>
        <path id="Montserrat-Regular-41" d="M 4077 0 
L 4576 0 
L 2528 4480 
L 2061 4480 
L 13 0 
L 506 0 
L 1043 1197 
L 3539 1197 
L 4077 0 
z
M 1216 1581 
L 2291 3987 
L 3366 1581 
L 1216 1581 
z
" transform="scale(0.015625)"/>
       </defs>
       <use xlink:href="#Montserrat-Regular-47"/>
       <use xlink:href="#Montserrat-Regular-26" x="77.299988"/>
       <use xlink:href="#Montserrat-Regular-41" x="144.199982"/>
      </g>
     </g>
    </g>
    <g id="xtick_3">
     <g id="line2d_3">
      <g>
       <use xlink:href="#md1d9780d61" x="399.477484" y="381.512" style="stroke: #000000; stroke-width: 0.8"/>
      </g>
     </g>
     <g id="text_3">
      <!-- Marketing -->
      <g style="fill: #555555" transform="translate(357.966234 400.3845)scale(0.16 -0.16)">
       <defs>
        <path id="Montserrat-Regular-4d" d="M 4992 4480 
L 3066 1158 
L 1120 4480 
L 730 4480 
L 730 0 
L 1184 0 
L 1184 3565 
L 2944 570 
L 3168 570 
L 4928 3584 
L 4928 0 
L 5382 0 
L 5382 4480 
L 4992 4480 
z
" transform="scale(0.015625)"/>
        <path id="Montserrat-Regular-61" d="M 1811 3392 
C 1280 3392 781 3226 442 2938 
L 646 2598 
C 922 2842 1331 2995 1766 2995 
C 2394 2995 2720 2682 2720 2106 
L 2720 1901 
L 1651 1901 
C 685 1901 352 1466 352 947 
C 352 365 819 -32 1581 -32 
C 2138 -32 2534 179 2739 525 
L 2739 0 
L 3174 0 
L 3174 2086 
C 3174 2957 2682 3392 1811 3392 
z
M 1651 326 
C 1114 326 800 570 800 960 
C 800 1306 1011 1562 1664 1562 
L 2720 1562 
L 2720 1011 
C 2541 570 2163 326 1651 326 
z
" transform="scale(0.015625)"/>
        <path id="Montserrat-Regular-6b" d="M 3238 0 
L 3795 0 
L 2221 1990 
L 3661 3366 
L 3098 3366 
L 1088 1530 
L 1088 4749 
L 634 4749 
L 634 0 
L 1088 0 
L 1088 960 
L 1882 1690 
L 3238 0 
z
" transform="scale(0.015625)"/>
        <path id="Montserrat-Regular-67" d="M 3315 3366 
L 3315 2720 
C 3034 3162 2547 3392 1984 3392 
C 1024 3392 294 2733 294 1766 
C 294 800 1024 128 1984 128 
C 2534 128 3014 352 3296 781 
L 3296 352 
C 3296 -480 2906 -870 2054 -870 
C 1536 -870 1050 -698 730 -410 
L 499 -755 
C 851 -1088 1453 -1274 2067 -1274 
C 3181 -1274 3750 -749 3750 410 
L 3750 3366 
L 3315 3366 
z
M 2029 531 
C 1286 531 755 1037 755 1766 
C 755 2496 1286 2995 2029 2995 
C 2771 2995 3309 2496 3309 1766 
C 3309 1037 2771 531 2029 531 
z
" transform="scale(0.015625)"/>
       </defs>
       <use xlink:href="#Montserrat-Regular-4d"/>
       <use xlink:href="#Montserrat-Regular-61" x="95.499985"/>
       <use xlink:href="#Montserrat-Regular-72" x="154.499969"/>
       <use xlink:href="#Montserrat-Regular-6b" x="194.59996"/>
       <use xlink:href="#Montserrat-Regular-65" x="254.699951"/>
       <use xlink:href="#Montserrat-Regular-74" x="315.099945"/>
       <use xlink:href="#Montserrat-Regular-69" x="355.699936"/>
       <use xlink:href="#Montserrat-Regular-6e" x="382.59993"/>
       <use xlink:href="#Montserrat-Regular-67" x="450.299911"/>
      </g>
     </g>
    </g>
    <g id="xtick_4">
     <g id="line2d_4">
      <g>
       <use xlink:href="#md1d9780d61" x="522.437516" y="381.512" style="stroke: #000000; stroke-width: 0.8"/>
      </g>
     </g>
     <g id="text_4">
      <!-- Operations -->
      <g style="fill: #555555" transform="translate(477.796266 400.3845)scale(0.16 -0.16)">
       <defs>
        <path id="Montserrat-Regular-4f" d="M 2688 -38 
C 4032 -38 5037 928 5037 2240 
C 5037 3552 4032 4518 2688 4518 
C 1331 4518 333 3546 333 2240 
C 333 934 1331 -38 2688 -38 
z
M 2688 384 
C 1606 384 800 1171 800 2240 
C 800 3309 1606 4096 2688 4096 
C 3763 4096 4563 3309 4563 2240 
C 4563 1171 3763 384 2688 384 
z
" transform="scale(0.015625)"/>
        <path id="Montserrat-Regular-70" d="M 2368 3392 
C 1811 3392 1344 3149 1069 2701 
L 1069 3366 
L 634 3366 
L 634 -1242 
L 1088 -1242 
L 1088 634 
C 1370 198 1830 -32 2368 -32 
C 3328 -32 4045 659 4045 1683 
C 4045 2701 3328 3392 2368 3392 
z
M 2336 371 
C 1619 371 1082 896 1082 1683 
C 1082 2464 1619 2995 2336 2995 
C 3046 2995 3590 2464 3590 1683 
C 3590 896 3046 371 2336 371 
z
" transform="scale(0.015625)"/>
        <path id="Montserrat-Regular-6f" d="M 2010 -32 
C 2995 -32 3718 685 3718 1683 
C 3718 2682 2995 3392 2010 3392 
C 1024 3392 294 2682 294 1683 
C 294 685 1024 -32 2010 -32 
z
M 2010 371 
C 1293 371 755 896 755 1683 
C 755 2470 1293 2995 2010 2995 
C 2726 2995 3258 2470 3258 1683 
C 3258 896 2726 371 2010 371 
z
" transform="scale(0.015625)"/>
       </defs>
       <use xlink:href="#Montserrat-Regular-4f"/>
       <use xlink:href="#Montserrat-Regular-70" x="83.899994"/>
       <use xlink:href="#Montserrat-Regular-65" x="151.699982"/>
       <use xlink:href="#Montserrat-Regular-72" x="212.099976"/>
       <use xlink:href="#Montserrat-Regular-61" x="252.199966"/>
       <use xlink:href="#Montserrat-Regular-74" x="311.199951"/>
       <use xlink:href="#Montserrat-Regular-69" x="351.799942"/>
       <use xlink:href="#Montserrat-Regular-6f" x="378.699936"/>
       <use xlink:href="#Montserrat-Regular-6e" x="441.399933"/>
       <use xlink:href="#Montserrat-Regular-73" x="509.099915"/>
      </g>
     </g>
    </g>
    <g id="xtick_5">
     <g id="line2d_5">
      <g>
       <use xlink:href="#md1d9780d61" x="645.397547" y="381.512" style="stroke: #000000; stroke-width: 0.8"/>
      </g>
     </g>
     <g id="text_5">
      <!-- R&amp;D -->
      <g style="fill: #555555" transform="translate(627.653797 400.3845)scale(0.16 -0.16)">
       <defs>
        <path id="Montserrat-Regular-52" d="M 4307 0 
L 3213 1536 
C 3866 1747 4237 2240 4237 2944 
C 4237 3904 3546 4480 2406 4480 
L 730 4480 
L 730 0 
L 1203 0 
L 1203 1421 
L 2406 1421 
C 2534 1421 2650 1427 2765 1440 
L 3789 0 
L 4307 0 
z
M 2394 1824 
L 1203 1824 
L 1203 4070 
L 2394 4070 
C 3290 4070 3763 3661 3763 2944 
C 3763 2240 3290 1824 2394 1824 
z
" transform="scale(0.015625)"/>
        <path id="Montserrat-Regular-44" d="M 730 0 
L 2554 0 
C 3987 0 4954 922 4954 2240 
C 4954 3558 3987 4480 2554 4480 
L 730 4480 
L 730 0 
z
M 1203 410 
L 1203 4070 
L 2528 4070 
C 3718 4070 4486 3315 4486 2240 
C 4486 1165 3718 410 2528 410 
L 1203 410 
z
" transform="scale(0.015625)"/>
       </defs>
       <use xlink:href="#Montserrat-Regular-52"/>
       <use xlink:href="#Montserrat-Regular-26" x="72.299988"/>
       <use xlink:href="#Montserrat-Regular-44" x="139.199982"/>
      </g>
     </g>
    </g>
    <g id="xtick_6">
     <g id="line2d_6">
      <g>
       <use xlink:href="#md1d9780d61" x="768.357578" y="381.512" style="stroke: #000000; stroke-width: 0.8"/>
      </g>
     </g>
     <g id="text_6">
      <!-- Sales -->
      <g style="fill: #555555" transform="translate(747.820078 400.3845)scale(0.16 -0.16)">
       <use xlink:href="#Montserrat-Regular-53"/>
       <use xlink:href="#Montserrat-Regular-61" x="61.499985"/>
       <use xlink:href="#Montserrat-Regular-6c" x="120.499969"/>
       <use xlink:href="#Montserrat-Regular-65" x="147.399963"/>
       <use xlink:href="#Montserrat-Regular-73" x="207.799957"/>
      </g>
     </g>
    </g>
   </g>
   <g id="matplotlib.axis_2">
    <g id="ytick_1">
     <g id="line2d_7">
      <path d="M 68.715 381.512 
L 853.2 381.512 
" clip-path="url(#p5593857bf9)" style="fill: none; stroke-dasharray: 1.85,0.8; stroke-dashoffset: 0; stroke: #b7b7b7; stroke-width: 0.5"/>
     </g>
     <g id="line2d_8">
      <defs>
       <path id="m5313a222e9" d="M 0 0 
L -3.5 0 
" style="stroke: #b7b7b7; stroke-width: 0.8"/>
      </defs>
      <g>
       <use xlink:href="#m5313a222e9" x="68.715" y="381.512" style="fill: #b7b7b7; stroke: #b7b7b7; stroke-width: 0.8"/>
      </g>
     </g>
     <g id="text_7">
      <!-- 0 -->
      <g style="fill: #b7b7b7" transform="translate(51.1225 387.44825)scale(0.16 -0.16)">
       <defs>
        <path id="Montserrat-Regular-30" d="M 2118 -38 
C 3155 -38 3910 813 3910 2240 
C 3910 3667 3155 4518 2118 4518 
C 1082 4518 333 3667 333 2240 
C 333 813 1082 -38 2118 -38 
z
M 2118 384 
C 1338 384 800 1043 800 2240 
C 800 3437 1338 4096 2118 4096 
C 2899 4096 3437 3437 3437 2240 
C 3437 1043 2899 384 2118 384 
z
" transform="scale(0.015625)"/>
       </defs>
       <use xlink:href="#Montserrat-Regular-30"/>
      </g>
     </g>
    </g>
    <g id="ytick_2">
     <g id="line2d_9">
      <path d="M 68.715 318.547648 
L 853.2 318.547648 
" clip-path="url(#p5593857bf9)" style="fill: none; stroke-dasharray: 1.85,0.8; stroke-dashoffset: 0; stroke: #b7b7b7; stroke-width: 0.5"/>
     </g>
     <g id="line2d_10">
      <g>
       <use xlink:href="#m5313a222e9" x="68.715" y="318.547648" style="fill: #b7b7b7; stroke: #b7b7b7; stroke-width: 0.8"/>
      </g>
     </g>
     <g id="text_8">
      <!-- 2 -->
      <g style="fill: #b7b7b7" transform="translate(52.6275 324.483898)scale(0.16 -0.16)">
       <defs>
        <path id="Montserrat-Regular-32" d="M 928 410 
L 2451 1907 
C 3053 2496 3187 2880 3187 3309 
C 3187 4058 2611 4518 1702 4518 
C 1018 4518 461 4288 115 3878 
L 442 3597 
C 736 3936 1139 4096 1664 4096 
C 2349 4096 2714 3776 2714 3258 
C 2714 2950 2618 2650 2112 2150 
L 250 326 
L 250 0 
L 3392 0 
L 3392 410 
L 928 410 
z
" transform="scale(0.015625)"/>
       </defs>
       <use xlink:href="#Montserrat-Regular-32"/>
      </g>
     </g>
    </g>
    <g id="ytick_3">
     <g id="line2d_11">
      <path d="M 68.715 255.583296 
L 853.2 255.583296 
" clip-path="url(#p5593857bf9)" style="fill: none; stroke-dasharray: 1.85,0.8; stroke-dashoffset: 0; stroke: #b7b7b7; stroke-width: 0.5"/>
     </g>
     <g id="line2d_12">
      <g>
       <use xlink:href="#m5313a222e9" x="68.715" y="255.583296" style="fill: #b7b7b7; stroke: #b7b7b7; stroke-width: 0.8"/>
      </g>
     </g>
     <g id="text_9">
      <!-- 4 -->
      <g style="fill: #b7b7b7" transform="translate(51.14 261.519546)scale(0.16 -0.16)">
       <defs>
        <path id="Montserrat-Regular-34" d="M 4141 1587 
L 3245 1587 
L 3245 2624 
L 2797 2624 
L 2797 1587 
L 851 1587 
L 3142 4480 
L 2630 4480 
L 256 1510 
L 256 1178 
L 2784 1178 
L 2784 0 
L 3245 0 
L 3245 1178 
L 4141 1178 
L 4141 1587 
z
" transform="scale(0.015625)"/>
       </defs>
       <use xlink:href="#Montserrat-Regular-34"/>
      </g>
     </g>
    </g>
    <g id="ytick_4">
     <g id="line2d_13">
      <path d="M 68.715 192.618944 
L 853.2 192.618944 
" clip-path="url(#p5593857bf9)" style="fill: none; stroke-dasharray: 1.85,0.8; stroke-dashoffset: 0; stroke: #b7b7b7; stroke-width: 0.5"/>
     </g>
     <g id="line2d_14">
      <g>
       <use xlink:href="#m5313a222e9" x="68.715" y="192.618944" style="fill: #b7b7b7; stroke: #b7b7b7; stroke-width: 0.8"/>
      </g>
     </g>
     <g id="text_10">
      <!-- 6 -->
      <g style="fill: #b7b7b7" transform="translate(51.97 198.555194)scale(0.16 -0.16)">
       <defs>
        <path id="Montserrat-Regular-36" d="M 2189 2682 
C 1568 2682 1043 2406 819 1914 
C 806 2048 800 2176 800 2278 
C 800 3494 1421 4115 2387 4115 
C 2720 4115 3027 4058 3258 3904 
L 3443 4275 
C 3162 4448 2784 4518 2381 4518 
C 1165 4518 333 3725 333 2202 
C 333 787 979 -38 2170 -38 
C 3040 -38 3699 499 3699 1338 
C 3699 2157 3078 2682 2189 2682 
z
M 2150 352 
C 1376 352 966 819 966 1312 
C 966 1869 1434 2291 2118 2291 
C 2810 2291 3245 1914 3245 1325 
C 3245 730 2797 352 2150 352 
z
" transform="scale(0.015625)"/>
       </defs>
       <use xlink:href="#Montserrat-Regular-36"/>
      </g>
     </g>
    </g>
    <g id="ytick_5">
     <g id="line2d_15">
      <path d="M 68.715 129.654592 
L 853.2 129.654592 
" clip-path="url(#p5593857bf9)" style="fill: none; stroke-dasharray: 1.85,0.8; stroke-dashoffset: 0; stroke: #b7b7b7; stroke-width: 0.5"/>
     </g>
     <g id="line2d_16">
      <g>
       <use xlink:href="#m5313a222e9" x="68.715" y="129.654592" style="fill: #b7b7b7; stroke: #b7b7b7; stroke-width: 0.8"/>
      </g>
     </g>
     <g id="text_11">
      <!-- 8 -->
      <g style="fill: #b7b7b7" transform="translate(51.5075 135.590842)scale(0.16 -0.16)">
       <defs>
        <path id="Montserrat-Regular-38" d="M 2899 2349 
C 3360 2528 3616 2867 3616 3334 
C 3616 4064 2982 4518 2035 4518 
C 1088 4518 467 4064 467 3334 
C 467 2867 717 2528 1171 2349 
C 614 2163 307 1786 307 1248 
C 307 454 960 -38 2035 -38 
C 3104 -38 3776 454 3776 1248 
C 3776 1779 3462 2163 2899 2349 
z
M 928 3322 
C 928 3821 1357 4128 2035 4128 
C 2707 4128 3149 3821 3149 3315 
C 3149 2829 2733 2515 2035 2515 
C 1338 2515 928 2829 928 3322 
z
M 2035 352 
C 1242 352 774 698 774 1254 
C 774 1805 1242 2150 2035 2150 
C 2829 2150 3302 1805 3302 1254 
C 3302 698 2829 352 2035 352 
z
" transform="scale(0.015625)"/>
       </defs>
       <use xlink:href="#Montserrat-Regular-38"/>
      </g>
     </g>
    </g>
    <g id="ytick_6">
     <g id="line2d_17">
      <path d="M 68.715 66.69024 
L 853.2 66.69024 
" clip-path="url(#p5593857bf9)" style="fill: none; stroke-dasharray: 1.85,0.8; stroke-dashoffset: 0; stroke: #b7b7b7; stroke-width: 0.5"/>
     </g>
     <g id="line2d_18">
      <g>
       <use xlink:href="#m5313a222e9" x="68.715" y="66.69024" style="fill: #b7b7b7; stroke: #b7b7b7; stroke-width: 0.8"/>
      </g>
     </g>
     <g id="text_12">
      <!-- 10 -->
      <g style="fill: #b7b7b7" transform="translate(45.3475 72.62649)scale(0.16 -0.16)">
       <defs>
        <path id="Montserrat-Regular-31" d="M 58 4480 
L 58 4070 
L 1114 4070 
L 1114 0 
L 1574 0 
L 1574 4480 
L 58 4480 
z
" transform="scale(0.015625)"/>
       </defs>
       <use xlink:href="#Montserrat-Regular-31"/>
       <use xlink:href="#Montserrat-Regular-30" x="36.099991"/>
      </g>
     </g>
    </g>
    <g id="text_13">
     <!-- [%] -->
     <g style="fill: #b7b7b7" transform="translate(10.6975 198.75475)scale(0.2 -0.2)">
      <defs>
       <path id="Montserrat-Regular-5b" d="M 730 -1242 
L 1901 -1242 
L 1901 -864 
L 1184 -864 
L 1184 4371 
L 1901 4371 
L 1901 4749 
L 730 4749 
L 730 -1242 
z
" transform="scale(0.015625)"/>
       <path id="Montserrat-Regular-25" d="M 1280 2080 
C 1875 2080 2291 2560 2291 3296 
C 2291 4032 1875 4512 1280 4512 
C 678 4512 269 4026 269 3296 
C 269 2566 678 2080 1280 2080 
z
M 934 0 
L 1312 0 
L 4371 4480 
L 3994 4480 
L 934 0 
z
M 1280 2368 
C 858 2368 589 2720 589 3296 
C 589 3872 858 4224 1280 4224 
C 1696 4224 1971 3878 1971 3296 
C 1971 2714 1696 2368 1280 2368 
z
M 4026 -32 
C 4627 -32 5037 454 5037 1184 
C 5037 1914 4627 2400 4026 2400 
C 3430 2400 3014 1914 3014 1184 
C 3014 454 3430 -32 4026 -32 
z
M 4026 256 
C 3610 256 3334 602 3334 1184 
C 3334 1766 3610 2112 4026 2112 
C 4448 2112 4717 1760 4717 1184 
C 4717 608 4448 256 4026 256 
z
" transform="scale(0.015625)"/>
       <path id="Montserrat-Regular-5d" d="M 1306 -1242 
L 1306 4749 
L 134 4749 
L 134 4371 
L 851 4371 
L 851 -864 
L 134 -864 
L 134 -1242 
L 1306 -1242 
z
" transform="scale(0.015625)"/>
      </defs>
      <use xlink:href="#Montserrat-Regular-5b"/>
      <use xlink:href="#Montserrat-Regular-25" x="31.799988"/>
      <use xlink:href="#Montserrat-Regular-5d" x="114.699982"/>
     </g>
    </g>
   </g>
   <g id="patch_3">
    <path d="M 104.373409 381.512 
L 202.741434 381.512 
L 202.741434 346.138769 
L 104.373409 346.138769 
z
" clip-path="url(#p5593857bf9)" style="fill: #b1e5f4"/>
   </g>
   <g id="patch_4">
    <path d="M 227.33344 381.512 
L 325.701466 381.512 
L 325.701466 107.753948 
L 227.33344 107.753948 
z
" clip-path="url(#p5593857bf9)" style="fill: #b1e5f4"/>
   </g>
   <g id="patch_5">
    <path d="M 350.293472 381.512 
L 448.661497 381.512 
L 448.661497 23.76 
L 350.293472 23.76 
z
" clip-path="url(#p5593857bf9)" style="fill: #b1e5f4"/>
   </g>
   <g id="patch_6">
    <path d="M 473.253503 381.512 
L 571.621528 381.512 
L 571.621528 23.76 
L 473.253503 23.76 
z
" clip-path="url(#p5593857bf9)" style="fill: #b1e5f4"/>
   </g>
   <g id="patch_7">
    <path d="M 596.213534 381.512 
L 694.58156 381.512 
L 694.58156 161.868912 
L 596.213534 161.868912 
z
" clip-path="url(#p5593857bf9)" style="fill: #b1e5f4"/>
   </g>
   <g id="patch_8">
    <path d="M 719.173566 381.512 
L 817.541591 381.512 
L 817.541591 137.129812 
L 719.173566 137.129812 
z
" clip-path="url(#p5593857bf9)" style="fill: #b1e5f4"/>
   </g>
   <g id="text_14">
    <!-- 1% -->
    <g style="fill: #555555" transform="translate(145.227422 343.421894)scale(0.14 -0.14)">
     <use xlink:href="#Montserrat-Regular-31"/>
     <use xlink:href="#Montserrat-Regular-25" x="36.099991"/>
    </g>
   </g>
   <g id="text_15">
    <!-- 9% -->
    <g style="fill: #555555" transform="translate(266.450578 105.037073)scale(0.14 -0.14)">
     <defs>
      <path id="Montserrat-Regular-39" d="M 1728 4518 
C 858 4518 198 3981 198 3142 
C 198 2323 819 1798 1709 1798 
C 2330 1798 2854 2074 3078 2566 
C 3091 2432 3098 2304 3098 2202 
C 3098 986 2477 365 1510 365 
C 1178 365 870 422 640 576 
L 454 205 
C 736 32 1114 -38 1517 -38 
C 2733 -38 3565 755 3565 2278 
C 3565 3693 2918 4518 1728 4518 
z
M 1779 2189 
C 1088 2189 653 2566 653 3155 
C 653 3750 1101 4128 1747 4128 
C 2522 4128 2931 3661 2931 3168 
C 2931 2611 2464 2189 1779 2189 
z
" transform="scale(0.015625)"/>
     </defs>
     <use xlink:href="#Montserrat-Regular-39"/>
     <use xlink:href="#Montserrat-Regular-25" x="60.899994"/>
    </g>
   </g>
   <g id="text_16">
    <!-- 11% -->
    <g style="fill: #555555" transform="translate(388.620922 21.043125)scale(0.14 -0.14)">
     <use xlink:href="#Montserrat-Regular-31"/>
     <use xlink:href="#Montserrat-Regular-31" x="36.099991"/>
     <use xlink:href="#Montserrat-Regular-25" x="72.199982"/>
    </g>
   </g>
   <g id="text_17">
    <!-- 11% -->
    <g style="fill: #555555" transform="translate(511.580953 21.043125)scale(0.14 -0.14)">
     <use xlink:href="#Montserrat-Regular-31"/>
     <use xlink:href="#Montserrat-Regular-31" x="36.099991"/>
     <use xlink:href="#Montserrat-Regular-25" x="72.199982"/>
    </g>
   </g>
   <g id="text_18">
    <!-- 7% -->
    <g style="fill: #555555" transform="translate(635.470672 159.152037)scale(0.14 -0.14)">
     <defs>
      <path id="Montserrat-Regular-37" d="M 205 4480 
L 205 3232 
L 659 3232 
L 659 4070 
L 2963 4070 
L 1120 0 
L 1619 0 
L 3494 4154 
L 3494 4480 
L 205 4480 
z
" transform="scale(0.015625)"/>
     </defs>
     <use xlink:href="#Montserrat-Regular-37"/>
     <use xlink:href="#Montserrat-Regular-25" x="58.899994"/>
    </g>
   </g>
   <g id="text_19">
    <!-- 8% -->
    <g style="fill: #555555" transform="translate(758.08836 134.412937)scale(0.14 -0.14)">
     <use xlink:href="#Montserrat-Regular-38"/>
     <use xlink:href="#Montserrat-Regular-25" x="63.799988"/>
    </g>
   </g>
   <g id="line2d_19">
    <path d="M 68.715 381.512 
L 853.2 381.512 
" style="fill: none; stroke: #555555; stroke-width: 3; stroke-linecap: square"/>
   </g>
  </g>
 </g>
 <defs>
  <clipPath id="p5593857bf9">
   <rect x="68.715" y="23.76" width="784.485" height="357.752"/>
  </clipPath>
 </defs>
</svg>
