<?xml version="1.0" encoding="utf-8" standalone="no"?>
<!DOCTYPE svg PUBLIC "-//W3C//DTD SVG 1.1//EN"
  "http://www.w3.org/Graphics/SVG/1.1/DTD/svg11.dtd">
<svg xmlns:xlink="http://www.w3.org/1999/xlink" width="744.226pt" height="416.826813pt" viewBox="0 0 744.226 416.826813" xmlns="http://www.w3.org/2000/svg" version="1.1">
 <metadata>
  <rdf:RDF xmlns:dc="http://purl.org/dc/elements/1.1/" xmlns:cc="http://creativecommons.org/ns#" xmlns:rdf="http://www.w3.org/1999/02/22-rdf-syntax-ns#">
   <cc:Work>
    <dc:type rdf:resource="http://purl.org/dc/dcmitype/StillImage"/>
    <dc:date>2023-02-01T22:41:15.599524</dc:date>
    <dc:format>image/svg+xml</dc:format>
    <dc:creator>
     <cc:Agent>
      <dc:title>Matplotlib v3.5.3, https://matplotlib.org/</dc:title>
     </cc:Agent>
    </dc:creator>
   </cc:Work>
  </rdf:RDF>
 </metadata>
 <defs>
  <style type="text/css">*{stroke-linejoin: round; stroke-linecap: butt}</style>
 </defs>
 <g id="figure_1">
  <g id="patch_1">
   <path d="M 0 416.826813 
L 744.226 416.826813 
L 744.226 0 
L 0 0 
z
" style="fill: #f1f7f9"/>
  </g>
  <g id="axes_1">
   <g id="patch_2">
    <path d="M 71.746 352.945312 
L 737.026 352.945312 
L 737.026 20.305313 
L 71.746 20.305313 
z
" style="fill: #f1f7f9"/>
   </g>
   <g id="matplotlib.axis_1">
    <g id="xtick_1">
     <g id="line2d_1">
      <defs>
       <path id="md7df929ac2" d="M 0 0 
L 0 3.5 
" style="stroke: #000000; stroke-width: 0.8"/>
      </defs>
      <g>
       <use xlink:href="#md7df929ac2" x="133.001385" y="352.945312" style="stroke: #000000; stroke-width: 0.8"/>
      </g>
     </g>
     <g id="text_1">
      <!-- 0 -->
      <g style="fill: #555555" transform="translate(127.705135 371.817813)scale(0.16 -0.16)">
       <defs>
        <path id="Montserrat-Regular-30" d="M 2118 -38 
C 3155 -38 3910 813 3910 2240 
C 3910 3667 3155 4518 2118 4518 
C 1082 4518 333 3667 333 2240 
C 333 813 1082 -38 2118 -38 
z
M 2118 384 
C 1338 384 800 1043 800 2240 
C 800 3437 1338 4096 2118 4096 
C 2899 4096 3437 3437 3437 2240 
C 3437 1043 2899 384 2118 384 
z
" transform="scale(0.015625)"/>
       </defs>
       <use xlink:href="#Montserrat-Regular-30"/>
      </g>
      <!-- - -->
      <g style="fill: #555555" transform="translate(129.945135 389.169813)scale(0.16 -0.16)">
       <defs>
        <path id="Montserrat-Regular-2d" d="M 384 1536 
L 2061 1536 
L 2061 1933 
L 384 1933 
L 384 1536 
z
" transform="scale(0.015625)"/>
       </defs>
       <use xlink:href="#Montserrat-Regular-2d"/>
      </g>
      <!-- 0.5 -->
      <g style="fill: #555555" transform="translate(121.481385 406.521813)scale(0.16 -0.16)">
       <defs>
        <path id="Montserrat-Regular-2e" d="M 678 -32 
C 864 -32 1024 122 1024 320 
C 1024 518 864 666 678 666 
C 493 666 339 518 339 320 
C 339 122 493 -32 678 -32 
z
" transform="scale(0.015625)"/>
        <path id="Montserrat-Regular-35" d="M 1510 2643 
L 934 2643 
L 1088 4070 
L 3136 4070 
L 3136 4480 
L 685 4480 
L 454 2234 
L 1408 2234 
C 2547 2234 2906 1875 2906 1299 
C 2906 755 2502 384 1741 384 
C 1165 384 653 602 365 902 
L 141 538 
C 486 186 1101 -38 1747 -38 
C 2842 -38 3373 557 3373 1318 
C 3373 2112 2861 2643 1510 2643 
z
" transform="scale(0.015625)"/>
       </defs>
       <use xlink:href="#Montserrat-Regular-30"/>
       <use xlink:href="#Montserrat-Regular-2e" x="66.199997"/>
       <use xlink:href="#Montserrat-Regular-35" x="87.399994"/>
      </g>
     </g>
    </g>
    <g id="xtick_2">
     <g id="line2d_2">
      <g>
       <use xlink:href="#md7df929ac2" x="210.539846" y="352.945312" style="stroke: #000000; stroke-width: 0.8"/>
      </g>
     </g>
     <g id="text_2">
      <!-- 0.5 -->
      <g style="fill: #555555" transform="translate(199.019846 371.817813)scale(0.16 -0.16)">
       <use xlink:href="#Montserrat-Regular-30"/>
       <use xlink:href="#Montserrat-Regular-2e" x="66.199997"/>
       <use xlink:href="#Montserrat-Regular-35" x="87.399994"/>
      </g>
      <!-- - -->
      <g style="fill: #555555" transform="translate(207.483596 389.169813)scale(0.16 -0.16)">
       <use xlink:href="#Montserrat-Regular-2d"/>
      </g>
      <!-- 1 -->
      <g style="fill: #555555" transform="translate(207.652346 406.521813)scale(0.16 -0.16)">
       <defs>
        <path id="Montserrat-Regular-31" d="M 58 4480 
L 58 4070 
L 1114 4070 
L 1114 0 
L 1574 0 
L 1574 4480 
L 58 4480 
z
" transform="scale(0.015625)"/>
       </defs>
       <use xlink:href="#Montserrat-Regular-31"/>
      </g>
     </g>
    </g>
    <g id="xtick_3">
     <g id="line2d_3">
      <g>
       <use xlink:href="#md7df929ac2" x="288.078308" y="352.945312" style="stroke: #000000; stroke-width: 0.8"/>
      </g>
     </g>
     <g id="text_3">
      <!-- 1 -->
      <g style="fill: #555555" transform="translate(285.190808 371.817813)scale(0.16 -0.16)">
       <use xlink:href="#Montserrat-Regular-31"/>
      </g>
      <!-- - -->
      <g style="fill: #555555" transform="translate(285.022058 389.169813)scale(0.16 -0.16)">
       <use xlink:href="#Montserrat-Regular-2d"/>
      </g>
      <!-- 2 -->
      <g style="fill: #555555" transform="translate(283.534558 406.521813)scale(0.16 -0.16)">
       <defs>
        <path id="Montserrat-Regular-32" d="M 928 410 
L 2451 1907 
C 3053 2496 3187 2880 3187 3309 
C 3187 4058 2611 4518 1702 4518 
C 1018 4518 461 4288 115 3878 
L 442 3597 
C 736 3936 1139 4096 1664 4096 
C 2349 4096 2714 3776 2714 3258 
C 2714 2950 2618 2650 2112 2150 
L 250 326 
L 250 0 
L 3392 0 
L 3392 410 
L 928 410 
z
" transform="scale(0.015625)"/>
       </defs>
       <use xlink:href="#Montserrat-Regular-32"/>
      </g>
     </g>
    </g>
    <g id="xtick_4">
     <g id="line2d_4">
      <g>
       <use xlink:href="#md7df929ac2" x="365.616769" y="352.945312" style="stroke: #000000; stroke-width: 0.8"/>
      </g>
     </g>
     <g id="text_4">
      <!-- 2 -->
      <g style="fill: #555555" transform="translate(361.073019 371.817813)scale(0.16 -0.16)">
       <use xlink:href="#Montserrat-Regular-32"/>
      </g>
      <!-- - -->
      <g style="fill: #555555" transform="translate(362.560519 389.169813)scale(0.16 -0.16)">
       <use xlink:href="#Montserrat-Regular-2d"/>
      </g>
      <!-- 3 -->
      <g style="fill: #555555" transform="translate(361.104269 406.521813)scale(0.16 -0.16)">
       <defs>
        <path id="Montserrat-Regular-33" d="M 1856 2560 
L 3123 4154 
L 3123 4480 
L 243 4480 
L 243 4070 
L 2534 4070 
L 1293 2515 
L 1293 2176 
L 1613 2176 
C 2445 2176 2822 1824 2822 1286 
C 2822 730 2413 384 1670 384 
C 1088 384 570 602 282 902 
L 58 538 
C 403 186 1024 -38 1670 -38 
C 2752 -38 3296 538 3296 1286 
C 3296 2003 2816 2509 1856 2560 
z
" transform="scale(0.015625)"/>
       </defs>
       <use xlink:href="#Montserrat-Regular-33"/>
      </g>
     </g>
    </g>
    <g id="xtick_5">
     <g id="line2d_5">
      <g>
       <use xlink:href="#md7df929ac2" x="443.155231" y="352.945312" style="stroke: #000000; stroke-width: 0.8"/>
      </g>
     </g>
     <g id="text_5">
      <!-- 3 -->
      <g style="fill: #555555" transform="translate(438.642731 371.817813)scale(0.16 -0.16)">
       <use xlink:href="#Montserrat-Regular-33"/>
      </g>
      <!-- - -->
      <g style="fill: #555555" transform="translate(440.098981 389.169813)scale(0.16 -0.16)">
       <use xlink:href="#Montserrat-Regular-2d"/>
      </g>
      <!-- 4 -->
      <g style="fill: #555555" transform="translate(437.867731 406.521813)scale(0.16 -0.16)">
       <defs>
        <path id="Montserrat-Regular-34" d="M 4141 1587 
L 3245 1587 
L 3245 2624 
L 2797 2624 
L 2797 1587 
L 851 1587 
L 3142 4480 
L 2630 4480 
L 256 1510 
L 256 1178 
L 2784 1178 
L 2784 0 
L 3245 0 
L 3245 1178 
L 4141 1178 
L 4141 1587 
z
" transform="scale(0.015625)"/>
       </defs>
       <use xlink:href="#Montserrat-Regular-34"/>
      </g>
     </g>
    </g>
    <g id="xtick_6">
     <g id="line2d_6">
      <g>
       <use xlink:href="#md7df929ac2" x="520.693692" y="352.945312" style="stroke: #000000; stroke-width: 0.8"/>
      </g>
     </g>
     <g id="text_6">
      <!-- 4 -->
      <g style="fill: #555555" transform="translate(515.406192 371.817813)scale(0.16 -0.16)">
       <use xlink:href="#Montserrat-Regular-34"/>
      </g>
      <!-- - -->
      <g style="fill: #555555" transform="translate(517.637442 389.169813)scale(0.16 -0.16)">
       <use xlink:href="#Montserrat-Regular-2d"/>
      </g>
      <!-- 5 -->
      <g style="fill: #555555" transform="translate(516.166192 406.521813)scale(0.16 -0.16)">
       <use xlink:href="#Montserrat-Regular-35"/>
      </g>
     </g>
    </g>
    <g id="xtick_7">
     <g id="line2d_7">
      <g>
       <use xlink:href="#md7df929ac2" x="598.232154" y="352.945312" style="stroke: #000000; stroke-width: 0.8"/>
      </g>
     </g>
     <g id="text_7">
      <!-- 5 -->
      <g style="fill: #555555" transform="translate(593.704654 371.817813)scale(0.16 -0.16)">
       <use xlink:href="#Montserrat-Regular-35"/>
      </g>
      <!-- - -->
      <g style="fill: #555555" transform="translate(595.175904 389.169813)scale(0.16 -0.16)">
       <use xlink:href="#Montserrat-Regular-2d"/>
      </g>
      <!-- 6 -->
      <g style="fill: #555555" transform="translate(593.359654 406.521813)scale(0.16 -0.16)">
       <defs>
        <path id="Montserrat-Regular-36" d="M 2189 2682 
C 1568 2682 1043 2406 819 1914 
C 806 2048 800 2176 800 2278 
C 800 3494 1421 4115 2387 4115 
C 2720 4115 3027 4058 3258 3904 
L 3443 4275 
C 3162 4448 2784 4518 2381 4518 
C 1165 4518 333 3725 333 2202 
C 333 787 979 -38 2170 -38 
C 3040 -38 3699 499 3699 1338 
C 3699 2157 3078 2682 2189 2682 
z
M 2150 352 
C 1376 352 966 819 966 1312 
C 966 1869 1434 2291 2118 2291 
C 2810 2291 3245 1914 3245 1325 
C 3245 730 2797 352 2150 352 
z
" transform="scale(0.015625)"/>
       </defs>
       <use xlink:href="#Montserrat-Regular-36"/>
      </g>
     </g>
    </g>
    <g id="xtick_8">
     <g id="line2d_8">
      <g>
       <use xlink:href="#md7df929ac2" x="675.770615" y="352.945312" style="stroke: #000000; stroke-width: 0.8"/>
      </g>
     </g>
     <g id="text_8">
      <!-- 6 -->
      <g style="fill: #555555" transform="translate(670.898115 371.817813)scale(0.16 -0.16)">
       <use xlink:href="#Montserrat-Regular-36"/>
      </g>
      <!-- - -->
      <g style="fill: #555555" transform="translate(672.714365 389.169813)scale(0.16 -0.16)">
       <use xlink:href="#Montserrat-Regular-2d"/>
      </g>
      <!-- 7 -->
      <g style="fill: #555555" transform="translate(671.058115 406.521813)scale(0.16 -0.16)">
       <defs>
        <path id="Montserrat-Regular-37" d="M 205 4480 
L 205 3232 
L 659 3232 
L 659 4070 
L 2963 4070 
L 1120 0 
L 1619 0 
L 3494 4154 
L 3494 4480 
L 205 4480 
z
" transform="scale(0.015625)"/>
       </defs>
       <use xlink:href="#Montserrat-Regular-37"/>
      </g>
     </g>
    </g>
   </g>
   <g id="matplotlib.axis_2">
    <g id="ytick_1">
     <g id="line2d_9">
      <path d="M 71.746 352.945312 
L 737.026 352.945312 
" clip-path="url(#p109acfc665)" style="fill: none; stroke-dasharray: 1.85,0.8; stroke-dashoffset: 0; stroke: #b7b7b7; stroke-width: 0.5"/>
     </g>
     <g id="line2d_10">
      <defs>
       <path id="m6ef11caa75" d="M 0 0 
L -3.5 0 
" style="stroke: #b7b7b7; stroke-width: 0.8"/>
      </defs>
      <g>
       <use xlink:href="#m6ef11caa75" x="71.746" y="352.945312" style="fill: #b7b7b7; stroke: #b7b7b7; stroke-width: 0.8"/>
      </g>
     </g>
     <g id="text_9">
      <!-- 0 -->
      <g style="fill: #b7b7b7" transform="translate(54.1535 358.881563)scale(0.16 -0.16)">
       <use xlink:href="#Montserrat-Regular-30"/>
      </g>
     </g>
    </g>
    <g id="ytick_2">
     <g id="line2d_11">
      <path d="M 71.746 289.441312 
L 737.026 289.441312 
" clip-path="url(#p109acfc665)" style="fill: none; stroke-dasharray: 1.85,0.8; stroke-dashoffset: 0; stroke: #b7b7b7; stroke-width: 0.5"/>
     </g>
     <g id="line2d_12">
      <g>
       <use xlink:href="#m6ef11caa75" x="71.746" y="289.441312" style="fill: #b7b7b7; stroke: #b7b7b7; stroke-width: 0.8"/>
      </g>
     </g>
     <g id="text_10">
      <!-- 5 -->
      <g style="fill: #b7b7b7" transform="translate(55.691 295.377563)scale(0.16 -0.16)">
       <use xlink:href="#Montserrat-Regular-35"/>
      </g>
     </g>
    </g>
    <g id="ytick_3">
     <g id="line2d_13">
      <path d="M 71.746 225.937312 
L 737.026 225.937312 
" clip-path="url(#p109acfc665)" style="fill: none; stroke-dasharray: 1.85,0.8; stroke-dashoffset: 0; stroke: #b7b7b7; stroke-width: 0.5"/>
     </g>
     <g id="line2d_14">
      <g>
       <use xlink:href="#m6ef11caa75" x="71.746" y="225.937312" style="fill: #b7b7b7; stroke: #b7b7b7; stroke-width: 0.8"/>
      </g>
     </g>
     <g id="text_11">
      <!-- 10 -->
      <g style="fill: #b7b7b7" transform="translate(48.3785 231.873563)scale(0.16 -0.16)">
       <use xlink:href="#Montserrat-Regular-31"/>
       <use xlink:href="#Montserrat-Regular-30" x="36.099991"/>
      </g>
     </g>
    </g>
    <g id="ytick_4">
     <g id="line2d_15">
      <path d="M 71.746 162.433312 
L 737.026 162.433312 
" clip-path="url(#p109acfc665)" style="fill: none; stroke-dasharray: 1.85,0.8; stroke-dashoffset: 0; stroke: #b7b7b7; stroke-width: 0.5"/>
     </g>
     <g id="line2d_16">
      <g>
       <use xlink:href="#m6ef11caa75" x="71.746" y="162.433312" style="fill: #b7b7b7; stroke: #b7b7b7; stroke-width: 0.8"/>
      </g>
     </g>
     <g id="text_12">
      <!-- 15 -->
      <g style="fill: #b7b7b7" transform="translate(49.916 168.369563)scale(0.16 -0.16)">
       <use xlink:href="#Montserrat-Regular-31"/>
       <use xlink:href="#Montserrat-Regular-35" x="36.099991"/>
      </g>
     </g>
    </g>
    <g id="ytick_5">
     <g id="line2d_17">
      <path d="M 71.746 98.929312 
L 737.026 98.929312 
" clip-path="url(#p109acfc665)" style="fill: none; stroke-dasharray: 1.85,0.8; stroke-dashoffset: 0; stroke: #b7b7b7; stroke-width: 0.5"/>
     </g>
     <g id="line2d_18">
      <g>
       <use xlink:href="#m6ef11caa75" x="71.746" y="98.929312" style="fill: #b7b7b7; stroke: #b7b7b7; stroke-width: 0.8"/>
      </g>
     </g>
     <g id="text_13">
      <!-- 20 -->
      <g style="fill: #b7b7b7" transform="translate(45.066 104.865562)scale(0.16 -0.16)">
       <use xlink:href="#Montserrat-Regular-32"/>
       <use xlink:href="#Montserrat-Regular-30" x="56.799988"/>
      </g>
     </g>
    </g>
    <g id="ytick_6">
     <g id="line2d_19">
      <path d="M 71.746 35.425312 
L 737.026 35.425312 
" clip-path="url(#p109acfc665)" style="fill: none; stroke-dasharray: 1.85,0.8; stroke-dashoffset: 0; stroke: #b7b7b7; stroke-width: 0.5"/>
     </g>
     <g id="line2d_20">
      <g>
       <use xlink:href="#m6ef11caa75" x="71.746" y="35.425312" style="fill: #b7b7b7; stroke: #b7b7b7; stroke-width: 0.8"/>
      </g>
     </g>
     <g id="text_14">
      <!-- 25 -->
      <g style="fill: #b7b7b7" transform="translate(46.6035 41.361562)scale(0.16 -0.16)">
       <use xlink:href="#Montserrat-Regular-32"/>
       <use xlink:href="#Montserrat-Regular-35" x="56.799988"/>
      </g>
     </g>
    </g>
    <g id="text_15">
     <!-- [%] -->
     <g style="fill: #b7b7b7" transform="translate(7.2 182.744063)scale(0.2 -0.2)">
      <defs>
       <path id="Montserrat-Regular-5b" d="M 730 -1242 
L 1901 -1242 
L 1901 -864 
L 1184 -864 
L 1184 4371 
L 1901 4371 
L 1901 4749 
L 730 4749 
L 730 -1242 
z
" transform="scale(0.015625)"/>
       <path id="Montserrat-Regular-25" d="M 1280 2080 
C 1875 2080 2291 2560 2291 3296 
C 2291 4032 1875 4512 1280 4512 
C 678 4512 269 4026 269 3296 
C 269 2566 678 2080 1280 2080 
z
M 934 0 
L 1312 0 
L 4371 4480 
L 3994 4480 
L 934 0 
z
M 1280 2368 
C 858 2368 589 2720 589 3296 
C 589 3872 858 4224 1280 4224 
C 1696 4224 1971 3878 1971 3296 
C 1971 2714 1696 2368 1280 2368 
z
M 4026 -32 
C 4627 -32 5037 454 5037 1184 
C 5037 1914 4627 2400 4026 2400 
C 3430 2400 3014 1914 3014 1184 
C 3014 454 3430 -32 4026 -32 
z
M 4026 256 
C 3610 256 3334 602 3334 1184 
C 3334 1766 3610 2112 4026 2112 
C 4448 2112 4717 1760 4717 1184 
C 4717 608 4448 256 4026 256 
z
" transform="scale(0.015625)"/>
       <path id="Montserrat-Regular-5d" d="M 1306 -1242 
L 1306 4749 
L 134 4749 
L 134 4371 
L 851 4371 
L 851 -864 
L 134 -864 
L 134 -1242 
L 1306 -1242 
z
" transform="scale(0.015625)"/>
      </defs>
      <use xlink:href="#Montserrat-Regular-5b"/>
      <use xlink:href="#Montserrat-Regular-25" x="31.799988"/>
      <use xlink:href="#Montserrat-Regular-5d" x="114.699982"/>
     </g>
    </g>
   </g>
   <g id="patch_3">
    <path d="M 101.986 352.945312 
L 164.016769 352.945312 
L 164.016769 298.899355 
L 101.986 298.899355 
z
" clip-path="url(#p109acfc665)" style="fill: #6eb7fa"/>
   </g>
   <g id="patch_4">
    <path d="M 179.524462 352.945312 
L 241.555231 352.945312 
L 241.555231 272.403654 
L 179.524462 272.403654 
z
" clip-path="url(#p109acfc665)" style="fill: #6eb7fa"/>
   </g>
   <g id="patch_5">
    <path d="M 257.062923 352.945312 
L 319.093692 352.945312 
L 319.093692 273.565313 
L 257.062923 273.565313 
z
" clip-path="url(#p109acfc665)" style="fill: #6eb7fa"/>
   </g>
   <g id="patch_6">
    <path d="M 334.601385 352.945312 
L 396.632154 352.945312 
L 396.632154 231.985312 
L 334.601385 231.985312 
z
" clip-path="url(#p109acfc665)" style="fill: #6eb7fa"/>
   </g>
   <g id="patch_7">
    <path d="M 412.139846 352.945312 
L 474.170615 352.945312 
L 474.170615 288.364974 
L 412.139846 288.364974 
z
" clip-path="url(#p109acfc665)" style="fill: #6eb7fa"/>
   </g>
   <g id="patch_8">
    <path d="M 489.678308 352.945312 
L 551.709077 352.945312 
L 551.709077 352.945312 
L 489.678308 352.945312 
z
" clip-path="url(#p109acfc665)" style="fill: #6eb7fa"/>
   </g>
   <g id="patch_9">
    <path d="M 567.216769 352.945312 
L 629.247538 352.945312 
L 629.247538 352.945312 
L 567.216769 352.945312 
z
" clip-path="url(#p109acfc665)" style="fill: #6eb7fa"/>
   </g>
   <g id="patch_10">
    <path d="M 644.755231 352.945312 
L 706.786 352.945312 
L 706.786 352.945312 
L 644.755231 352.945312 
z
" clip-path="url(#p109acfc665)" style="fill: #6eb7fa"/>
   </g>
   <g id="patch_11">
    <path d="M 101.986 298.899355 
L 164.016769 298.899355 
L 164.016769 136.761483 
L 101.986 136.761483 
z
" clip-path="url(#p109acfc665)" style="fill: #b2c6e3"/>
   </g>
   <g id="patch_12">
    <path d="M 179.524462 272.403654 
L 241.555231 272.403654 
L 241.555231 136.102386 
L 179.524462 136.102386 
z
" clip-path="url(#p109acfc665)" style="fill: #b2c6e3"/>
   </g>
   <g id="patch_13">
    <path d="M 257.062923 273.565313 
L 319.093692 273.565313 
L 319.093692 114.805312 
L 257.062923 114.805312 
z
" clip-path="url(#p109acfc665)" style="fill: #b2c6e3"/>
   </g>
   <g id="patch_14">
    <path d="M 334.601385 231.985313 
L 396.632154 231.985313 
L 396.632154 20.305313 
L 334.601385 20.305313 
z
" clip-path="url(#p109acfc665)" style="fill: #b2c6e3"/>
   </g>
   <g id="patch_15">
    <path d="M 412.139846 288.364974 
L 474.170615 288.364974 
L 474.170615 180.731075 
L 412.139846 180.731075 
z
" clip-path="url(#p109acfc665)" style="fill: #b2c6e3"/>
   </g>
   <g id="patch_16">
    <path d="M 489.678308 352.945312 
L 551.709077 352.945312 
L 551.709077 295.214403 
L 489.678308 295.214403 
z
" clip-path="url(#p109acfc665)" style="fill: #b2c6e3"/>
   </g>
   <g id="patch_17">
    <path d="M 567.216769 352.945312 
L 629.247538 352.945312 
L 629.247538 352.945312 
L 567.216769 352.945312 
z
" clip-path="url(#p109acfc665)" style="fill: #b2c6e3"/>
   </g>
   <g id="patch_18">
    <path d="M 644.755231 352.945312 
L 706.786 352.945312 
L 706.786 352.945312 
L 644.755231 352.945312 
z
" clip-path="url(#p109acfc665)" style="fill: #b2c6e3"/>
   </g>
   <g id="text_16">
    <!-- 17.0% -->
    <g style="fill: #555555" transform="translate(114.42951 134.044608)scale(0.14 -0.14)">
     <use xlink:href="#Montserrat-Regular-31"/>
     <use xlink:href="#Montserrat-Regular-37" x="36.099991"/>
     <use xlink:href="#Montserrat-Regular-2e" x="94.999985"/>
     <use xlink:href="#Montserrat-Regular-30" x="116.199982"/>
     <use xlink:href="#Montserrat-Regular-25" x="182.399979"/>
    </g>
   </g>
   <g id="text_17">
    <!-- 17.1% -->
    <g style="fill: #555555" transform="translate(194.075627 133.385511)scale(0.14 -0.14)">
     <use xlink:href="#Montserrat-Regular-31"/>
     <use xlink:href="#Montserrat-Regular-37" x="36.099991"/>
     <use xlink:href="#Montserrat-Regular-2e" x="94.999985"/>
     <use xlink:href="#Montserrat-Regular-31" x="116.199982"/>
     <use xlink:href="#Montserrat-Regular-25" x="152.299973"/>
    </g>
   </g>
   <g id="text_18">
    <!-- 18.8% -->
    <g style="fill: #555555" transform="translate(269.332526 112.088437)scale(0.14 -0.14)">
     <defs>
      <path id="Montserrat-Regular-38" d="M 2899 2349 
C 3360 2528 3616 2867 3616 3334 
C 3616 4064 2982 4518 2035 4518 
C 1088 4518 467 4064 467 3334 
C 467 2867 717 2528 1171 2349 
C 614 2163 307 1786 307 1248 
C 307 454 960 -38 2035 -38 
C 3104 -38 3776 454 3776 1248 
C 3776 1779 3462 2163 2899 2349 
z
M 928 3322 
C 928 3821 1357 4128 2035 4128 
C 2707 4128 3149 3821 3149 3315 
C 3149 2829 2733 2515 2035 2515 
C 1338 2515 928 2829 928 3322 
z
M 2035 352 
C 1242 352 774 698 774 1254 
C 774 1805 1242 2150 2035 2150 
C 2829 2150 3302 1805 3302 1254 
C 3302 698 2829 352 2035 352 
z
" transform="scale(0.015625)"/>
     </defs>
     <use xlink:href="#Montserrat-Regular-31"/>
     <use xlink:href="#Montserrat-Regular-38" x="36.099991"/>
     <use xlink:href="#Montserrat-Regular-2e" x="99.899979"/>
     <use xlink:href="#Montserrat-Regular-38" x="121.099976"/>
     <use xlink:href="#Montserrat-Regular-25" x="184.899963"/>
    </g>
   </g>
   <g id="text_19">
    <!-- 26.2% -->
    <g style="fill: #555555" transform="translate(346.114113 17.588437)scale(0.14 -0.14)">
     <use xlink:href="#Montserrat-Regular-32"/>
     <use xlink:href="#Montserrat-Regular-36" x="56.799988"/>
     <use xlink:href="#Montserrat-Regular-2e" x="117.699982"/>
     <use xlink:href="#Montserrat-Regular-32" x="138.899979"/>
     <use xlink:href="#Montserrat-Regular-25" x="195.699966"/>
    </g>
   </g>
   <g id="text_20">
    <!-- 13.6% -->
    <g style="fill: #555555" transform="translate(425.129137 178.0142)scale(0.14 -0.14)">
     <use xlink:href="#Montserrat-Regular-31"/>
     <use xlink:href="#Montserrat-Regular-33" x="36.099991"/>
     <use xlink:href="#Montserrat-Regular-2e" x="92.499985"/>
     <use xlink:href="#Montserrat-Regular-36" x="113.699982"/>
     <use xlink:href="#Montserrat-Regular-25" x="174.599976"/>
    </g>
   </g>
   <g id="text_21">
    <!-- 4.5% -->
    <g style="fill: #555555" transform="translate(504.817911 292.497528)scale(0.14 -0.14)">
     <use xlink:href="#Montserrat-Regular-34"/>
     <use xlink:href="#Montserrat-Regular-2e" x="66.099991"/>
     <use xlink:href="#Montserrat-Regular-35" x="87.299988"/>
     <use xlink:href="#Montserrat-Regular-25" x="143.899979"/>
    </g>
   </g>
   <g id="text_22">
    <!-- 0.0% -->
    <g style="fill: #555555" transform="translate(581.67606 350.228438)scale(0.14 -0.14)">
     <use xlink:href="#Montserrat-Regular-30"/>
     <use xlink:href="#Montserrat-Regular-2e" x="66.199997"/>
     <use xlink:href="#Montserrat-Regular-30" x="87.399994"/>
     <use xlink:href="#Montserrat-Regular-25" x="153.599991"/>
    </g>
   </g>
   <g id="text_23">
    <!-- 0.0% -->
    <g style="fill: #555555" transform="translate(659.214522 350.228438)scale(0.14 -0.14)">
     <use xlink:href="#Montserrat-Regular-30"/>
     <use xlink:href="#Montserrat-Regular-2e" x="66.199997"/>
     <use xlink:href="#Montserrat-Regular-30" x="87.399994"/>
     <use xlink:href="#Montserrat-Regular-25" x="153.599991"/>
    </g>
   </g>
   <g id="line2d_21">
    <path d="M 71.746 352.945312 
L 737.026 352.945312 
" style="fill: none; stroke: #555555; stroke-width: 3; stroke-linecap: square"/>
   </g>
  </g>
 </g>
 <defs>
  <clipPath id="p109acfc665">
   <rect x="71.746" y="20.305313" width="665.28" height="332.64"/>
  </clipPath>
 </defs>
</svg>
