<?xml version="1.0" encoding="utf-8" standalone="no"?>
<!DOCTYPE svg PUBLIC "-//W3C//DTD SVG 1.1//EN"
  "http://www.w3.org/Graphics/SVG/1.1/DTD/svg11.dtd">
<svg xmlns:xlink="http://www.w3.org/1999/xlink" width="808.855pt" height="382.122813pt" viewBox="0 0 808.855 382.122813" xmlns="http://www.w3.org/2000/svg" version="1.1">
 <metadata>
  <rdf:RDF xmlns:dc="http://purl.org/dc/elements/1.1/" xmlns:cc="http://creativecommons.org/ns#" xmlns:rdf="http://www.w3.org/1999/02/22-rdf-syntax-ns#">
   <cc:Work>
    <dc:type rdf:resource="http://purl.org/dc/dcmitype/StillImage"/>
    <dc:date>2023-02-01T22:54:24.029415</dc:date>
    <dc:format>image/svg+xml</dc:format>
    <dc:creator>
     <cc:Agent>
      <dc:title>Matplotlib v3.5.3, https://matplotlib.org/</dc:title>
     </cc:Agent>
    </dc:creator>
   </cc:Work>
  </rdf:RDF>
 </metadata>
 <defs>
  <style type="text/css">*{stroke-linejoin: round; stroke-linecap: butt}</style>
 </defs>
 <g id="figure_1">
  <g id="patch_1">
   <path d="M 0 382.122813 
L 808.855 382.122813 
L 808.855 0 
L 0 0 
z
" style="fill: #f1f7f9"/>
  </g>
  <g id="axes_1">
   <g id="patch_2">
    <path d="M 76.255 352.945313 
L 801.655 352.945313 
L 801.655 20.305313 
L 76.255 20.305313 
z
" style="fill: #f1f7f9"/>
   </g>
   <g id="matplotlib.axis_1">
    <g id="xtick_1">
     <g id="line2d_1">
      <defs>
       <path id="mb162df8231" d="M 0 0 
L 0 3.5 
" style="stroke: #000000; stroke-width: 0.8"/>
      </defs>
      <g>
       <use xlink:href="#mb162df8231" x="255.773182" y="352.945313" style="stroke: #000000; stroke-width: 0.8"/>
      </g>
     </g>
     <g id="text_1">
      <!-- Female -->
      <g style="fill: #555555" transform="translate(225.684432 371.817813)scale(0.16 -0.16)">
       <defs>
        <path id="Montserrat-Regular-46" d="M 3802 4070 
L 3802 4480 
L 730 4480 
L 730 0 
L 1203 0 
L 1203 1901 
L 3520 1901 
L 3520 2310 
L 1203 2310 
L 1203 4070 
L 3802 4070 
z
" transform="scale(0.015625)"/>
        <path id="Montserrat-Regular-65" d="M 3571 1683 
C 3571 2694 2886 3392 1939 3392 
C 992 3392 294 2682 294 1683 
C 294 685 1011 -32 2061 -32 
C 2592 -32 3059 160 3360 518 
L 3104 813 
C 2848 518 2483 371 2074 371 
C 1338 371 800 838 749 1542 
L 3565 1542 
C 3565 1594 3571 1645 3571 1683 
z
M 1939 3002 
C 2598 3002 3078 2541 3136 1882 
L 749 1882 
C 806 2541 1286 3002 1939 3002 
z
" transform="scale(0.015625)"/>
        <path id="Montserrat-Regular-6d" d="M 4832 3392 
C 4224 3392 3744 3117 3501 2682 
C 3296 3155 2861 3392 2304 3392 
C 1741 3392 1306 3155 1069 2752 
L 1069 3366 
L 634 3366 
L 634 0 
L 1088 0 
L 1088 1766 
C 1088 2534 1530 2982 2214 2982 
C 2829 2982 3187 2618 3187 1907 
L 3187 0 
L 3642 0 
L 3642 1766 
C 3642 2534 4077 2982 4768 2982 
C 5376 2982 5734 2618 5734 1907 
L 5734 0 
L 6189 0 
L 6189 1952 
C 6189 2918 5651 3392 4832 3392 
z
" transform="scale(0.015625)"/>
        <path id="Montserrat-Regular-61" d="M 1811 3392 
C 1280 3392 781 3226 442 2938 
L 646 2598 
C 922 2842 1331 2995 1766 2995 
C 2394 2995 2720 2682 2720 2106 
L 2720 1901 
L 1651 1901 
C 685 1901 352 1466 352 947 
C 352 365 819 -32 1581 -32 
C 2138 -32 2534 179 2739 525 
L 2739 0 
L 3174 0 
L 3174 2086 
C 3174 2957 2682 3392 1811 3392 
z
M 1651 326 
C 1114 326 800 570 800 960 
C 800 1306 1011 1562 1664 1562 
L 2720 1562 
L 2720 1011 
C 2541 570 2163 326 1651 326 
z
" transform="scale(0.015625)"/>
        <path id="Montserrat-Regular-6c" d="M 634 0 
L 1088 0 
L 1088 4749 
L 634 4749 
L 634 0 
z
" transform="scale(0.015625)"/>
       </defs>
       <use xlink:href="#Montserrat-Regular-46"/>
       <use xlink:href="#Montserrat-Regular-65" x="63.299988"/>
       <use xlink:href="#Montserrat-Regular-6d" x="123.699982"/>
       <use xlink:href="#Montserrat-Regular-61" x="229.799973"/>
       <use xlink:href="#Montserrat-Regular-6c" x="288.799957"/>
       <use xlink:href="#Montserrat-Regular-65" x="315.699951"/>
      </g>
     </g>
    </g>
    <g id="xtick_2">
     <g id="line2d_2">
      <g>
       <use xlink:href="#mb162df8231" x="622.136818" y="352.945313" style="stroke: #000000; stroke-width: 0.8"/>
      </g>
     </g>
     <g id="text_2">
      <!-- Male -->
      <g style="fill: #555555" transform="translate(602.791818 371.817813)scale(0.16 -0.16)">
       <defs>
        <path id="Montserrat-Regular-4d" d="M 4992 4480 
L 3066 1158 
L 1120 4480 
L 730 4480 
L 730 0 
L 1184 0 
L 1184 3565 
L 2944 570 
L 3168 570 
L 4928 3584 
L 4928 0 
L 5382 0 
L 5382 4480 
L 4992 4480 
z
" transform="scale(0.015625)"/>
       </defs>
       <use xlink:href="#Montserrat-Regular-4d"/>
       <use xlink:href="#Montserrat-Regular-61" x="95.499985"/>
       <use xlink:href="#Montserrat-Regular-6c" x="154.499969"/>
       <use xlink:href="#Montserrat-Regular-65" x="181.399963"/>
      </g>
     </g>
    </g>
   </g>
   <g id="matplotlib.axis_2">
    <g id="ytick_1">
     <g id="line2d_3">
      <path d="M 76.255 352.945313 
L 801.655 352.945313 
" clip-path="url(#p6ad1d74492)" style="fill: none; stroke-dasharray: 1.85,0.8; stroke-dashoffset: 0; stroke: #b7b7b7; stroke-width: 0.5"/>
     </g>
     <g id="line2d_4">
      <defs>
       <path id="ma525daadec" d="M 0 0 
L -3.5 0 
" style="stroke: #b7b7b7; stroke-width: 0.8"/>
      </defs>
      <g>
       <use xlink:href="#ma525daadec" x="76.255" y="352.945313" style="fill: #b7b7b7; stroke: #b7b7b7; stroke-width: 0.8"/>
      </g>
     </g>
     <g id="text_3">
      <!-- 0 -->
      <g style="fill: #b7b7b7" transform="translate(58.6625 358.881563)scale(0.16 -0.16)">
       <defs>
        <path id="Montserrat-Regular-30" d="M 2118 -38 
C 3155 -38 3910 813 3910 2240 
C 3910 3667 3155 4518 2118 4518 
C 1082 4518 333 3667 333 2240 
C 333 813 1082 -38 2118 -38 
z
M 2118 384 
C 1338 384 800 1043 800 2240 
C 800 3437 1338 4096 2118 4096 
C 2899 4096 3437 3437 3437 2240 
C 3437 1043 2899 384 2118 384 
z
" transform="scale(0.015625)"/>
       </defs>
       <use xlink:href="#Montserrat-Regular-30"/>
      </g>
     </g>
    </g>
    <g id="ytick_2">
     <g id="line2d_5">
      <path d="M 76.255 306.468113 
L 801.655 306.468113 
" clip-path="url(#p6ad1d74492)" style="fill: none; stroke-dasharray: 1.85,0.8; stroke-dashoffset: 0; stroke: #b7b7b7; stroke-width: 0.5"/>
     </g>
     <g id="line2d_6">
      <g>
       <use xlink:href="#ma525daadec" x="76.255" y="306.468113" style="fill: #b7b7b7; stroke: #b7b7b7; stroke-width: 0.8"/>
      </g>
     </g>
     <g id="text_4">
      <!-- 1 -->
      <g style="fill: #b7b7b7" transform="translate(63.48 312.404363)scale(0.16 -0.16)">
       <defs>
        <path id="Montserrat-Regular-31" d="M 58 4480 
L 58 4070 
L 1114 4070 
L 1114 0 
L 1574 0 
L 1574 4480 
L 58 4480 
z
" transform="scale(0.015625)"/>
       </defs>
       <use xlink:href="#Montserrat-Regular-31"/>
      </g>
     </g>
    </g>
    <g id="ytick_3">
     <g id="line2d_7">
      <path d="M 76.255 259.990913 
L 801.655 259.990913 
" clip-path="url(#p6ad1d74492)" style="fill: none; stroke-dasharray: 1.85,0.8; stroke-dashoffset: 0; stroke: #b7b7b7; stroke-width: 0.5"/>
     </g>
     <g id="line2d_8">
      <g>
       <use xlink:href="#ma525daadec" x="76.255" y="259.990913" style="fill: #b7b7b7; stroke: #b7b7b7; stroke-width: 0.8"/>
      </g>
     </g>
     <g id="text_5">
      <!-- 2 -->
      <g style="fill: #b7b7b7" transform="translate(60.1675 265.927163)scale(0.16 -0.16)">
       <defs>
        <path id="Montserrat-Regular-32" d="M 928 410 
L 2451 1907 
C 3053 2496 3187 2880 3187 3309 
C 3187 4058 2611 4518 1702 4518 
C 1018 4518 461 4288 115 3878 
L 442 3597 
C 736 3936 1139 4096 1664 4096 
C 2349 4096 2714 3776 2714 3258 
C 2714 2950 2618 2650 2112 2150 
L 250 326 
L 250 0 
L 3392 0 
L 3392 410 
L 928 410 
z
" transform="scale(0.015625)"/>
       </defs>
       <use xlink:href="#Montserrat-Regular-32"/>
      </g>
     </g>
    </g>
    <g id="ytick_4">
     <g id="line2d_9">
      <path d="M 76.255 213.513713 
L 801.655 213.513713 
" clip-path="url(#p6ad1d74492)" style="fill: none; stroke-dasharray: 1.85,0.8; stroke-dashoffset: 0; stroke: #b7b7b7; stroke-width: 0.5"/>
     </g>
     <g id="line2d_10">
      <g>
       <use xlink:href="#ma525daadec" x="76.255" y="213.513713" style="fill: #b7b7b7; stroke: #b7b7b7; stroke-width: 0.8"/>
      </g>
     </g>
     <g id="text_6">
      <!-- 3 -->
      <g style="fill: #b7b7b7" transform="translate(60.23 219.449963)scale(0.16 -0.16)">
       <defs>
        <path id="Montserrat-Regular-33" d="M 1856 2560 
L 3123 4154 
L 3123 4480 
L 243 4480 
L 243 4070 
L 2534 4070 
L 1293 2515 
L 1293 2176 
L 1613 2176 
C 2445 2176 2822 1824 2822 1286 
C 2822 730 2413 384 1670 384 
C 1088 384 570 602 282 902 
L 58 538 
C 403 186 1024 -38 1670 -38 
C 2752 -38 3296 538 3296 1286 
C 3296 2003 2816 2509 1856 2560 
z
" transform="scale(0.015625)"/>
       </defs>
       <use xlink:href="#Montserrat-Regular-33"/>
      </g>
     </g>
    </g>
    <g id="ytick_5">
     <g id="line2d_11">
      <path d="M 76.255 167.036513 
L 801.655 167.036513 
" clip-path="url(#p6ad1d74492)" style="fill: none; stroke-dasharray: 1.85,0.8; stroke-dashoffset: 0; stroke: #b7b7b7; stroke-width: 0.5"/>
     </g>
     <g id="line2d_12">
      <g>
       <use xlink:href="#ma525daadec" x="76.255" y="167.036513" style="fill: #b7b7b7; stroke: #b7b7b7; stroke-width: 0.8"/>
      </g>
     </g>
     <g id="text_7">
      <!-- 4 -->
      <g style="fill: #b7b7b7" transform="translate(58.68 172.972763)scale(0.16 -0.16)">
       <defs>
        <path id="Montserrat-Regular-34" d="M 4141 1587 
L 3245 1587 
L 3245 2624 
L 2797 2624 
L 2797 1587 
L 851 1587 
L 3142 4480 
L 2630 4480 
L 256 1510 
L 256 1178 
L 2784 1178 
L 2784 0 
L 3245 0 
L 3245 1178 
L 4141 1178 
L 4141 1587 
z
" transform="scale(0.015625)"/>
       </defs>
       <use xlink:href="#Montserrat-Regular-34"/>
      </g>
     </g>
    </g>
    <g id="ytick_6">
     <g id="line2d_13">
      <path d="M 76.255 120.559313 
L 801.655 120.559313 
" clip-path="url(#p6ad1d74492)" style="fill: none; stroke-dasharray: 1.85,0.8; stroke-dashoffset: 0; stroke: #b7b7b7; stroke-width: 0.5"/>
     </g>
     <g id="line2d_14">
      <g>
       <use xlink:href="#ma525daadec" x="76.255" y="120.559313" style="fill: #b7b7b7; stroke: #b7b7b7; stroke-width: 0.8"/>
      </g>
     </g>
     <g id="text_8">
      <!-- 5 -->
      <g style="fill: #b7b7b7" transform="translate(60.2 126.495563)scale(0.16 -0.16)">
       <defs>
        <path id="Montserrat-Regular-35" d="M 1510 2643 
L 934 2643 
L 1088 4070 
L 3136 4070 
L 3136 4480 
L 685 4480 
L 454 2234 
L 1408 2234 
C 2547 2234 2906 1875 2906 1299 
C 2906 755 2502 384 1741 384 
C 1165 384 653 602 365 902 
L 141 538 
C 486 186 1101 -38 1747 -38 
C 2842 -38 3373 557 3373 1318 
C 3373 2112 2861 2643 1510 2643 
z
" transform="scale(0.015625)"/>
       </defs>
       <use xlink:href="#Montserrat-Regular-35"/>
      </g>
     </g>
    </g>
    <g id="ytick_7">
     <g id="line2d_15">
      <path d="M 76.255 74.082113 
L 801.655 74.082113 
" clip-path="url(#p6ad1d74492)" style="fill: none; stroke-dasharray: 1.85,0.8; stroke-dashoffset: 0; stroke: #b7b7b7; stroke-width: 0.5"/>
     </g>
     <g id="line2d_16">
      <g>
       <use xlink:href="#ma525daadec" x="76.255" y="74.082113" style="fill: #b7b7b7; stroke: #b7b7b7; stroke-width: 0.8"/>
      </g>
     </g>
     <g id="text_9">
      <!-- 6 -->
      <g style="fill: #b7b7b7" transform="translate(59.51 80.018363)scale(0.16 -0.16)">
       <defs>
        <path id="Montserrat-Regular-36" d="M 2189 2682 
C 1568 2682 1043 2406 819 1914 
C 806 2048 800 2176 800 2278 
C 800 3494 1421 4115 2387 4115 
C 2720 4115 3027 4058 3258 3904 
L 3443 4275 
C 3162 4448 2784 4518 2381 4518 
C 1165 4518 333 3725 333 2202 
C 333 787 979 -38 2170 -38 
C 3040 -38 3699 499 3699 1338 
C 3699 2157 3078 2682 2189 2682 
z
M 2150 352 
C 1376 352 966 819 966 1312 
C 966 1869 1434 2291 2118 2291 
C 2810 2291 3245 1914 3245 1325 
C 3245 730 2797 352 2150 352 
z
" transform="scale(0.015625)"/>
       </defs>
       <use xlink:href="#Montserrat-Regular-36"/>
      </g>
     </g>
    </g>
    <g id="ytick_8">
     <g id="line2d_17">
      <path d="M 76.255 27.604913 
L 801.655 27.604913 
" clip-path="url(#p6ad1d74492)" style="fill: none; stroke-dasharray: 1.85,0.8; stroke-dashoffset: 0; stroke: #b7b7b7; stroke-width: 0.5"/>
     </g>
     <g id="line2d_18">
      <g>
       <use xlink:href="#ma525daadec" x="76.255" y="27.604913" style="fill: #b7b7b7; stroke: #b7b7b7; stroke-width: 0.8"/>
      </g>
     </g>
     <g id="text_10">
      <!-- 7 -->
      <g style="fill: #b7b7b7" transform="translate(59.83 33.541162)scale(0.16 -0.16)">
       <defs>
        <path id="Montserrat-Regular-37" d="M 205 4480 
L 205 3232 
L 659 3232 
L 659 4070 
L 2963 4070 
L 1120 0 
L 1619 0 
L 3494 4154 
L 3494 4480 
L 205 4480 
z
" transform="scale(0.015625)"/>
       </defs>
       <use xlink:href="#Montserrat-Regular-37"/>
      </g>
     </g>
    </g>
    <g id="text_11">
     <!-- [%] -->
     <g style="fill: #b7b7b7" transform="translate(7.2 182.744063)scale(0.2 -0.2)">
      <defs>
       <path id="Montserrat-Regular-5b" d="M 730 -1242 
L 1901 -1242 
L 1901 -864 
L 1184 -864 
L 1184 4371 
L 1901 4371 
L 1901 4749 
L 730 4749 
L 730 -1242 
z
" transform="scale(0.015625)"/>
       <path id="Montserrat-Regular-25" d="M 1280 2080 
C 1875 2080 2291 2560 2291 3296 
C 2291 4032 1875 4512 1280 4512 
C 678 4512 269 4026 269 3296 
C 269 2566 678 2080 1280 2080 
z
M 934 0 
L 1312 0 
L 4371 4480 
L 3994 4480 
L 934 0 
z
M 1280 2368 
C 858 2368 589 2720 589 3296 
C 589 3872 858 4224 1280 4224 
C 1696 4224 1971 3878 1971 3296 
C 1971 2714 1696 2368 1280 2368 
z
M 4026 -32 
C 4627 -32 5037 454 5037 1184 
C 5037 1914 4627 2400 4026 2400 
C 3430 2400 3014 1914 3014 1184 
C 3014 454 3430 -32 4026 -32 
z
M 4026 256 
C 3610 256 3334 602 3334 1184 
C 3334 1766 3610 2112 4026 2112 
C 4448 2112 4717 1760 4717 1184 
C 4717 608 4448 256 4026 256 
z
" transform="scale(0.015625)"/>
       <path id="Montserrat-Regular-5d" d="M 1306 -1242 
L 1306 4749 
L 134 4749 
L 134 4371 
L 851 4371 
L 851 -864 
L 134 -864 
L 134 -1242 
L 1306 -1242 
z
" transform="scale(0.015625)"/>
      </defs>
      <use xlink:href="#Montserrat-Regular-5b"/>
      <use xlink:href="#Montserrat-Regular-25" x="31.799988"/>
      <use xlink:href="#Montserrat-Regular-5d" x="114.699982"/>
     </g>
    </g>
   </g>
   <g id="patch_3">
    <path d="M 109.227727 352.945313 
L 402.318636 352.945313 
L 402.318636 30.56011 
L 109.227727 30.56011 
z
" clip-path="url(#p6ad1d74492)" style="fill: #b1e5f4"/>
   </g>
   <g id="patch_4">
    <path d="M 475.591364 352.945313 
L 768.682273 352.945313 
L 768.682273 20.305313 
L 475.591364 20.305313 
z
" clip-path="url(#p6ad1d74492)" style="fill: #b1e5f4"/>
   </g>
   <g id="text_12">
    <!-- 7% -->
    <g style="fill: #555555" transform="translate(245.846307 27.843235)scale(0.14 -0.14)">
     <use xlink:href="#Montserrat-Regular-37"/>
     <use xlink:href="#Montserrat-Regular-25" x="58.899994"/>
    </g>
   </g>
   <g id="text_13">
    <!-- 7% -->
    <g style="fill: #555555" transform="translate(612.209943 17.588437)scale(0.14 -0.14)">
     <use xlink:href="#Montserrat-Regular-37"/>
     <use xlink:href="#Montserrat-Regular-25" x="58.899994"/>
    </g>
   </g>
   <g id="line2d_19">
    <path d="M 76.255 352.945313 
L 801.655 352.945313 
" style="fill: none; stroke: #555555; stroke-width: 3; stroke-linecap: square"/>
   </g>
  </g>
 </g>
 <defs>
  <clipPath id="p6ad1d74492">
   <rect x="76.255" y="20.305313" width="725.4" height="332.64"/>
  </clipPath>
 </defs>
</svg>
