<?xml version="1.0" encoding="utf-8" standalone="no"?>
<!DOCTYPE svg PUBLIC "-//W3C//DTD SVG 1.1//EN"
  "http://www.w3.org/Graphics/SVG/1.1/DTD/svg11.dtd">
<svg xmlns:xlink="http://www.w3.org/1999/xlink" width="496.8pt" height="216pt" viewBox="0 0 496.8 216" xmlns="http://www.w3.org/2000/svg" version="1.1">
 <metadata>
  <rdf:RDF xmlns:dc="http://purl.org/dc/elements/1.1/" xmlns:cc="http://creativecommons.org/ns#" xmlns:rdf="http://www.w3.org/1999/02/22-rdf-syntax-ns#">
   <cc:Work>
    <dc:type rdf:resource="http://purl.org/dc/dcmitype/StillImage"/>
    <dc:date>2023-02-05T13:11:47.901334</dc:date>
    <dc:format>image/svg+xml</dc:format>
    <dc:creator>
     <cc:Agent>
      <dc:title>Matplotlib v3.5.3, https://matplotlib.org/</dc:title>
     </cc:Agent>
    </dc:creator>
   </cc:Work>
  </rdf:RDF>
 </metadata>
 <defs>
  <style type="text/css">*{stroke-linejoin: round; stroke-linecap: butt}</style>
 </defs>
 <g id="figure_1">
  <g id="patch_1">
   <path d="M 0 216 
L 496.8 216 
L 496.8 0 
L 0 0 
L 0 216 
z
" style="fill: none"/>
  </g>
  <g id="axes_1">
   <g id="patch_2">
    <path d="M 69.075 185.24 
L 486 185.24 
L 486 23.76 
L 69.075 23.76 
L 69.075 185.24 
z
" style="fill: none"/>
   </g>
   <g id="matplotlib.axis_1">
    <g id="xtick_1">
     <g id="line2d_1">
      <defs>
       <path id="m5f51dceffe" d="M 0 0 
L 0 3.5 
" style="stroke: #000000; stroke-width: 0.8"/>
      </defs>
      <g>
       <use xlink:href="#m5f51dceffe" x="114.165635" y="185.24" style="stroke: #000000; stroke-width: 0.8"/>
      </g>
     </g>
     <g id="text_1">
      <!-- 0 - 0.5 -->
      <g style="fill: #555555" transform="translate(93.10876 202.628437)scale(0.14 -0.14)">
       <defs>
        <path id="Montserrat-Regular-30" d="M 2118 -38 
C 3155 -38 3910 813 3910 2240 
C 3910 3667 3155 4518 2118 4518 
C 1082 4518 333 3667 333 2240 
C 333 813 1082 -38 2118 -38 
z
M 2118 384 
C 1338 384 800 1043 800 2240 
C 800 3437 1338 4096 2118 4096 
C 2899 4096 3437 3437 3437 2240 
C 3437 1043 2899 384 2118 384 
z
" transform="scale(0.015625)"/>
        <path id="Montserrat-Regular-20" transform="scale(0.015625)"/>
        <path id="Montserrat-Regular-2d" d="M 384 1536 
L 2061 1536 
L 2061 1933 
L 384 1933 
L 384 1536 
z
" transform="scale(0.015625)"/>
        <path id="Montserrat-Regular-2e" d="M 678 -32 
C 864 -32 1024 122 1024 320 
C 1024 518 864 666 678 666 
C 493 666 339 518 339 320 
C 339 122 493 -32 678 -32 
z
" transform="scale(0.015625)"/>
        <path id="Montserrat-Regular-35" d="M 1510 2643 
L 934 2643 
L 1088 4070 
L 3136 4070 
L 3136 4480 
L 685 4480 
L 454 2234 
L 1408 2234 
C 2547 2234 2906 1875 2906 1299 
C 2906 755 2502 384 1741 384 
C 1165 384 653 602 365 902 
L 141 538 
C 486 186 1101 -38 1747 -38 
C 2842 -38 3373 557 3373 1318 
C 3373 2112 2861 2643 1510 2643 
z
" transform="scale(0.015625)"/>
       </defs>
       <use xlink:href="#Montserrat-Regular-30"/>
       <use xlink:href="#Montserrat-Regular-20" x="66.199997"/>
       <use xlink:href="#Montserrat-Regular-2d" x="92.399994"/>
       <use xlink:href="#Montserrat-Regular-20" x="130.599991"/>
       <use xlink:href="#Montserrat-Regular-30" x="156.799988"/>
       <use xlink:href="#Montserrat-Regular-2e" x="222.999985"/>
       <use xlink:href="#Montserrat-Regular-35" x="244.199982"/>
      </g>
     </g>
    </g>
    <g id="xtick_2">
     <g id="line2d_2">
      <g>
       <use xlink:href="#m5f51dceffe" x="179.514381" y="185.24" style="stroke: #000000; stroke-width: 0.8"/>
      </g>
     </g>
     <g id="text_2">
      <!-- 0.5 - 1 -->
      <g style="fill: #555555" transform="translate(160.565162 202.628437)scale(0.14 -0.14)">
       <defs>
        <path id="Montserrat-Regular-31" d="M 58 4480 
L 58 4070 
L 1114 4070 
L 1114 0 
L 1574 0 
L 1574 4480 
L 58 4480 
z
" transform="scale(0.015625)"/>
       </defs>
       <use xlink:href="#Montserrat-Regular-30"/>
       <use xlink:href="#Montserrat-Regular-2e" x="66.199997"/>
       <use xlink:href="#Montserrat-Regular-35" x="87.399994"/>
       <use xlink:href="#Montserrat-Regular-20" x="143.999985"/>
       <use xlink:href="#Montserrat-Regular-2d" x="170.199982"/>
       <use xlink:href="#Montserrat-Regular-20" x="208.399979"/>
       <use xlink:href="#Montserrat-Regular-31" x="234.599976"/>
      </g>
     </g>
    </g>
    <g id="xtick_3">
     <g id="line2d_3">
      <g>
       <use xlink:href="#m5f51dceffe" x="244.863127" y="185.24" style="stroke: #000000; stroke-width: 0.8"/>
      </g>
     </g>
     <g id="text_3">
      <!-- 1 - 2 -->
      <g style="fill: #555555" transform="translate(232.018127 202.628437)scale(0.14 -0.14)">
       <defs>
        <path id="Montserrat-Regular-32" d="M 928 410 
L 2451 1907 
C 3053 2496 3187 2880 3187 3309 
C 3187 4058 2611 4518 1702 4518 
C 1018 4518 461 4288 115 3878 
L 442 3597 
C 736 3936 1139 4096 1664 4096 
C 2349 4096 2714 3776 2714 3258 
C 2714 2950 2618 2650 2112 2150 
L 250 326 
L 250 0 
L 3392 0 
L 3392 410 
L 928 410 
z
" transform="scale(0.015625)"/>
       </defs>
       <use xlink:href="#Montserrat-Regular-31"/>
       <use xlink:href="#Montserrat-Regular-20" x="36.099991"/>
       <use xlink:href="#Montserrat-Regular-2d" x="62.299988"/>
       <use xlink:href="#Montserrat-Regular-20" x="100.499985"/>
       <use xlink:href="#Montserrat-Regular-32" x="126.699982"/>
      </g>
     </g>
    </g>
    <g id="xtick_4">
     <g id="line2d_4">
      <g>
       <use xlink:href="#m5f51dceffe" x="310.211873" y="185.24" style="stroke: #000000; stroke-width: 0.8"/>
      </g>
     </g>
     <g id="text_4">
      <!-- 2 - 3 -->
      <g style="fill: #555555" transform="translate(295.944998 202.628437)scale(0.14 -0.14)">
       <defs>
        <path id="Montserrat-Regular-33" d="M 1856 2560 
L 3123 4154 
L 3123 4480 
L 243 4480 
L 243 4070 
L 2534 4070 
L 1293 2515 
L 1293 2176 
L 1613 2176 
C 2445 2176 2822 1824 2822 1286 
C 2822 730 2413 384 1670 384 
C 1088 384 570 602 282 902 
L 58 538 
C 403 186 1024 -38 1670 -38 
C 2752 -38 3296 538 3296 1286 
C 3296 2003 2816 2509 1856 2560 
z
" transform="scale(0.015625)"/>
       </defs>
       <use xlink:href="#Montserrat-Regular-32"/>
       <use xlink:href="#Montserrat-Regular-20" x="56.799988"/>
       <use xlink:href="#Montserrat-Regular-2d" x="82.999985"/>
       <use xlink:href="#Montserrat-Regular-20" x="121.199982"/>
       <use xlink:href="#Montserrat-Regular-33" x="147.399979"/>
      </g>
     </g>
    </g>
    <g id="xtick_5">
     <g id="line2d_5">
      <g>
       <use xlink:href="#m5f51dceffe" x="375.560619" y="185.24" style="stroke: #000000; stroke-width: 0.8"/>
      </g>
     </g>
     <g id="text_5">
      <!-- 3 - 4 -->
      <g style="fill: #555555" transform="translate(360.642963 202.628437)scale(0.14 -0.14)">
       <defs>
        <path id="Montserrat-Regular-34" d="M 4141 1587 
L 3245 1587 
L 3245 2624 
L 2797 2624 
L 2797 1587 
L 851 1587 
L 3142 4480 
L 2630 4480 
L 256 1510 
L 256 1178 
L 2784 1178 
L 2784 0 
L 3245 0 
L 3245 1178 
L 4141 1178 
L 4141 1587 
z
" transform="scale(0.015625)"/>
       </defs>
       <use xlink:href="#Montserrat-Regular-33"/>
       <use xlink:href="#Montserrat-Regular-20" x="56.399994"/>
       <use xlink:href="#Montserrat-Regular-2d" x="82.599991"/>
       <use xlink:href="#Montserrat-Regular-20" x="120.799988"/>
       <use xlink:href="#Montserrat-Regular-34" x="146.999985"/>
      </g>
     </g>
    </g>
    <g id="xtick_6">
     <g id="line2d_6">
      <g>
       <use xlink:href="#m5f51dceffe" x="440.909365" y="185.24" style="stroke: #000000; stroke-width: 0.8"/>
      </g>
     </g>
     <g id="text_6">
      <!-- 4 - 5 -->
      <g style="fill: #555555" transform="translate(425.978584 202.628437)scale(0.14 -0.14)">
       <use xlink:href="#Montserrat-Regular-34"/>
       <use xlink:href="#Montserrat-Regular-20" x="66.099991"/>
       <use xlink:href="#Montserrat-Regular-2d" x="92.299988"/>
       <use xlink:href="#Montserrat-Regular-20" x="130.499985"/>
       <use xlink:href="#Montserrat-Regular-35" x="156.699982"/>
      </g>
     </g>
    </g>
   </g>
   <g id="matplotlib.axis_2">
    <g id="ytick_1">
     <g id="line2d_7">
      <path d="M 69.075 185.24 
L 486 185.24 
" clip-path="url(#pcbb43cfb0e)" style="fill: none; stroke-dasharray: 1.85,0.8; stroke-dashoffset: 0; stroke: #b7b7b7; stroke-width: 0.5"/>
     </g>
     <g id="line2d_8">
      <defs>
       <path id="m12d5bdc9bb" d="M 0 0 
L -3.5 0 
" style="stroke: #b7b7b7; stroke-width: 0.8"/>
      </defs>
      <g>
       <use xlink:href="#m12d5bdc9bb" x="69.075" y="185.24" style="fill: #b7b7b7; stroke: #b7b7b7; stroke-width: 0.8"/>
      </g>
     </g>
     <g id="text_7">
      <!-- 0 -->
      <g style="fill: #b7b7b7" transform="translate(51.4825 191.17625)scale(0.16 -0.16)">
       <use xlink:href="#Montserrat-Regular-30"/>
      </g>
     </g>
    </g>
    <g id="ytick_2">
     <g id="line2d_9">
      <path d="M 69.075 152.944 
L 486 152.944 
" clip-path="url(#pcbb43cfb0e)" style="fill: none; stroke-dasharray: 1.85,0.8; stroke-dashoffset: 0; stroke: #b7b7b7; stroke-width: 0.5"/>
     </g>
     <g id="line2d_10">
      <g>
       <use xlink:href="#m12d5bdc9bb" x="69.075" y="152.944" style="fill: #b7b7b7; stroke: #b7b7b7; stroke-width: 0.8"/>
      </g>
     </g>
     <g id="text_8">
      <!-- 4 -->
      <g style="fill: #b7b7b7" transform="translate(51.5 158.88025)scale(0.16 -0.16)">
       <use xlink:href="#Montserrat-Regular-34"/>
      </g>
     </g>
    </g>
    <g id="ytick_3">
     <g id="line2d_11">
      <path d="M 69.075 120.648 
L 486 120.648 
" clip-path="url(#pcbb43cfb0e)" style="fill: none; stroke-dasharray: 1.85,0.8; stroke-dashoffset: 0; stroke: #b7b7b7; stroke-width: 0.5"/>
     </g>
     <g id="line2d_12">
      <g>
       <use xlink:href="#m12d5bdc9bb" x="69.075" y="120.648" style="fill: #b7b7b7; stroke: #b7b7b7; stroke-width: 0.8"/>
      </g>
     </g>
     <g id="text_9">
      <!-- 8 -->
      <g style="fill: #b7b7b7" transform="translate(51.8675 126.58425)scale(0.16 -0.16)">
       <defs>
        <path id="Montserrat-Regular-38" d="M 2899 2349 
C 3360 2528 3616 2867 3616 3334 
C 3616 4064 2982 4518 2035 4518 
C 1088 4518 467 4064 467 3334 
C 467 2867 717 2528 1171 2349 
C 614 2163 307 1786 307 1248 
C 307 454 960 -38 2035 -38 
C 3104 -38 3776 454 3776 1248 
C 3776 1779 3462 2163 2899 2349 
z
M 928 3322 
C 928 3821 1357 4128 2035 4128 
C 2707 4128 3149 3821 3149 3315 
C 3149 2829 2733 2515 2035 2515 
C 1338 2515 928 2829 928 3322 
z
M 2035 352 
C 1242 352 774 698 774 1254 
C 774 1805 1242 2150 2035 2150 
C 2829 2150 3302 1805 3302 1254 
C 3302 698 2829 352 2035 352 
z
" transform="scale(0.015625)"/>
       </defs>
       <use xlink:href="#Montserrat-Regular-38"/>
      </g>
     </g>
    </g>
    <g id="ytick_4">
     <g id="line2d_13">
      <path d="M 69.075 88.352 
L 486 88.352 
" clip-path="url(#pcbb43cfb0e)" style="fill: none; stroke-dasharray: 1.85,0.8; stroke-dashoffset: 0; stroke: #b7b7b7; stroke-width: 0.5"/>
     </g>
     <g id="line2d_14">
      <g>
       <use xlink:href="#m12d5bdc9bb" x="69.075" y="88.352" style="fill: #b7b7b7; stroke: #b7b7b7; stroke-width: 0.8"/>
      </g>
     </g>
     <g id="text_10">
      <!-- 12 -->
      <g style="fill: #b7b7b7" transform="translate(47.2125 94.28825)scale(0.16 -0.16)">
       <use xlink:href="#Montserrat-Regular-31"/>
       <use xlink:href="#Montserrat-Regular-32" x="36.099991"/>
      </g>
     </g>
    </g>
    <g id="ytick_5">
     <g id="line2d_15">
      <path d="M 69.075 56.056 
L 486 56.056 
" clip-path="url(#pcbb43cfb0e)" style="fill: none; stroke-dasharray: 1.85,0.8; stroke-dashoffset: 0; stroke: #b7b7b7; stroke-width: 0.5"/>
     </g>
     <g id="line2d_16">
      <g>
       <use xlink:href="#m12d5bdc9bb" x="69.075" y="56.056" style="fill: #b7b7b7; stroke: #b7b7b7; stroke-width: 0.8"/>
      </g>
     </g>
     <g id="text_11">
      <!-- 16 -->
      <g style="fill: #b7b7b7" transform="translate(46.555 61.99225)scale(0.16 -0.16)">
       <defs>
        <path id="Montserrat-Regular-36" d="M 2189 2682 
C 1568 2682 1043 2406 819 1914 
C 806 2048 800 2176 800 2278 
C 800 3494 1421 4115 2387 4115 
C 2720 4115 3027 4058 3258 3904 
L 3443 4275 
C 3162 4448 2784 4518 2381 4518 
C 1165 4518 333 3725 333 2202 
C 333 787 979 -38 2170 -38 
C 3040 -38 3699 499 3699 1338 
C 3699 2157 3078 2682 2189 2682 
z
M 2150 352 
C 1376 352 966 819 966 1312 
C 966 1869 1434 2291 2118 2291 
C 2810 2291 3245 1914 3245 1325 
C 3245 730 2797 352 2150 352 
z
" transform="scale(0.015625)"/>
       </defs>
       <use xlink:href="#Montserrat-Regular-31"/>
       <use xlink:href="#Montserrat-Regular-36" x="36.099991"/>
      </g>
     </g>
    </g>
    <g id="ytick_6">
     <g id="line2d_17">
      <path d="M 69.075 23.76 
L 486 23.76 
" clip-path="url(#pcbb43cfb0e)" style="fill: none; stroke-dasharray: 1.85,0.8; stroke-dashoffset: 0; stroke: #b7b7b7; stroke-width: 0.5"/>
     </g>
     <g id="line2d_18">
      <g>
       <use xlink:href="#m12d5bdc9bb" x="69.075" y="23.76" style="fill: #b7b7b7; stroke: #b7b7b7; stroke-width: 0.8"/>
      </g>
     </g>
     <g id="text_12">
      <!-- 20 -->
      <g style="fill: #b7b7b7" transform="translate(42.395 29.69625)scale(0.16 -0.16)">
       <use xlink:href="#Montserrat-Regular-32"/>
       <use xlink:href="#Montserrat-Regular-30" x="56.799988"/>
      </g>
     </g>
    </g>
    <g id="text_13">
     <!-- [%] -->
     <g style="fill: #b7b7b7" transform="translate(10.675 101.395)scale(0.16 -0.16)">
      <defs>
       <path id="Montserrat-Regular-5b" d="M 730 -1242 
L 1901 -1242 
L 1901 -864 
L 1184 -864 
L 1184 4371 
L 1901 4371 
L 1901 4749 
L 730 4749 
L 730 -1242 
z
" transform="scale(0.015625)"/>
       <path id="Montserrat-Regular-25" d="M 1280 2080 
C 1875 2080 2291 2560 2291 3296 
C 2291 4032 1875 4512 1280 4512 
C 678 4512 269 4026 269 3296 
C 269 2566 678 2080 1280 2080 
z
M 934 0 
L 1312 0 
L 4371 4480 
L 3994 4480 
L 934 0 
z
M 1280 2368 
C 858 2368 589 2720 589 3296 
C 589 3872 858 4224 1280 4224 
C 1696 4224 1971 3878 1971 3296 
C 1971 2714 1696 2368 1280 2368 
z
M 4026 -32 
C 4627 -32 5037 454 5037 1184 
C 5037 1914 4627 2400 4026 2400 
C 3430 2400 3014 1914 3014 1184 
C 3014 454 3430 -32 4026 -32 
z
M 4026 256 
C 3610 256 3334 602 3334 1184 
C 3334 1766 3610 2112 4026 2112 
C 4448 2112 4717 1760 4717 1184 
C 4717 608 4448 256 4026 256 
z
" transform="scale(0.015625)"/>
       <path id="Montserrat-Regular-5d" d="M 1306 -1242 
L 1306 4749 
L 134 4749 
L 134 4371 
L 851 4371 
L 851 -864 
L 134 -864 
L 134 -1242 
L 1306 -1242 
z
" transform="scale(0.015625)"/>
      </defs>
      <use xlink:href="#Montserrat-Regular-5b"/>
      <use xlink:href="#Montserrat-Regular-25" x="31.799988"/>
      <use xlink:href="#Montserrat-Regular-5d" x="114.699982"/>
     </g>
    </g>
   </g>
   <g id="patch_3">
    <path d="M 88.026136 185.24 
L 140.305133 185.24 
L 140.305133 185.24 
L 88.026136 185.24 
z
" clip-path="url(#pcbb43cfb0e)" style="fill: #b1e5f4"/>
   </g>
   <g id="patch_4">
    <path d="M 153.374882 185.24 
L 205.653879 185.24 
L 205.653879 159.194839 
L 153.374882 159.194839 
z
" clip-path="url(#pcbb43cfb0e)" style="fill: #b1e5f4"/>
   </g>
   <g id="patch_5">
    <path d="M 218.723629 185.24 
L 271.002625 185.24 
L 271.002625 82.713016 
L 218.723629 82.713016 
z
" clip-path="url(#pcbb43cfb0e)" style="fill: #b1e5f4"/>
   </g>
   <g id="patch_6">
    <path d="M 284.072375 185.24 
L 336.351371 185.24 
L 336.351371 23.76 
L 284.072375 23.76 
z
" clip-path="url(#pcbb43cfb0e)" style="fill: #b1e5f4"/>
   </g>
   <g id="patch_7">
    <path d="M 349.421121 185.24 
L 401.700118 185.24 
L 401.700118 111.84 
L 349.421121 111.84 
z
" clip-path="url(#pcbb43cfb0e)" style="fill: #b1e5f4"/>
   </g>
   <g id="patch_8">
    <path d="M 414.769867 185.24 
L 467.048864 185.24 
L 467.048864 23.76 
L 414.769867 23.76 
z
" clip-path="url(#pcbb43cfb0e)" style="fill: #b1e5f4"/>
   </g>
   <g id="text_14">
    <!-- 0% -->
    <g style="fill: #555555" transform="translate(103.727979 182.523125)scale(0.14 -0.14)">
     <use xlink:href="#Montserrat-Regular-30"/>
     <use xlink:href="#Montserrat-Regular-25" x="66.199997"/>
    </g>
   </g>
   <g id="text_15">
    <!-- 3% -->
    <g style="fill: #555555" transform="translate(169.762506 156.477964)scale(0.14 -0.14)">
     <use xlink:href="#Montserrat-Regular-33"/>
     <use xlink:href="#Montserrat-Regular-25" x="56.399994"/>
    </g>
   </g>
   <g id="text_16">
    <!-- 13% -->
    <g style="fill: #555555" transform="translate(232.584689 79.996141)scale(0.14 -0.14)">
     <use xlink:href="#Montserrat-Regular-31"/>
     <use xlink:href="#Montserrat-Regular-33" x="36.099991"/>
     <use xlink:href="#Montserrat-Regular-25" x="92.499985"/>
    </g>
   </g>
   <g id="text_17">
    <!-- 20% -->
    <g style="fill: #555555" transform="translate(295.798436 21.043125)scale(0.14 -0.14)">
     <use xlink:href="#Montserrat-Regular-32"/>
     <use xlink:href="#Montserrat-Regular-30" x="56.799988"/>
     <use xlink:href="#Montserrat-Regular-25" x="122.999985"/>
    </g>
   </g>
   <g id="text_18">
    <!-- 9% -->
    <g style="fill: #555555" transform="translate(365.493744 109.123125)scale(0.14 -0.14)">
     <defs>
      <path id="Montserrat-Regular-39" d="M 1728 4518 
C 858 4518 198 3981 198 3142 
C 198 2323 819 1798 1709 1798 
C 2330 1798 2854 2074 3078 2566 
C 3091 2432 3098 2304 3098 2202 
C 3098 986 2477 365 1510 365 
C 1178 365 870 422 640 576 
L 454 205 
C 736 32 1114 -38 1517 -38 
C 2733 -38 3565 755 3565 2278 
C 3565 3693 2918 4518 1728 4518 
z
M 1779 2189 
C 1088 2189 653 2566 653 3155 
C 653 3750 1101 4128 1747 4128 
C 2522 4128 2931 3661 2931 3168 
C 2931 2611 2464 2189 1779 2189 
z
" transform="scale(0.015625)"/>
     </defs>
     <use xlink:href="#Montserrat-Regular-39"/>
     <use xlink:href="#Montserrat-Regular-25" x="60.899994"/>
    </g>
   </g>
   <g id="text_19">
    <!-- 20% -->
    <g style="fill: #555555" transform="translate(426.495928 21.043125)scale(0.14 -0.14)">
     <use xlink:href="#Montserrat-Regular-32"/>
     <use xlink:href="#Montserrat-Regular-30" x="56.799988"/>
     <use xlink:href="#Montserrat-Regular-25" x="122.999985"/>
    </g>
   </g>
   <g id="line2d_19">
    <path d="M 69.075 185.24 
L 486 185.24 
" style="fill: none; stroke: #555555; stroke-width: 3; stroke-linecap: square"/>
   </g>
   <g id="line2d_20">
    <path d="M 69.075 97.751309 
L 486 97.751309 
" clip-path="url(#pcbb43cfb0e)" style="fill: none; stroke-dasharray: 5,1.5; stroke-dashoffset: 2.5; stroke: #000000; stroke-opacity: 0.85; stroke-width: 0.5"/>
   </g>
  </g>
 </g>
 <defs>
  <clipPath id="pcbb43cfb0e">
   <rect x="69.075" y="23.76" width="416.925" height="161.48"/>
  </clipPath>
 </defs>
</svg>
