<?xml version="1.0" encoding="utf-8" standalone="no"?>
<!DOCTYPE svg PUBLIC "-//W3C//DTD SVG 1.1//EN"
  "http://www.w3.org/Graphics/SVG/1.1/DTD/svg11.dtd">
<svg xmlns:xlink="http://www.w3.org/1999/xlink" width="648pt" height="324pt" viewBox="0 0 648 324" xmlns="http://www.w3.org/2000/svg" version="1.1">
 <metadata>
  <rdf:RDF xmlns:dc="http://purl.org/dc/elements/1.1/" xmlns:cc="http://creativecommons.org/ns#" xmlns:rdf="http://www.w3.org/1999/02/22-rdf-syntax-ns#">
   <cc:Work>
    <dc:type rdf:resource="http://purl.org/dc/dcmitype/StillImage"/>
    <dc:date>2023-02-05T10:47:15.344924</dc:date>
    <dc:format>image/svg+xml</dc:format>
    <dc:creator>
     <cc:Agent>
      <dc:title>Matplotlib v3.5.3, https://matplotlib.org/</dc:title>
     </cc:Agent>
    </dc:creator>
   </cc:Work>
  </rdf:RDF>
 </metadata>
 <defs>
  <style type="text/css">*{stroke-linejoin: round; stroke-linecap: butt}</style>
 </defs>
 <g id="figure_1">
  <g id="patch_1">
   <path d="M 0 324 
L 648 324 
L 648 0 
L 0 0 
L 0 324 
z
" style="fill: none"/>
  </g>
  <g id="axes_1">
   <g id="patch_2">
    <path d="M 79.245 273.512 
L 637.2 273.512 
L 637.2 21.289901 
L 79.245 21.289901 
L 79.245 273.512 
z
" style="fill: none"/>
   </g>
   <g id="matplotlib.axis_1">
    <g id="xtick_1">
     <g id="line2d_1">
      <defs>
       <path id="m01870f633e" d="M 0 0 
L 0 3.5 
" style="stroke: #000000; stroke-width: 0.8"/>
      </defs>
      <g>
       <use xlink:href="#m01870f633e" x="139.588096" y="273.512" style="stroke: #000000; stroke-width: 0.8"/>
      </g>
     </g>
     <g id="text_1">
      <!-- Alliances -->
      <g style="fill: #555555" transform="translate(104.009346 292.3845)scale(0.16 -0.16)">
       <defs>
        <path id="Montserrat-Regular-41" d="M 4077 0 
L 4576 0 
L 2528 4480 
L 2061 4480 
L 13 0 
L 506 0 
L 1043 1197 
L 3539 1197 
L 4077 0 
z
M 1216 1581 
L 2291 3987 
L 3366 1581 
L 1216 1581 
z
" transform="scale(0.015625)"/>
        <path id="Montserrat-Regular-6c" d="M 634 0 
L 1088 0 
L 1088 4749 
L 634 4749 
L 634 0 
z
" transform="scale(0.015625)"/>
        <path id="Montserrat-Regular-69" d="M 864 4102 
C 1056 4102 1197 4250 1197 4435 
C 1197 4608 1050 4749 864 4749 
C 678 4749 531 4602 531 4429 
C 531 4250 678 4102 864 4102 
z
M 634 0 
L 1088 0 
L 1088 3366 
L 634 3366 
L 634 0 
z
" transform="scale(0.015625)"/>
        <path id="Montserrat-Regular-61" d="M 1811 3392 
C 1280 3392 781 3226 442 2938 
L 646 2598 
C 922 2842 1331 2995 1766 2995 
C 2394 2995 2720 2682 2720 2106 
L 2720 1901 
L 1651 1901 
C 685 1901 352 1466 352 947 
C 352 365 819 -32 1581 -32 
C 2138 -32 2534 179 2739 525 
L 2739 0 
L 3174 0 
L 3174 2086 
C 3174 2957 2682 3392 1811 3392 
z
M 1651 326 
C 1114 326 800 570 800 960 
C 800 1306 1011 1562 1664 1562 
L 2720 1562 
L 2720 1011 
C 2541 570 2163 326 1651 326 
z
" transform="scale(0.015625)"/>
        <path id="Montserrat-Regular-6e" d="M 2349 3392 
C 1766 3392 1312 3155 1069 2746 
L 1069 3366 
L 634 3366 
L 634 0 
L 1088 0 
L 1088 1766 
C 1088 2534 1542 2982 2266 2982 
C 2906 2982 3277 2618 3277 1907 
L 3277 0 
L 3731 0 
L 3731 1952 
C 3731 2918 3168 3392 2349 3392 
z
" transform="scale(0.015625)"/>
        <path id="Montserrat-Regular-63" d="M 2029 -32 
C 2598 -32 3078 198 3347 634 
L 3008 864 
C 2778 525 2419 371 2029 371 
C 1293 371 755 890 755 1683 
C 755 2470 1293 2995 2029 2995 
C 2419 2995 2778 2835 3008 2496 
L 3347 2726 
C 3078 3168 2598 3392 2029 3392 
C 1024 3392 294 2688 294 1683 
C 294 678 1024 -32 2029 -32 
z
" transform="scale(0.015625)"/>
        <path id="Montserrat-Regular-65" d="M 3571 1683 
C 3571 2694 2886 3392 1939 3392 
C 992 3392 294 2682 294 1683 
C 294 685 1011 -32 2061 -32 
C 2592 -32 3059 160 3360 518 
L 3104 813 
C 2848 518 2483 371 2074 371 
C 1338 371 800 838 749 1542 
L 3565 1542 
C 3565 1594 3571 1645 3571 1683 
z
M 1939 3002 
C 2598 3002 3078 2541 3136 1882 
L 749 1882 
C 806 2541 1286 3002 1939 3002 
z
" transform="scale(0.015625)"/>
        <path id="Montserrat-Regular-73" d="M 1536 -32 
C 2413 -32 2925 346 2925 928 
C 2925 2221 742 1536 742 2445 
C 742 2765 1011 3002 1619 3002 
C 1965 3002 2317 2918 2611 2714 
L 2810 3078 
C 2528 3270 2054 3392 1619 3392 
C 762 3392 288 2982 288 2432 
C 288 1101 2470 1792 2470 915 
C 2470 582 2208 365 1568 365 
C 1094 365 640 531 371 742 
L 166 384 
C 442 147 979 -32 1536 -32 
z
" transform="scale(0.015625)"/>
       </defs>
       <use xlink:href="#Montserrat-Regular-41"/>
       <use xlink:href="#Montserrat-Regular-6c" x="71.699982"/>
       <use xlink:href="#Montserrat-Regular-6c" x="98.599976"/>
       <use xlink:href="#Montserrat-Regular-69" x="125.499969"/>
       <use xlink:href="#Montserrat-Regular-61" x="152.399963"/>
       <use xlink:href="#Montserrat-Regular-6e" x="211.399948"/>
       <use xlink:href="#Montserrat-Regular-63" x="279.09993"/>
       <use xlink:href="#Montserrat-Regular-65" x="335.399918"/>
       <use xlink:href="#Montserrat-Regular-73" x="395.799911"/>
      </g>
     </g>
    </g>
    <g id="xtick_2">
     <g id="line2d_2">
      <g>
       <use xlink:href="#m01870f633e" x="227.041857" y="273.512" style="stroke: #000000; stroke-width: 0.8"/>
      </g>
     </g>
     <g id="text_2">
      <!-- Customer -->
      <g style="fill: #555555" transform="translate(187.201857 292.3845)scale(0.16 -0.16)">
       <defs>
        <path id="Montserrat-Regular-43" d="M 2675 -38 
C 3334 -38 3923 186 4320 621 
L 4019 922 
C 3654 544 3206 384 2694 384 
C 1613 384 800 1178 800 2240 
C 800 3302 1613 4096 2694 4096 
C 3206 4096 3654 3936 4019 3565 
L 4320 3866 
C 3923 4301 3334 4518 2682 4518 
C 1331 4518 333 3552 333 2240 
C 333 928 1331 -38 2675 -38 
z
" transform="scale(0.015625)"/>
        <path id="Montserrat-Regular-75" d="M 3213 3366 
L 3213 1600 
C 3213 832 2771 378 2067 378 
C 1427 378 1056 742 1056 1459 
L 1056 3366 
L 602 3366 
L 602 1414 
C 602 448 1165 -32 2022 -32 
C 2560 -32 2995 205 3232 614 
L 3232 0 
L 3667 0 
L 3667 3366 
L 3213 3366 
z
" transform="scale(0.015625)"/>
        <path id="Montserrat-Regular-74" d="M 2246 531 
C 2118 416 1933 358 1747 358 
C 1370 358 1165 576 1165 973 
L 1165 2982 
L 2189 2982 
L 2189 3366 
L 1165 3366 
L 1165 4102 
L 710 4102 
L 710 3366 
L 109 3366 
L 109 2982 
L 710 2982 
L 710 947 
C 710 326 1062 -32 1696 -32 
C 1958 -32 2227 45 2406 205 
L 2246 531 
z
" transform="scale(0.015625)"/>
        <path id="Montserrat-Regular-6f" d="M 2010 -32 
C 2995 -32 3718 685 3718 1683 
C 3718 2682 2995 3392 2010 3392 
C 1024 3392 294 2682 294 1683 
C 294 685 1024 -32 2010 -32 
z
M 2010 371 
C 1293 371 755 896 755 1683 
C 755 2470 1293 2995 2010 2995 
C 2726 2995 3258 2470 3258 1683 
C 3258 896 2726 371 2010 371 
z
" transform="scale(0.015625)"/>
        <path id="Montserrat-Regular-6d" d="M 4832 3392 
C 4224 3392 3744 3117 3501 2682 
C 3296 3155 2861 3392 2304 3392 
C 1741 3392 1306 3155 1069 2752 
L 1069 3366 
L 634 3366 
L 634 0 
L 1088 0 
L 1088 1766 
C 1088 2534 1530 2982 2214 2982 
C 2829 2982 3187 2618 3187 1907 
L 3187 0 
L 3642 0 
L 3642 1766 
C 3642 2534 4077 2982 4768 2982 
C 5376 2982 5734 2618 5734 1907 
L 5734 0 
L 6189 0 
L 6189 1952 
C 6189 2918 5651 3392 4832 3392 
z
" transform="scale(0.015625)"/>
        <path id="Montserrat-Regular-72" d="M 1069 2707 
L 1069 3366 
L 634 3366 
L 634 0 
L 1088 0 
L 1088 1715 
C 1088 2509 1517 2957 2221 2957 
C 2253 2957 2291 2950 2330 2950 
L 2330 3392 
C 1709 3392 1280 3155 1069 2707 
z
" transform="scale(0.015625)"/>
       </defs>
       <use xlink:href="#Montserrat-Regular-43"/>
       <use xlink:href="#Montserrat-Regular-75" x="71.899994"/>
       <use xlink:href="#Montserrat-Regular-73" x="139.199982"/>
       <use xlink:href="#Montserrat-Regular-74" x="188.099976"/>
       <use xlink:href="#Montserrat-Regular-6f" x="228.699966"/>
       <use xlink:href="#Montserrat-Regular-6d" x="291.399963"/>
       <use xlink:href="#Montserrat-Regular-65" x="397.499954"/>
       <use xlink:href="#Montserrat-Regular-72" x="457.899948"/>
      </g>
      <!-- Success -->
      <g style="fill: #555555" transform="translate(195.073107 309.7365)scale(0.16 -0.16)">
       <defs>
        <path id="Montserrat-Regular-53" d="M 1965 -38 
C 3110 -38 3635 525 3635 1184 
C 3635 2816 877 2074 877 3302 
C 877 3750 1242 4115 2061 4115 
C 2458 4115 2906 3994 3290 3744 
L 3450 4122 
C 3091 4371 2566 4518 2061 4518 
C 922 4518 410 3949 410 3290 
C 410 1632 3168 2387 3168 1158 
C 3168 717 2803 365 1965 365 
C 1376 365 806 595 486 909 
L 301 544 
C 634 198 1293 -38 1965 -38 
z
" transform="scale(0.015625)"/>
       </defs>
       <use xlink:href="#Montserrat-Regular-53"/>
       <use xlink:href="#Montserrat-Regular-75" x="61.499985"/>
       <use xlink:href="#Montserrat-Regular-63" x="128.799973"/>
       <use xlink:href="#Montserrat-Regular-63" x="185.09996"/>
       <use xlink:href="#Montserrat-Regular-65" x="241.399948"/>
       <use xlink:href="#Montserrat-Regular-73" x="301.799942"/>
       <use xlink:href="#Montserrat-Regular-73" x="350.699936"/>
      </g>
     </g>
    </g>
    <g id="xtick_3">
     <g id="line2d_3">
      <g>
       <use xlink:href="#m01870f633e" x="314.495619" y="273.512" style="stroke: #000000; stroke-width: 0.8"/>
      </g>
     </g>
     <g id="text_3">
      <!-- Inside -->
      <g style="fill: #555555" transform="translate(290.341869 292.3845)scale(0.16 -0.16)">
       <defs>
        <path id="Montserrat-Regular-49" d="M 730 0 
L 1203 0 
L 1203 4480 
L 730 4480 
L 730 0 
z
" transform="scale(0.015625)"/>
        <path id="Montserrat-Regular-64" d="M 3251 4749 
L 3251 2726 
C 2970 3162 2509 3392 1971 3392 
C 1011 3392 294 2701 294 1683 
C 294 666 1011 -32 1971 -32 
C 2528 -32 2995 211 3270 666 
L 3270 0 
L 3706 0 
L 3706 4749 
L 3251 4749 
z
M 2010 371 
C 1293 371 755 896 755 1683 
C 755 2470 1293 2995 2010 2995 
C 2720 2995 3258 2470 3258 1683 
C 3258 896 2720 371 2010 371 
z
" transform="scale(0.015625)"/>
       </defs>
       <use xlink:href="#Montserrat-Regular-49"/>
       <use xlink:href="#Montserrat-Regular-6e" x="30.199997"/>
       <use xlink:href="#Montserrat-Regular-73" x="97.899979"/>
       <use xlink:href="#Montserrat-Regular-69" x="146.799973"/>
       <use xlink:href="#Montserrat-Regular-64" x="173.699966"/>
       <use xlink:href="#Montserrat-Regular-65" x="241.499954"/>
      </g>
      <!-- Sales -->
      <g style="fill: #555555" transform="translate(293.958119 309.7365)scale(0.16 -0.16)">
       <use xlink:href="#Montserrat-Regular-53"/>
       <use xlink:href="#Montserrat-Regular-61" x="61.499985"/>
       <use xlink:href="#Montserrat-Regular-6c" x="120.499969"/>
       <use xlink:href="#Montserrat-Regular-65" x="147.399963"/>
       <use xlink:href="#Montserrat-Regular-73" x="207.799957"/>
      </g>
     </g>
    </g>
    <g id="xtick_4">
     <g id="line2d_4">
      <g>
       <use xlink:href="#m01870f633e" x="401.949381" y="273.512" style="stroke: #000000; stroke-width: 0.8"/>
      </g>
     </g>
     <g id="text_4">
      <!-- Pre-Sales -->
      <g style="fill: #555555" transform="translate(364.571881 292.3845)scale(0.16 -0.16)">
       <defs>
        <path id="Montserrat-Regular-50" d="M 2406 4480 
L 730 4480 
L 730 0 
L 1203 0 
L 1203 1414 
L 2406 1414 
C 3546 1414 4237 1990 4237 2944 
C 4237 3904 3546 4480 2406 4480 
z
M 2394 1830 
L 1203 1830 
L 1203 4070 
L 2394 4070 
C 3290 4070 3763 3661 3763 2944 
C 3763 2240 3290 1830 2394 1830 
z
" transform="scale(0.015625)"/>
        <path id="Montserrat-Regular-2d" d="M 384 1536 
L 2061 1536 
L 2061 1933 
L 384 1933 
L 384 1536 
z
" transform="scale(0.015625)"/>
       </defs>
       <use xlink:href="#Montserrat-Regular-50"/>
       <use xlink:href="#Montserrat-Regular-72" x="71.799988"/>
       <use xlink:href="#Montserrat-Regular-65" x="111.899979"/>
       <use xlink:href="#Montserrat-Regular-2d" x="172.299973"/>
       <use xlink:href="#Montserrat-Regular-53" x="210.499969"/>
       <use xlink:href="#Montserrat-Regular-61" x="271.999954"/>
       <use xlink:href="#Montserrat-Regular-6c" x="330.999939"/>
       <use xlink:href="#Montserrat-Regular-65" x="357.899933"/>
       <use xlink:href="#Montserrat-Regular-73" x="418.299927"/>
      </g>
     </g>
    </g>
    <g id="xtick_5">
     <g id="line2d_5">
      <g>
       <use xlink:href="#m01870f633e" x="489.403143" y="273.512" style="stroke: #000000; stroke-width: 0.8"/>
      </g>
     </g>
     <g id="text_5">
      <!-- Sales -->
      <g style="fill: #555555" transform="translate(468.865643 292.3845)scale(0.16 -0.16)">
       <use xlink:href="#Montserrat-Regular-53"/>
       <use xlink:href="#Montserrat-Regular-61" x="61.499985"/>
       <use xlink:href="#Montserrat-Regular-6c" x="120.499969"/>
       <use xlink:href="#Montserrat-Regular-65" x="147.399963"/>
       <use xlink:href="#Montserrat-Regular-73" x="207.799957"/>
      </g>
     </g>
    </g>
    <g id="xtick_6">
     <g id="line2d_6">
      <g>
       <use xlink:href="#m01870f633e" x="576.856904" y="273.512" style="stroke: #000000; stroke-width: 0.8"/>
      </g>
     </g>
     <g id="text_6">
      <!-- Sales -->
      <g style="fill: #555555" transform="translate(556.319404 292.3845)scale(0.16 -0.16)">
       <use xlink:href="#Montserrat-Regular-53"/>
       <use xlink:href="#Montserrat-Regular-61" x="61.499985"/>
       <use xlink:href="#Montserrat-Regular-6c" x="120.499969"/>
       <use xlink:href="#Montserrat-Regular-65" x="147.399963"/>
       <use xlink:href="#Montserrat-Regular-73" x="207.799957"/>
      </g>
      <!-- Dev. -->
      <g style="fill: #555555" transform="translate(559.384404 309.7365)scale(0.16 -0.16)">
       <defs>
        <path id="Montserrat-Regular-44" d="M 730 0 
L 2554 0 
C 3987 0 4954 922 4954 2240 
C 4954 3558 3987 4480 2554 4480 
L 730 4480 
L 730 0 
z
M 1203 410 
L 1203 4070 
L 2528 4070 
C 3718 4070 4486 3315 4486 2240 
C 4486 1165 3718 410 2528 410 
L 1203 410 
z
" transform="scale(0.015625)"/>
        <path id="Montserrat-Regular-76" d="M 3014 3366 
L 1741 499 
L 480 3366 
L 6 3366 
L 1498 0 
L 1965 0 
L 3462 3366 
L 3014 3366 
z
" transform="scale(0.015625)"/>
        <path id="Montserrat-Regular-2e" d="M 678 -32 
C 864 -32 1024 122 1024 320 
C 1024 518 864 666 678 666 
C 493 666 339 518 339 320 
C 339 122 493 -32 678 -32 
z
" transform="scale(0.015625)"/>
       </defs>
       <use xlink:href="#Montserrat-Regular-44"/>
       <use xlink:href="#Montserrat-Regular-65" x="82.599991"/>
       <use xlink:href="#Montserrat-Regular-76" x="142.999985"/>
       <use xlink:href="#Montserrat-Regular-2e" x="197.199982"/>
      </g>
     </g>
    </g>
   </g>
   <g id="matplotlib.axis_2">
    <g id="ytick_1">
     <g id="line2d_7">
      <path d="M 79.245 273.512 
L 637.2 273.512 
" clip-path="url(#p7742e4eb4e)" style="fill: none; stroke-dasharray: 1.85,0.8; stroke-dashoffset: 0; stroke: #b7b7b7; stroke-width: 0.5"/>
     </g>
     <g id="line2d_8">
      <defs>
       <path id="m2ea1e9c8f9" d="M 0 0 
L -3.5 0 
" style="stroke: #b7b7b7; stroke-width: 0.8"/>
      </defs>
      <g>
       <use xlink:href="#m2ea1e9c8f9" x="79.245" y="273.512" style="fill: #b7b7b7; stroke: #b7b7b7; stroke-width: 0.8"/>
      </g>
     </g>
     <g id="text_7">
      <!-- 0 -->
      <g style="fill: #b7b7b7" transform="translate(61.6525 279.44825)scale(0.16 -0.16)">
       <defs>
        <path id="Montserrat-Regular-30" d="M 2118 -38 
C 3155 -38 3910 813 3910 2240 
C 3910 3667 3155 4518 2118 4518 
C 1082 4518 333 3667 333 2240 
C 333 813 1082 -38 2118 -38 
z
M 2118 384 
C 1338 384 800 1043 800 2240 
C 800 3437 1338 4096 2118 4096 
C 2899 4096 3437 3437 3437 2240 
C 3437 1043 2899 384 2118 384 
z
" transform="scale(0.015625)"/>
       </defs>
       <use xlink:href="#Montserrat-Regular-30"/>
      </g>
     </g>
    </g>
    <g id="ytick_2">
     <g id="line2d_9">
      <path d="M 79.245 248.539515 
L 637.2 248.539515 
" clip-path="url(#p7742e4eb4e)" style="fill: none; stroke-dasharray: 1.85,0.8; stroke-dashoffset: 0; stroke: #b7b7b7; stroke-width: 0.5"/>
     </g>
     <g id="line2d_10">
      <g>
       <use xlink:href="#m2ea1e9c8f9" x="79.245" y="248.539515" style="fill: #b7b7b7; stroke: #b7b7b7; stroke-width: 0.8"/>
      </g>
     </g>
     <g id="text_8">
      <!-- 10 -->
      <g style="fill: #b7b7b7" transform="translate(55.8775 254.475765)scale(0.16 -0.16)">
       <defs>
        <path id="Montserrat-Regular-31" d="M 58 4480 
L 58 4070 
L 1114 4070 
L 1114 0 
L 1574 0 
L 1574 4480 
L 58 4480 
z
" transform="scale(0.015625)"/>
       </defs>
       <use xlink:href="#Montserrat-Regular-31"/>
       <use xlink:href="#Montserrat-Regular-30" x="36.099991"/>
      </g>
     </g>
    </g>
    <g id="ytick_3">
     <g id="line2d_11">
      <path d="M 79.245 223.56703 
L 637.2 223.56703 
" clip-path="url(#p7742e4eb4e)" style="fill: none; stroke-dasharray: 1.85,0.8; stroke-dashoffset: 0; stroke: #b7b7b7; stroke-width: 0.5"/>
     </g>
     <g id="line2d_12">
      <g>
       <use xlink:href="#m2ea1e9c8f9" x="79.245" y="223.56703" style="fill: #b7b7b7; stroke: #b7b7b7; stroke-width: 0.8"/>
      </g>
     </g>
     <g id="text_9">
      <!-- 20 -->
      <g style="fill: #b7b7b7" transform="translate(52.565 229.50328)scale(0.16 -0.16)">
       <defs>
        <path id="Montserrat-Regular-32" d="M 928 410 
L 2451 1907 
C 3053 2496 3187 2880 3187 3309 
C 3187 4058 2611 4518 1702 4518 
C 1018 4518 461 4288 115 3878 
L 442 3597 
C 736 3936 1139 4096 1664 4096 
C 2349 4096 2714 3776 2714 3258 
C 2714 2950 2618 2650 2112 2150 
L 250 326 
L 250 0 
L 3392 0 
L 3392 410 
L 928 410 
z
" transform="scale(0.015625)"/>
       </defs>
       <use xlink:href="#Montserrat-Regular-32"/>
       <use xlink:href="#Montserrat-Regular-30" x="56.799988"/>
      </g>
     </g>
    </g>
    <g id="ytick_4">
     <g id="line2d_13">
      <path d="M 79.245 198.594545 
L 637.2 198.594545 
" clip-path="url(#p7742e4eb4e)" style="fill: none; stroke-dasharray: 1.85,0.8; stroke-dashoffset: 0; stroke: #b7b7b7; stroke-width: 0.5"/>
     </g>
     <g id="line2d_14">
      <g>
       <use xlink:href="#m2ea1e9c8f9" x="79.245" y="198.594545" style="fill: #b7b7b7; stroke: #b7b7b7; stroke-width: 0.8"/>
      </g>
     </g>
     <g id="text_10">
      <!-- 30 -->
      <g style="fill: #b7b7b7" transform="translate(52.6275 204.530795)scale(0.16 -0.16)">
       <defs>
        <path id="Montserrat-Regular-33" d="M 1856 2560 
L 3123 4154 
L 3123 4480 
L 243 4480 
L 243 4070 
L 2534 4070 
L 1293 2515 
L 1293 2176 
L 1613 2176 
C 2445 2176 2822 1824 2822 1286 
C 2822 730 2413 384 1670 384 
C 1088 384 570 602 282 902 
L 58 538 
C 403 186 1024 -38 1670 -38 
C 2752 -38 3296 538 3296 1286 
C 3296 2003 2816 2509 1856 2560 
z
" transform="scale(0.015625)"/>
       </defs>
       <use xlink:href="#Montserrat-Regular-33"/>
       <use xlink:href="#Montserrat-Regular-30" x="56.399994"/>
      </g>
     </g>
    </g>
    <g id="ytick_5">
     <g id="line2d_15">
      <path d="M 79.245 173.62206 
L 637.2 173.62206 
" clip-path="url(#p7742e4eb4e)" style="fill: none; stroke-dasharray: 1.85,0.8; stroke-dashoffset: 0; stroke: #b7b7b7; stroke-width: 0.5"/>
     </g>
     <g id="line2d_16">
      <g>
       <use xlink:href="#m2ea1e9c8f9" x="79.245" y="173.62206" style="fill: #b7b7b7; stroke: #b7b7b7; stroke-width: 0.8"/>
      </g>
     </g>
     <g id="text_11">
      <!-- 40 -->
      <g style="fill: #b7b7b7" transform="translate(51.0775 179.55831)scale(0.16 -0.16)">
       <defs>
        <path id="Montserrat-Regular-34" d="M 4141 1587 
L 3245 1587 
L 3245 2624 
L 2797 2624 
L 2797 1587 
L 851 1587 
L 3142 4480 
L 2630 4480 
L 256 1510 
L 256 1178 
L 2784 1178 
L 2784 0 
L 3245 0 
L 3245 1178 
L 4141 1178 
L 4141 1587 
z
" transform="scale(0.015625)"/>
       </defs>
       <use xlink:href="#Montserrat-Regular-34"/>
       <use xlink:href="#Montserrat-Regular-30" x="66.099991"/>
      </g>
     </g>
    </g>
    <g id="ytick_6">
     <g id="line2d_17">
      <path d="M 79.245 148.649575 
L 637.2 148.649575 
" clip-path="url(#p7742e4eb4e)" style="fill: none; stroke-dasharray: 1.85,0.8; stroke-dashoffset: 0; stroke: #b7b7b7; stroke-width: 0.5"/>
     </g>
     <g id="line2d_18">
      <g>
       <use xlink:href="#m2ea1e9c8f9" x="79.245" y="148.649575" style="fill: #b7b7b7; stroke: #b7b7b7; stroke-width: 0.8"/>
      </g>
     </g>
     <g id="text_12">
      <!-- 50 -->
      <g style="fill: #b7b7b7" transform="translate(52.5975 154.585825)scale(0.16 -0.16)">
       <defs>
        <path id="Montserrat-Regular-35" d="M 1510 2643 
L 934 2643 
L 1088 4070 
L 3136 4070 
L 3136 4480 
L 685 4480 
L 454 2234 
L 1408 2234 
C 2547 2234 2906 1875 2906 1299 
C 2906 755 2502 384 1741 384 
C 1165 384 653 602 365 902 
L 141 538 
C 486 186 1101 -38 1747 -38 
C 2842 -38 3373 557 3373 1318 
C 3373 2112 2861 2643 1510 2643 
z
" transform="scale(0.015625)"/>
       </defs>
       <use xlink:href="#Montserrat-Regular-35"/>
       <use xlink:href="#Montserrat-Regular-30" x="56.599991"/>
      </g>
     </g>
    </g>
    <g id="ytick_7">
     <g id="line2d_19">
      <path d="M 79.245 123.67709 
L 637.2 123.67709 
" clip-path="url(#p7742e4eb4e)" style="fill: none; stroke-dasharray: 1.85,0.8; stroke-dashoffset: 0; stroke: #b7b7b7; stroke-width: 0.5"/>
     </g>
     <g id="line2d_20">
      <g>
       <use xlink:href="#m2ea1e9c8f9" x="79.245" y="123.67709" style="fill: #b7b7b7; stroke: #b7b7b7; stroke-width: 0.8"/>
      </g>
     </g>
     <g id="text_13">
      <!-- 60 -->
      <g style="fill: #b7b7b7" transform="translate(51.9075 129.61334)scale(0.16 -0.16)">
       <defs>
        <path id="Montserrat-Regular-36" d="M 2189 2682 
C 1568 2682 1043 2406 819 1914 
C 806 2048 800 2176 800 2278 
C 800 3494 1421 4115 2387 4115 
C 2720 4115 3027 4058 3258 3904 
L 3443 4275 
C 3162 4448 2784 4518 2381 4518 
C 1165 4518 333 3725 333 2202 
C 333 787 979 -38 2170 -38 
C 3040 -38 3699 499 3699 1338 
C 3699 2157 3078 2682 2189 2682 
z
M 2150 352 
C 1376 352 966 819 966 1312 
C 966 1869 1434 2291 2118 2291 
C 2810 2291 3245 1914 3245 1325 
C 3245 730 2797 352 2150 352 
z
" transform="scale(0.015625)"/>
       </defs>
       <use xlink:href="#Montserrat-Regular-36"/>
       <use xlink:href="#Montserrat-Regular-30" x="60.899994"/>
      </g>
     </g>
    </g>
    <g id="ytick_8">
     <g id="line2d_21">
      <path d="M 79.245 98.704605 
L 637.2 98.704605 
" clip-path="url(#p7742e4eb4e)" style="fill: none; stroke-dasharray: 1.85,0.8; stroke-dashoffset: 0; stroke: #b7b7b7; stroke-width: 0.5"/>
     </g>
     <g id="line2d_22">
      <g>
       <use xlink:href="#m2ea1e9c8f9" x="79.245" y="98.704605" style="fill: #b7b7b7; stroke: #b7b7b7; stroke-width: 0.8"/>
      </g>
     </g>
     <g id="text_14">
      <!-- 70 -->
      <g style="fill: #b7b7b7" transform="translate(52.2275 104.640855)scale(0.16 -0.16)">
       <defs>
        <path id="Montserrat-Regular-37" d="M 205 4480 
L 205 3232 
L 659 3232 
L 659 4070 
L 2963 4070 
L 1120 0 
L 1619 0 
L 3494 4154 
L 3494 4480 
L 205 4480 
z
" transform="scale(0.015625)"/>
       </defs>
       <use xlink:href="#Montserrat-Regular-37"/>
       <use xlink:href="#Montserrat-Regular-30" x="58.899994"/>
      </g>
     </g>
    </g>
    <g id="ytick_9">
     <g id="line2d_23">
      <path d="M 79.245 73.73212 
L 637.2 73.73212 
" clip-path="url(#p7742e4eb4e)" style="fill: none; stroke-dasharray: 1.85,0.8; stroke-dashoffset: 0; stroke: #b7b7b7; stroke-width: 0.5"/>
     </g>
     <g id="line2d_24">
      <g>
       <use xlink:href="#m2ea1e9c8f9" x="79.245" y="73.73212" style="fill: #b7b7b7; stroke: #b7b7b7; stroke-width: 0.8"/>
      </g>
     </g>
     <g id="text_15">
      <!-- 80 -->
      <g style="fill: #b7b7b7" transform="translate(51.445 79.66837)scale(0.16 -0.16)">
       <defs>
        <path id="Montserrat-Regular-38" d="M 2899 2349 
C 3360 2528 3616 2867 3616 3334 
C 3616 4064 2982 4518 2035 4518 
C 1088 4518 467 4064 467 3334 
C 467 2867 717 2528 1171 2349 
C 614 2163 307 1786 307 1248 
C 307 454 960 -38 2035 -38 
C 3104 -38 3776 454 3776 1248 
C 3776 1779 3462 2163 2899 2349 
z
M 928 3322 
C 928 3821 1357 4128 2035 4128 
C 2707 4128 3149 3821 3149 3315 
C 3149 2829 2733 2515 2035 2515 
C 1338 2515 928 2829 928 3322 
z
M 2035 352 
C 1242 352 774 698 774 1254 
C 774 1805 1242 2150 2035 2150 
C 2829 2150 3302 1805 3302 1254 
C 3302 698 2829 352 2035 352 
z
" transform="scale(0.015625)"/>
       </defs>
       <use xlink:href="#Montserrat-Regular-38"/>
       <use xlink:href="#Montserrat-Regular-30" x="63.799988"/>
      </g>
     </g>
    </g>
    <g id="ytick_10">
     <g id="line2d_25">
      <path d="M 79.245 48.759635 
L 637.2 48.759635 
" clip-path="url(#p7742e4eb4e)" style="fill: none; stroke-dasharray: 1.85,0.8; stroke-dashoffset: 0; stroke: #b7b7b7; stroke-width: 0.5"/>
     </g>
     <g id="line2d_26">
      <g>
       <use xlink:href="#m2ea1e9c8f9" x="79.245" y="48.759635" style="fill: #b7b7b7; stroke: #b7b7b7; stroke-width: 0.8"/>
      </g>
     </g>
     <g id="text_16">
      <!-- 90 -->
      <g style="fill: #b7b7b7" transform="translate(51.9075 54.695885)scale(0.16 -0.16)">
       <defs>
        <path id="Montserrat-Regular-39" d="M 1728 4518 
C 858 4518 198 3981 198 3142 
C 198 2323 819 1798 1709 1798 
C 2330 1798 2854 2074 3078 2566 
C 3091 2432 3098 2304 3098 2202 
C 3098 986 2477 365 1510 365 
C 1178 365 870 422 640 576 
L 454 205 
C 736 32 1114 -38 1517 -38 
C 2733 -38 3565 755 3565 2278 
C 3565 3693 2918 4518 1728 4518 
z
M 1779 2189 
C 1088 2189 653 2566 653 3155 
C 653 3750 1101 4128 1747 4128 
C 2522 4128 2931 3661 2931 3168 
C 2931 2611 2464 2189 1779 2189 
z
" transform="scale(0.015625)"/>
       </defs>
       <use xlink:href="#Montserrat-Regular-39"/>
       <use xlink:href="#Montserrat-Regular-30" x="60.899994"/>
      </g>
     </g>
    </g>
    <g id="ytick_11">
     <g id="line2d_27">
      <path d="M 79.245 23.787149 
L 637.2 23.787149 
" clip-path="url(#p7742e4eb4e)" style="fill: none; stroke-dasharray: 1.85,0.8; stroke-dashoffset: 0; stroke: #b7b7b7; stroke-width: 0.5"/>
     </g>
     <g id="line2d_28">
      <g>
       <use xlink:href="#m2ea1e9c8f9" x="79.245" y="23.787149" style="fill: #b7b7b7; stroke: #b7b7b7; stroke-width: 0.8"/>
      </g>
     </g>
     <g id="text_17">
      <!-- 100 -->
      <g style="fill: #b7b7b7" transform="translate(45.285 29.723399)scale(0.16 -0.16)">
       <use xlink:href="#Montserrat-Regular-31"/>
       <use xlink:href="#Montserrat-Regular-30" x="36.099991"/>
       <use xlink:href="#Montserrat-Regular-30" x="102.299988"/>
      </g>
     </g>
    </g>
    <g id="text_18">
     <!-- [%] -->
     <g style="fill: #b7b7b7" transform="translate(10.635 143.5197)scale(0.2 -0.2)">
      <defs>
       <path id="Montserrat-Regular-5b" d="M 730 -1242 
L 1901 -1242 
L 1901 -864 
L 1184 -864 
L 1184 4371 
L 1901 4371 
L 1901 4749 
L 730 4749 
L 730 -1242 
z
" transform="scale(0.015625)"/>
       <path id="Montserrat-Regular-25" d="M 1280 2080 
C 1875 2080 2291 2560 2291 3296 
C 2291 4032 1875 4512 1280 4512 
C 678 4512 269 4026 269 3296 
C 269 2566 678 2080 1280 2080 
z
M 934 0 
L 1312 0 
L 4371 4480 
L 3994 4480 
L 934 0 
z
M 1280 2368 
C 858 2368 589 2720 589 3296 
C 589 3872 858 4224 1280 4224 
C 1696 4224 1971 3878 1971 3296 
C 1971 2714 1696 2368 1280 2368 
z
M 4026 -32 
C 4627 -32 5037 454 5037 1184 
C 5037 1914 4627 2400 4026 2400 
C 3430 2400 3014 1914 3014 1184 
C 3014 454 3430 -32 4026 -32 
z
M 4026 256 
C 3610 256 3334 602 3334 1184 
C 3334 1766 3610 2112 4026 2112 
C 4448 2112 4717 1760 4717 1184 
C 4717 608 4448 256 4026 256 
z
" transform="scale(0.015625)"/>
       <path id="Montserrat-Regular-5d" d="M 1306 -1242 
L 1306 4749 
L 134 4749 
L 134 4371 
L 851 4371 
L 851 -864 
L 134 -864 
L 134 -1242 
L 1306 -1242 
z
" transform="scale(0.015625)"/>
      </defs>
      <use xlink:href="#Montserrat-Regular-5b"/>
      <use xlink:href="#Montserrat-Regular-25" x="31.799988"/>
      <use xlink:href="#Montserrat-Regular-5d" x="114.699982"/>
     </g>
    </g>
   </g>
   <g id="patch_3">
    <path d="M 454.421638 273.512 
L 524.384647 273.512 
L 524.384647 23.787149 
L 454.421638 23.787149 
L 454.421638 273.512 
z
" clip-path="url(#p7742e4eb4e)" style="fill: none; opacity: 0.1; stroke: #ff0000; stroke-linejoin: miter"/>
   </g>
   <g id="patch_4">
    <path d="M 454.421638 273.512 
L 524.384647 273.512 
L 524.384647 23.787149 
L 454.421638 23.787149 
L 454.421638 273.512 
z
" clip-path="url(#p7742e4eb4e)" style="fill: none; opacity: 0.1; stroke: #ff0000; stroke-width: 3; stroke-linejoin: miter"/>
   </g>
   <g id="patch_5">
    <path d="M 454.421638 273.512 
L 524.384647 273.512 
L 524.384647 23.787149 
L 454.421638 23.787149 
L 454.421638 273.512 
z
" clip-path="url(#p7742e4eb4e)" style="fill: none; opacity: 0.1; stroke: #ff0000; stroke-width: 5; stroke-linejoin: miter"/>
   </g>
   <g id="patch_6">
    <path d="M 454.421638 273.512 
L 524.384647 273.512 
L 524.384647 23.787149 
L 454.421638 23.787149 
L 454.421638 273.512 
z
" clip-path="url(#p7742e4eb4e)" style="fill: none; opacity: 0.1; stroke: #ff0000; stroke-width: 7; stroke-linejoin: miter"/>
   </g>
   <g id="patch_7">
    <path d="M 454.421638 273.512 
L 524.384647 273.512 
L 524.384647 23.787149 
L 454.421638 23.787149 
L 454.421638 273.512 
z
" clip-path="url(#p7742e4eb4e)" style="fill: none; opacity: 0.1; stroke: #ff0000; stroke-width: 9; stroke-linejoin: miter"/>
   </g>
   <g id="patch_8">
    <path d="M 104.606591 273.512 
L 174.5696 273.512 
L 174.5696 246.755766 
L 104.606591 246.755766 
z
" clip-path="url(#p7742e4eb4e)" style="fill: #6eb7fa"/>
   </g>
   <g id="patch_9">
    <path d="M 192.060353 273.512 
L 262.023362 273.512 
L 262.023362 234.08176 
L 192.060353 234.08176 
z
" clip-path="url(#p7742e4eb4e)" style="fill: #6eb7fa"/>
   </g>
   <g id="patch_10">
    <path d="M 279.514114 273.512 
L 349.477124 273.512 
L 349.477124 273.512 
L 279.514114 273.512 
z
" clip-path="url(#p7742e4eb4e)" style="fill: #6eb7fa"/>
   </g>
   <g id="patch_11">
    <path d="M 366.967876 273.512 
L 436.930886 273.512 
L 436.930886 238.666672 
L 366.967876 238.666672 
z
" clip-path="url(#p7742e4eb4e)" style="fill: #6eb7fa"/>
   </g>
   <g id="patch_12">
    <path d="M 454.421638 273.512 
L 524.384647 273.512 
L 524.384647 263.106798 
L 454.421638 263.106798 
z
" clip-path="url(#p7742e4eb4e)" style="fill: #6eb7fa"/>
   </g>
   <g id="patch_13">
    <path d="M 541.8754 273.512 
L 611.838409 273.512 
L 611.838409 265.187838 
L 541.8754 265.187838 
z
" clip-path="url(#p7742e4eb4e)" style="fill: #6eb7fa"/>
   </g>
   <g id="patch_14">
    <path d="M 104.606591 246.755766 
L 174.5696 246.755766 
L 174.5696 211.080787 
L 104.606591 211.080787 
z
" clip-path="url(#p7742e4eb4e)" style="fill: #b2c6e3"/>
   </g>
   <g id="patch_15">
    <path d="M 192.060353 234.08176 
L 262.023362 234.08176 
L 262.023362 194.651521 
L 192.060353 194.651521 
z
" clip-path="url(#p7742e4eb4e)" style="fill: #b2c6e3"/>
   </g>
   <g id="patch_16">
    <path d="M 279.514114 273.512 
L 349.477124 273.512 
L 349.477124 255.674511 
L 279.514114 255.674511 
z
" clip-path="url(#p7742e4eb4e)" style="fill: #b2c6e3"/>
   </g>
   <g id="patch_17">
    <path d="M 366.967876 238.666672 
L 436.930886 238.666672 
L 436.930886 221.244008 
L 366.967876 221.244008 
z
" clip-path="url(#p7742e4eb4e)" style="fill: #b2c6e3"/>
   </g>
   <g id="patch_18">
    <path d="M 454.421638 263.106798 
L 524.384647 263.106798 
L 524.384647 107.028766 
L 454.421638 107.028766 
z
" clip-path="url(#p7742e4eb4e)" style="fill: #b2c6e3"/>
   </g>
   <g id="patch_19">
    <path d="M 541.8754 265.187838 
L 611.838409 265.187838 
L 611.838409 248.539515 
L 541.8754 248.539515 
z
" clip-path="url(#p7742e4eb4e)" style="fill: #b2c6e3"/>
   </g>
   <g id="patch_20">
    <path d="M 104.606591 211.080787 
L 174.5696 211.080787 
L 174.5696 193.243298 
L 104.606591 193.243298 
z
" clip-path="url(#p7742e4eb4e)" style="fill: #b1e5f4"/>
   </g>
   <g id="patch_21">
    <path d="M 192.060353 194.651521 
L 262.023362 194.651521 
L 262.023362 181.508108 
L 192.060353 181.508108 
z
" clip-path="url(#p7742e4eb4e)" style="fill: #b1e5f4"/>
   </g>
   <g id="patch_22">
    <path d="M 279.514114 255.674511 
L 349.477124 255.674511 
L 349.477124 184.324553 
L 279.514114 184.324553 
z
" clip-path="url(#p7742e4eb4e)" style="fill: #b1e5f4"/>
   </g>
   <g id="patch_23">
    <path d="M 366.967876 221.244008 
L 436.930886 221.244008 
L 436.930886 209.628899 
L 366.967876 209.628899 
z
" clip-path="url(#p7742e4eb4e)" style="fill: #b1e5f4"/>
   </g>
   <g id="patch_24">
    <path d="M 454.421638 107.028766 
L 524.384647 107.028766 
L 524.384647 23.787149 
L 454.421638 23.787149 
z
" clip-path="url(#p7742e4eb4e)" style="fill: #b1e5f4"/>
   </g>
   <g id="patch_25">
    <path d="M 541.8754 248.539515 
L 611.838409 248.539515 
L 611.838409 248.539515 
L 541.8754 248.539515 
z
" clip-path="url(#p7742e4eb4e)" style="fill: #b1e5f4"/>
   </g>
   <g id="text_19">
    <!-- 32% -->
    <g style="fill: #555555" transform="translate(125.860439 190.526423)scale(0.14 -0.14)">
     <use xlink:href="#Montserrat-Regular-33"/>
     <use xlink:href="#Montserrat-Regular-32" x="56.399994"/>
     <use xlink:href="#Montserrat-Regular-25" x="113.199982"/>
    </g>
   </g>
   <g id="text_20">
    <!-- 37% -->
    <g style="fill: #555555" transform="translate(213.166545 178.791233)scale(0.14 -0.14)">
     <use xlink:href="#Montserrat-Regular-33"/>
     <use xlink:href="#Montserrat-Regular-37" x="56.399994"/>
     <use xlink:href="#Montserrat-Regular-25" x="115.299988"/>
    </g>
   </g>
   <g id="text_21">
    <!-- 36% -->
    <g style="fill: #555555" transform="translate(300.480307 181.607678)scale(0.14 -0.14)">
     <use xlink:href="#Montserrat-Regular-33"/>
     <use xlink:href="#Montserrat-Regular-36" x="56.399994"/>
     <use xlink:href="#Montserrat-Regular-25" x="117.299988"/>
    </g>
   </g>
   <g id="text_22">
    <!-- 26% -->
    <g style="fill: #555555" transform="translate(387.906725 206.912024)scale(0.14 -0.14)">
     <use xlink:href="#Montserrat-Regular-32"/>
     <use xlink:href="#Montserrat-Regular-36" x="56.799988"/>
     <use xlink:href="#Montserrat-Regular-25" x="117.699982"/>
    </g>
   </g>
   <g id="text_23">
    <!-- 100% -->
    <g style="fill: #555555" transform="translate(471.804705 21.070274)scale(0.14 -0.14)">
     <use xlink:href="#Montserrat-Regular-31"/>
     <use xlink:href="#Montserrat-Regular-30" x="36.099991"/>
     <use xlink:href="#Montserrat-Regular-30" x="102.299988"/>
     <use xlink:href="#Montserrat-Regular-25" x="168.499985"/>
    </g>
   </g>
   <g id="text_24">
    <!-- 10% -->
    <g style="fill: #555555" transform="translate(563.892686 245.82264)scale(0.14 -0.14)">
     <use xlink:href="#Montserrat-Regular-31"/>
     <use xlink:href="#Montserrat-Regular-30" x="36.099991"/>
     <use xlink:href="#Montserrat-Regular-25" x="102.299988"/>
    </g>
   </g>
   <g id="line2d_29">
    <path d="M 79.245 273.512 
L 637.2 273.512 
" style="fill: none; stroke: #555555; stroke-width: 3; stroke-linecap: square"/>
   </g>
   <g id="line2d_30">
    <path d="M 79.245 173.505254 
L 637.2 173.505254 
" clip-path="url(#p7742e4eb4e)" style="fill: none; stroke-dasharray: 5,1.5; stroke-dashoffset: 2.5; stroke: #000000; stroke-opacity: 0.85; stroke-width: 0.5"/>
   </g>
  </g>
 </g>
 <defs>
  <clipPath id="p7742e4eb4e">
   <rect x="79.245" y="21.289901" width="557.955" height="252.222099"/>
  </clipPath>
 </defs>
</svg>
