<?xml version="1.0" encoding="utf-8" standalone="no"?>
<!DOCTYPE svg PUBLIC "-//W3C//DTD SVG 1.1//EN"
  "http://www.w3.org/Graphics/SVG/1.1/DTD/svg11.dtd">
<svg xmlns:xlink="http://www.w3.org/1999/xlink" width="864pt" height="432pt" viewBox="0 0 864 432" xmlns="http://www.w3.org/2000/svg" version="1.1">
 <metadata>
  <rdf:RDF xmlns:dc="http://purl.org/dc/elements/1.1/" xmlns:cc="http://creativecommons.org/ns#" xmlns:rdf="http://www.w3.org/1999/02/22-rdf-syntax-ns#">
   <cc:Work>
    <dc:type rdf:resource="http://purl.org/dc/dcmitype/StillImage"/>
    <dc:date>2023-02-02T13:52:09.787361</dc:date>
    <dc:format>image/svg+xml</dc:format>
    <dc:creator>
     <cc:Agent>
      <dc:title>Matplotlib v3.5.3, https://matplotlib.org/</dc:title>
     </cc:Agent>
    </dc:creator>
   </cc:Work>
  </rdf:RDF>
 </metadata>
 <defs>
  <style type="text/css">*{stroke-linejoin: round; stroke-linecap: butt}</style>
 </defs>
 <g id="figure_1">
  <g id="patch_1">
   <path d="M 0 432 
L 864 432 
L 864 0 
L 0 0 
z
" style="fill: #f1f7f9"/>
  </g>
  <g id="axes_1">
   <g id="patch_2">
    <path d="M 70.695 381.512 
L 853.2 381.512 
L 853.2 23.76 
L 70.695 23.76 
z
" style="fill: #f1f7f9"/>
   </g>
   <g id="matplotlib.axis_1">
    <g id="xtick_1">
     <g id="line2d_1">
      <defs>
       <path id="ma1b92775b6" d="M 0 0 
L 0 3.5 
" style="stroke: #000000; stroke-width: 0.8"/>
      </defs>
      <g>
       <use xlink:href="#ma1b92775b6" x="155.323284" y="381.512" style="stroke: #000000; stroke-width: 0.8"/>
      </g>
     </g>
     <g id="text_1">
      <!-- Alliances -->
      <g style="fill: #555555" transform="translate(119.744534 400.3845)scale(0.16 -0.16)">
       <defs>
        <path id="Montserrat-Regular-41" d="M 4077 0 
L 4576 0 
L 2528 4480 
L 2061 4480 
L 13 0 
L 506 0 
L 1043 1197 
L 3539 1197 
L 4077 0 
z
M 1216 1581 
L 2291 3987 
L 3366 1581 
L 1216 1581 
z
" transform="scale(0.015625)"/>
        <path id="Montserrat-Regular-6c" d="M 634 0 
L 1088 0 
L 1088 4749 
L 634 4749 
L 634 0 
z
" transform="scale(0.015625)"/>
        <path id="Montserrat-Regular-69" d="M 864 4102 
C 1056 4102 1197 4250 1197 4435 
C 1197 4608 1050 4749 864 4749 
C 678 4749 531 4602 531 4429 
C 531 4250 678 4102 864 4102 
z
M 634 0 
L 1088 0 
L 1088 3366 
L 634 3366 
L 634 0 
z
" transform="scale(0.015625)"/>
        <path id="Montserrat-Regular-61" d="M 1811 3392 
C 1280 3392 781 3226 442 2938 
L 646 2598 
C 922 2842 1331 2995 1766 2995 
C 2394 2995 2720 2682 2720 2106 
L 2720 1901 
L 1651 1901 
C 685 1901 352 1466 352 947 
C 352 365 819 -32 1581 -32 
C 2138 -32 2534 179 2739 525 
L 2739 0 
L 3174 0 
L 3174 2086 
C 3174 2957 2682 3392 1811 3392 
z
M 1651 326 
C 1114 326 800 570 800 960 
C 800 1306 1011 1562 1664 1562 
L 2720 1562 
L 2720 1011 
C 2541 570 2163 326 1651 326 
z
" transform="scale(0.015625)"/>
        <path id="Montserrat-Regular-6e" d="M 2349 3392 
C 1766 3392 1312 3155 1069 2746 
L 1069 3366 
L 634 3366 
L 634 0 
L 1088 0 
L 1088 1766 
C 1088 2534 1542 2982 2266 2982 
C 2906 2982 3277 2618 3277 1907 
L 3277 0 
L 3731 0 
L 3731 1952 
C 3731 2918 3168 3392 2349 3392 
z
" transform="scale(0.015625)"/>
        <path id="Montserrat-Regular-63" d="M 2029 -32 
C 2598 -32 3078 198 3347 634 
L 3008 864 
C 2778 525 2419 371 2029 371 
C 1293 371 755 890 755 1683 
C 755 2470 1293 2995 2029 2995 
C 2419 2995 2778 2835 3008 2496 
L 3347 2726 
C 3078 3168 2598 3392 2029 3392 
C 1024 3392 294 2688 294 1683 
C 294 678 1024 -32 2029 -32 
z
" transform="scale(0.015625)"/>
        <path id="Montserrat-Regular-65" d="M 3571 1683 
C 3571 2694 2886 3392 1939 3392 
C 992 3392 294 2682 294 1683 
C 294 685 1011 -32 2061 -32 
C 2592 -32 3059 160 3360 518 
L 3104 813 
C 2848 518 2483 371 2074 371 
C 1338 371 800 838 749 1542 
L 3565 1542 
C 3565 1594 3571 1645 3571 1683 
z
M 1939 3002 
C 2598 3002 3078 2541 3136 1882 
L 749 1882 
C 806 2541 1286 3002 1939 3002 
z
" transform="scale(0.015625)"/>
        <path id="Montserrat-Regular-73" d="M 1536 -32 
C 2413 -32 2925 346 2925 928 
C 2925 2221 742 1536 742 2445 
C 742 2765 1011 3002 1619 3002 
C 1965 3002 2317 2918 2611 2714 
L 2810 3078 
C 2528 3270 2054 3392 1619 3392 
C 762 3392 288 2982 288 2432 
C 288 1101 2470 1792 2470 915 
C 2470 582 2208 365 1568 365 
C 1094 365 640 531 371 742 
L 166 384 
C 442 147 979 -32 1536 -32 
z
" transform="scale(0.015625)"/>
       </defs>
       <use xlink:href="#Montserrat-Regular-41"/>
       <use xlink:href="#Montserrat-Regular-6c" x="71.699982"/>
       <use xlink:href="#Montserrat-Regular-6c" x="98.599976"/>
       <use xlink:href="#Montserrat-Regular-69" x="125.499969"/>
       <use xlink:href="#Montserrat-Regular-61" x="152.399963"/>
       <use xlink:href="#Montserrat-Regular-6e" x="211.399948"/>
       <use xlink:href="#Montserrat-Regular-63" x="279.09993"/>
       <use xlink:href="#Montserrat-Regular-65" x="335.399918"/>
       <use xlink:href="#Montserrat-Regular-73" x="395.799911"/>
      </g>
     </g>
    </g>
    <g id="xtick_2">
     <g id="line2d_2">
      <g>
       <use xlink:href="#ma1b92775b6" x="277.97297" y="381.512" style="stroke: #000000; stroke-width: 0.8"/>
      </g>
     </g>
     <g id="text_2">
      <!-- Customer -->
      <g style="fill: #555555" transform="translate(238.13297 400.3845)scale(0.16 -0.16)">
       <defs>
        <path id="Montserrat-Regular-43" d="M 2675 -38 
C 3334 -38 3923 186 4320 621 
L 4019 922 
C 3654 544 3206 384 2694 384 
C 1613 384 800 1178 800 2240 
C 800 3302 1613 4096 2694 4096 
C 3206 4096 3654 3936 4019 3565 
L 4320 3866 
C 3923 4301 3334 4518 2682 4518 
C 1331 4518 333 3552 333 2240 
C 333 928 1331 -38 2675 -38 
z
" transform="scale(0.015625)"/>
        <path id="Montserrat-Regular-75" d="M 3213 3366 
L 3213 1600 
C 3213 832 2771 378 2067 378 
C 1427 378 1056 742 1056 1459 
L 1056 3366 
L 602 3366 
L 602 1414 
C 602 448 1165 -32 2022 -32 
C 2560 -32 2995 205 3232 614 
L 3232 0 
L 3667 0 
L 3667 3366 
L 3213 3366 
z
" transform="scale(0.015625)"/>
        <path id="Montserrat-Regular-74" d="M 2246 531 
C 2118 416 1933 358 1747 358 
C 1370 358 1165 576 1165 973 
L 1165 2982 
L 2189 2982 
L 2189 3366 
L 1165 3366 
L 1165 4102 
L 710 4102 
L 710 3366 
L 109 3366 
L 109 2982 
L 710 2982 
L 710 947 
C 710 326 1062 -32 1696 -32 
C 1958 -32 2227 45 2406 205 
L 2246 531 
z
" transform="scale(0.015625)"/>
        <path id="Montserrat-Regular-6f" d="M 2010 -32 
C 2995 -32 3718 685 3718 1683 
C 3718 2682 2995 3392 2010 3392 
C 1024 3392 294 2682 294 1683 
C 294 685 1024 -32 2010 -32 
z
M 2010 371 
C 1293 371 755 896 755 1683 
C 755 2470 1293 2995 2010 2995 
C 2726 2995 3258 2470 3258 1683 
C 3258 896 2726 371 2010 371 
z
" transform="scale(0.015625)"/>
        <path id="Montserrat-Regular-6d" d="M 4832 3392 
C 4224 3392 3744 3117 3501 2682 
C 3296 3155 2861 3392 2304 3392 
C 1741 3392 1306 3155 1069 2752 
L 1069 3366 
L 634 3366 
L 634 0 
L 1088 0 
L 1088 1766 
C 1088 2534 1530 2982 2214 2982 
C 2829 2982 3187 2618 3187 1907 
L 3187 0 
L 3642 0 
L 3642 1766 
C 3642 2534 4077 2982 4768 2982 
C 5376 2982 5734 2618 5734 1907 
L 5734 0 
L 6189 0 
L 6189 1952 
C 6189 2918 5651 3392 4832 3392 
z
" transform="scale(0.015625)"/>
        <path id="Montserrat-Regular-72" d="M 1069 2707 
L 1069 3366 
L 634 3366 
L 634 0 
L 1088 0 
L 1088 1715 
C 1088 2509 1517 2957 2221 2957 
C 2253 2957 2291 2950 2330 2950 
L 2330 3392 
C 1709 3392 1280 3155 1069 2707 
z
" transform="scale(0.015625)"/>
       </defs>
       <use xlink:href="#Montserrat-Regular-43"/>
       <use xlink:href="#Montserrat-Regular-75" x="71.899994"/>
       <use xlink:href="#Montserrat-Regular-73" x="139.199982"/>
       <use xlink:href="#Montserrat-Regular-74" x="188.099976"/>
       <use xlink:href="#Montserrat-Regular-6f" x="228.699966"/>
       <use xlink:href="#Montserrat-Regular-6d" x="291.399963"/>
       <use xlink:href="#Montserrat-Regular-65" x="397.499954"/>
       <use xlink:href="#Montserrat-Regular-72" x="457.899948"/>
      </g>
      <!-- Success -->
      <g style="fill: #555555" transform="translate(246.00422 417.7365)scale(0.16 -0.16)">
       <defs>
        <path id="Montserrat-Regular-53" d="M 1965 -38 
C 3110 -38 3635 525 3635 1184 
C 3635 2816 877 2074 877 3302 
C 877 3750 1242 4115 2061 4115 
C 2458 4115 2906 3994 3290 3744 
L 3450 4122 
C 3091 4371 2566 4518 2061 4518 
C 922 4518 410 3949 410 3290 
C 410 1632 3168 2387 3168 1158 
C 3168 717 2803 365 1965 365 
C 1376 365 806 595 486 909 
L 301 544 
C 634 198 1293 -38 1965 -38 
z
" transform="scale(0.015625)"/>
       </defs>
       <use xlink:href="#Montserrat-Regular-53"/>
       <use xlink:href="#Montserrat-Regular-75" x="61.499985"/>
       <use xlink:href="#Montserrat-Regular-63" x="128.799973"/>
       <use xlink:href="#Montserrat-Regular-63" x="185.09996"/>
       <use xlink:href="#Montserrat-Regular-65" x="241.399948"/>
       <use xlink:href="#Montserrat-Regular-73" x="301.799942"/>
       <use xlink:href="#Montserrat-Regular-73" x="350.699936"/>
      </g>
     </g>
    </g>
    <g id="xtick_3">
     <g id="line2d_3">
      <g>
       <use xlink:href="#ma1b92775b6" x="400.622657" y="381.512" style="stroke: #000000; stroke-width: 0.8"/>
      </g>
     </g>
     <g id="text_3">
      <!-- Inside -->
      <g style="fill: #555555" transform="translate(376.468907 400.3845)scale(0.16 -0.16)">
       <defs>
        <path id="Montserrat-Regular-49" d="M 730 0 
L 1203 0 
L 1203 4480 
L 730 4480 
L 730 0 
z
" transform="scale(0.015625)"/>
        <path id="Montserrat-Regular-64" d="M 3251 4749 
L 3251 2726 
C 2970 3162 2509 3392 1971 3392 
C 1011 3392 294 2701 294 1683 
C 294 666 1011 -32 1971 -32 
C 2528 -32 2995 211 3270 666 
L 3270 0 
L 3706 0 
L 3706 4749 
L 3251 4749 
z
M 2010 371 
C 1293 371 755 896 755 1683 
C 755 2470 1293 2995 2010 2995 
C 2720 2995 3258 2470 3258 1683 
C 3258 896 2720 371 2010 371 
z
" transform="scale(0.015625)"/>
       </defs>
       <use xlink:href="#Montserrat-Regular-49"/>
       <use xlink:href="#Montserrat-Regular-6e" x="30.199997"/>
       <use xlink:href="#Montserrat-Regular-73" x="97.899979"/>
       <use xlink:href="#Montserrat-Regular-69" x="146.799973"/>
       <use xlink:href="#Montserrat-Regular-64" x="173.699966"/>
       <use xlink:href="#Montserrat-Regular-65" x="241.499954"/>
      </g>
      <!-- Sales -->
      <g style="fill: #555555" transform="translate(380.085157 417.7365)scale(0.16 -0.16)">
       <use xlink:href="#Montserrat-Regular-53"/>
       <use xlink:href="#Montserrat-Regular-61" x="61.499985"/>
       <use xlink:href="#Montserrat-Regular-6c" x="120.499969"/>
       <use xlink:href="#Montserrat-Regular-65" x="147.399963"/>
       <use xlink:href="#Montserrat-Regular-73" x="207.799957"/>
      </g>
     </g>
    </g>
    <g id="xtick_4">
     <g id="line2d_4">
      <g>
       <use xlink:href="#ma1b92775b6" x="523.272343" y="381.512" style="stroke: #000000; stroke-width: 0.8"/>
      </g>
     </g>
     <g id="text_4">
      <!-- Pre-Sales -->
      <g style="fill: #555555" transform="translate(485.894843 400.3845)scale(0.16 -0.16)">
       <defs>
        <path id="Montserrat-Regular-50" d="M 2406 4480 
L 730 4480 
L 730 0 
L 1203 0 
L 1203 1414 
L 2406 1414 
C 3546 1414 4237 1990 4237 2944 
C 4237 3904 3546 4480 2406 4480 
z
M 2394 1830 
L 1203 1830 
L 1203 4070 
L 2394 4070 
C 3290 4070 3763 3661 3763 2944 
C 3763 2240 3290 1830 2394 1830 
z
" transform="scale(0.015625)"/>
        <path id="Montserrat-Regular-2d" d="M 384 1536 
L 2061 1536 
L 2061 1933 
L 384 1933 
L 384 1536 
z
" transform="scale(0.015625)"/>
       </defs>
       <use xlink:href="#Montserrat-Regular-50"/>
       <use xlink:href="#Montserrat-Regular-72" x="71.799988"/>
       <use xlink:href="#Montserrat-Regular-65" x="111.899979"/>
       <use xlink:href="#Montserrat-Regular-2d" x="172.299973"/>
       <use xlink:href="#Montserrat-Regular-53" x="210.499969"/>
       <use xlink:href="#Montserrat-Regular-61" x="271.999954"/>
       <use xlink:href="#Montserrat-Regular-6c" x="330.999939"/>
       <use xlink:href="#Montserrat-Regular-65" x="357.899933"/>
       <use xlink:href="#Montserrat-Regular-73" x="418.299927"/>
      </g>
     </g>
    </g>
    <g id="xtick_5">
     <g id="line2d_5">
      <g>
       <use xlink:href="#ma1b92775b6" x="645.92203" y="381.512" style="stroke: #000000; stroke-width: 0.8"/>
      </g>
     </g>
     <g id="text_5">
      <!-- Sales -->
      <g style="fill: #555555" transform="translate(625.38453 400.3845)scale(0.16 -0.16)">
       <use xlink:href="#Montserrat-Regular-53"/>
       <use xlink:href="#Montserrat-Regular-61" x="61.499985"/>
       <use xlink:href="#Montserrat-Regular-6c" x="120.499969"/>
       <use xlink:href="#Montserrat-Regular-65" x="147.399963"/>
       <use xlink:href="#Montserrat-Regular-73" x="207.799957"/>
      </g>
     </g>
    </g>
    <g id="xtick_6">
     <g id="line2d_6">
      <g>
       <use xlink:href="#ma1b92775b6" x="768.571716" y="381.512" style="stroke: #000000; stroke-width: 0.8"/>
      </g>
     </g>
     <g id="text_6">
      <!-- Sales -->
      <g style="fill: #555555" transform="translate(748.034216 400.3845)scale(0.16 -0.16)">
       <use xlink:href="#Montserrat-Regular-53"/>
       <use xlink:href="#Montserrat-Regular-61" x="61.499985"/>
       <use xlink:href="#Montserrat-Regular-6c" x="120.499969"/>
       <use xlink:href="#Montserrat-Regular-65" x="147.399963"/>
       <use xlink:href="#Montserrat-Regular-73" x="207.799957"/>
      </g>
      <!-- Development -->
      <g style="fill: #555555" transform="translate(713.386716 417.7365)scale(0.16 -0.16)">
       <defs>
        <path id="Montserrat-Regular-44" d="M 730 0 
L 2554 0 
C 3987 0 4954 922 4954 2240 
C 4954 3558 3987 4480 2554 4480 
L 730 4480 
L 730 0 
z
M 1203 410 
L 1203 4070 
L 2528 4070 
C 3718 4070 4486 3315 4486 2240 
C 4486 1165 3718 410 2528 410 
L 1203 410 
z
" transform="scale(0.015625)"/>
        <path id="Montserrat-Regular-76" d="M 3014 3366 
L 1741 499 
L 480 3366 
L 6 3366 
L 1498 0 
L 1965 0 
L 3462 3366 
L 3014 3366 
z
" transform="scale(0.015625)"/>
        <path id="Montserrat-Regular-70" d="M 2368 3392 
C 1811 3392 1344 3149 1069 2701 
L 1069 3366 
L 634 3366 
L 634 -1242 
L 1088 -1242 
L 1088 634 
C 1370 198 1830 -32 2368 -32 
C 3328 -32 4045 659 4045 1683 
C 4045 2701 3328 3392 2368 3392 
z
M 2336 371 
C 1619 371 1082 896 1082 1683 
C 1082 2464 1619 2995 2336 2995 
C 3046 2995 3590 2464 3590 1683 
C 3590 896 3046 371 2336 371 
z
" transform="scale(0.015625)"/>
       </defs>
       <use xlink:href="#Montserrat-Regular-44"/>
       <use xlink:href="#Montserrat-Regular-65" x="82.599991"/>
       <use xlink:href="#Montserrat-Regular-76" x="142.999985"/>
       <use xlink:href="#Montserrat-Regular-65" x="197.199982"/>
       <use xlink:href="#Montserrat-Regular-6c" x="257.599976"/>
       <use xlink:href="#Montserrat-Regular-6f" x="284.499969"/>
       <use xlink:href="#Montserrat-Regular-70" x="347.199966"/>
       <use xlink:href="#Montserrat-Regular-6d" x="414.999954"/>
       <use xlink:href="#Montserrat-Regular-65" x="521.099945"/>
       <use xlink:href="#Montserrat-Regular-6e" x="581.499939"/>
       <use xlink:href="#Montserrat-Regular-74" x="649.199921"/>
      </g>
     </g>
    </g>
   </g>
   <g id="matplotlib.axis_2">
    <g id="ytick_1">
     <g id="line2d_7">
      <path d="M 70.695 381.512 
L 853.2 381.512 
" clip-path="url(#pc4a5302244)" style="fill: none; stroke-dasharray: 1.85,0.8; stroke-dashoffset: 0; stroke: #b7b7b7; stroke-width: 0.5"/>
     </g>
     <g id="line2d_8">
      <defs>
       <path id="me44f4fa042" d="M 0 0 
L -3.5 0 
" style="stroke: #b7b7b7; stroke-width: 0.8"/>
      </defs>
      <g>
       <use xlink:href="#me44f4fa042" x="70.695" y="381.512" style="fill: #b7b7b7; stroke: #b7b7b7; stroke-width: 0.8"/>
      </g>
     </g>
     <g id="text_7">
      <!-- 0 -->
      <g style="fill: #b7b7b7" transform="translate(53.1025 387.44825)scale(0.16 -0.16)">
       <defs>
        <path id="Montserrat-Regular-30" d="M 2118 -38 
C 3155 -38 3910 813 3910 2240 
C 3910 3667 3155 4518 2118 4518 
C 1082 4518 333 3667 333 2240 
C 333 813 1082 -38 2118 -38 
z
M 2118 384 
C 1338 384 800 1043 800 2240 
C 800 3437 1338 4096 2118 4096 
C 2899 4096 3437 3437 3437 2240 
C 3437 1043 2899 384 2118 384 
z
" transform="scale(0.015625)"/>
       </defs>
       <use xlink:href="#Montserrat-Regular-30"/>
      </g>
     </g>
    </g>
    <g id="ytick_2">
     <g id="line2d_9">
      <path d="M 70.695 306.980333 
L 853.2 306.980333 
" clip-path="url(#pc4a5302244)" style="fill: none; stroke-dasharray: 1.85,0.8; stroke-dashoffset: 0; stroke: #b7b7b7; stroke-width: 0.5"/>
     </g>
     <g id="line2d_10">
      <g>
       <use xlink:href="#me44f4fa042" x="70.695" y="306.980333" style="fill: #b7b7b7; stroke: #b7b7b7; stroke-width: 0.8"/>
      </g>
     </g>
     <g id="text_8">
      <!-- 5 -->
      <g style="fill: #b7b7b7" transform="translate(54.64 312.916583)scale(0.16 -0.16)">
       <defs>
        <path id="Montserrat-Regular-35" d="M 1510 2643 
L 934 2643 
L 1088 4070 
L 3136 4070 
L 3136 4480 
L 685 4480 
L 454 2234 
L 1408 2234 
C 2547 2234 2906 1875 2906 1299 
C 2906 755 2502 384 1741 384 
C 1165 384 653 602 365 902 
L 141 538 
C 486 186 1101 -38 1747 -38 
C 2842 -38 3373 557 3373 1318 
C 3373 2112 2861 2643 1510 2643 
z
" transform="scale(0.015625)"/>
       </defs>
       <use xlink:href="#Montserrat-Regular-35"/>
      </g>
     </g>
    </g>
    <g id="ytick_3">
     <g id="line2d_11">
      <path d="M 70.695 232.448667 
L 853.2 232.448667 
" clip-path="url(#pc4a5302244)" style="fill: none; stroke-dasharray: 1.85,0.8; stroke-dashoffset: 0; stroke: #b7b7b7; stroke-width: 0.5"/>
     </g>
     <g id="line2d_12">
      <g>
       <use xlink:href="#me44f4fa042" x="70.695" y="232.448667" style="fill: #b7b7b7; stroke: #b7b7b7; stroke-width: 0.8"/>
      </g>
     </g>
     <g id="text_9">
      <!-- 10 -->
      <g style="fill: #b7b7b7" transform="translate(47.3275 238.384917)scale(0.16 -0.16)">
       <defs>
        <path id="Montserrat-Regular-31" d="M 58 4480 
L 58 4070 
L 1114 4070 
L 1114 0 
L 1574 0 
L 1574 4480 
L 58 4480 
z
" transform="scale(0.015625)"/>
       </defs>
       <use xlink:href="#Montserrat-Regular-31"/>
       <use xlink:href="#Montserrat-Regular-30" x="36.099991"/>
      </g>
     </g>
    </g>
    <g id="ytick_4">
     <g id="line2d_13">
      <path d="M 70.695 157.917 
L 853.2 157.917 
" clip-path="url(#pc4a5302244)" style="fill: none; stroke-dasharray: 1.85,0.8; stroke-dashoffset: 0; stroke: #b7b7b7; stroke-width: 0.5"/>
     </g>
     <g id="line2d_14">
      <g>
       <use xlink:href="#me44f4fa042" x="70.695" y="157.917" style="fill: #b7b7b7; stroke: #b7b7b7; stroke-width: 0.8"/>
      </g>
     </g>
     <g id="text_10">
      <!-- 15 -->
      <g style="fill: #b7b7b7" transform="translate(48.865 163.85325)scale(0.16 -0.16)">
       <use xlink:href="#Montserrat-Regular-31"/>
       <use xlink:href="#Montserrat-Regular-35" x="36.099991"/>
      </g>
     </g>
    </g>
    <g id="ytick_5">
     <g id="line2d_15">
      <path d="M 70.695 83.385333 
L 853.2 83.385333 
" clip-path="url(#pc4a5302244)" style="fill: none; stroke-dasharray: 1.85,0.8; stroke-dashoffset: 0; stroke: #b7b7b7; stroke-width: 0.5"/>
     </g>
     <g id="line2d_16">
      <g>
       <use xlink:href="#me44f4fa042" x="70.695" y="83.385333" style="fill: #b7b7b7; stroke: #b7b7b7; stroke-width: 0.8"/>
      </g>
     </g>
     <g id="text_11">
      <!-- 20 -->
      <g style="fill: #b7b7b7" transform="translate(44.015 89.321583)scale(0.16 -0.16)">
       <defs>
        <path id="Montserrat-Regular-32" d="M 928 410 
L 2451 1907 
C 3053 2496 3187 2880 3187 3309 
C 3187 4058 2611 4518 1702 4518 
C 1018 4518 461 4288 115 3878 
L 442 3597 
C 736 3936 1139 4096 1664 4096 
C 2349 4096 2714 3776 2714 3258 
C 2714 2950 2618 2650 2112 2150 
L 250 326 
L 250 0 
L 3392 0 
L 3392 410 
L 928 410 
z
" transform="scale(0.015625)"/>
       </defs>
       <use xlink:href="#Montserrat-Regular-32"/>
       <use xlink:href="#Montserrat-Regular-30" x="56.799988"/>
      </g>
     </g>
    </g>
    <g id="text_12">
     <!-- [#] -->
     <g style="fill: #b7b7b7" transform="translate(10.69625 198.75475)scale(0.2 -0.2)">
      <defs>
       <path id="Montserrat-Regular-5b" d="M 730 -1242 
L 1901 -1242 
L 1901 -864 
L 1184 -864 
L 1184 4371 
L 1901 4371 
L 1901 4749 
L 730 4749 
L 730 -1242 
z
" transform="scale(0.015625)"/>
       <path id="Montserrat-Regular-23" d="M 4262 2912 
L 4262 3264 
L 3360 3264 
L 3507 4480 
L 3162 4480 
L 3014 3264 
L 1696 3264 
L 1850 4480 
L 1498 4480 
L 1350 3264 
L 390 3264 
L 390 2912 
L 1306 2912 
L 1139 1568 
L 186 1568 
L 186 1216 
L 1094 1216 
L 947 0 
L 1293 0 
L 1446 1216 
L 2758 1216 
L 2611 0 
L 2957 0 
L 3104 1216 
L 4058 1216 
L 4058 1568 
L 3149 1568 
L 3315 2912 
L 4262 2912 
z
M 2803 1568 
L 1485 1568 
L 1658 2912 
L 2970 2912 
L 2803 1568 
z
" transform="scale(0.015625)"/>
       <path id="Montserrat-Regular-5d" d="M 1306 -1242 
L 1306 4749 
L 134 4749 
L 134 4371 
L 851 4371 
L 851 -864 
L 134 -864 
L 134 -1242 
L 1306 -1242 
z
" transform="scale(0.015625)"/>
      </defs>
      <use xlink:href="#Montserrat-Regular-5b"/>
      <use xlink:href="#Montserrat-Regular-23" x="31.799988"/>
      <use xlink:href="#Montserrat-Regular-5d" x="101.399979"/>
     </g>
    </g>
   </g>
   <g id="patch_3">
    <path d="M 106.263409 381.512 
L 204.383158 381.512 
L 204.383158 336.793 
L 106.263409 336.793 
z
" clip-path="url(#pc4a5302244)" style="fill: #6eb7fa"/>
   </g>
   <g id="patch_4">
    <path d="M 228.913096 381.512 
L 327.032845 381.512 
L 327.032845 336.793 
L 228.913096 336.793 
z
" clip-path="url(#pc4a5302244)" style="fill: #6eb7fa"/>
   </g>
   <g id="patch_5">
    <path d="M 351.562782 381.512 
L 449.682531 381.512 
L 449.682531 381.512 
L 351.562782 381.512 
z
" clip-path="url(#pc4a5302244)" style="fill: #6eb7fa"/>
   </g>
   <g id="patch_6">
    <path d="M 474.212469 381.512 
L 572.332218 381.512 
L 572.332218 292.074 
L 474.212469 292.074 
z
" clip-path="url(#pc4a5302244)" style="fill: #6eb7fa"/>
   </g>
   <g id="patch_7">
    <path d="M 596.862155 381.512 
L 694.981904 381.512 
L 694.981904 366.605667 
L 596.862155 366.605667 
z
" clip-path="url(#pc4a5302244)" style="fill: #6eb7fa"/>
   </g>
   <g id="patch_8">
    <path d="M 719.511842 381.512 
L 817.631591 381.512 
L 817.631591 366.605667 
L 719.511842 366.605667 
z
" clip-path="url(#pc4a5302244)" style="fill: #6eb7fa"/>
   </g>
   <g id="patch_9">
    <path d="M 106.263409 336.793 
L 204.383158 336.793 
L 204.383158 277.167667 
L 106.263409 277.167667 
z
" clip-path="url(#pc4a5302244)" style="fill: #b2c6e3"/>
   </g>
   <g id="patch_10">
    <path d="M 228.913096 336.793 
L 327.032845 336.793 
L 327.032845 292.074 
L 228.913096 292.074 
z
" clip-path="url(#pc4a5302244)" style="fill: #b2c6e3"/>
   </g>
   <g id="patch_11">
    <path d="M 351.562782 381.512 
L 449.682531 381.512 
L 449.682531 366.605667 
L 351.562782 366.605667 
z
" clip-path="url(#pc4a5302244)" style="fill: #b2c6e3"/>
   </g>
   <g id="patch_12">
    <path d="M 474.212469 292.074 
L 572.332218 292.074 
L 572.332218 247.355 
L 474.212469 247.355 
z
" clip-path="url(#pc4a5302244)" style="fill: #b2c6e3"/>
   </g>
   <g id="patch_13">
    <path d="M 596.862155 366.605667 
L 694.981904 366.605667 
L 694.981904 143.010667 
L 596.862155 143.010667 
z
" clip-path="url(#pc4a5302244)" style="fill: #b2c6e3"/>
   </g>
   <g id="patch_14">
    <path d="M 719.511842 366.605667 
L 817.631591 366.605667 
L 817.631591 336.793 
L 719.511842 336.793 
z
" clip-path="url(#pc4a5302244)" style="fill: #b2c6e3"/>
   </g>
   <g id="patch_15">
    <path d="M 106.263409 277.167667 
L 204.383158 277.167667 
L 204.383158 247.355 
L 106.263409 247.355 
z
" clip-path="url(#pc4a5302244)" style="fill: #b1e5f4"/>
   </g>
   <g id="patch_16">
    <path d="M 228.913096 292.074 
L 327.032845 292.074 
L 327.032845 277.167667 
L 228.913096 277.167667 
z
" clip-path="url(#pc4a5302244)" style="fill: #b1e5f4"/>
   </g>
   <g id="patch_17">
    <path d="M 351.562782 366.605667 
L 449.682531 366.605667 
L 449.682531 306.980333 
L 351.562782 306.980333 
z
" clip-path="url(#pc4a5302244)" style="fill: #b1e5f4"/>
   </g>
   <g id="patch_18">
    <path d="M 474.212469 247.355 
L 572.332218 247.355 
L 572.332218 217.542333 
L 474.212469 217.542333 
z
" clip-path="url(#pc4a5302244)" style="fill: #b1e5f4"/>
   </g>
   <g id="patch_19">
    <path d="M 596.862155 143.010667 
L 694.981904 143.010667 
L 694.981904 23.76 
L 596.862155 23.76 
z
" clip-path="url(#pc4a5302244)" style="fill: #b1e5f4"/>
   </g>
   <g id="patch_20">
    <path d="M 719.511842 336.793 
L 817.631591 336.793 
L 817.631591 336.793 
L 719.511842 336.793 
z
" clip-path="url(#pc4a5302244)" style="fill: #b1e5f4"/>
   </g>
   <g id="text_13">
    <!-- 15% (9) -->
    <g style="fill: #555555" transform="translate(132.32719 244.638125)scale(0.14 -0.14)">
     <defs>
      <path id="Montserrat-Regular-25" d="M 1280 2080 
C 1875 2080 2291 2560 2291 3296 
C 2291 4032 1875 4512 1280 4512 
C 678 4512 269 4026 269 3296 
C 269 2566 678 2080 1280 2080 
z
M 934 0 
L 1312 0 
L 4371 4480 
L 3994 4480 
L 934 0 
z
M 1280 2368 
C 858 2368 589 2720 589 3296 
C 589 3872 858 4224 1280 4224 
C 1696 4224 1971 3878 1971 3296 
C 1971 2714 1696 2368 1280 2368 
z
M 4026 -32 
C 4627 -32 5037 454 5037 1184 
C 5037 1914 4627 2400 4026 2400 
C 3430 2400 3014 1914 3014 1184 
C 3014 454 3430 -32 4026 -32 
z
M 4026 256 
C 3610 256 3334 602 3334 1184 
C 3334 1766 3610 2112 4026 2112 
C 4448 2112 4717 1760 4717 1184 
C 4717 608 4448 256 4026 256 
z
" transform="scale(0.015625)"/>
      <path id="Montserrat-Regular-20" transform="scale(0.015625)"/>
      <path id="Montserrat-Regular-28" d="M 1408 -1242 
L 1843 -1242 
C 1338 -365 1114 614 1114 1754 
C 1114 2893 1338 3872 1843 4749 
L 1408 4749 
C 934 3987 666 2931 666 1754 
C 666 576 934 -467 1408 -1242 
z
" transform="scale(0.015625)"/>
      <path id="Montserrat-Regular-39" d="M 1728 4518 
C 858 4518 198 3981 198 3142 
C 198 2323 819 1798 1709 1798 
C 2330 1798 2854 2074 3078 2566 
C 3091 2432 3098 2304 3098 2202 
C 3098 986 2477 365 1510 365 
C 1178 365 870 422 640 576 
L 454 205 
C 736 32 1114 -38 1517 -38 
C 2733 -38 3565 755 3565 2278 
C 3565 3693 2918 4518 1728 4518 
z
M 1779 2189 
C 1088 2189 653 2566 653 3155 
C 653 3750 1101 4128 1747 4128 
C 2522 4128 2931 3661 2931 3168 
C 2931 2611 2464 2189 1779 2189 
z
" transform="scale(0.015625)"/>
      <path id="Montserrat-Regular-29" d="M 691 -1242 
C 1171 -467 1440 576 1440 1754 
C 1440 2931 1171 3987 691 4749 
L 256 4749 
C 768 3872 992 2893 992 1754 
C 992 614 768 -365 256 -1242 
L 691 -1242 
z
" transform="scale(0.015625)"/>
     </defs>
     <use xlink:href="#Montserrat-Regular-31"/>
     <use xlink:href="#Montserrat-Regular-35" x="36.099991"/>
     <use xlink:href="#Montserrat-Regular-25" x="92.699982"/>
     <use xlink:href="#Montserrat-Regular-20" x="175.599976"/>
     <use xlink:href="#Montserrat-Regular-28" x="201.799973"/>
     <use xlink:href="#Montserrat-Regular-39" x="234.699966"/>
     <use xlink:href="#Montserrat-Regular-29" x="295.59996"/>
    </g>
   </g>
   <g id="text_14">
    <!-- 12% (7) -->
    <g style="fill: #555555" transform="translate(255.102658 274.450792)scale(0.14 -0.14)">
     <defs>
      <path id="Montserrat-Regular-37" d="M 205 4480 
L 205 3232 
L 659 3232 
L 659 4070 
L 2963 4070 
L 1120 0 
L 1619 0 
L 3494 4154 
L 3494 4480 
L 205 4480 
z
" transform="scale(0.015625)"/>
     </defs>
     <use xlink:href="#Montserrat-Regular-31"/>
     <use xlink:href="#Montserrat-Regular-32" x="36.099991"/>
     <use xlink:href="#Montserrat-Regular-25" x="92.899979"/>
     <use xlink:href="#Montserrat-Regular-20" x="175.799973"/>
     <use xlink:href="#Montserrat-Regular-28" x="201.999969"/>
     <use xlink:href="#Montserrat-Regular-37" x="234.899963"/>
     <use xlink:href="#Montserrat-Regular-29" x="293.799957"/>
    </g>
   </g>
   <g id="text_15">
    <!-- 8% (5) -->
    <g style="fill: #555555" transform="translate(379.950782 304.263458)scale(0.14 -0.14)">
     <defs>
      <path id="Montserrat-Regular-38" d="M 2899 2349 
C 3360 2528 3616 2867 3616 3334 
C 3616 4064 2982 4518 2035 4518 
C 1088 4518 467 4064 467 3334 
C 467 2867 717 2528 1171 2349 
C 614 2163 307 1786 307 1248 
C 307 454 960 -38 2035 -38 
C 3104 -38 3776 454 3776 1248 
C 3776 1779 3462 2163 2899 2349 
z
M 928 3322 
C 928 3821 1357 4128 2035 4128 
C 2707 4128 3149 3821 3149 3315 
C 3149 2829 2733 2515 2035 2515 
C 1338 2515 928 2829 928 3322 
z
M 2035 352 
C 1242 352 774 698 774 1254 
C 774 1805 1242 2150 2035 2150 
C 2829 2150 3302 1805 3302 1254 
C 3302 698 2829 352 2035 352 
z
" transform="scale(0.015625)"/>
     </defs>
     <use xlink:href="#Montserrat-Regular-38"/>
     <use xlink:href="#Montserrat-Regular-25" x="63.799988"/>
     <use xlink:href="#Montserrat-Regular-20" x="146.699982"/>
     <use xlink:href="#Montserrat-Regular-28" x="172.899979"/>
     <use xlink:href="#Montserrat-Regular-35" x="205.799973"/>
     <use xlink:href="#Montserrat-Regular-29" x="262.399963"/>
    </g>
   </g>
   <g id="text_16">
    <!-- 19% (11) -->
    <g style="fill: #555555" transform="translate(499.184687 214.825458)scale(0.14 -0.14)">
     <use xlink:href="#Montserrat-Regular-31"/>
     <use xlink:href="#Montserrat-Regular-39" x="36.099991"/>
     <use xlink:href="#Montserrat-Regular-25" x="96.999985"/>
     <use xlink:href="#Montserrat-Regular-20" x="179.899979"/>
     <use xlink:href="#Montserrat-Regular-28" x="206.099976"/>
     <use xlink:href="#Montserrat-Regular-31" x="238.999969"/>
     <use xlink:href="#Montserrat-Regular-31" x="275.09996"/>
     <use xlink:href="#Montserrat-Regular-29" x="311.199951"/>
    </g>
   </g>
   <g id="text_17">
    <!-- 41% (24) -->
    <g style="fill: #555555" transform="translate(617.92203 21.043125)scale(0.14 -0.14)">
     <defs>
      <path id="Montserrat-Regular-34" d="M 4141 1587 
L 3245 1587 
L 3245 2624 
L 2797 2624 
L 2797 1587 
L 851 1587 
L 3142 4480 
L 2630 4480 
L 256 1510 
L 256 1178 
L 2784 1178 
L 2784 0 
L 3245 0 
L 3245 1178 
L 4141 1178 
L 4141 1587 
z
" transform="scale(0.015625)"/>
     </defs>
     <use xlink:href="#Montserrat-Regular-34"/>
     <use xlink:href="#Montserrat-Regular-31" x="66.099991"/>
     <use xlink:href="#Montserrat-Regular-25" x="102.199982"/>
     <use xlink:href="#Montserrat-Regular-20" x="185.099976"/>
     <use xlink:href="#Montserrat-Regular-28" x="211.299973"/>
     <use xlink:href="#Montserrat-Regular-32" x="244.199966"/>
     <use xlink:href="#Montserrat-Regular-34" x="300.999954"/>
     <use xlink:href="#Montserrat-Regular-29" x="367.099945"/>
    </g>
   </g>
   <g id="text_18">
    <!-- 5% (3) -->
    <g style="fill: #555555" transform="translate(748.417185 334.076125)scale(0.14 -0.14)">
     <defs>
      <path id="Montserrat-Regular-33" d="M 1856 2560 
L 3123 4154 
L 3123 4480 
L 243 4480 
L 243 4070 
L 2534 4070 
L 1293 2515 
L 1293 2176 
L 1613 2176 
C 2445 2176 2822 1824 2822 1286 
C 2822 730 2413 384 1670 384 
C 1088 384 570 602 282 902 
L 58 538 
C 403 186 1024 -38 1670 -38 
C 2752 -38 3296 538 3296 1286 
C 3296 2003 2816 2509 1856 2560 
z
" transform="scale(0.015625)"/>
     </defs>
     <use xlink:href="#Montserrat-Regular-35"/>
     <use xlink:href="#Montserrat-Regular-25" x="56.599991"/>
     <use xlink:href="#Montserrat-Regular-20" x="139.499985"/>
     <use xlink:href="#Montserrat-Regular-28" x="165.699982"/>
     <use xlink:href="#Montserrat-Regular-33" x="198.599976"/>
     <use xlink:href="#Montserrat-Regular-29" x="254.999969"/>
    </g>
   </g>
   <g id="line2d_17">
    <path d="M 70.695 381.512 
L 853.2 381.512 
" style="fill: none; stroke: #555555; stroke-width: 3; stroke-linecap: square"/>
   </g>
  </g>
 </g>
 <defs>
  <clipPath id="pc4a5302244">
   <rect x="70.695" y="23.76" width="782.505" height="357.752"/>
  </clipPath>
 </defs>
</svg>
