<?xml version="1.0" encoding="utf-8" standalone="no"?>
<!DOCTYPE svg PUBLIC "-//W3C//DTD SVG 1.1//EN"
  "http://www.w3.org/Graphics/SVG/1.1/DTD/svg11.dtd">
<svg xmlns:xlink="http://www.w3.org/1999/xlink" width="496.8pt" height="216pt" viewBox="0 0 496.8 216" xmlns="http://www.w3.org/2000/svg" version="1.1">
 <metadata>
  <rdf:RDF xmlns:dc="http://purl.org/dc/elements/1.1/" xmlns:cc="http://creativecommons.org/ns#" xmlns:rdf="http://www.w3.org/1999/02/22-rdf-syntax-ns#">
   <cc:Work>
    <dc:type rdf:resource="http://purl.org/dc/dcmitype/StillImage"/>
    <dc:date>2023-02-05T13:11:43.626215</dc:date>
    <dc:format>image/svg+xml</dc:format>
    <dc:creator>
     <cc:Agent>
      <dc:title>Matplotlib v3.5.3, https://matplotlib.org/</dc:title>
     </cc:Agent>
    </dc:creator>
   </cc:Work>
  </rdf:RDF>
 </metadata>
 <defs>
  <style type="text/css">*{stroke-linejoin: round; stroke-linecap: butt}</style>
 </defs>
 <g id="figure_1">
  <g id="patch_1">
   <path d="M 0 216 
L 496.8 216 
L 496.8 0 
L 0 0 
L 0 216 
z
" style="fill: none"/>
  </g>
  <g id="axes_1">
   <g id="patch_2">
    <path d="M 69.075 185.24 
L 486 185.24 
L 486 15.84 
L 69.075 15.84 
L 69.075 185.24 
z
" style="fill: none"/>
   </g>
   <g id="matplotlib.axis_1">
    <g id="xtick_1">
     <g id="line2d_1">
      <defs>
       <path id="m3bcaa8c6f3" d="M 0 0 
L 0 3.5 
" style="stroke: #000000; stroke-width: 0.8"/>
      </defs>
      <g>
       <use xlink:href="#m3bcaa8c6f3" x="119.611364" y="185.24" style="stroke: #000000; stroke-width: 0.8"/>
      </g>
     </g>
     <g id="text_1">
      <!-- 20 - 29 -->
      <g style="fill: #555555" transform="translate(96.419489 202.628437)scale(0.14 -0.14)">
       <defs>
        <path id="Montserrat-Regular-32" d="M 928 410 
L 2451 1907 
C 3053 2496 3187 2880 3187 3309 
C 3187 4058 2611 4518 1702 4518 
C 1018 4518 461 4288 115 3878 
L 442 3597 
C 736 3936 1139 4096 1664 4096 
C 2349 4096 2714 3776 2714 3258 
C 2714 2950 2618 2650 2112 2150 
L 250 326 
L 250 0 
L 3392 0 
L 3392 410 
L 928 410 
z
" transform="scale(0.015625)"/>
        <path id="Montserrat-Regular-30" d="M 2118 -38 
C 3155 -38 3910 813 3910 2240 
C 3910 3667 3155 4518 2118 4518 
C 1082 4518 333 3667 333 2240 
C 333 813 1082 -38 2118 -38 
z
M 2118 384 
C 1338 384 800 1043 800 2240 
C 800 3437 1338 4096 2118 4096 
C 2899 4096 3437 3437 3437 2240 
C 3437 1043 2899 384 2118 384 
z
" transform="scale(0.015625)"/>
        <path id="Montserrat-Regular-20" transform="scale(0.015625)"/>
        <path id="Montserrat-Regular-2d" d="M 384 1536 
L 2061 1536 
L 2061 1933 
L 384 1933 
L 384 1536 
z
" transform="scale(0.015625)"/>
        <path id="Montserrat-Regular-39" d="M 1728 4518 
C 858 4518 198 3981 198 3142 
C 198 2323 819 1798 1709 1798 
C 2330 1798 2854 2074 3078 2566 
C 3091 2432 3098 2304 3098 2202 
C 3098 986 2477 365 1510 365 
C 1178 365 870 422 640 576 
L 454 205 
C 736 32 1114 -38 1517 -38 
C 2733 -38 3565 755 3565 2278 
C 3565 3693 2918 4518 1728 4518 
z
M 1779 2189 
C 1088 2189 653 2566 653 3155 
C 653 3750 1101 4128 1747 4128 
C 2522 4128 2931 3661 2931 3168 
C 2931 2611 2464 2189 1779 2189 
z
" transform="scale(0.015625)"/>
       </defs>
       <use xlink:href="#Montserrat-Regular-32"/>
       <use xlink:href="#Montserrat-Regular-30" x="56.799988"/>
       <use xlink:href="#Montserrat-Regular-20" x="122.999985"/>
       <use xlink:href="#Montserrat-Regular-2d" x="149.199982"/>
       <use xlink:href="#Montserrat-Regular-20" x="187.399979"/>
       <use xlink:href="#Montserrat-Regular-32" x="213.599976"/>
       <use xlink:href="#Montserrat-Regular-39" x="270.399963"/>
      </g>
     </g>
    </g>
    <g id="xtick_2">
     <g id="line2d_2">
      <g>
       <use xlink:href="#m3bcaa8c6f3" x="198.574432" y="185.24" style="stroke: #000000; stroke-width: 0.8"/>
      </g>
     </g>
     <g id="text_2">
      <!-- 30 - 39 -->
      <g style="fill: #555555" transform="translate(175.437244 202.628437)scale(0.14 -0.14)">
       <defs>
        <path id="Montserrat-Regular-33" d="M 1856 2560 
L 3123 4154 
L 3123 4480 
L 243 4480 
L 243 4070 
L 2534 4070 
L 1293 2515 
L 1293 2176 
L 1613 2176 
C 2445 2176 2822 1824 2822 1286 
C 2822 730 2413 384 1670 384 
C 1088 384 570 602 282 902 
L 58 538 
C 403 186 1024 -38 1670 -38 
C 2752 -38 3296 538 3296 1286 
C 3296 2003 2816 2509 1856 2560 
z
" transform="scale(0.015625)"/>
       </defs>
       <use xlink:href="#Montserrat-Regular-33"/>
       <use xlink:href="#Montserrat-Regular-30" x="56.399994"/>
       <use xlink:href="#Montserrat-Regular-20" x="122.599991"/>
       <use xlink:href="#Montserrat-Regular-2d" x="148.799988"/>
       <use xlink:href="#Montserrat-Regular-20" x="186.999985"/>
       <use xlink:href="#Montserrat-Regular-33" x="213.199982"/>
       <use xlink:href="#Montserrat-Regular-39" x="269.599976"/>
      </g>
     </g>
    </g>
    <g id="xtick_3">
     <g id="line2d_3">
      <g>
       <use xlink:href="#m3bcaa8c6f3" x="277.5375" y="185.24" style="stroke: #000000; stroke-width: 0.8"/>
      </g>
     </g>
     <g id="text_3">
      <!-- 40 - 49 -->
      <g style="fill: #555555" transform="translate(253.044063 202.628437)scale(0.14 -0.14)">
       <defs>
        <path id="Montserrat-Regular-34" d="M 4141 1587 
L 3245 1587 
L 3245 2624 
L 2797 2624 
L 2797 1587 
L 851 1587 
L 3142 4480 
L 2630 4480 
L 256 1510 
L 256 1178 
L 2784 1178 
L 2784 0 
L 3245 0 
L 3245 1178 
L 4141 1178 
L 4141 1587 
z
" transform="scale(0.015625)"/>
       </defs>
       <use xlink:href="#Montserrat-Regular-34"/>
       <use xlink:href="#Montserrat-Regular-30" x="66.099991"/>
       <use xlink:href="#Montserrat-Regular-20" x="132.299988"/>
       <use xlink:href="#Montserrat-Regular-2d" x="158.499985"/>
       <use xlink:href="#Montserrat-Regular-20" x="196.699982"/>
       <use xlink:href="#Montserrat-Regular-34" x="222.899979"/>
       <use xlink:href="#Montserrat-Regular-39" x="288.999969"/>
      </g>
     </g>
    </g>
    <g id="xtick_4">
     <g id="line2d_4">
      <g>
       <use xlink:href="#m3bcaa8c6f3" x="356.500568" y="185.24" style="stroke: #000000; stroke-width: 0.8"/>
      </g>
     </g>
     <g id="text_4">
      <!-- 50 - 59 -->
      <g style="fill: #555555" transform="translate(333.337131 202.628437)scale(0.14 -0.14)">
       <defs>
        <path id="Montserrat-Regular-35" d="M 1510 2643 
L 934 2643 
L 1088 4070 
L 3136 4070 
L 3136 4480 
L 685 4480 
L 454 2234 
L 1408 2234 
C 2547 2234 2906 1875 2906 1299 
C 2906 755 2502 384 1741 384 
C 1165 384 653 602 365 902 
L 141 538 
C 486 186 1101 -38 1747 -38 
C 2842 -38 3373 557 3373 1318 
C 3373 2112 2861 2643 1510 2643 
z
" transform="scale(0.015625)"/>
       </defs>
       <use xlink:href="#Montserrat-Regular-35"/>
       <use xlink:href="#Montserrat-Regular-30" x="56.599991"/>
       <use xlink:href="#Montserrat-Regular-20" x="122.799988"/>
       <use xlink:href="#Montserrat-Regular-2d" x="148.999985"/>
       <use xlink:href="#Montserrat-Regular-20" x="187.199982"/>
       <use xlink:href="#Montserrat-Regular-35" x="213.399979"/>
       <use xlink:href="#Montserrat-Regular-39" x="269.999969"/>
      </g>
     </g>
    </g>
    <g id="xtick_5">
     <g id="line2d_5">
      <g>
       <use xlink:href="#m3bcaa8c6f3" x="435.463636" y="185.24" style="stroke: #000000; stroke-width: 0.8"/>
      </g>
     </g>
     <g id="text_5">
      <!-- 60 - 69 -->
      <g style="fill: #555555" transform="translate(411.696449 202.628437)scale(0.14 -0.14)">
       <defs>
        <path id="Montserrat-Regular-36" d="M 2189 2682 
C 1568 2682 1043 2406 819 1914 
C 806 2048 800 2176 800 2278 
C 800 3494 1421 4115 2387 4115 
C 2720 4115 3027 4058 3258 3904 
L 3443 4275 
C 3162 4448 2784 4518 2381 4518 
C 1165 4518 333 3725 333 2202 
C 333 787 979 -38 2170 -38 
C 3040 -38 3699 499 3699 1338 
C 3699 2157 3078 2682 2189 2682 
z
M 2150 352 
C 1376 352 966 819 966 1312 
C 966 1869 1434 2291 2118 2291 
C 2810 2291 3245 1914 3245 1325 
C 3245 730 2797 352 2150 352 
z
" transform="scale(0.015625)"/>
       </defs>
       <use xlink:href="#Montserrat-Regular-36"/>
       <use xlink:href="#Montserrat-Regular-30" x="60.899994"/>
       <use xlink:href="#Montserrat-Regular-20" x="127.099991"/>
       <use xlink:href="#Montserrat-Regular-2d" x="153.299988"/>
       <use xlink:href="#Montserrat-Regular-20" x="191.499985"/>
       <use xlink:href="#Montserrat-Regular-36" x="217.699982"/>
       <use xlink:href="#Montserrat-Regular-39" x="278.599976"/>
      </g>
     </g>
    </g>
   </g>
   <g id="matplotlib.axis_2">
    <g id="ytick_1">
     <g id="line2d_6">
      <path d="M 69.075 185.24 
L 486 185.24 
" clip-path="url(#p17daf290c7)" style="fill: none; stroke-dasharray: 1.85,0.8; stroke-dashoffset: 0; stroke: #b7b7b7; stroke-width: 0.5"/>
     </g>
     <g id="line2d_7">
      <defs>
       <path id="meb4faa8af4" d="M 0 0 
L -3.5 0 
" style="stroke: #b7b7b7; stroke-width: 0.8"/>
      </defs>
      <g>
       <use xlink:href="#meb4faa8af4" x="69.075" y="185.24" style="fill: #b7b7b7; stroke: #b7b7b7; stroke-width: 0.8"/>
      </g>
     </g>
     <g id="text_6">
      <!-- 0 -->
      <g style="fill: #b7b7b7" transform="translate(51.4825 191.17625)scale(0.16 -0.16)">
       <use xlink:href="#Montserrat-Regular-30"/>
      </g>
     </g>
    </g>
    <g id="ytick_2">
     <g id="line2d_8">
      <path d="M 69.075 152.973333 
L 486 152.973333 
" clip-path="url(#p17daf290c7)" style="fill: none; stroke-dasharray: 1.85,0.8; stroke-dashoffset: 0; stroke: #b7b7b7; stroke-width: 0.5"/>
     </g>
     <g id="line2d_9">
      <g>
       <use xlink:href="#meb4faa8af4" x="69.075" y="152.973333" style="fill: #b7b7b7; stroke: #b7b7b7; stroke-width: 0.8"/>
      </g>
     </g>
     <g id="text_7">
      <!-- 4 -->
      <g style="fill: #b7b7b7" transform="translate(51.5 158.909583)scale(0.16 -0.16)">
       <use xlink:href="#Montserrat-Regular-34"/>
      </g>
     </g>
    </g>
    <g id="ytick_3">
     <g id="line2d_10">
      <path d="M 69.075 120.706667 
L 486 120.706667 
" clip-path="url(#p17daf290c7)" style="fill: none; stroke-dasharray: 1.85,0.8; stroke-dashoffset: 0; stroke: #b7b7b7; stroke-width: 0.5"/>
     </g>
     <g id="line2d_11">
      <g>
       <use xlink:href="#meb4faa8af4" x="69.075" y="120.706667" style="fill: #b7b7b7; stroke: #b7b7b7; stroke-width: 0.8"/>
      </g>
     </g>
     <g id="text_8">
      <!-- 8 -->
      <g style="fill: #b7b7b7" transform="translate(51.8675 126.642917)scale(0.16 -0.16)">
       <defs>
        <path id="Montserrat-Regular-38" d="M 2899 2349 
C 3360 2528 3616 2867 3616 3334 
C 3616 4064 2982 4518 2035 4518 
C 1088 4518 467 4064 467 3334 
C 467 2867 717 2528 1171 2349 
C 614 2163 307 1786 307 1248 
C 307 454 960 -38 2035 -38 
C 3104 -38 3776 454 3776 1248 
C 3776 1779 3462 2163 2899 2349 
z
M 928 3322 
C 928 3821 1357 4128 2035 4128 
C 2707 4128 3149 3821 3149 3315 
C 3149 2829 2733 2515 2035 2515 
C 1338 2515 928 2829 928 3322 
z
M 2035 352 
C 1242 352 774 698 774 1254 
C 774 1805 1242 2150 2035 2150 
C 2829 2150 3302 1805 3302 1254 
C 3302 698 2829 352 2035 352 
z
" transform="scale(0.015625)"/>
       </defs>
       <use xlink:href="#Montserrat-Regular-38"/>
      </g>
     </g>
    </g>
    <g id="ytick_4">
     <g id="line2d_12">
      <path d="M 69.075 88.44 
L 486 88.44 
" clip-path="url(#p17daf290c7)" style="fill: none; stroke-dasharray: 1.85,0.8; stroke-dashoffset: 0; stroke: #b7b7b7; stroke-width: 0.5"/>
     </g>
     <g id="line2d_13">
      <g>
       <use xlink:href="#meb4faa8af4" x="69.075" y="88.44" style="fill: #b7b7b7; stroke: #b7b7b7; stroke-width: 0.8"/>
      </g>
     </g>
     <g id="text_9">
      <!-- 12 -->
      <g style="fill: #b7b7b7" transform="translate(47.2125 94.37625)scale(0.16 -0.16)">
       <defs>
        <path id="Montserrat-Regular-31" d="M 58 4480 
L 58 4070 
L 1114 4070 
L 1114 0 
L 1574 0 
L 1574 4480 
L 58 4480 
z
" transform="scale(0.015625)"/>
       </defs>
       <use xlink:href="#Montserrat-Regular-31"/>
       <use xlink:href="#Montserrat-Regular-32" x="36.099991"/>
      </g>
     </g>
    </g>
    <g id="ytick_5">
     <g id="line2d_14">
      <path d="M 69.075 56.173333 
L 486 56.173333 
" clip-path="url(#p17daf290c7)" style="fill: none; stroke-dasharray: 1.85,0.8; stroke-dashoffset: 0; stroke: #b7b7b7; stroke-width: 0.5"/>
     </g>
     <g id="line2d_15">
      <g>
       <use xlink:href="#meb4faa8af4" x="69.075" y="56.173333" style="fill: #b7b7b7; stroke: #b7b7b7; stroke-width: 0.8"/>
      </g>
     </g>
     <g id="text_10">
      <!-- 16 -->
      <g style="fill: #b7b7b7" transform="translate(46.555 62.109583)scale(0.16 -0.16)">
       <use xlink:href="#Montserrat-Regular-31"/>
       <use xlink:href="#Montserrat-Regular-36" x="36.099991"/>
      </g>
     </g>
    </g>
    <g id="ytick_6">
     <g id="line2d_16">
      <path d="M 69.075 23.906667 
L 486 23.906667 
" clip-path="url(#p17daf290c7)" style="fill: none; stroke-dasharray: 1.85,0.8; stroke-dashoffset: 0; stroke: #b7b7b7; stroke-width: 0.5"/>
     </g>
     <g id="line2d_17">
      <g>
       <use xlink:href="#meb4faa8af4" x="69.075" y="23.906667" style="fill: #b7b7b7; stroke: #b7b7b7; stroke-width: 0.8"/>
      </g>
     </g>
     <g id="text_11">
      <!-- 20 -->
      <g style="fill: #b7b7b7" transform="translate(42.395 29.842917)scale(0.16 -0.16)">
       <use xlink:href="#Montserrat-Regular-32"/>
       <use xlink:href="#Montserrat-Regular-30" x="56.799988"/>
      </g>
     </g>
    </g>
    <g id="text_12">
     <!-- [%] -->
     <g style="fill: #b7b7b7" transform="translate(10.675 97.435)scale(0.16 -0.16)">
      <defs>
       <path id="Montserrat-Regular-5b" d="M 730 -1242 
L 1901 -1242 
L 1901 -864 
L 1184 -864 
L 1184 4371 
L 1901 4371 
L 1901 4749 
L 730 4749 
L 730 -1242 
z
" transform="scale(0.015625)"/>
       <path id="Montserrat-Regular-25" d="M 1280 2080 
C 1875 2080 2291 2560 2291 3296 
C 2291 4032 1875 4512 1280 4512 
C 678 4512 269 4026 269 3296 
C 269 2566 678 2080 1280 2080 
z
M 934 0 
L 1312 0 
L 4371 4480 
L 3994 4480 
L 934 0 
z
M 1280 2368 
C 858 2368 589 2720 589 3296 
C 589 3872 858 4224 1280 4224 
C 1696 4224 1971 3878 1971 3296 
C 1971 2714 1696 2368 1280 2368 
z
M 4026 -32 
C 4627 -32 5037 454 5037 1184 
C 5037 1914 4627 2400 4026 2400 
C 3430 2400 3014 1914 3014 1184 
C 3014 454 3430 -32 4026 -32 
z
M 4026 256 
C 3610 256 3334 602 3334 1184 
C 3334 1766 3610 2112 4026 2112 
C 4448 2112 4717 1760 4717 1184 
C 4717 608 4448 256 4026 256 
z
" transform="scale(0.015625)"/>
       <path id="Montserrat-Regular-5d" d="M 1306 -1242 
L 1306 4749 
L 134 4749 
L 134 4371 
L 851 4371 
L 851 -864 
L 134 -864 
L 134 -1242 
L 1306 -1242 
z
" transform="scale(0.015625)"/>
      </defs>
      <use xlink:href="#Montserrat-Regular-5b"/>
      <use xlink:href="#Montserrat-Regular-25" x="31.799988"/>
      <use xlink:href="#Montserrat-Regular-5d" x="114.699982"/>
     </g>
    </g>
   </g>
   <g id="patch_3">
    <path d="M 403.878409 185.24 
L 467.048864 185.24 
L 467.048864 23.906667 
L 403.878409 23.906667 
L 403.878409 185.24 
z
" clip-path="url(#p17daf290c7)" style="fill: none; opacity: 0.1; stroke: #ff0000; stroke-linejoin: miter"/>
   </g>
   <g id="patch_4">
    <path d="M 403.878409 185.24 
L 467.048864 185.24 
L 467.048864 23.906667 
L 403.878409 23.906667 
L 403.878409 185.24 
z
" clip-path="url(#p17daf290c7)" style="fill: none; opacity: 0.1; stroke: #ff0000; stroke-width: 3; stroke-linejoin: miter"/>
   </g>
   <g id="patch_5">
    <path d="M 403.878409 185.24 
L 467.048864 185.24 
L 467.048864 23.906667 
L 403.878409 23.906667 
L 403.878409 185.24 
z
" clip-path="url(#p17daf290c7)" style="fill: none; opacity: 0.1; stroke: #ff0000; stroke-width: 5; stroke-linejoin: miter"/>
   </g>
   <g id="patch_6">
    <path d="M 403.878409 185.24 
L 467.048864 185.24 
L 467.048864 23.906667 
L 403.878409 23.906667 
L 403.878409 185.24 
z
" clip-path="url(#p17daf290c7)" style="fill: none; opacity: 0.1; stroke: #ff0000; stroke-width: 7; stroke-linejoin: miter"/>
   </g>
   <g id="patch_7">
    <path d="M 403.878409 185.24 
L 467.048864 185.24 
L 467.048864 23.906667 
L 403.878409 23.906667 
L 403.878409 185.24 
z
" clip-path="url(#p17daf290c7)" style="fill: none; opacity: 0.1; stroke: #ff0000; stroke-width: 9; stroke-linejoin: miter"/>
   </g>
   <g id="patch_8">
    <path d="M 88.026136 185.24 
L 151.196591 185.24 
L 151.196591 122.219167 
L 88.026136 122.219167 
z
" clip-path="url(#p17daf290c7)" style="fill: #b1e5f4"/>
   </g>
   <g id="patch_9">
    <path d="M 166.989205 185.24 
L 230.159659 185.24 
L 230.159659 151.346443 
L 166.989205 151.346443 
z
" clip-path="url(#p17daf290c7)" style="fill: #b1e5f4"/>
   </g>
   <g id="patch_10">
    <path d="M 245.952273 185.24 
L 309.122727 185.24 
L 309.122727 123.914464 
L 245.952273 123.914464 
z
" clip-path="url(#p17daf290c7)" style="fill: #b1e5f4"/>
   </g>
   <g id="patch_11">
    <path d="M 324.915341 185.24 
L 388.085795 185.24 
L 388.085795 135.343093 
L 324.915341 135.343093 
z
" clip-path="url(#p17daf290c7)" style="fill: #b1e5f4"/>
   </g>
   <g id="patch_12">
    <path d="M 403.878409 185.24 
L 467.048864 185.24 
L 467.048864 23.906667 
L 403.878409 23.906667 
z
" clip-path="url(#p17daf290c7)" style="fill: #b1e5f4"/>
   </g>
   <g id="text_13">
    <!-- 8% -->
    <g style="fill: #555555" transform="translate(109.342145 119.502292)scale(0.14 -0.14)">
     <use xlink:href="#Montserrat-Regular-38"/>
     <use xlink:href="#Montserrat-Regular-25" x="63.799988"/>
    </g>
   </g>
   <g id="text_14">
    <!-- 4% -->
    <g style="fill: #555555" transform="translate(188.144432 148.629568)scale(0.14 -0.14)">
     <use xlink:href="#Montserrat-Regular-34"/>
     <use xlink:href="#Montserrat-Regular-25" x="66.099991"/>
    </g>
   </g>
   <g id="text_15">
    <!-- 8% -->
    <g style="fill: #555555" transform="translate(267.268281 121.197589)scale(0.14 -0.14)">
     <use xlink:href="#Montserrat-Regular-38"/>
     <use xlink:href="#Montserrat-Regular-25" x="63.799988"/>
    </g>
   </g>
   <g id="text_16">
    <!-- 6% -->
    <g style="fill: #555555" transform="translate(346.433693 132.626218)scale(0.14 -0.14)">
     <use xlink:href="#Montserrat-Regular-36"/>
     <use xlink:href="#Montserrat-Regular-25" x="60.899994"/>
    </g>
   </g>
   <g id="text_17">
    <!-- 20% -->
    <g style="fill: #555555" transform="translate(421.050199 21.189792)scale(0.14 -0.14)">
     <use xlink:href="#Montserrat-Regular-32"/>
     <use xlink:href="#Montserrat-Regular-30" x="56.799988"/>
     <use xlink:href="#Montserrat-Regular-25" x="122.999985"/>
    </g>
   </g>
   <g id="line2d_18">
    <path d="M 69.075 185.24 
L 486 185.24 
" style="fill: none; stroke: #555555; stroke-width: 3; stroke-linecap: square"/>
   </g>
   <g id="line2d_19">
    <path d="M 69.075 111.345967 
L 486 111.345967 
" clip-path="url(#p17daf290c7)" style="fill: none; stroke-dasharray: 5,1.5; stroke-dashoffset: 2.5; stroke: #000000; stroke-opacity: 0.85; stroke-width: 0.5"/>
   </g>
  </g>
 </g>
 <defs>
  <clipPath id="p17daf290c7">
   <rect x="69.075" y="15.84" width="416.925" height="169.4"/>
  </clipPath>
 </defs>
</svg>
