<?xml version="1.0" encoding="utf-8" standalone="no"?>
<!DOCTYPE svg PUBLIC "-//W3C//DTD SVG 1.1//EN"
  "http://www.w3.org/Graphics/SVG/1.1/DTD/svg11.dtd">
<svg xmlns:xlink="http://www.w3.org/1999/xlink" width="864pt" height="432pt" viewBox="0 0 864 432" xmlns="http://www.w3.org/2000/svg" version="1.1">
 <metadata>
  <rdf:RDF xmlns:dc="http://purl.org/dc/elements/1.1/" xmlns:cc="http://creativecommons.org/ns#" xmlns:rdf="http://www.w3.org/1999/02/22-rdf-syntax-ns#">
   <cc:Work>
    <dc:type rdf:resource="http://purl.org/dc/dcmitype/StillImage"/>
    <dc:date>2023-02-02T13:50:04.738525</dc:date>
    <dc:format>image/svg+xml</dc:format>
    <dc:creator>
     <cc:Agent>
      <dc:title>Matplotlib v3.5.3, https://matplotlib.org/</dc:title>
     </cc:Agent>
    </dc:creator>
   </cc:Work>
  </rdf:RDF>
 </metadata>
 <defs>
  <style type="text/css">*{stroke-linejoin: round; stroke-linecap: butt}</style>
 </defs>
 <g id="figure_1">
  <g id="patch_1">
   <path d="M 0 432 
L 864 432 
L 864 0 
L 0 0 
z
" style="fill: #f1f7f9"/>
  </g>
  <g id="axes_1">
   <g id="patch_2">
    <path d="M 72.135 381.512 
L 853.2 381.512 
L 853.2 23.76 
L 72.135 23.76 
z
" style="fill: #f1f7f9"/>
   </g>
   <g id="matplotlib.axis_1">
    <g id="xtick_1">
     <g id="line2d_1">
      <defs>
       <path id="md66ce0b0c3" d="M 0 0 
L 0 3.5 
" style="stroke: #000000; stroke-width: 0.8"/>
      </defs>
      <g>
       <use xlink:href="#md66ce0b0c3" x="156.607547" y="381.512" style="stroke: #000000; stroke-width: 0.8"/>
      </g>
     </g>
     <g id="text_1">
      <!-- Belarus -->
      <g style="fill: #555555" transform="translate(126.366297 400.3845)scale(0.16 -0.16)">
       <defs>
        <path id="Montserrat-Regular-42" d="M 3552 2310 
C 3962 2477 4237 2816 4237 3328 
C 4237 4058 3661 4480 2662 4480 
L 730 4480 
L 730 0 
L 2790 0 
C 3910 0 4474 435 4474 1197 
C 4474 1805 4128 2182 3552 2310 
z
M 2630 4090 
C 3347 4090 3763 3814 3763 3277 
C 3763 2739 3347 2464 2630 2464 
L 1203 2464 
L 1203 4090 
L 2630 4090 
z
M 2784 390 
L 1203 390 
L 1203 2074 
L 2784 2074 
C 3571 2074 4000 1818 4000 1235 
C 4000 646 3571 390 2784 390 
z
" transform="scale(0.015625)"/>
        <path id="Montserrat-Regular-65" d="M 3571 1683 
C 3571 2694 2886 3392 1939 3392 
C 992 3392 294 2682 294 1683 
C 294 685 1011 -32 2061 -32 
C 2592 -32 3059 160 3360 518 
L 3104 813 
C 2848 518 2483 371 2074 371 
C 1338 371 800 838 749 1542 
L 3565 1542 
C 3565 1594 3571 1645 3571 1683 
z
M 1939 3002 
C 2598 3002 3078 2541 3136 1882 
L 749 1882 
C 806 2541 1286 3002 1939 3002 
z
" transform="scale(0.015625)"/>
        <path id="Montserrat-Regular-6c" d="M 634 0 
L 1088 0 
L 1088 4749 
L 634 4749 
L 634 0 
z
" transform="scale(0.015625)"/>
        <path id="Montserrat-Regular-61" d="M 1811 3392 
C 1280 3392 781 3226 442 2938 
L 646 2598 
C 922 2842 1331 2995 1766 2995 
C 2394 2995 2720 2682 2720 2106 
L 2720 1901 
L 1651 1901 
C 685 1901 352 1466 352 947 
C 352 365 819 -32 1581 -32 
C 2138 -32 2534 179 2739 525 
L 2739 0 
L 3174 0 
L 3174 2086 
C 3174 2957 2682 3392 1811 3392 
z
M 1651 326 
C 1114 326 800 570 800 960 
C 800 1306 1011 1562 1664 1562 
L 2720 1562 
L 2720 1011 
C 2541 570 2163 326 1651 326 
z
" transform="scale(0.015625)"/>
        <path id="Montserrat-Regular-72" d="M 1069 2707 
L 1069 3366 
L 634 3366 
L 634 0 
L 1088 0 
L 1088 1715 
C 1088 2509 1517 2957 2221 2957 
C 2253 2957 2291 2950 2330 2950 
L 2330 3392 
C 1709 3392 1280 3155 1069 2707 
z
" transform="scale(0.015625)"/>
        <path id="Montserrat-Regular-75" d="M 3213 3366 
L 3213 1600 
C 3213 832 2771 378 2067 378 
C 1427 378 1056 742 1056 1459 
L 1056 3366 
L 602 3366 
L 602 1414 
C 602 448 1165 -32 2022 -32 
C 2560 -32 2995 205 3232 614 
L 3232 0 
L 3667 0 
L 3667 3366 
L 3213 3366 
z
" transform="scale(0.015625)"/>
        <path id="Montserrat-Regular-73" d="M 1536 -32 
C 2413 -32 2925 346 2925 928 
C 2925 2221 742 1536 742 2445 
C 742 2765 1011 3002 1619 3002 
C 1965 3002 2317 2918 2611 2714 
L 2810 3078 
C 2528 3270 2054 3392 1619 3392 
C 762 3392 288 2982 288 2432 
C 288 1101 2470 1792 2470 915 
C 2470 582 2208 365 1568 365 
C 1094 365 640 531 371 742 
L 166 384 
C 442 147 979 -32 1536 -32 
z
" transform="scale(0.015625)"/>
       </defs>
       <use xlink:href="#Montserrat-Regular-42"/>
       <use xlink:href="#Montserrat-Regular-65" x="75.399994"/>
       <use xlink:href="#Montserrat-Regular-6c" x="135.799988"/>
       <use xlink:href="#Montserrat-Regular-61" x="162.699982"/>
       <use xlink:href="#Montserrat-Regular-72" x="221.699966"/>
       <use xlink:href="#Montserrat-Regular-75" x="261.799957"/>
       <use xlink:href="#Montserrat-Regular-73" x="329.099945"/>
      </g>
     </g>
    </g>
    <g id="xtick_2">
     <g id="line2d_2">
      <g>
       <use xlink:href="#md66ce0b0c3" x="279.031528" y="381.512" style="stroke: #000000; stroke-width: 0.8"/>
      </g>
     </g>
     <g id="text_2">
      <!-- New York -->
      <g style="fill: #555555" transform="translate(240.455278 400.3845)scale(0.16 -0.16)">
       <defs>
        <path id="Montserrat-Regular-4e" d="M 4006 4480 
L 4006 845 
L 1120 4480 
L 730 4480 
L 730 0 
L 1203 0 
L 1203 3635 
L 4083 0 
L 4474 0 
L 4474 4480 
L 4006 4480 
z
" transform="scale(0.015625)"/>
        <path id="Montserrat-Regular-77" d="M 5158 3366 
L 4090 506 
L 3014 3366 
L 2624 3366 
L 1542 506 
L 486 3366 
L 51 3366 
L 1318 0 
L 1747 0 
L 2810 2758 
L 3872 0 
L 4301 0 
L 5574 3366 
L 5158 3366 
z
" transform="scale(0.015625)"/>
        <path id="Montserrat-Regular-20" transform="scale(0.015625)"/>
        <path id="Montserrat-Regular-59" d="M 4058 4480 
L 3584 4480 
L 2048 1965 
L 512 4480 
L 6 4480 
L 1798 1549 
L 1798 0 
L 2266 0 
L 2266 1549 
L 4058 4480 
z
" transform="scale(0.015625)"/>
        <path id="Montserrat-Regular-6f" d="M 2010 -32 
C 2995 -32 3718 685 3718 1683 
C 3718 2682 2995 3392 2010 3392 
C 1024 3392 294 2682 294 1683 
C 294 685 1024 -32 2010 -32 
z
M 2010 371 
C 1293 371 755 896 755 1683 
C 755 2470 1293 2995 2010 2995 
C 2726 2995 3258 2470 3258 1683 
C 3258 896 2726 371 2010 371 
z
" transform="scale(0.015625)"/>
        <path id="Montserrat-Regular-6b" d="M 3238 0 
L 3795 0 
L 2221 1990 
L 3661 3366 
L 3098 3366 
L 1088 1530 
L 1088 4749 
L 634 4749 
L 634 0 
L 1088 0 
L 1088 960 
L 1882 1690 
L 3238 0 
z
" transform="scale(0.015625)"/>
       </defs>
       <use xlink:href="#Montserrat-Regular-4e"/>
       <use xlink:href="#Montserrat-Regular-65" x="81.299988"/>
       <use xlink:href="#Montserrat-Regular-77" x="141.699982"/>
       <use xlink:href="#Montserrat-Regular-20" x="229.599976"/>
       <use xlink:href="#Montserrat-Regular-59" x="255.799973"/>
       <use xlink:href="#Montserrat-Regular-6f" x="319.299957"/>
       <use xlink:href="#Montserrat-Regular-72" x="381.999954"/>
       <use xlink:href="#Montserrat-Regular-6b" x="422.099945"/>
      </g>
     </g>
    </g>
    <g id="xtick_3">
     <g id="line2d_3">
      <g>
       <use xlink:href="#md66ce0b0c3" x="401.455509" y="381.512" style="stroke: #000000; stroke-width: 0.8"/>
      </g>
     </g>
     <g id="text_3">
      <!-- Tel Aviv -->
      <g style="fill: #555555" transform="translate(371.220509 400.3845)scale(0.16 -0.16)">
       <defs>
        <path id="Montserrat-Regular-54" d="M 1600 0 
L 2074 0 
L 2074 4070 
L 3648 4070 
L 3648 4480 
L 26 4480 
L 26 4070 
L 1600 4070 
L 1600 0 
z
" transform="scale(0.015625)"/>
        <path id="Montserrat-Regular-41" d="M 4077 0 
L 4576 0 
L 2528 4480 
L 2061 4480 
L 13 0 
L 506 0 
L 1043 1197 
L 3539 1197 
L 4077 0 
z
M 1216 1581 
L 2291 3987 
L 3366 1581 
L 1216 1581 
z
" transform="scale(0.015625)"/>
        <path id="Montserrat-Regular-76" d="M 3014 3366 
L 1741 499 
L 480 3366 
L 6 3366 
L 1498 0 
L 1965 0 
L 3462 3366 
L 3014 3366 
z
" transform="scale(0.015625)"/>
        <path id="Montserrat-Regular-69" d="M 864 4102 
C 1056 4102 1197 4250 1197 4435 
C 1197 4608 1050 4749 864 4749 
C 678 4749 531 4602 531 4429 
C 531 4250 678 4102 864 4102 
z
M 634 0 
L 1088 0 
L 1088 3366 
L 634 3366 
L 634 0 
z
" transform="scale(0.015625)"/>
       </defs>
       <use xlink:href="#Montserrat-Regular-54"/>
       <use xlink:href="#Montserrat-Regular-65" x="57.399994"/>
       <use xlink:href="#Montserrat-Regular-6c" x="117.799988"/>
       <use xlink:href="#Montserrat-Regular-20" x="144.699982"/>
       <use xlink:href="#Montserrat-Regular-41" x="170.899979"/>
       <use xlink:href="#Montserrat-Regular-76" x="242.59996"/>
       <use xlink:href="#Montserrat-Regular-69" x="296.799957"/>
       <use xlink:href="#Montserrat-Regular-76" x="323.699951"/>
      </g>
     </g>
    </g>
    <g id="xtick_4">
     <g id="line2d_4">
      <g>
       <use xlink:href="#md66ce0b0c3" x="523.879491" y="381.512" style="stroke: #000000; stroke-width: 0.8"/>
      </g>
     </g>
     <g id="text_4">
      <!-- USA -->
      <g style="fill: #555555" transform="translate(506.886991 400.3845)scale(0.16 -0.16)">
       <defs>
        <path id="Montserrat-Regular-55" d="M 2534 -38 
C 3680 -38 4371 627 4371 1914 
L 4371 4480 
L 3910 4480 
L 3910 1933 
C 3910 870 3411 384 2534 384 
C 1664 384 1165 870 1165 1933 
L 1165 4480 
L 691 4480 
L 691 1914 
C 691 627 1389 -38 2534 -38 
z
" transform="scale(0.015625)"/>
        <path id="Montserrat-Regular-53" d="M 1965 -38 
C 3110 -38 3635 525 3635 1184 
C 3635 2816 877 2074 877 3302 
C 877 3750 1242 4115 2061 4115 
C 2458 4115 2906 3994 3290 3744 
L 3450 4122 
C 3091 4371 2566 4518 2061 4518 
C 922 4518 410 3949 410 3290 
C 410 1632 3168 2387 3168 1158 
C 3168 717 2803 365 1965 365 
C 1376 365 806 595 486 909 
L 301 544 
C 634 198 1293 -38 1965 -38 
z
" transform="scale(0.015625)"/>
       </defs>
       <use xlink:href="#Montserrat-Regular-55"/>
       <use xlink:href="#Montserrat-Regular-53" x="79.199982"/>
       <use xlink:href="#Montserrat-Regular-41" x="140.699966"/>
      </g>
      <!-- (Remote) -->
      <g style="fill: #555555" transform="translate(486.414491 417.7365)scale(0.16 -0.16)">
       <defs>
        <path id="Montserrat-Regular-28" d="M 1408 -1242 
L 1843 -1242 
C 1338 -365 1114 614 1114 1754 
C 1114 2893 1338 3872 1843 4749 
L 1408 4749 
C 934 3987 666 2931 666 1754 
C 666 576 934 -467 1408 -1242 
z
" transform="scale(0.015625)"/>
        <path id="Montserrat-Regular-52" d="M 4307 0 
L 3213 1536 
C 3866 1747 4237 2240 4237 2944 
C 4237 3904 3546 4480 2406 4480 
L 730 4480 
L 730 0 
L 1203 0 
L 1203 1421 
L 2406 1421 
C 2534 1421 2650 1427 2765 1440 
L 3789 0 
L 4307 0 
z
M 2394 1824 
L 1203 1824 
L 1203 4070 
L 2394 4070 
C 3290 4070 3763 3661 3763 2944 
C 3763 2240 3290 1824 2394 1824 
z
" transform="scale(0.015625)"/>
        <path id="Montserrat-Regular-6d" d="M 4832 3392 
C 4224 3392 3744 3117 3501 2682 
C 3296 3155 2861 3392 2304 3392 
C 1741 3392 1306 3155 1069 2752 
L 1069 3366 
L 634 3366 
L 634 0 
L 1088 0 
L 1088 1766 
C 1088 2534 1530 2982 2214 2982 
C 2829 2982 3187 2618 3187 1907 
L 3187 0 
L 3642 0 
L 3642 1766 
C 3642 2534 4077 2982 4768 2982 
C 5376 2982 5734 2618 5734 1907 
L 5734 0 
L 6189 0 
L 6189 1952 
C 6189 2918 5651 3392 4832 3392 
z
" transform="scale(0.015625)"/>
        <path id="Montserrat-Regular-74" d="M 2246 531 
C 2118 416 1933 358 1747 358 
C 1370 358 1165 576 1165 973 
L 1165 2982 
L 2189 2982 
L 2189 3366 
L 1165 3366 
L 1165 4102 
L 710 4102 
L 710 3366 
L 109 3366 
L 109 2982 
L 710 2982 
L 710 947 
C 710 326 1062 -32 1696 -32 
C 1958 -32 2227 45 2406 205 
L 2246 531 
z
" transform="scale(0.015625)"/>
        <path id="Montserrat-Regular-29" d="M 691 -1242 
C 1171 -467 1440 576 1440 1754 
C 1440 2931 1171 3987 691 4749 
L 256 4749 
C 768 3872 992 2893 992 1754 
C 992 614 768 -365 256 -1242 
L 691 -1242 
z
" transform="scale(0.015625)"/>
       </defs>
       <use xlink:href="#Montserrat-Regular-28"/>
       <use xlink:href="#Montserrat-Regular-52" x="32.899994"/>
       <use xlink:href="#Montserrat-Regular-65" x="105.199982"/>
       <use xlink:href="#Montserrat-Regular-6d" x="165.599976"/>
       <use xlink:href="#Montserrat-Regular-6f" x="271.699966"/>
       <use xlink:href="#Montserrat-Regular-74" x="334.399963"/>
       <use xlink:href="#Montserrat-Regular-65" x="374.999954"/>
       <use xlink:href="#Montserrat-Regular-29" x="435.399948"/>
      </g>
     </g>
    </g>
    <g id="xtick_5">
     <g id="line2d_5">
      <g>
       <use xlink:href="#md66ce0b0c3" x="646.303472" y="381.512" style="stroke: #000000; stroke-width: 0.8"/>
      </g>
     </g>
     <g id="text_5">
      <!-- Ukraine -->
      <g style="fill: #555555" transform="translate(614.830972 400.3845)scale(0.16 -0.16)">
       <defs>
        <path id="Montserrat-Regular-6e" d="M 2349 3392 
C 1766 3392 1312 3155 1069 2746 
L 1069 3366 
L 634 3366 
L 634 0 
L 1088 0 
L 1088 1766 
C 1088 2534 1542 2982 2266 2982 
C 2906 2982 3277 2618 3277 1907 
L 3277 0 
L 3731 0 
L 3731 1952 
C 3731 2918 3168 3392 2349 3392 
z
" transform="scale(0.015625)"/>
       </defs>
       <use xlink:href="#Montserrat-Regular-55"/>
       <use xlink:href="#Montserrat-Regular-6b" x="79.199982"/>
       <use xlink:href="#Montserrat-Regular-72" x="139.299973"/>
       <use xlink:href="#Montserrat-Regular-61" x="179.399963"/>
       <use xlink:href="#Montserrat-Regular-69" x="238.399948"/>
       <use xlink:href="#Montserrat-Regular-6e" x="265.299942"/>
       <use xlink:href="#Montserrat-Regular-65" x="332.999924"/>
      </g>
     </g>
    </g>
    <g id="xtick_6">
     <g id="line2d_6">
      <g>
       <use xlink:href="#md66ce0b0c3" x="768.727453" y="381.512" style="stroke: #000000; stroke-width: 0.8"/>
      </g>
     </g>
     <g id="text_6">
      <!-- United -->
      <g style="fill: #555555" transform="translate(741.318703 400.3845)scale(0.16 -0.16)">
       <defs>
        <path id="Montserrat-Regular-64" d="M 3251 4749 
L 3251 2726 
C 2970 3162 2509 3392 1971 3392 
C 1011 3392 294 2701 294 1683 
C 294 666 1011 -32 1971 -32 
C 2528 -32 2995 211 3270 666 
L 3270 0 
L 3706 0 
L 3706 4749 
L 3251 4749 
z
M 2010 371 
C 1293 371 755 896 755 1683 
C 755 2470 1293 2995 2010 2995 
C 2720 2995 3258 2470 3258 1683 
C 3258 896 2720 371 2010 371 
z
" transform="scale(0.015625)"/>
       </defs>
       <use xlink:href="#Montserrat-Regular-55"/>
       <use xlink:href="#Montserrat-Regular-6e" x="79.199982"/>
       <use xlink:href="#Montserrat-Regular-69" x="146.899963"/>
       <use xlink:href="#Montserrat-Regular-74" x="173.799957"/>
       <use xlink:href="#Montserrat-Regular-65" x="214.399948"/>
       <use xlink:href="#Montserrat-Regular-64" x="274.799942"/>
      </g>
      <!-- Kingdom -->
      <g style="fill: #555555" transform="translate(731.056203 417.7365)scale(0.16 -0.16)">
       <defs>
        <path id="Montserrat-Regular-4b" d="M 3949 0 
L 4512 0 
L 2438 2451 
L 4378 4480 
L 3834 4480 
L 1203 1773 
L 1203 4480 
L 730 4480 
L 730 0 
L 1203 0 
L 1203 1178 
L 2118 2106 
L 3949 0 
z
" transform="scale(0.015625)"/>
        <path id="Montserrat-Regular-67" d="M 3315 3366 
L 3315 2720 
C 3034 3162 2547 3392 1984 3392 
C 1024 3392 294 2733 294 1766 
C 294 800 1024 128 1984 128 
C 2534 128 3014 352 3296 781 
L 3296 352 
C 3296 -480 2906 -870 2054 -870 
C 1536 -870 1050 -698 730 -410 
L 499 -755 
C 851 -1088 1453 -1274 2067 -1274 
C 3181 -1274 3750 -749 3750 410 
L 3750 3366 
L 3315 3366 
z
M 2029 531 
C 1286 531 755 1037 755 1766 
C 755 2496 1286 2995 2029 2995 
C 2771 2995 3309 2496 3309 1766 
C 3309 1037 2771 531 2029 531 
z
" transform="scale(0.015625)"/>
       </defs>
       <use xlink:href="#Montserrat-Regular-4b"/>
       <use xlink:href="#Montserrat-Regular-69" x="71.099991"/>
       <use xlink:href="#Montserrat-Regular-6e" x="97.999985"/>
       <use xlink:href="#Montserrat-Regular-67" x="165.699966"/>
       <use xlink:href="#Montserrat-Regular-64" x="234.299957"/>
       <use xlink:href="#Montserrat-Regular-6f" x="302.099945"/>
       <use xlink:href="#Montserrat-Regular-6d" x="364.799942"/>
      </g>
     </g>
    </g>
   </g>
   <g id="matplotlib.axis_2">
    <g id="ytick_1">
     <g id="line2d_7">
      <path d="M 72.135 381.512 
L 853.2 381.512 
" clip-path="url(#p12a2cfc25b)" style="fill: none; stroke-dasharray: 1.85,0.8; stroke-dashoffset: 0; stroke: #b7b7b7; stroke-width: 0.5"/>
     </g>
     <g id="line2d_8">
      <defs>
       <path id="m4c706eab93" d="M 0 0 
L -3.5 0 
" style="stroke: #b7b7b7; stroke-width: 0.8"/>
      </defs>
      <g>
       <use xlink:href="#m4c706eab93" x="72.135" y="381.512" style="fill: #b7b7b7; stroke: #b7b7b7; stroke-width: 0.8"/>
      </g>
     </g>
     <g id="text_7">
      <!-- 0 -->
      <g style="fill: #b7b7b7" transform="translate(54.5425 387.44825)scale(0.16 -0.16)">
       <defs>
        <path id="Montserrat-Regular-30" d="M 2118 -38 
C 3155 -38 3910 813 3910 2240 
C 3910 3667 3155 4518 2118 4518 
C 1082 4518 333 3667 333 2240 
C 333 813 1082 -38 2118 -38 
z
M 2118 384 
C 1338 384 800 1043 800 2240 
C 800 3437 1338 4096 2118 4096 
C 2899 4096 3437 3437 3437 2240 
C 3437 1043 2899 384 2118 384 
z
" transform="scale(0.015625)"/>
       </defs>
       <use xlink:href="#Montserrat-Regular-30"/>
      </g>
     </g>
    </g>
    <g id="ytick_2">
     <g id="line2d_9">
      <path d="M 72.135 325.61325 
L 853.2 325.61325 
" clip-path="url(#p12a2cfc25b)" style="fill: none; stroke-dasharray: 1.85,0.8; stroke-dashoffset: 0; stroke: #b7b7b7; stroke-width: 0.5"/>
     </g>
     <g id="line2d_10">
      <g>
       <use xlink:href="#m4c706eab93" x="72.135" y="325.61325" style="fill: #b7b7b7; stroke: #b7b7b7; stroke-width: 0.8"/>
      </g>
     </g>
     <g id="text_8">
      <!-- 10 -->
      <g style="fill: #b7b7b7" transform="translate(48.7675 331.5495)scale(0.16 -0.16)">
       <defs>
        <path id="Montserrat-Regular-31" d="M 58 4480 
L 58 4070 
L 1114 4070 
L 1114 0 
L 1574 0 
L 1574 4480 
L 58 4480 
z
" transform="scale(0.015625)"/>
       </defs>
       <use xlink:href="#Montserrat-Regular-31"/>
       <use xlink:href="#Montserrat-Regular-30" x="36.099991"/>
      </g>
     </g>
    </g>
    <g id="ytick_3">
     <g id="line2d_11">
      <path d="M 72.135 269.7145 
L 853.2 269.7145 
" clip-path="url(#p12a2cfc25b)" style="fill: none; stroke-dasharray: 1.85,0.8; stroke-dashoffset: 0; stroke: #b7b7b7; stroke-width: 0.5"/>
     </g>
     <g id="line2d_12">
      <g>
       <use xlink:href="#m4c706eab93" x="72.135" y="269.7145" style="fill: #b7b7b7; stroke: #b7b7b7; stroke-width: 0.8"/>
      </g>
     </g>
     <g id="text_9">
      <!-- 20 -->
      <g style="fill: #b7b7b7" transform="translate(45.455 275.65075)scale(0.16 -0.16)">
       <defs>
        <path id="Montserrat-Regular-32" d="M 928 410 
L 2451 1907 
C 3053 2496 3187 2880 3187 3309 
C 3187 4058 2611 4518 1702 4518 
C 1018 4518 461 4288 115 3878 
L 442 3597 
C 736 3936 1139 4096 1664 4096 
C 2349 4096 2714 3776 2714 3258 
C 2714 2950 2618 2650 2112 2150 
L 250 326 
L 250 0 
L 3392 0 
L 3392 410 
L 928 410 
z
" transform="scale(0.015625)"/>
       </defs>
       <use xlink:href="#Montserrat-Regular-32"/>
       <use xlink:href="#Montserrat-Regular-30" x="56.799988"/>
      </g>
     </g>
    </g>
    <g id="ytick_4">
     <g id="line2d_13">
      <path d="M 72.135 213.81575 
L 853.2 213.81575 
" clip-path="url(#p12a2cfc25b)" style="fill: none; stroke-dasharray: 1.85,0.8; stroke-dashoffset: 0; stroke: #b7b7b7; stroke-width: 0.5"/>
     </g>
     <g id="line2d_14">
      <g>
       <use xlink:href="#m4c706eab93" x="72.135" y="213.81575" style="fill: #b7b7b7; stroke: #b7b7b7; stroke-width: 0.8"/>
      </g>
     </g>
     <g id="text_10">
      <!-- 30 -->
      <g style="fill: #b7b7b7" transform="translate(45.5175 219.752)scale(0.16 -0.16)">
       <defs>
        <path id="Montserrat-Regular-33" d="M 1856 2560 
L 3123 4154 
L 3123 4480 
L 243 4480 
L 243 4070 
L 2534 4070 
L 1293 2515 
L 1293 2176 
L 1613 2176 
C 2445 2176 2822 1824 2822 1286 
C 2822 730 2413 384 1670 384 
C 1088 384 570 602 282 902 
L 58 538 
C 403 186 1024 -38 1670 -38 
C 2752 -38 3296 538 3296 1286 
C 3296 2003 2816 2509 1856 2560 
z
" transform="scale(0.015625)"/>
       </defs>
       <use xlink:href="#Montserrat-Regular-33"/>
       <use xlink:href="#Montserrat-Regular-30" x="56.399994"/>
      </g>
     </g>
    </g>
    <g id="ytick_5">
     <g id="line2d_15">
      <path d="M 72.135 157.917 
L 853.2 157.917 
" clip-path="url(#p12a2cfc25b)" style="fill: none; stroke-dasharray: 1.85,0.8; stroke-dashoffset: 0; stroke: #b7b7b7; stroke-width: 0.5"/>
     </g>
     <g id="line2d_16">
      <g>
       <use xlink:href="#m4c706eab93" x="72.135" y="157.917" style="fill: #b7b7b7; stroke: #b7b7b7; stroke-width: 0.8"/>
      </g>
     </g>
     <g id="text_11">
      <!-- 40 -->
      <g style="fill: #b7b7b7" transform="translate(43.9675 163.85325)scale(0.16 -0.16)">
       <defs>
        <path id="Montserrat-Regular-34" d="M 4141 1587 
L 3245 1587 
L 3245 2624 
L 2797 2624 
L 2797 1587 
L 851 1587 
L 3142 4480 
L 2630 4480 
L 256 1510 
L 256 1178 
L 2784 1178 
L 2784 0 
L 3245 0 
L 3245 1178 
L 4141 1178 
L 4141 1587 
z
" transform="scale(0.015625)"/>
       </defs>
       <use xlink:href="#Montserrat-Regular-34"/>
       <use xlink:href="#Montserrat-Regular-30" x="66.099991"/>
      </g>
     </g>
    </g>
    <g id="ytick_6">
     <g id="line2d_17">
      <path d="M 72.135 102.01825 
L 853.2 102.01825 
" clip-path="url(#p12a2cfc25b)" style="fill: none; stroke-dasharray: 1.85,0.8; stroke-dashoffset: 0; stroke: #b7b7b7; stroke-width: 0.5"/>
     </g>
     <g id="line2d_18">
      <g>
       <use xlink:href="#m4c706eab93" x="72.135" y="102.01825" style="fill: #b7b7b7; stroke: #b7b7b7; stroke-width: 0.8"/>
      </g>
     </g>
     <g id="text_12">
      <!-- 50 -->
      <g style="fill: #b7b7b7" transform="translate(45.4875 107.9545)scale(0.16 -0.16)">
       <defs>
        <path id="Montserrat-Regular-35" d="M 1510 2643 
L 934 2643 
L 1088 4070 
L 3136 4070 
L 3136 4480 
L 685 4480 
L 454 2234 
L 1408 2234 
C 2547 2234 2906 1875 2906 1299 
C 2906 755 2502 384 1741 384 
C 1165 384 653 602 365 902 
L 141 538 
C 486 186 1101 -38 1747 -38 
C 2842 -38 3373 557 3373 1318 
C 3373 2112 2861 2643 1510 2643 
z
" transform="scale(0.015625)"/>
       </defs>
       <use xlink:href="#Montserrat-Regular-35"/>
       <use xlink:href="#Montserrat-Regular-30" x="56.599991"/>
      </g>
     </g>
    </g>
    <g id="ytick_7">
     <g id="line2d_19">
      <path d="M 72.135 46.1195 
L 853.2 46.1195 
" clip-path="url(#p12a2cfc25b)" style="fill: none; stroke-dasharray: 1.85,0.8; stroke-dashoffset: 0; stroke: #b7b7b7; stroke-width: 0.5"/>
     </g>
     <g id="line2d_20">
      <g>
       <use xlink:href="#m4c706eab93" x="72.135" y="46.1195" style="fill: #b7b7b7; stroke: #b7b7b7; stroke-width: 0.8"/>
      </g>
     </g>
     <g id="text_13">
      <!-- 60 -->
      <g style="fill: #b7b7b7" transform="translate(44.7975 52.05575)scale(0.16 -0.16)">
       <defs>
        <path id="Montserrat-Regular-36" d="M 2189 2682 
C 1568 2682 1043 2406 819 1914 
C 806 2048 800 2176 800 2278 
C 800 3494 1421 4115 2387 4115 
C 2720 4115 3027 4058 3258 3904 
L 3443 4275 
C 3162 4448 2784 4518 2381 4518 
C 1165 4518 333 3725 333 2202 
C 333 787 979 -38 2170 -38 
C 3040 -38 3699 499 3699 1338 
C 3699 2157 3078 2682 2189 2682 
z
M 2150 352 
C 1376 352 966 819 966 1312 
C 966 1869 1434 2291 2118 2291 
C 2810 2291 3245 1914 3245 1325 
C 3245 730 2797 352 2150 352 
z
" transform="scale(0.015625)"/>
       </defs>
       <use xlink:href="#Montserrat-Regular-36"/>
       <use xlink:href="#Montserrat-Regular-30" x="60.899994"/>
      </g>
     </g>
    </g>
    <g id="text_14">
     <!-- [#] -->
     <g style="fill: #b7b7b7" transform="translate(10.64875 198.75475)scale(0.2 -0.2)">
      <defs>
       <path id="Montserrat-Regular-5b" d="M 730 -1242 
L 1901 -1242 
L 1901 -864 
L 1184 -864 
L 1184 4371 
L 1901 4371 
L 1901 4749 
L 730 4749 
L 730 -1242 
z
" transform="scale(0.015625)"/>
       <path id="Montserrat-Regular-23" d="M 4262 2912 
L 4262 3264 
L 3360 3264 
L 3507 4480 
L 3162 4480 
L 3014 3264 
L 1696 3264 
L 1850 4480 
L 1498 4480 
L 1350 3264 
L 390 3264 
L 390 2912 
L 1306 2912 
L 1139 1568 
L 186 1568 
L 186 1216 
L 1094 1216 
L 947 0 
L 1293 0 
L 1446 1216 
L 2758 1216 
L 2611 0 
L 2957 0 
L 3104 1216 
L 4058 1216 
L 4058 1568 
L 3149 1568 
L 3315 2912 
L 4262 2912 
z
M 2803 1568 
L 1485 1568 
L 1658 2912 
L 2970 2912 
L 2803 1568 
z
" transform="scale(0.015625)"/>
       <path id="Montserrat-Regular-5d" d="M 1306 -1242 
L 1306 4749 
L 134 4749 
L 134 4371 
L 851 4371 
L 851 -864 
L 134 -864 
L 134 -1242 
L 1306 -1242 
z
" transform="scale(0.015625)"/>
      </defs>
      <use xlink:href="#Montserrat-Regular-5b"/>
      <use xlink:href="#Montserrat-Regular-23" x="31.799988"/>
      <use xlink:href="#Montserrat-Regular-5d" x="101.399979"/>
     </g>
    </g>
   </g>
   <g id="patch_3">
    <path d="M 107.637955 381.512 
L 205.577139 381.512 
L 205.577139 381.512 
L 107.637955 381.512 
z
" clip-path="url(#p12a2cfc25b)" style="fill: #6eb7fa"/>
   </g>
   <g id="patch_4">
    <path d="M 230.061936 381.512 
L 328.001121 381.512 
L 328.001121 359.1525 
L 230.061936 359.1525 
z
" clip-path="url(#p12a2cfc25b)" style="fill: #6eb7fa"/>
   </g>
   <g id="patch_5">
    <path d="M 352.485917 381.512 
L 450.425102 381.512 
L 450.425102 320.023375 
L 352.485917 320.023375 
z
" clip-path="url(#p12a2cfc25b)" style="fill: #6eb7fa"/>
   </g>
   <g id="patch_6">
    <path d="M 474.909898 381.512 
L 572.849083 381.512 
L 572.849083 275.304375 
L 474.909898 275.304375 
z
" clip-path="url(#p12a2cfc25b)" style="fill: #6eb7fa"/>
   </g>
   <g id="patch_7">
    <path d="M 597.333879 381.512 
L 695.273064 381.512 
L 695.273064 370.33225 
L 597.333879 370.33225 
z
" clip-path="url(#p12a2cfc25b)" style="fill: #6eb7fa"/>
   </g>
   <g id="patch_8">
    <path d="M 719.757861 381.512 
L 817.697045 381.512 
L 817.697045 381.512 
L 719.757861 381.512 
z
" clip-path="url(#p12a2cfc25b)" style="fill: #6eb7fa"/>
   </g>
   <g id="patch_9">
    <path d="M 107.637955 381.512 
L 205.577139 381.512 
L 205.577139 381.512 
L 107.637955 381.512 
z
" clip-path="url(#p12a2cfc25b)" style="fill: #b2c6e3"/>
   </g>
   <g id="patch_10">
    <path d="M 230.061936 359.1525 
L 328.001121 359.1525 
L 328.001121 336.793 
L 230.061936 336.793 
z
" clip-path="url(#p12a2cfc25b)" style="fill: #b2c6e3"/>
   </g>
   <g id="patch_11">
    <path d="M 352.485917 320.023375 
L 450.425102 320.023375 
L 450.425102 191.45625 
L 352.485917 191.45625 
z
" clip-path="url(#p12a2cfc25b)" style="fill: #b2c6e3"/>
   </g>
   <g id="patch_12">
    <path d="M 474.909898 275.304375 
L 572.849083 275.304375 
L 572.849083 23.76 
L 474.909898 23.76 
z
" clip-path="url(#p12a2cfc25b)" style="fill: #b2c6e3"/>
   </g>
   <g id="patch_13">
    <path d="M 597.333879 370.33225 
L 695.273064 370.33225 
L 695.273064 347.97275 
L 597.333879 347.97275 
z
" clip-path="url(#p12a2cfc25b)" style="fill: #b2c6e3"/>
   </g>
   <g id="patch_14">
    <path d="M 719.757861 381.512 
L 817.697045 381.512 
L 817.697045 370.33225 
L 719.757861 370.33225 
z
" clip-path="url(#p12a2cfc25b)" style="fill: #b2c6e3"/>
   </g>
   <g id="text_15">
    <!-- 0% (0) -->
    <g style="fill: #555555" transform="translate(135.094578 378.795125)scale(0.14 -0.14)">
     <defs>
      <path id="Montserrat-Regular-25" d="M 1280 2080 
C 1875 2080 2291 2560 2291 3296 
C 2291 4032 1875 4512 1280 4512 
C 678 4512 269 4026 269 3296 
C 269 2566 678 2080 1280 2080 
z
M 934 0 
L 1312 0 
L 4371 4480 
L 3994 4480 
L 934 0 
z
M 1280 2368 
C 858 2368 589 2720 589 3296 
C 589 3872 858 4224 1280 4224 
C 1696 4224 1971 3878 1971 3296 
C 1971 2714 1696 2368 1280 2368 
z
M 4026 -32 
C 4627 -32 5037 454 5037 1184 
C 5037 1914 4627 2400 4026 2400 
C 3430 2400 3014 1914 3014 1184 
C 3014 454 3430 -32 4026 -32 
z
M 4026 256 
C 3610 256 3334 602 3334 1184 
C 3334 1766 3610 2112 4026 2112 
C 4448 2112 4717 1760 4717 1184 
C 4717 608 4448 256 4026 256 
z
" transform="scale(0.015625)"/>
     </defs>
     <use xlink:href="#Montserrat-Regular-30"/>
     <use xlink:href="#Montserrat-Regular-25" x="66.199997"/>
     <use xlink:href="#Montserrat-Regular-20" x="149.099991"/>
     <use xlink:href="#Montserrat-Regular-28" x="175.299988"/>
     <use xlink:href="#Montserrat-Regular-30" x="208.199982"/>
     <use xlink:href="#Montserrat-Regular-29" x="274.399979"/>
    </g>
   </g>
   <g id="text_16">
    <!-- 7% (8) -->
    <g style="fill: #555555" transform="translate(258.197778 334.076125)scale(0.14 -0.14)">
     <defs>
      <path id="Montserrat-Regular-37" d="M 205 4480 
L 205 3232 
L 659 3232 
L 659 4070 
L 2963 4070 
L 1120 0 
L 1619 0 
L 3494 4154 
L 3494 4480 
L 205 4480 
z
" transform="scale(0.015625)"/>
      <path id="Montserrat-Regular-38" d="M 2899 2349 
C 3360 2528 3616 2867 3616 3334 
C 3616 4064 2982 4518 2035 4518 
C 1088 4518 467 4064 467 3334 
C 467 2867 717 2528 1171 2349 
C 614 2163 307 1786 307 1248 
C 307 454 960 -38 2035 -38 
C 3104 -38 3776 454 3776 1248 
C 3776 1779 3462 2163 2899 2349 
z
M 928 3322 
C 928 3821 1357 4128 2035 4128 
C 2707 4128 3149 3821 3149 3315 
C 3149 2829 2733 2515 2035 2515 
C 1338 2515 928 2829 928 3322 
z
M 2035 352 
C 1242 352 774 698 774 1254 
C 774 1805 1242 2150 2035 2150 
C 2829 2150 3302 1805 3302 1254 
C 3302 698 2829 352 2035 352 
z
" transform="scale(0.015625)"/>
     </defs>
     <use xlink:href="#Montserrat-Regular-37"/>
     <use xlink:href="#Montserrat-Regular-25" x="58.899994"/>
     <use xlink:href="#Montserrat-Regular-20" x="141.799988"/>
     <use xlink:href="#Montserrat-Regular-28" x="167.999985"/>
     <use xlink:href="#Montserrat-Regular-38" x="200.899979"/>
     <use xlink:href="#Montserrat-Regular-29" x="264.699966"/>
    </g>
   </g>
   <g id="text_17">
    <!-- 30% (34) -->
    <g style="fill: #555555" transform="translate(372.053322 188.739375)scale(0.14 -0.14)">
     <use xlink:href="#Montserrat-Regular-33"/>
     <use xlink:href="#Montserrat-Regular-30" x="56.399994"/>
     <use xlink:href="#Montserrat-Regular-25" x="122.599991"/>
     <use xlink:href="#Montserrat-Regular-20" x="205.499985"/>
     <use xlink:href="#Montserrat-Regular-28" x="231.699982"/>
     <use xlink:href="#Montserrat-Regular-33" x="264.599976"/>
     <use xlink:href="#Montserrat-Regular-34" x="320.999969"/>
     <use xlink:href="#Montserrat-Regular-29" x="387.09996"/>
    </g>
   </g>
   <g id="text_18">
    <!-- 56% (64) -->
    <g style="fill: #555555" transform="translate(494.519959 21.043125)scale(0.14 -0.14)">
     <use xlink:href="#Montserrat-Regular-35"/>
     <use xlink:href="#Montserrat-Regular-36" x="56.599991"/>
     <use xlink:href="#Montserrat-Regular-25" x="117.499985"/>
     <use xlink:href="#Montserrat-Regular-20" x="200.399979"/>
     <use xlink:href="#Montserrat-Regular-28" x="226.599976"/>
     <use xlink:href="#Montserrat-Regular-36" x="259.499969"/>
     <use xlink:href="#Montserrat-Regular-34" x="320.399963"/>
     <use xlink:href="#Montserrat-Regular-29" x="386.499954"/>
    </g>
   </g>
   <g id="text_19">
    <!-- 5% (6) -->
    <g style="fill: #555555" transform="translate(625.833941 345.255875)scale(0.14 -0.14)">
     <use xlink:href="#Montserrat-Regular-35"/>
     <use xlink:href="#Montserrat-Regular-25" x="56.599991"/>
     <use xlink:href="#Montserrat-Regular-20" x="139.499985"/>
     <use xlink:href="#Montserrat-Regular-28" x="165.699982"/>
     <use xlink:href="#Montserrat-Regular-36" x="198.599976"/>
     <use xlink:href="#Montserrat-Regular-29" x="259.499969"/>
    </g>
   </g>
   <g id="text_20">
    <!-- 2% (2) -->
    <g style="fill: #555555" transform="translate(748.531359 367.615375)scale(0.14 -0.14)">
     <use xlink:href="#Montserrat-Regular-32"/>
     <use xlink:href="#Montserrat-Regular-25" x="56.799988"/>
     <use xlink:href="#Montserrat-Regular-20" x="139.699982"/>
     <use xlink:href="#Montserrat-Regular-28" x="165.899979"/>
     <use xlink:href="#Montserrat-Regular-32" x="198.799973"/>
     <use xlink:href="#Montserrat-Regular-29" x="255.59996"/>
    </g>
   </g>
   <g id="line2d_21">
    <path d="M 72.135 381.512 
L 853.2 381.512 
" style="fill: none; stroke: #555555; stroke-width: 3; stroke-linecap: square"/>
   </g>
  </g>
 </g>
 <defs>
  <clipPath id="p12a2cfc25b">
   <rect x="72.135" y="23.76" width="781.065" height="357.752"/>
  </clipPath>
 </defs>
</svg>
