<?xml version="1.0" encoding="utf-8" standalone="no"?>
<!DOCTYPE svg PUBLIC "-//W3C//DTD SVG 1.1//EN"
  "http://www.w3.org/Graphics/SVG/1.1/DTD/svg11.dtd">
<svg xmlns:xlink="http://www.w3.org/1999/xlink" width="864pt" height="432pt" viewBox="0 0 864 432" xmlns="http://www.w3.org/2000/svg" version="1.1">
 <metadata>
  <rdf:RDF xmlns:dc="http://purl.org/dc/elements/1.1/" xmlns:cc="http://creativecommons.org/ns#" xmlns:rdf="http://www.w3.org/1999/02/22-rdf-syntax-ns#">
   <cc:Work>
    <dc:type rdf:resource="http://purl.org/dc/dcmitype/StillImage"/>
    <dc:date>2023-02-02T14:20:35.677499</dc:date>
    <dc:format>image/svg+xml</dc:format>
    <dc:creator>
     <cc:Agent>
      <dc:title>Matplotlib v3.5.3, https://matplotlib.org/</dc:title>
     </cc:Agent>
    </dc:creator>
   </cc:Work>
  </rdf:RDF>
 </metadata>
 <defs>
  <style type="text/css">*{stroke-linejoin: round; stroke-linecap: butt}</style>
 </defs>
 <g id="figure_1">
  <g id="patch_1">
   <path d="M 0 432 
L 864 432 
L 864 0 
L 0 0 
L 0 432 
z
" style="fill: none"/>
  </g>
  <g id="axes_1">
   <g id="patch_2">
    <path d="M 70.695 399.08 
L 853.2 399.08 
L 853.2 23.76 
L 70.695 23.76 
L 70.695 399.08 
z
" style="fill: none"/>
   </g>
   <g id="matplotlib.axis_1">
    <g id="xtick_1">
     <g id="line2d_1">
      <defs>
       <path id="m10918912a9" d="M 0 0 
L 0 3.5 
" style="stroke: #000000; stroke-width: 0.8"/>
      </defs>
      <g>
       <use xlink:href="#m10918912a9" x="182.481429" y="399.08" style="stroke: #000000; stroke-width: 0.8"/>
      </g>
     </g>
     <g id="text_1">
      <!-- Female -->
      <g style="fill: #555555" transform="translate(152.392679 417.9525)scale(0.16 -0.16)">
       <defs>
        <path id="Montserrat-Regular-46" d="M 3802 4070 
L 3802 4480 
L 730 4480 
L 730 0 
L 1203 0 
L 1203 1901 
L 3520 1901 
L 3520 2310 
L 1203 2310 
L 1203 4070 
L 3802 4070 
z
" transform="scale(0.015625)"/>
        <path id="Montserrat-Regular-65" d="M 3571 1683 
C 3571 2694 2886 3392 1939 3392 
C 992 3392 294 2682 294 1683 
C 294 685 1011 -32 2061 -32 
C 2592 -32 3059 160 3360 518 
L 3104 813 
C 2848 518 2483 371 2074 371 
C 1338 371 800 838 749 1542 
L 3565 1542 
C 3565 1594 3571 1645 3571 1683 
z
M 1939 3002 
C 2598 3002 3078 2541 3136 1882 
L 749 1882 
C 806 2541 1286 3002 1939 3002 
z
" transform="scale(0.015625)"/>
        <path id="Montserrat-Regular-6d" d="M 4832 3392 
C 4224 3392 3744 3117 3501 2682 
C 3296 3155 2861 3392 2304 3392 
C 1741 3392 1306 3155 1069 2752 
L 1069 3366 
L 634 3366 
L 634 0 
L 1088 0 
L 1088 1766 
C 1088 2534 1530 2982 2214 2982 
C 2829 2982 3187 2618 3187 1907 
L 3187 0 
L 3642 0 
L 3642 1766 
C 3642 2534 4077 2982 4768 2982 
C 5376 2982 5734 2618 5734 1907 
L 5734 0 
L 6189 0 
L 6189 1952 
C 6189 2918 5651 3392 4832 3392 
z
" transform="scale(0.015625)"/>
        <path id="Montserrat-Regular-61" d="M 1811 3392 
C 1280 3392 781 3226 442 2938 
L 646 2598 
C 922 2842 1331 2995 1766 2995 
C 2394 2995 2720 2682 2720 2106 
L 2720 1901 
L 1651 1901 
C 685 1901 352 1466 352 947 
C 352 365 819 -32 1581 -32 
C 2138 -32 2534 179 2739 525 
L 2739 0 
L 3174 0 
L 3174 2086 
C 3174 2957 2682 3392 1811 3392 
z
M 1651 326 
C 1114 326 800 570 800 960 
C 800 1306 1011 1562 1664 1562 
L 2720 1562 
L 2720 1011 
C 2541 570 2163 326 1651 326 
z
" transform="scale(0.015625)"/>
        <path id="Montserrat-Regular-6c" d="M 634 0 
L 1088 0 
L 1088 4749 
L 634 4749 
L 634 0 
z
" transform="scale(0.015625)"/>
       </defs>
       <use xlink:href="#Montserrat-Regular-46"/>
       <use xlink:href="#Montserrat-Regular-65" x="63.299988"/>
       <use xlink:href="#Montserrat-Regular-6d" x="123.699982"/>
       <use xlink:href="#Montserrat-Regular-61" x="229.799973"/>
       <use xlink:href="#Montserrat-Regular-6c" x="288.799957"/>
       <use xlink:href="#Montserrat-Regular-65" x="315.699951"/>
      </g>
     </g>
    </g>
    <g id="xtick_2">
     <g id="line2d_2">
      <g>
       <use xlink:href="#m10918912a9" x="406.054286" y="399.08" style="stroke: #000000; stroke-width: 0.8"/>
      </g>
     </g>
     <g id="text_2">
      <!-- Male -->
      <g style="fill: #555555" transform="translate(386.709286 417.9525)scale(0.16 -0.16)">
       <defs>
        <path id="Montserrat-Regular-4d" d="M 4992 4480 
L 3066 1158 
L 1120 4480 
L 730 4480 
L 730 0 
L 1184 0 
L 1184 3565 
L 2944 570 
L 3168 570 
L 4928 3584 
L 4928 0 
L 5382 0 
L 5382 4480 
L 4992 4480 
z
" transform="scale(0.015625)"/>
       </defs>
       <use xlink:href="#Montserrat-Regular-4d"/>
       <use xlink:href="#Montserrat-Regular-61" x="95.499985"/>
       <use xlink:href="#Montserrat-Regular-6c" x="154.499969"/>
       <use xlink:href="#Montserrat-Regular-65" x="181.399963"/>
      </g>
     </g>
    </g>
    <g id="xtick_3">
     <g id="line2d_3">
      <g>
       <use xlink:href="#m10918912a9" x="629.627143" y="399.08" style="stroke: #000000; stroke-width: 0.8"/>
      </g>
     </g>
     <g id="text_3">
      <!-- Non-binary -->
      <g style="fill: #555555" transform="translate(584.378393 417.9525)scale(0.16 -0.16)">
       <defs>
        <path id="Montserrat-Regular-4e" d="M 4006 4480 
L 4006 845 
L 1120 4480 
L 730 4480 
L 730 0 
L 1203 0 
L 1203 3635 
L 4083 0 
L 4474 0 
L 4474 4480 
L 4006 4480 
z
" transform="scale(0.015625)"/>
        <path id="Montserrat-Regular-6f" d="M 2010 -32 
C 2995 -32 3718 685 3718 1683 
C 3718 2682 2995 3392 2010 3392 
C 1024 3392 294 2682 294 1683 
C 294 685 1024 -32 2010 -32 
z
M 2010 371 
C 1293 371 755 896 755 1683 
C 755 2470 1293 2995 2010 2995 
C 2726 2995 3258 2470 3258 1683 
C 3258 896 2726 371 2010 371 
z
" transform="scale(0.015625)"/>
        <path id="Montserrat-Regular-6e" d="M 2349 3392 
C 1766 3392 1312 3155 1069 2746 
L 1069 3366 
L 634 3366 
L 634 0 
L 1088 0 
L 1088 1766 
C 1088 2534 1542 2982 2266 2982 
C 2906 2982 3277 2618 3277 1907 
L 3277 0 
L 3731 0 
L 3731 1952 
C 3731 2918 3168 3392 2349 3392 
z
" transform="scale(0.015625)"/>
        <path id="Montserrat-Regular-2d" d="M 384 1536 
L 2061 1536 
L 2061 1933 
L 384 1933 
L 384 1536 
z
" transform="scale(0.015625)"/>
        <path id="Montserrat-Regular-62" d="M 2368 3392 
C 1830 3392 1370 3162 1088 2726 
L 1088 4749 
L 634 4749 
L 634 0 
L 1069 0 
L 1069 666 
C 1344 211 1811 -32 2368 -32 
C 3328 -32 4045 666 4045 1683 
C 4045 2701 3328 3392 2368 3392 
z
M 2336 371 
C 1619 371 1082 896 1082 1683 
C 1082 2470 1619 2995 2336 2995 
C 3046 2995 3590 2470 3590 1683 
C 3590 896 3046 371 2336 371 
z
" transform="scale(0.015625)"/>
        <path id="Montserrat-Regular-69" d="M 864 4102 
C 1056 4102 1197 4250 1197 4435 
C 1197 4608 1050 4749 864 4749 
C 678 4749 531 4602 531 4429 
C 531 4250 678 4102 864 4102 
z
M 634 0 
L 1088 0 
L 1088 3366 
L 634 3366 
L 634 0 
z
" transform="scale(0.015625)"/>
        <path id="Montserrat-Regular-72" d="M 1069 2707 
L 1069 3366 
L 634 3366 
L 634 0 
L 1088 0 
L 1088 1715 
C 1088 2509 1517 2957 2221 2957 
C 2253 2957 2291 2950 2330 2950 
L 2330 3392 
C 1709 3392 1280 3155 1069 2707 
z
" transform="scale(0.015625)"/>
        <path id="Montserrat-Regular-79" d="M 3014 3366 
L 1747 506 
L 480 3366 
L 6 3366 
L 1510 6 
L 1363 -320 
C 1171 -742 966 -883 666 -883 
C 422 -883 218 -794 51 -627 
L -160 -966 
C 45 -1171 346 -1274 659 -1274 
C 1139 -1274 1498 -1062 1779 -403 
L 3462 3366 
L 3014 3366 
z
" transform="scale(0.015625)"/>
       </defs>
       <use xlink:href="#Montserrat-Regular-4e"/>
       <use xlink:href="#Montserrat-Regular-6f" x="81.299988"/>
       <use xlink:href="#Montserrat-Regular-6e" x="143.999985"/>
       <use xlink:href="#Montserrat-Regular-2d" x="211.699966"/>
       <use xlink:href="#Montserrat-Regular-62" x="249.899963"/>
       <use xlink:href="#Montserrat-Regular-69" x="317.699951"/>
       <use xlink:href="#Montserrat-Regular-6e" x="344.599945"/>
       <use xlink:href="#Montserrat-Regular-61" x="412.299927"/>
       <use xlink:href="#Montserrat-Regular-72" x="471.299911"/>
       <use xlink:href="#Montserrat-Regular-79" x="511.399902"/>
      </g>
     </g>
    </g>
   </g>
   <g id="matplotlib.axis_2">
    <g id="ytick_1">
     <g id="line2d_4">
      <path d="M 70.695 399.08 
L 853.2 399.08 
" clip-path="url(#p6ff65b7239)" style="fill: none; stroke-dasharray: 1.85,0.8; stroke-dashoffset: 0; stroke: #b7b7b7; stroke-width: 0.5"/>
     </g>
     <g id="line2d_5">
      <defs>
       <path id="mdf8815466c" d="M 0 0 
L -3.5 0 
" style="stroke: #b7b7b7; stroke-width: 0.8"/>
      </defs>
      <g>
       <use xlink:href="#mdf8815466c" x="70.695" y="399.08" style="fill: #b7b7b7; stroke: #b7b7b7; stroke-width: 0.8"/>
      </g>
     </g>
     <g id="text_4">
      <!-- 0 -->
      <g style="fill: #b7b7b7" transform="translate(53.1025 405.01625)scale(0.16 -0.16)">
       <defs>
        <path id="Montserrat-Regular-30" d="M 2118 -38 
C 3155 -38 3910 813 3910 2240 
C 3910 3667 3155 4518 2118 4518 
C 1082 4518 333 3667 333 2240 
C 333 813 1082 -38 2118 -38 
z
M 2118 384 
C 1338 384 800 1043 800 2240 
C 800 3437 1338 4096 2118 4096 
C 2899 4096 3437 3437 3437 2240 
C 3437 1043 2899 384 2118 384 
z
" transform="scale(0.015625)"/>
       </defs>
       <use xlink:href="#Montserrat-Regular-30"/>
      </g>
     </g>
    </g>
    <g id="ytick_2">
     <g id="line2d_6">
      <path d="M 70.695 346.952222 
L 853.2 346.952222 
" clip-path="url(#p6ff65b7239)" style="fill: none; stroke-dasharray: 1.85,0.8; stroke-dashoffset: 0; stroke: #b7b7b7; stroke-width: 0.5"/>
     </g>
     <g id="line2d_7">
      <g>
       <use xlink:href="#mdf8815466c" x="70.695" y="346.952222" style="fill: #b7b7b7; stroke: #b7b7b7; stroke-width: 0.8"/>
      </g>
     </g>
     <g id="text_5">
      <!-- 5 -->
      <g style="fill: #b7b7b7" transform="translate(54.64 352.888472)scale(0.16 -0.16)">
       <defs>
        <path id="Montserrat-Regular-35" d="M 1510 2643 
L 934 2643 
L 1088 4070 
L 3136 4070 
L 3136 4480 
L 685 4480 
L 454 2234 
L 1408 2234 
C 2547 2234 2906 1875 2906 1299 
C 2906 755 2502 384 1741 384 
C 1165 384 653 602 365 902 
L 141 538 
C 486 186 1101 -38 1747 -38 
C 2842 -38 3373 557 3373 1318 
C 3373 2112 2861 2643 1510 2643 
z
" transform="scale(0.015625)"/>
       </defs>
       <use xlink:href="#Montserrat-Regular-35"/>
      </g>
     </g>
    </g>
    <g id="ytick_3">
     <g id="line2d_8">
      <path d="M 70.695 294.824444 
L 853.2 294.824444 
" clip-path="url(#p6ff65b7239)" style="fill: none; stroke-dasharray: 1.85,0.8; stroke-dashoffset: 0; stroke: #b7b7b7; stroke-width: 0.5"/>
     </g>
     <g id="line2d_9">
      <g>
       <use xlink:href="#mdf8815466c" x="70.695" y="294.824444" style="fill: #b7b7b7; stroke: #b7b7b7; stroke-width: 0.8"/>
      </g>
     </g>
     <g id="text_6">
      <!-- 10 -->
      <g style="fill: #b7b7b7" transform="translate(47.3275 300.760694)scale(0.16 -0.16)">
       <defs>
        <path id="Montserrat-Regular-31" d="M 58 4480 
L 58 4070 
L 1114 4070 
L 1114 0 
L 1574 0 
L 1574 4480 
L 58 4480 
z
" transform="scale(0.015625)"/>
       </defs>
       <use xlink:href="#Montserrat-Regular-31"/>
       <use xlink:href="#Montserrat-Regular-30" x="36.099991"/>
      </g>
     </g>
    </g>
    <g id="ytick_4">
     <g id="line2d_10">
      <path d="M 70.695 242.696667 
L 853.2 242.696667 
" clip-path="url(#p6ff65b7239)" style="fill: none; stroke-dasharray: 1.85,0.8; stroke-dashoffset: 0; stroke: #b7b7b7; stroke-width: 0.5"/>
     </g>
     <g id="line2d_11">
      <g>
       <use xlink:href="#mdf8815466c" x="70.695" y="242.696667" style="fill: #b7b7b7; stroke: #b7b7b7; stroke-width: 0.8"/>
      </g>
     </g>
     <g id="text_7">
      <!-- 15 -->
      <g style="fill: #b7b7b7" transform="translate(48.865 248.632917)scale(0.16 -0.16)">
       <use xlink:href="#Montserrat-Regular-31"/>
       <use xlink:href="#Montserrat-Regular-35" x="36.099991"/>
      </g>
     </g>
    </g>
    <g id="ytick_5">
     <g id="line2d_12">
      <path d="M 70.695 190.568889 
L 853.2 190.568889 
" clip-path="url(#p6ff65b7239)" style="fill: none; stroke-dasharray: 1.85,0.8; stroke-dashoffset: 0; stroke: #b7b7b7; stroke-width: 0.5"/>
     </g>
     <g id="line2d_13">
      <g>
       <use xlink:href="#mdf8815466c" x="70.695" y="190.568889" style="fill: #b7b7b7; stroke: #b7b7b7; stroke-width: 0.8"/>
      </g>
     </g>
     <g id="text_8">
      <!-- 20 -->
      <g style="fill: #b7b7b7" transform="translate(44.015 196.505139)scale(0.16 -0.16)">
       <defs>
        <path id="Montserrat-Regular-32" d="M 928 410 
L 2451 1907 
C 3053 2496 3187 2880 3187 3309 
C 3187 4058 2611 4518 1702 4518 
C 1018 4518 461 4288 115 3878 
L 442 3597 
C 736 3936 1139 4096 1664 4096 
C 2349 4096 2714 3776 2714 3258 
C 2714 2950 2618 2650 2112 2150 
L 250 326 
L 250 0 
L 3392 0 
L 3392 410 
L 928 410 
z
" transform="scale(0.015625)"/>
       </defs>
       <use xlink:href="#Montserrat-Regular-32"/>
       <use xlink:href="#Montserrat-Regular-30" x="56.799988"/>
      </g>
     </g>
    </g>
    <g id="ytick_6">
     <g id="line2d_14">
      <path d="M 70.695 138.441111 
L 853.2 138.441111 
" clip-path="url(#p6ff65b7239)" style="fill: none; stroke-dasharray: 1.85,0.8; stroke-dashoffset: 0; stroke: #b7b7b7; stroke-width: 0.5"/>
     </g>
     <g id="line2d_15">
      <g>
       <use xlink:href="#mdf8815466c" x="70.695" y="138.441111" style="fill: #b7b7b7; stroke: #b7b7b7; stroke-width: 0.8"/>
      </g>
     </g>
     <g id="text_9">
      <!-- 25 -->
      <g style="fill: #b7b7b7" transform="translate(45.5525 144.377361)scale(0.16 -0.16)">
       <use xlink:href="#Montserrat-Regular-32"/>
       <use xlink:href="#Montserrat-Regular-35" x="56.799988"/>
      </g>
     </g>
    </g>
    <g id="ytick_7">
     <g id="line2d_16">
      <path d="M 70.695 86.313333 
L 853.2 86.313333 
" clip-path="url(#p6ff65b7239)" style="fill: none; stroke-dasharray: 1.85,0.8; stroke-dashoffset: 0; stroke: #b7b7b7; stroke-width: 0.5"/>
     </g>
     <g id="line2d_17">
      <g>
       <use xlink:href="#mdf8815466c" x="70.695" y="86.313333" style="fill: #b7b7b7; stroke: #b7b7b7; stroke-width: 0.8"/>
      </g>
     </g>
     <g id="text_10">
      <!-- 30 -->
      <g style="fill: #b7b7b7" transform="translate(44.0775 92.249583)scale(0.16 -0.16)">
       <defs>
        <path id="Montserrat-Regular-33" d="M 1856 2560 
L 3123 4154 
L 3123 4480 
L 243 4480 
L 243 4070 
L 2534 4070 
L 1293 2515 
L 1293 2176 
L 1613 2176 
C 2445 2176 2822 1824 2822 1286 
C 2822 730 2413 384 1670 384 
C 1088 384 570 602 282 902 
L 58 538 
C 403 186 1024 -38 1670 -38 
C 2752 -38 3296 538 3296 1286 
C 3296 2003 2816 2509 1856 2560 
z
" transform="scale(0.015625)"/>
       </defs>
       <use xlink:href="#Montserrat-Regular-33"/>
       <use xlink:href="#Montserrat-Regular-30" x="56.399994"/>
      </g>
     </g>
    </g>
    <g id="ytick_8">
     <g id="line2d_18">
      <path d="M 70.695 34.185556 
L 853.2 34.185556 
" clip-path="url(#p6ff65b7239)" style="fill: none; stroke-dasharray: 1.85,0.8; stroke-dashoffset: 0; stroke: #b7b7b7; stroke-width: 0.5"/>
     </g>
     <g id="line2d_19">
      <g>
       <use xlink:href="#mdf8815466c" x="70.695" y="34.185556" style="fill: #b7b7b7; stroke: #b7b7b7; stroke-width: 0.8"/>
      </g>
     </g>
     <g id="text_11">
      <!-- 35 -->
      <g style="fill: #b7b7b7" transform="translate(45.615 40.121806)scale(0.16 -0.16)">
       <use xlink:href="#Montserrat-Regular-33"/>
       <use xlink:href="#Montserrat-Regular-35" x="56.399994"/>
      </g>
     </g>
    </g>
    <g id="text_12">
     <!-- [#] -->
     <g style="fill: #b7b7b7" transform="translate(10.69625 207.53875)scale(0.2 -0.2)">
      <defs>
       <path id="Montserrat-Regular-5b" d="M 730 -1242 
L 1901 -1242 
L 1901 -864 
L 1184 -864 
L 1184 4371 
L 1901 4371 
L 1901 4749 
L 730 4749 
L 730 -1242 
z
" transform="scale(0.015625)"/>
       <path id="Montserrat-Regular-23" d="M 4262 2912 
L 4262 3264 
L 3360 3264 
L 3507 4480 
L 3162 4480 
L 3014 3264 
L 1696 3264 
L 1850 4480 
L 1498 4480 
L 1350 3264 
L 390 3264 
L 390 2912 
L 1306 2912 
L 1139 1568 
L 186 1568 
L 186 1216 
L 1094 1216 
L 947 0 
L 1293 0 
L 1446 1216 
L 2758 1216 
L 2611 0 
L 2957 0 
L 3104 1216 
L 4058 1216 
L 4058 1568 
L 3149 1568 
L 3315 2912 
L 4262 2912 
z
M 2803 1568 
L 1485 1568 
L 1658 2912 
L 2970 2912 
L 2803 1568 
z
" transform="scale(0.015625)"/>
       <path id="Montserrat-Regular-5d" d="M 1306 -1242 
L 1306 4749 
L 134 4749 
L 134 4371 
L 851 4371 
L 851 -864 
L 134 -864 
L 134 -1242 
L 1306 -1242 
z
" transform="scale(0.015625)"/>
      </defs>
      <use xlink:href="#Montserrat-Regular-5b"/>
      <use xlink:href="#Montserrat-Regular-23" x="31.799988"/>
      <use xlink:href="#Montserrat-Regular-5d" x="101.399979"/>
     </g>
    </g>
   </g>
   <g id="patch_3">
    <path d="M 137.766857 399.08 
L 227.196 399.08 
L 227.196 273.973333 
L 137.766857 273.973333 
z
" clip-path="url(#p6ff65b7239)" style="fill: #b1e5f4"/>
   </g>
   <g id="patch_4">
    <path d="M 361.339714 399.08 
L 450.768857 399.08 
L 450.768857 23.76 
L 361.339714 23.76 
z
" clip-path="url(#p6ff65b7239)" style="fill: #b1e5f4"/>
   </g>
   <g id="patch_5">
    <path d="M 584.912571 399.08 
L 674.341714 399.08 
L 674.341714 399.08 
L 584.912571 399.08 
z
" clip-path="url(#p6ff65b7239)" style="fill: #b1e5f4"/>
   </g>
   <g id="text_13">
    <!-- 25% (12) -->
    <g style="fill: #555555" transform="translate(155.79721 271.256458)scale(0.14 -0.14)">
     <defs>
      <path id="Montserrat-Regular-25" d="M 1280 2080 
C 1875 2080 2291 2560 2291 3296 
C 2291 4032 1875 4512 1280 4512 
C 678 4512 269 4026 269 3296 
C 269 2566 678 2080 1280 2080 
z
M 934 0 
L 1312 0 
L 4371 4480 
L 3994 4480 
L 934 0 
z
M 1280 2368 
C 858 2368 589 2720 589 3296 
C 589 3872 858 4224 1280 4224 
C 1696 4224 1971 3878 1971 3296 
C 1971 2714 1696 2368 1280 2368 
z
M 4026 -32 
C 4627 -32 5037 454 5037 1184 
C 5037 1914 4627 2400 4026 2400 
C 3430 2400 3014 1914 3014 1184 
C 3014 454 3430 -32 4026 -32 
z
M 4026 256 
C 3610 256 3334 602 3334 1184 
C 3334 1766 3610 2112 4026 2112 
C 4448 2112 4717 1760 4717 1184 
C 4717 608 4448 256 4026 256 
z
" transform="scale(0.015625)"/>
      <path id="Montserrat-Regular-20" transform="scale(0.015625)"/>
      <path id="Montserrat-Regular-28" d="M 1408 -1242 
L 1843 -1242 
C 1338 -365 1114 614 1114 1754 
C 1114 2893 1338 3872 1843 4749 
L 1408 4749 
C 934 3987 666 2931 666 1754 
C 666 576 934 -467 1408 -1242 
z
" transform="scale(0.015625)"/>
      <path id="Montserrat-Regular-29" d="M 691 -1242 
C 1171 -467 1440 576 1440 1754 
C 1440 2931 1171 3987 691 4749 
L 256 4749 
C 768 3872 992 2893 992 1754 
C 992 614 768 -365 256 -1242 
L 691 -1242 
z
" transform="scale(0.015625)"/>
     </defs>
     <use xlink:href="#Montserrat-Regular-32"/>
     <use xlink:href="#Montserrat-Regular-35" x="56.799988"/>
     <use xlink:href="#Montserrat-Regular-25" x="113.399979"/>
     <use xlink:href="#Montserrat-Regular-20" x="196.299973"/>
     <use xlink:href="#Montserrat-Regular-28" x="222.499969"/>
     <use xlink:href="#Montserrat-Regular-31" x="255.399963"/>
     <use xlink:href="#Montserrat-Regular-32" x="291.499954"/>
     <use xlink:href="#Montserrat-Regular-29" x="348.299942"/>
    </g>
   </g>
   <g id="text_14">
    <!-- 75% (36) -->
    <g style="fill: #555555" transform="translate(377.512879 21.043125)scale(0.14 -0.14)">
     <defs>
      <path id="Montserrat-Regular-37" d="M 205 4480 
L 205 3232 
L 659 3232 
L 659 4070 
L 2963 4070 
L 1120 0 
L 1619 0 
L 3494 4154 
L 3494 4480 
L 205 4480 
z
" transform="scale(0.015625)"/>
      <path id="Montserrat-Regular-36" d="M 2189 2682 
C 1568 2682 1043 2406 819 1914 
C 806 2048 800 2176 800 2278 
C 800 3494 1421 4115 2387 4115 
C 2720 4115 3027 4058 3258 3904 
L 3443 4275 
C 3162 4448 2784 4518 2381 4518 
C 1165 4518 333 3725 333 2202 
C 333 787 979 -38 2170 -38 
C 3040 -38 3699 499 3699 1338 
C 3699 2157 3078 2682 2189 2682 
z
M 2150 352 
C 1376 352 966 819 966 1312 
C 966 1869 1434 2291 2118 2291 
C 2810 2291 3245 1914 3245 1325 
C 3245 730 2797 352 2150 352 
z
" transform="scale(0.015625)"/>
     </defs>
     <use xlink:href="#Montserrat-Regular-37"/>
     <use xlink:href="#Montserrat-Regular-35" x="58.899994"/>
     <use xlink:href="#Montserrat-Regular-25" x="115.499985"/>
     <use xlink:href="#Montserrat-Regular-20" x="198.399979"/>
     <use xlink:href="#Montserrat-Regular-28" x="224.599976"/>
     <use xlink:href="#Montserrat-Regular-33" x="257.499969"/>
     <use xlink:href="#Montserrat-Regular-36" x="313.899963"/>
     <use xlink:href="#Montserrat-Regular-29" x="374.799957"/>
    </g>
   </g>
   <g id="text_15">
    <!-- 0% (0) -->
    <g style="fill: #555555" transform="translate(608.114174 396.363125)scale(0.14 -0.14)">
     <use xlink:href="#Montserrat-Regular-30"/>
     <use xlink:href="#Montserrat-Regular-25" x="66.199997"/>
     <use xlink:href="#Montserrat-Regular-20" x="149.099991"/>
     <use xlink:href="#Montserrat-Regular-28" x="175.299988"/>
     <use xlink:href="#Montserrat-Regular-30" x="208.199982"/>
     <use xlink:href="#Montserrat-Regular-29" x="274.399979"/>
    </g>
   </g>
   <g id="line2d_20">
    <path d="M 70.695 399.08 
L 853.2 399.08 
" style="fill: none; stroke: #555555; stroke-width: 3; stroke-linecap: square"/>
   </g>
  </g>
 </g>
 <defs>
  <clipPath id="p6ff65b7239">
   <rect x="70.695" y="23.76" width="782.505" height="375.32"/>
  </clipPath>
 </defs>
</svg>
